G04 #@! TF.GenerationSoftware,KiCad,Pcbnew,(5.1.5)-3*
G04 #@! TF.CreationDate,2021-01-14T16:52:46-05:00*
G04 #@! TF.ProjectId,MOSFET_test_board,4d4f5346-4554-45f7-9465-73745f626f61,rev?*
G04 #@! TF.SameCoordinates,Original*
G04 #@! TF.FileFunction,Legend,Top*
G04 #@! TF.FilePolarity,Positive*
%FSLAX46Y46*%
G04 Gerber Fmt 4.6, Leading zero omitted, Abs format (unit mm)*
G04 Created by KiCad (PCBNEW (5.1.5)-3) date 2021-01-14 16:52:46*
%MOMM*%
%LPD*%
G04 APERTURE LIST*
%ADD10C,0.110000*%
%ADD11C,0.120000*%
%ADD12C,0.100000*%
%ADD13C,0.250000*%
G04 APERTURE END LIST*
D10*
X87678571Y-63125000D02*
X87607142Y-63089285D01*
X87500000Y-63089285D01*
X87392857Y-63125000D01*
X87321428Y-63196428D01*
X87285714Y-63267857D01*
X87250000Y-63410714D01*
X87250000Y-63517857D01*
X87285714Y-63660714D01*
X87321428Y-63732142D01*
X87392857Y-63803571D01*
X87500000Y-63839285D01*
X87571428Y-63839285D01*
X87678571Y-63803571D01*
X87714285Y-63767857D01*
X87714285Y-63517857D01*
X87571428Y-63517857D01*
X88035714Y-63839285D02*
X88035714Y-63089285D01*
X88464285Y-63839285D01*
X88464285Y-63089285D01*
X88821428Y-63839285D02*
X88821428Y-63089285D01*
X89000000Y-63089285D01*
X89107142Y-63125000D01*
X89178571Y-63196428D01*
X89214285Y-63267857D01*
X89250000Y-63410714D01*
X89250000Y-63517857D01*
X89214285Y-63660714D01*
X89178571Y-63732142D01*
X89107142Y-63803571D01*
X89000000Y-63839285D01*
X88821428Y-63839285D01*
X86678571Y-55553571D02*
X87250000Y-55553571D01*
X86964285Y-55839285D02*
X86964285Y-55267857D01*
X88000000Y-55839285D02*
X87571428Y-55839285D01*
X87785714Y-55839285D02*
X87785714Y-55089285D01*
X87714285Y-55196428D01*
X87642857Y-55267857D01*
X87571428Y-55303571D01*
X88285714Y-55160714D02*
X88321428Y-55125000D01*
X88392857Y-55089285D01*
X88571428Y-55089285D01*
X88642857Y-55125000D01*
X88678571Y-55160714D01*
X88714285Y-55232142D01*
X88714285Y-55303571D01*
X88678571Y-55410714D01*
X88250000Y-55839285D01*
X88714285Y-55839285D01*
X88928571Y-55089285D02*
X89178571Y-55839285D01*
X89428571Y-55089285D01*
X61982142Y-52875000D02*
X62339285Y-52875000D01*
X61910714Y-53089285D02*
X62160714Y-52339285D01*
X62410714Y-53089285D01*
X62803571Y-52339285D02*
X62946428Y-52339285D01*
X63017857Y-52375000D01*
X63089285Y-52446428D01*
X63125000Y-52589285D01*
X63125000Y-52839285D01*
X63089285Y-52982142D01*
X63017857Y-53053571D01*
X62946428Y-53089285D01*
X62803571Y-53089285D01*
X62732142Y-53053571D01*
X62660714Y-52982142D01*
X62625000Y-52839285D01*
X62625000Y-52589285D01*
X62660714Y-52446428D01*
X62732142Y-52375000D01*
X62803571Y-52339285D01*
X63446428Y-53089285D02*
X63446428Y-52339285D01*
X63625000Y-52339285D01*
X63732142Y-52375000D01*
X63803571Y-52446428D01*
X63839285Y-52517857D01*
X63875000Y-52660714D01*
X63875000Y-52767857D01*
X63839285Y-52910714D01*
X63803571Y-52982142D01*
X63732142Y-53053571D01*
X63625000Y-53089285D01*
X63446428Y-53089285D01*
X64517857Y-52589285D02*
X64517857Y-53089285D01*
X64339285Y-52303571D02*
X64160714Y-52839285D01*
X64625000Y-52839285D01*
X64875000Y-52410714D02*
X64910714Y-52375000D01*
X64982142Y-52339285D01*
X65160714Y-52339285D01*
X65232142Y-52375000D01*
X65267857Y-52410714D01*
X65303571Y-52482142D01*
X65303571Y-52553571D01*
X65267857Y-52660714D01*
X64839285Y-53089285D01*
X65303571Y-53089285D01*
X65946428Y-52589285D02*
X65946428Y-53089285D01*
X65767857Y-52303571D02*
X65589285Y-52839285D01*
X66053571Y-52839285D01*
X62125000Y-71125000D02*
X62482142Y-71125000D01*
X62053571Y-71339285D02*
X62303571Y-70589285D01*
X62553571Y-71339285D01*
X62946428Y-70589285D02*
X63089285Y-70589285D01*
X63160714Y-70625000D01*
X63232142Y-70696428D01*
X63267857Y-70839285D01*
X63267857Y-71089285D01*
X63232142Y-71232142D01*
X63160714Y-71303571D01*
X63089285Y-71339285D01*
X62946428Y-71339285D01*
X62875000Y-71303571D01*
X62803571Y-71232142D01*
X62767857Y-71089285D01*
X62767857Y-70839285D01*
X62803571Y-70696428D01*
X62875000Y-70625000D01*
X62946428Y-70589285D01*
X63589285Y-71339285D02*
X63589285Y-70589285D01*
X63767857Y-70589285D01*
X63875000Y-70625000D01*
X63946428Y-70696428D01*
X63982142Y-70767857D01*
X64017857Y-70910714D01*
X64017857Y-71017857D01*
X63982142Y-71160714D01*
X63946428Y-71232142D01*
X63875000Y-71303571D01*
X63767857Y-71339285D01*
X63589285Y-71339285D01*
X64303571Y-70660714D02*
X64339285Y-70625000D01*
X64410714Y-70589285D01*
X64589285Y-70589285D01*
X64660714Y-70625000D01*
X64696428Y-70660714D01*
X64732142Y-70732142D01*
X64732142Y-70803571D01*
X64696428Y-70910714D01*
X64267857Y-71339285D01*
X64732142Y-71339285D01*
X65089285Y-71339285D02*
X65232142Y-71339285D01*
X65303571Y-71303571D01*
X65339285Y-71267857D01*
X65410714Y-71160714D01*
X65446428Y-71017857D01*
X65446428Y-70732142D01*
X65410714Y-70660714D01*
X65375000Y-70625000D01*
X65303571Y-70589285D01*
X65160714Y-70589285D01*
X65089285Y-70625000D01*
X65053571Y-70660714D01*
X65017857Y-70732142D01*
X65017857Y-70910714D01*
X65053571Y-70982142D01*
X65089285Y-71017857D01*
X65160714Y-71053571D01*
X65303571Y-71053571D01*
X65375000Y-71017857D01*
X65410714Y-70982142D01*
X65446428Y-70910714D01*
X65732142Y-70660714D02*
X65767857Y-70625000D01*
X65839285Y-70589285D01*
X66017857Y-70589285D01*
X66089285Y-70625000D01*
X66125000Y-70660714D01*
X66160714Y-70732142D01*
X66160714Y-70803571D01*
X66125000Y-70910714D01*
X65696428Y-71339285D01*
X66160714Y-71339285D01*
X66446428Y-70660714D02*
X66482142Y-70625000D01*
X66553571Y-70589285D01*
X66732142Y-70589285D01*
X66803571Y-70625000D01*
X66839285Y-70660714D01*
X66875000Y-70732142D01*
X66875000Y-70803571D01*
X66839285Y-70910714D01*
X66410714Y-71339285D01*
X66875000Y-71339285D01*
X58089285Y-70946428D02*
X57839285Y-70946428D01*
X57839285Y-71339285D02*
X57839285Y-70589285D01*
X58196428Y-70589285D01*
X58482142Y-70946428D02*
X58732142Y-70946428D01*
X58839285Y-71339285D02*
X58482142Y-71339285D01*
X58482142Y-70589285D01*
X58839285Y-70589285D01*
X59053571Y-70589285D02*
X59482142Y-70589285D01*
X59267857Y-71339285D02*
X59267857Y-70589285D01*
X59553571Y-71410714D02*
X60125000Y-71410714D01*
X60267857Y-70660714D02*
X60303571Y-70625000D01*
X60375000Y-70589285D01*
X60553571Y-70589285D01*
X60625000Y-70625000D01*
X60660714Y-70660714D01*
X60696428Y-70732142D01*
X60696428Y-70803571D01*
X60660714Y-70910714D01*
X60232142Y-71339285D01*
X60696428Y-71339285D01*
X58089285Y-52696428D02*
X57839285Y-52696428D01*
X57839285Y-53089285D02*
X57839285Y-52339285D01*
X58196428Y-52339285D01*
X58482142Y-52696428D02*
X58732142Y-52696428D01*
X58839285Y-53089285D02*
X58482142Y-53089285D01*
X58482142Y-52339285D01*
X58839285Y-52339285D01*
X59053571Y-52339285D02*
X59482142Y-52339285D01*
X59267857Y-53089285D02*
X59267857Y-52339285D01*
X59553571Y-53160714D02*
X60125000Y-53160714D01*
X60696428Y-53089285D02*
X60267857Y-53089285D01*
X60482142Y-53089285D02*
X60482142Y-52339285D01*
X60410714Y-52446428D01*
X60339285Y-52517857D01*
X60267857Y-52553571D01*
X36339285Y-53946428D02*
X36089285Y-53946428D01*
X36089285Y-54339285D02*
X36089285Y-53589285D01*
X36446428Y-53589285D01*
X36732142Y-53946428D02*
X36982142Y-53946428D01*
X37089285Y-54339285D02*
X36732142Y-54339285D01*
X36732142Y-53589285D01*
X37089285Y-53589285D01*
X37303571Y-53589285D02*
X37732142Y-53589285D01*
X37517857Y-54339285D02*
X37517857Y-53589285D01*
X37803571Y-54410714D02*
X38375000Y-54410714D01*
X38946428Y-54339285D02*
X38517857Y-54339285D01*
X38732142Y-54339285D02*
X38732142Y-53589285D01*
X38660714Y-53696428D01*
X38589285Y-53767857D01*
X38517857Y-53803571D01*
X36339285Y-63946428D02*
X36089285Y-63946428D01*
X36089285Y-64339285D02*
X36089285Y-63589285D01*
X36446428Y-63589285D01*
X36732142Y-63946428D02*
X36982142Y-63946428D01*
X37089285Y-64339285D02*
X36732142Y-64339285D01*
X36732142Y-63589285D01*
X37089285Y-63589285D01*
X37303571Y-63589285D02*
X37732142Y-63589285D01*
X37517857Y-64339285D02*
X37517857Y-63589285D01*
X37803571Y-64410714D02*
X38375000Y-64410714D01*
X38517857Y-63660714D02*
X38553571Y-63625000D01*
X38625000Y-63589285D01*
X38803571Y-63589285D01*
X38875000Y-63625000D01*
X38910714Y-63660714D01*
X38946428Y-63732142D01*
X38946428Y-63803571D01*
X38910714Y-63910714D01*
X38482142Y-64339285D01*
X38946428Y-64339285D01*
X26625000Y-57303571D02*
X26732142Y-57339285D01*
X26910714Y-57339285D01*
X26982142Y-57303571D01*
X27017857Y-57267857D01*
X27053571Y-57196428D01*
X27053571Y-57125000D01*
X27017857Y-57053571D01*
X26982142Y-57017857D01*
X26910714Y-56982142D01*
X26767857Y-56946428D01*
X26696428Y-56910714D01*
X26660714Y-56875000D01*
X26625000Y-56803571D01*
X26625000Y-56732142D01*
X26660714Y-56660714D01*
X26696428Y-56625000D01*
X26767857Y-56589285D01*
X26946428Y-56589285D01*
X27053571Y-56625000D01*
X27375000Y-57339285D02*
X27375000Y-56589285D01*
X28125000Y-56625000D02*
X28053571Y-56589285D01*
X27946428Y-56589285D01*
X27839285Y-56625000D01*
X27767857Y-56696428D01*
X27732142Y-56767857D01*
X27696428Y-56910714D01*
X27696428Y-57017857D01*
X27732142Y-57160714D01*
X27767857Y-57232142D01*
X27839285Y-57303571D01*
X27946428Y-57339285D01*
X28017857Y-57339285D01*
X28125000Y-57303571D01*
X28160714Y-57267857D01*
X28160714Y-57017857D01*
X28017857Y-57017857D01*
X28303571Y-57410714D02*
X28875000Y-57410714D01*
X29053571Y-57339285D02*
X29053571Y-56589285D01*
X29410714Y-57339285D02*
X29410714Y-56589285D01*
X29839285Y-57339285D01*
X29839285Y-56589285D01*
X26928571Y-64125000D02*
X26857142Y-64089285D01*
X26750000Y-64089285D01*
X26642857Y-64125000D01*
X26571428Y-64196428D01*
X26535714Y-64267857D01*
X26500000Y-64410714D01*
X26500000Y-64517857D01*
X26535714Y-64660714D01*
X26571428Y-64732142D01*
X26642857Y-64803571D01*
X26750000Y-64839285D01*
X26821428Y-64839285D01*
X26928571Y-64803571D01*
X26964285Y-64767857D01*
X26964285Y-64517857D01*
X26821428Y-64517857D01*
X27285714Y-64839285D02*
X27285714Y-64089285D01*
X27714285Y-64839285D01*
X27714285Y-64089285D01*
X28071428Y-64839285D02*
X28071428Y-64089285D01*
X28250000Y-64089285D01*
X28357142Y-64125000D01*
X28428571Y-64196428D01*
X28464285Y-64267857D01*
X28500000Y-64410714D01*
X28500000Y-64517857D01*
X28464285Y-64660714D01*
X28428571Y-64732142D01*
X28357142Y-64803571D01*
X28250000Y-64839285D01*
X28071428Y-64839285D01*
X26928571Y-55375000D02*
X26857142Y-55339285D01*
X26750000Y-55339285D01*
X26642857Y-55375000D01*
X26571428Y-55446428D01*
X26535714Y-55517857D01*
X26500000Y-55660714D01*
X26500000Y-55767857D01*
X26535714Y-55910714D01*
X26571428Y-55982142D01*
X26642857Y-56053571D01*
X26750000Y-56089285D01*
X26821428Y-56089285D01*
X26928571Y-56053571D01*
X26964285Y-56017857D01*
X26964285Y-55767857D01*
X26821428Y-55767857D01*
X27285714Y-56089285D02*
X27285714Y-55339285D01*
X27714285Y-56089285D01*
X27714285Y-55339285D01*
X28071428Y-56089285D02*
X28071428Y-55339285D01*
X28250000Y-55339285D01*
X28357142Y-55375000D01*
X28428571Y-55446428D01*
X28464285Y-55517857D01*
X28500000Y-55660714D01*
X28500000Y-55767857D01*
X28464285Y-55910714D01*
X28428571Y-55982142D01*
X28357142Y-56053571D01*
X28250000Y-56089285D01*
X28071428Y-56089285D01*
X26428571Y-48303571D02*
X27000000Y-48303571D01*
X26714285Y-48589285D02*
X26714285Y-48017857D01*
X27750000Y-48589285D02*
X27321428Y-48589285D01*
X27535714Y-48589285D02*
X27535714Y-47839285D01*
X27464285Y-47946428D01*
X27392857Y-48017857D01*
X27321428Y-48053571D01*
X28035714Y-47910714D02*
X28071428Y-47875000D01*
X28142857Y-47839285D01*
X28321428Y-47839285D01*
X28392857Y-47875000D01*
X28428571Y-47910714D01*
X28464285Y-47982142D01*
X28464285Y-48053571D01*
X28428571Y-48160714D01*
X28000000Y-48589285D01*
X28464285Y-48589285D01*
X28678571Y-47839285D02*
X28928571Y-48589285D01*
X29178571Y-47839285D01*
D11*
X36170000Y-55170000D02*
X37500000Y-55170000D01*
X36170000Y-56500000D02*
X36170000Y-55170000D01*
X36170000Y-57770000D02*
X38830000Y-57770000D01*
X38830000Y-57770000D02*
X38830000Y-62910000D01*
X36170000Y-57770000D02*
X36170000Y-62910000D01*
X36170000Y-62910000D02*
X38830000Y-62910000D01*
X80980000Y-59345000D02*
X80980000Y-59655000D01*
X80020000Y-59345000D02*
X80020000Y-59655000D01*
D12*
X88850000Y-57250000D02*
X89250000Y-57250000D01*
X88850000Y-58750000D02*
X88850000Y-57250000D01*
X89250000Y-58750000D02*
X88850000Y-58750000D01*
X88850000Y-60250000D02*
X89250000Y-60250000D01*
X88850000Y-61750000D02*
X88850000Y-60250000D01*
X89250000Y-61750000D02*
X88850000Y-61750000D01*
X89250000Y-56500000D02*
X89250000Y-62500000D01*
X82250000Y-62500000D02*
X82250000Y-56500000D01*
X82250000Y-56500000D02*
X89250000Y-56500000D01*
X82250000Y-62500000D02*
X89250000Y-62500000D01*
X27150000Y-62750000D02*
X26750000Y-62750000D01*
X27150000Y-61250000D02*
X27150000Y-62750000D01*
X26750000Y-61250000D02*
X27150000Y-61250000D01*
X27150000Y-59750000D02*
X26750000Y-59750000D01*
X27150000Y-58250000D02*
X27150000Y-59750000D01*
X26750000Y-58250000D02*
X27150000Y-58250000D01*
X26750000Y-63500000D02*
X26750000Y-57500000D01*
X33750000Y-57500000D02*
X33750000Y-63500000D01*
X33750000Y-63500000D02*
X26750000Y-63500000D01*
X33750000Y-57500000D02*
X26750000Y-57500000D01*
X33750000Y-49000000D02*
X26750000Y-49000000D01*
X33750000Y-55000000D02*
X26750000Y-55000000D01*
X33750000Y-49000000D02*
X33750000Y-55000000D01*
X26750000Y-55000000D02*
X26750000Y-49000000D01*
X26750000Y-49750000D02*
X27150000Y-49750000D01*
X27150000Y-49750000D02*
X27150000Y-51250000D01*
X27150000Y-51250000D02*
X26750000Y-51250000D01*
X26750000Y-52750000D02*
X27150000Y-52750000D01*
X27150000Y-52750000D02*
X27150000Y-54250000D01*
X27150000Y-54250000D02*
X26750000Y-54250000D01*
D13*
X45425000Y-64750000D02*
G75*
G03X45425000Y-64750000I-125000J0D01*
G01*
D11*
X45020000Y-65300000D02*
X45020000Y-66700000D01*
X41980000Y-65300000D02*
X41980000Y-66700000D01*
D13*
X46625000Y-57500000D02*
G75*
G03X46625000Y-57500000I-125000J0D01*
G01*
D11*
X45950000Y-57220000D02*
X44550000Y-57220000D01*
X45950000Y-54180000D02*
X44550000Y-54180000D01*
X77700000Y-64700000D02*
X77700000Y-66100000D01*
X76300000Y-64700000D02*
X77700000Y-64700000D01*
X76300000Y-66100000D02*
X76300000Y-64700000D01*
X77700000Y-66100000D02*
X76300000Y-66100000D01*
X41550000Y-61700000D02*
X41550000Y-60300000D01*
X42950000Y-61700000D02*
X41550000Y-61700000D01*
X42950000Y-60300000D02*
X42950000Y-61700000D01*
X41550000Y-60300000D02*
X42950000Y-60300000D01*
X41550000Y-59700000D02*
X41550000Y-58300000D01*
X42950000Y-59700000D02*
X41550000Y-59700000D01*
X42950000Y-58300000D02*
X42950000Y-59700000D01*
X41550000Y-58300000D02*
X42950000Y-58300000D01*
X48905000Y-64980000D02*
X48595000Y-64980000D01*
X48905000Y-64020000D02*
X48595000Y-64020000D01*
X44845000Y-62980000D02*
X45155000Y-62980000D01*
X44845000Y-62020000D02*
X45155000Y-62020000D01*
X48905000Y-55230000D02*
X48595000Y-55230000D01*
X48905000Y-54270000D02*
X48595000Y-54270000D01*
X44855000Y-59480000D02*
X45165000Y-59480000D01*
X44855000Y-58520000D02*
X45165000Y-58520000D01*
X64246000Y-69511000D02*
X64246000Y-70186000D01*
X64246000Y-70186000D02*
X58026000Y-70186000D01*
X58026000Y-70186000D02*
X58026000Y-63386000D01*
X58026000Y-63386000D02*
X64246000Y-63386000D01*
X64246000Y-63386000D02*
X64246000Y-64061000D01*
X64246000Y-59761000D02*
X64246000Y-60436000D01*
X64246000Y-60436000D02*
X58026000Y-60436000D01*
X58026000Y-60436000D02*
X58026000Y-53636000D01*
X58026000Y-53636000D02*
X64246000Y-53636000D01*
X64246000Y-53636000D02*
X64246000Y-54311000D01*
X37405000Y-50020000D02*
X37095000Y-50020000D01*
X37405000Y-50980000D02*
X37095000Y-50980000D01*
X68300000Y-65585000D02*
X68300000Y-65200000D01*
X72900000Y-67615000D02*
X72900000Y-68000000D01*
X72900000Y-68000000D02*
X68300000Y-68000000D01*
X68300000Y-68000000D02*
X68300000Y-67615000D01*
X68300000Y-65200000D02*
X72900000Y-65200000D01*
X72900000Y-65200000D02*
X72900000Y-65585000D01*
X53015000Y-64165000D02*
X53400000Y-64165000D01*
X50985000Y-68765000D02*
X50600000Y-68765000D01*
X50600000Y-68765000D02*
X50600000Y-64165000D01*
X50600000Y-64165000D02*
X50985000Y-64165000D01*
X53400000Y-64165000D02*
X53400000Y-68765000D01*
X53400000Y-68765000D02*
X53015000Y-68765000D01*
X67485000Y-57335000D02*
X67100000Y-57335000D01*
X69515000Y-52735000D02*
X69900000Y-52735000D01*
X69900000Y-52735000D02*
X69900000Y-57335000D01*
X69900000Y-57335000D02*
X69515000Y-57335000D01*
X67100000Y-57335000D02*
X67100000Y-52735000D01*
X67100000Y-52735000D02*
X67485000Y-52735000D01*
X53015000Y-54415000D02*
X53400000Y-54415000D01*
X50985000Y-59015000D02*
X50600000Y-59015000D01*
X50600000Y-59015000D02*
X50600000Y-54415000D01*
X50600000Y-54415000D02*
X50985000Y-54415000D01*
X53400000Y-54415000D02*
X53400000Y-59015000D01*
X53400000Y-59015000D02*
X53015000Y-59015000D01*
X75490000Y-62900000D02*
X77900000Y-62900000D01*
X77900000Y-62900000D02*
X77900000Y-57460000D01*
X77900000Y-57460000D02*
X76540000Y-56100000D01*
X76540000Y-56100000D02*
X75490000Y-56100000D01*
X73510000Y-62900000D02*
X71100000Y-62900000D01*
X71100000Y-62900000D02*
X71100000Y-57460000D01*
X71100000Y-57460000D02*
X72460000Y-56100000D01*
X72460000Y-56100000D02*
X73510000Y-56100000D01*
X43095000Y-69230000D02*
X43405000Y-69230000D01*
X43095000Y-68270000D02*
X43405000Y-68270000D01*
X43095000Y-70980000D02*
X43405000Y-70980000D01*
X43095000Y-70020000D02*
X43405000Y-70020000D01*
X42980000Y-54145000D02*
X42980000Y-53835000D01*
X42020000Y-54145000D02*
X42020000Y-53835000D01*
X41230000Y-54135000D02*
X41230000Y-53825000D01*
X40270000Y-54135000D02*
X40270000Y-53825000D01*
X40850000Y-50540000D02*
X40850000Y-49490000D01*
X42210000Y-51900000D02*
X40850000Y-50540000D01*
X47650000Y-51900000D02*
X42210000Y-51900000D01*
X47650000Y-49490000D02*
X47650000Y-51900000D01*
X40850000Y-46460000D02*
X40850000Y-47510000D01*
X42210000Y-45100000D02*
X40850000Y-46460000D01*
X47650000Y-45100000D02*
X42210000Y-45100000D01*
X47650000Y-47510000D02*
X47650000Y-45100000D01*
X37255000Y-47620000D02*
X35805000Y-47620000D01*
X37255000Y-49380000D02*
X35805000Y-49380000D01*
X37395000Y-46020000D02*
X37085000Y-46020000D01*
X37395000Y-46980000D02*
X37085000Y-46980000D01*
D10*
X80375000Y-61767857D02*
X80339285Y-61803571D01*
X80232142Y-61839285D01*
X80160714Y-61839285D01*
X80053571Y-61803571D01*
X79982142Y-61732142D01*
X79946428Y-61660714D01*
X79910714Y-61517857D01*
X79910714Y-61410714D01*
X79946428Y-61267857D01*
X79982142Y-61196428D01*
X80053571Y-61125000D01*
X80160714Y-61089285D01*
X80232142Y-61089285D01*
X80339285Y-61125000D01*
X80375000Y-61160714D01*
X80732142Y-61839285D02*
X80875000Y-61839285D01*
X80946428Y-61803571D01*
X80982142Y-61767857D01*
X81053571Y-61660714D01*
X81089285Y-61517857D01*
X81089285Y-61232142D01*
X81053571Y-61160714D01*
X81017857Y-61125000D01*
X80946428Y-61089285D01*
X80803571Y-61089285D01*
X80732142Y-61125000D01*
X80696428Y-61160714D01*
X80660714Y-61232142D01*
X80660714Y-61410714D01*
X80696428Y-61482142D01*
X80732142Y-61517857D01*
X80803571Y-61553571D01*
X80946428Y-61553571D01*
X81017857Y-61517857D01*
X81053571Y-61482142D01*
X81089285Y-61410714D01*
X45428571Y-66839285D02*
X45428571Y-67446428D01*
X45464285Y-67517857D01*
X45500000Y-67553571D01*
X45571428Y-67589285D01*
X45714285Y-67589285D01*
X45785714Y-67553571D01*
X45821428Y-67517857D01*
X45857142Y-67446428D01*
X45857142Y-66839285D01*
X46178571Y-66910714D02*
X46214285Y-66875000D01*
X46285714Y-66839285D01*
X46464285Y-66839285D01*
X46535714Y-66875000D01*
X46571428Y-66910714D01*
X46607142Y-66982142D01*
X46607142Y-67053571D01*
X46571428Y-67160714D01*
X46142857Y-67589285D01*
X46607142Y-67589285D01*
X44678571Y-52839285D02*
X44678571Y-53446428D01*
X44714285Y-53517857D01*
X44750000Y-53553571D01*
X44821428Y-53589285D01*
X44964285Y-53589285D01*
X45035714Y-53553571D01*
X45071428Y-53517857D01*
X45107142Y-53446428D01*
X45107142Y-52839285D01*
X45857142Y-53589285D02*
X45428571Y-53589285D01*
X45642857Y-53589285D02*
X45642857Y-52839285D01*
X45571428Y-52946428D01*
X45500000Y-53017857D01*
X45428571Y-53053571D01*
X76053571Y-66589285D02*
X76482142Y-66589285D01*
X76267857Y-67339285D02*
X76267857Y-66589285D01*
X76732142Y-67339285D02*
X76732142Y-66589285D01*
X77017857Y-66589285D01*
X77089285Y-66625000D01*
X77125000Y-66660714D01*
X77160714Y-66732142D01*
X77160714Y-66839285D01*
X77125000Y-66910714D01*
X77089285Y-66946428D01*
X77017857Y-66982142D01*
X76732142Y-66982142D01*
X77410714Y-66589285D02*
X77875000Y-66589285D01*
X77625000Y-66875000D01*
X77732142Y-66875000D01*
X77803571Y-66910714D01*
X77839285Y-66946428D01*
X77875000Y-67017857D01*
X77875000Y-67196428D01*
X77839285Y-67267857D01*
X77803571Y-67303571D01*
X77732142Y-67339285D01*
X77517857Y-67339285D01*
X77446428Y-67303571D01*
X77410714Y-67267857D01*
X39303571Y-61089285D02*
X39732142Y-61089285D01*
X39517857Y-61839285D02*
X39517857Y-61089285D01*
X39982142Y-61839285D02*
X39982142Y-61089285D01*
X40267857Y-61089285D01*
X40339285Y-61125000D01*
X40375000Y-61160714D01*
X40410714Y-61232142D01*
X40410714Y-61339285D01*
X40375000Y-61410714D01*
X40339285Y-61446428D01*
X40267857Y-61482142D01*
X39982142Y-61482142D01*
X40696428Y-61160714D02*
X40732142Y-61125000D01*
X40803571Y-61089285D01*
X40982142Y-61089285D01*
X41053571Y-61125000D01*
X41089285Y-61160714D01*
X41125000Y-61232142D01*
X41125000Y-61303571D01*
X41089285Y-61410714D01*
X40660714Y-61839285D01*
X41125000Y-61839285D01*
X39303571Y-58589285D02*
X39732142Y-58589285D01*
X39517857Y-59339285D02*
X39517857Y-58589285D01*
X39982142Y-59339285D02*
X39982142Y-58589285D01*
X40267857Y-58589285D01*
X40339285Y-58625000D01*
X40375000Y-58660714D01*
X40410714Y-58732142D01*
X40410714Y-58839285D01*
X40375000Y-58910714D01*
X40339285Y-58946428D01*
X40267857Y-58982142D01*
X39982142Y-58982142D01*
X41125000Y-59339285D02*
X40696428Y-59339285D01*
X40910714Y-59339285D02*
X40910714Y-58589285D01*
X40839285Y-58696428D01*
X40767857Y-58767857D01*
X40696428Y-58803571D01*
X48267857Y-66089285D02*
X48017857Y-65732142D01*
X47839285Y-66089285D02*
X47839285Y-65339285D01*
X48125000Y-65339285D01*
X48196428Y-65375000D01*
X48232142Y-65410714D01*
X48267857Y-65482142D01*
X48267857Y-65589285D01*
X48232142Y-65660714D01*
X48196428Y-65696428D01*
X48125000Y-65732142D01*
X47839285Y-65732142D01*
X48982142Y-66089285D02*
X48553571Y-66089285D01*
X48767857Y-66089285D02*
X48767857Y-65339285D01*
X48696428Y-65446428D01*
X48625000Y-65517857D01*
X48553571Y-65553571D01*
X49267857Y-65410714D02*
X49303571Y-65375000D01*
X49375000Y-65339285D01*
X49553571Y-65339285D01*
X49625000Y-65375000D01*
X49660714Y-65410714D01*
X49696428Y-65482142D01*
X49696428Y-65553571D01*
X49660714Y-65660714D01*
X49232142Y-66089285D01*
X49696428Y-66089285D01*
X47125000Y-62839285D02*
X46875000Y-62482142D01*
X46696428Y-62839285D02*
X46696428Y-62089285D01*
X46982142Y-62089285D01*
X47053571Y-62125000D01*
X47089285Y-62160714D01*
X47125000Y-62232142D01*
X47125000Y-62339285D01*
X47089285Y-62410714D01*
X47053571Y-62446428D01*
X46982142Y-62482142D01*
X46696428Y-62482142D01*
X47375000Y-62089285D02*
X47875000Y-62089285D01*
X47553571Y-62839285D01*
X48625000Y-56339285D02*
X48375000Y-55982142D01*
X48196428Y-56339285D02*
X48196428Y-55589285D01*
X48482142Y-55589285D01*
X48553571Y-55625000D01*
X48589285Y-55660714D01*
X48625000Y-55732142D01*
X48625000Y-55839285D01*
X48589285Y-55910714D01*
X48553571Y-55946428D01*
X48482142Y-55982142D01*
X48196428Y-55982142D01*
X49267857Y-55589285D02*
X49125000Y-55589285D01*
X49053571Y-55625000D01*
X49017857Y-55660714D01*
X48946428Y-55767857D01*
X48910714Y-55910714D01*
X48910714Y-56196428D01*
X48946428Y-56267857D01*
X48982142Y-56303571D01*
X49053571Y-56339285D01*
X49196428Y-56339285D01*
X49267857Y-56303571D01*
X49303571Y-56267857D01*
X49339285Y-56196428D01*
X49339285Y-56017857D01*
X49303571Y-55946428D01*
X49267857Y-55910714D01*
X49196428Y-55875000D01*
X49053571Y-55875000D01*
X48982142Y-55910714D01*
X48946428Y-55946428D01*
X48910714Y-56017857D01*
X44885000Y-60589285D02*
X44635000Y-60232142D01*
X44456428Y-60589285D02*
X44456428Y-59839285D01*
X44742142Y-59839285D01*
X44813571Y-59875000D01*
X44849285Y-59910714D01*
X44885000Y-59982142D01*
X44885000Y-60089285D01*
X44849285Y-60160714D01*
X44813571Y-60196428D01*
X44742142Y-60232142D01*
X44456428Y-60232142D01*
X45599285Y-60589285D02*
X45170714Y-60589285D01*
X45385000Y-60589285D02*
X45385000Y-59839285D01*
X45313571Y-59946428D01*
X45242142Y-60017857D01*
X45170714Y-60053571D01*
X65178571Y-63910714D02*
X65107142Y-63875000D01*
X65035714Y-63803571D01*
X64928571Y-63696428D01*
X64857142Y-63660714D01*
X64785714Y-63660714D01*
X64821428Y-63839285D02*
X64750000Y-63803571D01*
X64678571Y-63732142D01*
X64642857Y-63589285D01*
X64642857Y-63339285D01*
X64678571Y-63196428D01*
X64750000Y-63125000D01*
X64821428Y-63089285D01*
X64964285Y-63089285D01*
X65035714Y-63125000D01*
X65107142Y-63196428D01*
X65142857Y-63339285D01*
X65142857Y-63589285D01*
X65107142Y-63732142D01*
X65035714Y-63803571D01*
X64964285Y-63839285D01*
X64821428Y-63839285D01*
X65428571Y-63160714D02*
X65464285Y-63125000D01*
X65535714Y-63089285D01*
X65714285Y-63089285D01*
X65785714Y-63125000D01*
X65821428Y-63160714D01*
X65857142Y-63232142D01*
X65857142Y-63303571D01*
X65821428Y-63410714D01*
X65392857Y-63839285D01*
X65857142Y-63839285D01*
X65178571Y-60910714D02*
X65107142Y-60875000D01*
X65035714Y-60803571D01*
X64928571Y-60696428D01*
X64857142Y-60660714D01*
X64785714Y-60660714D01*
X64821428Y-60839285D02*
X64750000Y-60803571D01*
X64678571Y-60732142D01*
X64642857Y-60589285D01*
X64642857Y-60339285D01*
X64678571Y-60196428D01*
X64750000Y-60125000D01*
X64821428Y-60089285D01*
X64964285Y-60089285D01*
X65035714Y-60125000D01*
X65107142Y-60196428D01*
X65142857Y-60339285D01*
X65142857Y-60589285D01*
X65107142Y-60732142D01*
X65035714Y-60803571D01*
X64964285Y-60839285D01*
X64821428Y-60839285D01*
X65857142Y-60839285D02*
X65428571Y-60839285D01*
X65642857Y-60839285D02*
X65642857Y-60089285D01*
X65571428Y-60196428D01*
X65500000Y-60267857D01*
X65428571Y-60303571D01*
X37000000Y-51696428D02*
X36750000Y-51696428D01*
X36750000Y-52089285D02*
X36750000Y-51339285D01*
X37107142Y-51339285D01*
X37785714Y-52089285D02*
X37357142Y-52089285D01*
X37571428Y-52089285D02*
X37571428Y-51339285D01*
X37500000Y-51446428D01*
X37428571Y-51517857D01*
X37357142Y-51553571D01*
X69946428Y-69089285D02*
X69946428Y-68339285D01*
X70125000Y-68339285D01*
X70232142Y-68375000D01*
X70303571Y-68446428D01*
X70339285Y-68517857D01*
X70375000Y-68660714D01*
X70375000Y-68767857D01*
X70339285Y-68910714D01*
X70303571Y-68982142D01*
X70232142Y-69053571D01*
X70125000Y-69089285D01*
X69946428Y-69089285D01*
X71017857Y-68589285D02*
X71017857Y-69089285D01*
X70839285Y-68303571D02*
X70660714Y-68839285D01*
X71125000Y-68839285D01*
X73921428Y-66725000D02*
X74278571Y-66725000D01*
X73850000Y-66939285D02*
X74100000Y-66189285D01*
X74350000Y-66939285D01*
X49446428Y-69839285D02*
X49446428Y-69089285D01*
X49625000Y-69089285D01*
X49732142Y-69125000D01*
X49803571Y-69196428D01*
X49839285Y-69267857D01*
X49875000Y-69410714D01*
X49875000Y-69517857D01*
X49839285Y-69660714D01*
X49803571Y-69732142D01*
X49732142Y-69803571D01*
X49625000Y-69839285D01*
X49446428Y-69839285D01*
X50125000Y-69089285D02*
X50589285Y-69089285D01*
X50339285Y-69375000D01*
X50446428Y-69375000D01*
X50517857Y-69410714D01*
X50553571Y-69446428D01*
X50589285Y-69517857D01*
X50589285Y-69696428D01*
X50553571Y-69767857D01*
X50517857Y-69803571D01*
X50446428Y-69839285D01*
X50232142Y-69839285D01*
X50160714Y-69803571D01*
X50125000Y-69767857D01*
X52125000Y-70143571D02*
X52125000Y-69786428D01*
X52339285Y-70215000D02*
X51589285Y-69965000D01*
X52339285Y-69715000D01*
X67946428Y-59089285D02*
X67946428Y-58339285D01*
X68125000Y-58339285D01*
X68232142Y-58375000D01*
X68303571Y-58446428D01*
X68339285Y-58517857D01*
X68375000Y-58660714D01*
X68375000Y-58767857D01*
X68339285Y-58910714D01*
X68303571Y-58982142D01*
X68232142Y-59053571D01*
X68125000Y-59089285D01*
X67946428Y-59089285D01*
X68660714Y-58410714D02*
X68696428Y-58375000D01*
X68767857Y-58339285D01*
X68946428Y-58339285D01*
X69017857Y-58375000D01*
X69053571Y-58410714D01*
X69089285Y-58482142D01*
X69089285Y-58553571D01*
X69053571Y-58660714D01*
X68625000Y-59089285D01*
X69089285Y-59089285D01*
X68625000Y-51713571D02*
X68625000Y-51356428D01*
X68839285Y-51785000D02*
X68089285Y-51535000D01*
X68839285Y-51285000D01*
X49696428Y-60089285D02*
X49696428Y-59339285D01*
X49875000Y-59339285D01*
X49982142Y-59375000D01*
X50053571Y-59446428D01*
X50089285Y-59517857D01*
X50125000Y-59660714D01*
X50125000Y-59767857D01*
X50089285Y-59910714D01*
X50053571Y-59982142D01*
X49982142Y-60053571D01*
X49875000Y-60089285D01*
X49696428Y-60089285D01*
X50839285Y-60089285D02*
X50410714Y-60089285D01*
X50625000Y-60089285D02*
X50625000Y-59339285D01*
X50553571Y-59446428D01*
X50482142Y-59517857D01*
X50410714Y-59553571D01*
X52125000Y-60393571D02*
X52125000Y-60036428D01*
X52339285Y-60465000D02*
X51589285Y-60215000D01*
X52339285Y-59965000D01*
X72375000Y-64017857D02*
X72339285Y-64053571D01*
X72232142Y-64089285D01*
X72160714Y-64089285D01*
X72053571Y-64053571D01*
X71982142Y-63982142D01*
X71946428Y-63910714D01*
X71910714Y-63767857D01*
X71910714Y-63660714D01*
X71946428Y-63517857D01*
X71982142Y-63446428D01*
X72053571Y-63375000D01*
X72160714Y-63339285D01*
X72232142Y-63339285D01*
X72339285Y-63375000D01*
X72375000Y-63410714D01*
X72803571Y-63660714D02*
X72732142Y-63625000D01*
X72696428Y-63589285D01*
X72660714Y-63517857D01*
X72660714Y-63482142D01*
X72696428Y-63410714D01*
X72732142Y-63375000D01*
X72803571Y-63339285D01*
X72946428Y-63339285D01*
X73017857Y-63375000D01*
X73053571Y-63410714D01*
X73089285Y-63482142D01*
X73089285Y-63517857D01*
X73053571Y-63589285D01*
X73017857Y-63625000D01*
X72946428Y-63660714D01*
X72803571Y-63660714D01*
X72732142Y-63696428D01*
X72696428Y-63732142D01*
X72660714Y-63803571D01*
X72660714Y-63946428D01*
X72696428Y-64017857D01*
X72732142Y-64053571D01*
X72803571Y-64089285D01*
X72946428Y-64089285D01*
X73017857Y-64053571D01*
X73053571Y-64017857D01*
X73089285Y-63946428D01*
X73089285Y-63803571D01*
X73053571Y-63732142D01*
X73017857Y-63696428D01*
X72946428Y-63660714D01*
X45375000Y-69017857D02*
X45339285Y-69053571D01*
X45232142Y-69089285D01*
X45160714Y-69089285D01*
X45053571Y-69053571D01*
X44982142Y-68982142D01*
X44946428Y-68910714D01*
X44910714Y-68767857D01*
X44910714Y-68660714D01*
X44946428Y-68517857D01*
X44982142Y-68446428D01*
X45053571Y-68375000D01*
X45160714Y-68339285D01*
X45232142Y-68339285D01*
X45339285Y-68375000D01*
X45375000Y-68410714D01*
X45625000Y-68339285D02*
X46125000Y-68339285D01*
X45803571Y-69089285D01*
X45375000Y-70767857D02*
X45339285Y-70803571D01*
X45232142Y-70839285D01*
X45160714Y-70839285D01*
X45053571Y-70803571D01*
X44982142Y-70732142D01*
X44946428Y-70660714D01*
X44910714Y-70517857D01*
X44910714Y-70410714D01*
X44946428Y-70267857D01*
X44982142Y-70196428D01*
X45053571Y-70125000D01*
X45160714Y-70089285D01*
X45232142Y-70089285D01*
X45339285Y-70125000D01*
X45375000Y-70160714D01*
X46017857Y-70089285D02*
X45875000Y-70089285D01*
X45803571Y-70125000D01*
X45767857Y-70160714D01*
X45696428Y-70267857D01*
X45660714Y-70410714D01*
X45660714Y-70696428D01*
X45696428Y-70767857D01*
X45732142Y-70803571D01*
X45803571Y-70839285D01*
X45946428Y-70839285D01*
X46017857Y-70803571D01*
X46053571Y-70767857D01*
X46089285Y-70696428D01*
X46089285Y-70517857D01*
X46053571Y-70446428D01*
X46017857Y-70410714D01*
X45946428Y-70375000D01*
X45803571Y-70375000D01*
X45732142Y-70410714D01*
X45696428Y-70446428D01*
X45660714Y-70517857D01*
X42375000Y-56267857D02*
X42339285Y-56303571D01*
X42232142Y-56339285D01*
X42160714Y-56339285D01*
X42053571Y-56303571D01*
X41982142Y-56232142D01*
X41946428Y-56160714D01*
X41910714Y-56017857D01*
X41910714Y-55910714D01*
X41946428Y-55767857D01*
X41982142Y-55696428D01*
X42053571Y-55625000D01*
X42160714Y-55589285D01*
X42232142Y-55589285D01*
X42339285Y-55625000D01*
X42375000Y-55660714D01*
X43053571Y-55589285D02*
X42696428Y-55589285D01*
X42660714Y-55946428D01*
X42696428Y-55910714D01*
X42767857Y-55875000D01*
X42946428Y-55875000D01*
X43017857Y-55910714D01*
X43053571Y-55946428D01*
X43089285Y-56017857D01*
X43089285Y-56196428D01*
X43053571Y-56267857D01*
X43017857Y-56303571D01*
X42946428Y-56339285D01*
X42767857Y-56339285D01*
X42696428Y-56303571D01*
X42660714Y-56267857D01*
X40625000Y-56267857D02*
X40589285Y-56303571D01*
X40482142Y-56339285D01*
X40410714Y-56339285D01*
X40303571Y-56303571D01*
X40232142Y-56232142D01*
X40196428Y-56160714D01*
X40160714Y-56017857D01*
X40160714Y-55910714D01*
X40196428Y-55767857D01*
X40232142Y-55696428D01*
X40303571Y-55625000D01*
X40410714Y-55589285D01*
X40482142Y-55589285D01*
X40589285Y-55625000D01*
X40625000Y-55660714D01*
X41267857Y-55839285D02*
X41267857Y-56339285D01*
X41089285Y-55553571D02*
X40910714Y-56089285D01*
X41375000Y-56089285D01*
X48375000Y-50517857D02*
X48339285Y-50553571D01*
X48232142Y-50589285D01*
X48160714Y-50589285D01*
X48053571Y-50553571D01*
X47982142Y-50482142D01*
X47946428Y-50410714D01*
X47910714Y-50267857D01*
X47910714Y-50160714D01*
X47946428Y-50017857D01*
X47982142Y-49946428D01*
X48053571Y-49875000D01*
X48160714Y-49839285D01*
X48232142Y-49839285D01*
X48339285Y-49875000D01*
X48375000Y-49910714D01*
X48625000Y-49839285D02*
X49089285Y-49839285D01*
X48839285Y-50125000D01*
X48946428Y-50125000D01*
X49017857Y-50160714D01*
X49053571Y-50196428D01*
X49089285Y-50267857D01*
X49089285Y-50446428D01*
X49053571Y-50517857D01*
X49017857Y-50553571D01*
X48946428Y-50589285D01*
X48732142Y-50589285D01*
X48660714Y-50553571D01*
X48625000Y-50517857D01*
X34875000Y-50517857D02*
X34839285Y-50553571D01*
X34732142Y-50589285D01*
X34660714Y-50589285D01*
X34553571Y-50553571D01*
X34482142Y-50482142D01*
X34446428Y-50410714D01*
X34410714Y-50267857D01*
X34410714Y-50160714D01*
X34446428Y-50017857D01*
X34482142Y-49946428D01*
X34553571Y-49875000D01*
X34660714Y-49839285D01*
X34732142Y-49839285D01*
X34839285Y-49875000D01*
X34875000Y-49910714D01*
X35160714Y-49910714D02*
X35196428Y-49875000D01*
X35267857Y-49839285D01*
X35446428Y-49839285D01*
X35517857Y-49875000D01*
X35553571Y-49910714D01*
X35589285Y-49982142D01*
X35589285Y-50053571D01*
X35553571Y-50160714D01*
X35125000Y-50589285D01*
X35589285Y-50589285D01*
X34875000Y-46767857D02*
X34839285Y-46803571D01*
X34732142Y-46839285D01*
X34660714Y-46839285D01*
X34553571Y-46803571D01*
X34482142Y-46732142D01*
X34446428Y-46660714D01*
X34410714Y-46517857D01*
X34410714Y-46410714D01*
X34446428Y-46267857D01*
X34482142Y-46196428D01*
X34553571Y-46125000D01*
X34660714Y-46089285D01*
X34732142Y-46089285D01*
X34839285Y-46125000D01*
X34875000Y-46160714D01*
X35589285Y-46839285D02*
X35160714Y-46839285D01*
X35375000Y-46839285D02*
X35375000Y-46089285D01*
X35303571Y-46196428D01*
X35232142Y-46267857D01*
X35160714Y-46303571D01*
M02*
