G04 #@! TF.GenerationSoftware,KiCad,Pcbnew,(5.1.5)-3*
G04 #@! TF.CreationDate,2021-01-14T16:52:46-05:00*
G04 #@! TF.ProjectId,MOSFET_test_board,4d4f5346-4554-45f7-9465-73745f626f61,rev?*
G04 #@! TF.SameCoordinates,Original*
G04 #@! TF.FileFunction,Paste,Top*
G04 #@! TF.FilePolarity,Positive*
%FSLAX46Y46*%
G04 Gerber Fmt 4.6, Leading zero omitted, Abs format (unit mm)*
G04 Created by KiCad (PCBNEW (5.1.5)-3) date 2021-01-14 16:52:46*
%MOMM*%
%LPD*%
G04 APERTURE LIST*
%ADD10C,0.100000*%
%ADD11R,1.490000X1.620000*%
G04 APERTURE END LIST*
D10*
G36*
X80767397Y-58366690D02*
G01*
X80785349Y-58369353D01*
X80802953Y-58373763D01*
X80820040Y-58379877D01*
X80836446Y-58387636D01*
X80852012Y-58396966D01*
X80866589Y-58407777D01*
X80880036Y-58419964D01*
X80892223Y-58433411D01*
X80903034Y-58447988D01*
X80912364Y-58463554D01*
X80920123Y-58479960D01*
X80926237Y-58497047D01*
X80930647Y-58514651D01*
X80933310Y-58532603D01*
X80934200Y-58550729D01*
X80934200Y-58929271D01*
X80933310Y-58947397D01*
X80930647Y-58965349D01*
X80926237Y-58982953D01*
X80920123Y-59000040D01*
X80912364Y-59016446D01*
X80903034Y-59032012D01*
X80892223Y-59046589D01*
X80880036Y-59060036D01*
X80866589Y-59072223D01*
X80852012Y-59083034D01*
X80836446Y-59092364D01*
X80820040Y-59100123D01*
X80802953Y-59106237D01*
X80785349Y-59110647D01*
X80767397Y-59113310D01*
X80749271Y-59114200D01*
X80250729Y-59114200D01*
X80232603Y-59113310D01*
X80214651Y-59110647D01*
X80197047Y-59106237D01*
X80179960Y-59100123D01*
X80163554Y-59092364D01*
X80147988Y-59083034D01*
X80133411Y-59072223D01*
X80119964Y-59060036D01*
X80107777Y-59046589D01*
X80096966Y-59032012D01*
X80087636Y-59016446D01*
X80079877Y-59000040D01*
X80073763Y-58982953D01*
X80069353Y-58965349D01*
X80066690Y-58947397D01*
X80065800Y-58929271D01*
X80065800Y-58550729D01*
X80066690Y-58532603D01*
X80069353Y-58514651D01*
X80073763Y-58497047D01*
X80079877Y-58479960D01*
X80087636Y-58463554D01*
X80096966Y-58447988D01*
X80107777Y-58433411D01*
X80119964Y-58419964D01*
X80133411Y-58407777D01*
X80147988Y-58396966D01*
X80163554Y-58387636D01*
X80179960Y-58379877D01*
X80197047Y-58373763D01*
X80214651Y-58369353D01*
X80232603Y-58366690D01*
X80250729Y-58365800D01*
X80749271Y-58365800D01*
X80767397Y-58366690D01*
G37*
G36*
X80767397Y-59886690D02*
G01*
X80785349Y-59889353D01*
X80802953Y-59893763D01*
X80820040Y-59899877D01*
X80836446Y-59907636D01*
X80852012Y-59916966D01*
X80866589Y-59927777D01*
X80880036Y-59939964D01*
X80892223Y-59953411D01*
X80903034Y-59967988D01*
X80912364Y-59983554D01*
X80920123Y-59999960D01*
X80926237Y-60017047D01*
X80930647Y-60034651D01*
X80933310Y-60052603D01*
X80934200Y-60070729D01*
X80934200Y-60449271D01*
X80933310Y-60467397D01*
X80930647Y-60485349D01*
X80926237Y-60502953D01*
X80920123Y-60520040D01*
X80912364Y-60536446D01*
X80903034Y-60552012D01*
X80892223Y-60566589D01*
X80880036Y-60580036D01*
X80866589Y-60592223D01*
X80852012Y-60603034D01*
X80836446Y-60612364D01*
X80820040Y-60620123D01*
X80802953Y-60626237D01*
X80785349Y-60630647D01*
X80767397Y-60633310D01*
X80749271Y-60634200D01*
X80250729Y-60634200D01*
X80232603Y-60633310D01*
X80214651Y-60630647D01*
X80197047Y-60626237D01*
X80179960Y-60620123D01*
X80163554Y-60612364D01*
X80147988Y-60603034D01*
X80133411Y-60592223D01*
X80119964Y-60580036D01*
X80107777Y-60566589D01*
X80096966Y-60552012D01*
X80087636Y-60536446D01*
X80079877Y-60520040D01*
X80073763Y-60502953D01*
X80069353Y-60485349D01*
X80066690Y-60467397D01*
X80065800Y-60449271D01*
X80065800Y-60070729D01*
X80066690Y-60052603D01*
X80069353Y-60034651D01*
X80073763Y-60017047D01*
X80079877Y-59999960D01*
X80087636Y-59983554D01*
X80096966Y-59967988D01*
X80107777Y-59953411D01*
X80119964Y-59939964D01*
X80133411Y-59927777D01*
X80147988Y-59916966D01*
X80163554Y-59907636D01*
X80179960Y-59899877D01*
X80197047Y-59893763D01*
X80214651Y-59889353D01*
X80232603Y-59886690D01*
X80250729Y-59885800D01*
X80749271Y-59885800D01*
X80767397Y-59886690D01*
G37*
G36*
X84811317Y-60252604D02*
G01*
X84847681Y-60257998D01*
X84883341Y-60266930D01*
X84917953Y-60279315D01*
X84951185Y-60295032D01*
X84982717Y-60313931D01*
X85012244Y-60335830D01*
X85039482Y-60360518D01*
X85064170Y-60387756D01*
X85086069Y-60417283D01*
X85104968Y-60448815D01*
X85120685Y-60482047D01*
X85133070Y-60516659D01*
X85142002Y-60552319D01*
X85147396Y-60588683D01*
X85149200Y-60625400D01*
X85149200Y-61374600D01*
X85147396Y-61411317D01*
X85142002Y-61447681D01*
X85133070Y-61483341D01*
X85120685Y-61517953D01*
X85104968Y-61551185D01*
X85086069Y-61582717D01*
X85064170Y-61612244D01*
X85039482Y-61639482D01*
X85012244Y-61664170D01*
X84982717Y-61686069D01*
X84951185Y-61704968D01*
X84917953Y-61720685D01*
X84883341Y-61733070D01*
X84847681Y-61742002D01*
X84811317Y-61747396D01*
X84774600Y-61749200D01*
X83325400Y-61749200D01*
X83288683Y-61747396D01*
X83252319Y-61742002D01*
X83216659Y-61733070D01*
X83182047Y-61720685D01*
X83148815Y-61704968D01*
X83117283Y-61686069D01*
X83087756Y-61664170D01*
X83060518Y-61639482D01*
X83035830Y-61612244D01*
X83013931Y-61582717D01*
X82995032Y-61551185D01*
X82979315Y-61517953D01*
X82966930Y-61483341D01*
X82957998Y-61447681D01*
X82952604Y-61411317D01*
X82950800Y-61374600D01*
X82950800Y-60625400D01*
X82952604Y-60588683D01*
X82957998Y-60552319D01*
X82966930Y-60516659D01*
X82979315Y-60482047D01*
X82995032Y-60448815D01*
X83013931Y-60417283D01*
X83035830Y-60387756D01*
X83060518Y-60360518D01*
X83087756Y-60335830D01*
X83117283Y-60313931D01*
X83148815Y-60295032D01*
X83182047Y-60279315D01*
X83216659Y-60266930D01*
X83252319Y-60257998D01*
X83288683Y-60252604D01*
X83325400Y-60250800D01*
X84774600Y-60250800D01*
X84811317Y-60252604D01*
G37*
G36*
X84811317Y-57252604D02*
G01*
X84847681Y-57257998D01*
X84883341Y-57266930D01*
X84917953Y-57279315D01*
X84951185Y-57295032D01*
X84982717Y-57313931D01*
X85012244Y-57335830D01*
X85039482Y-57360518D01*
X85064170Y-57387756D01*
X85086069Y-57417283D01*
X85104968Y-57448815D01*
X85120685Y-57482047D01*
X85133070Y-57516659D01*
X85142002Y-57552319D01*
X85147396Y-57588683D01*
X85149200Y-57625400D01*
X85149200Y-58374600D01*
X85147396Y-58411317D01*
X85142002Y-58447681D01*
X85133070Y-58483341D01*
X85120685Y-58517953D01*
X85104968Y-58551185D01*
X85086069Y-58582717D01*
X85064170Y-58612244D01*
X85039482Y-58639482D01*
X85012244Y-58664170D01*
X84982717Y-58686069D01*
X84951185Y-58704968D01*
X84917953Y-58720685D01*
X84883341Y-58733070D01*
X84847681Y-58742002D01*
X84811317Y-58747396D01*
X84774600Y-58749200D01*
X83325400Y-58749200D01*
X83288683Y-58747396D01*
X83252319Y-58742002D01*
X83216659Y-58733070D01*
X83182047Y-58720685D01*
X83148815Y-58704968D01*
X83117283Y-58686069D01*
X83087756Y-58664170D01*
X83060518Y-58639482D01*
X83035830Y-58612244D01*
X83013931Y-58582717D01*
X82995032Y-58551185D01*
X82979315Y-58517953D01*
X82966930Y-58483341D01*
X82957998Y-58447681D01*
X82952604Y-58411317D01*
X82950800Y-58374600D01*
X82950800Y-57625400D01*
X82952604Y-57588683D01*
X82957998Y-57552319D01*
X82966930Y-57516659D01*
X82979315Y-57482047D01*
X82995032Y-57448815D01*
X83013931Y-57417283D01*
X83035830Y-57387756D01*
X83060518Y-57360518D01*
X83087756Y-57335830D01*
X83117283Y-57313931D01*
X83148815Y-57295032D01*
X83182047Y-57279315D01*
X83216659Y-57266930D01*
X83252319Y-57257998D01*
X83288683Y-57252604D01*
X83325400Y-57250800D01*
X84774600Y-57250800D01*
X84811317Y-57252604D01*
G37*
G36*
X88211317Y-60252604D02*
G01*
X88247681Y-60257998D01*
X88283341Y-60266930D01*
X88317953Y-60279315D01*
X88351185Y-60295032D01*
X88382717Y-60313931D01*
X88412244Y-60335830D01*
X88439482Y-60360518D01*
X88464170Y-60387756D01*
X88486069Y-60417283D01*
X88504968Y-60448815D01*
X88520685Y-60482047D01*
X88533070Y-60516659D01*
X88542002Y-60552319D01*
X88547396Y-60588683D01*
X88549200Y-60625400D01*
X88549200Y-61374600D01*
X88547396Y-61411317D01*
X88542002Y-61447681D01*
X88533070Y-61483341D01*
X88520685Y-61517953D01*
X88504968Y-61551185D01*
X88486069Y-61582717D01*
X88464170Y-61612244D01*
X88439482Y-61639482D01*
X88412244Y-61664170D01*
X88382717Y-61686069D01*
X88351185Y-61704968D01*
X88317953Y-61720685D01*
X88283341Y-61733070D01*
X88247681Y-61742002D01*
X88211317Y-61747396D01*
X88174600Y-61749200D01*
X86725400Y-61749200D01*
X86688683Y-61747396D01*
X86652319Y-61742002D01*
X86616659Y-61733070D01*
X86582047Y-61720685D01*
X86548815Y-61704968D01*
X86517283Y-61686069D01*
X86487756Y-61664170D01*
X86460518Y-61639482D01*
X86435830Y-61612244D01*
X86413931Y-61582717D01*
X86395032Y-61551185D01*
X86379315Y-61517953D01*
X86366930Y-61483341D01*
X86357998Y-61447681D01*
X86352604Y-61411317D01*
X86350800Y-61374600D01*
X86350800Y-60625400D01*
X86352604Y-60588683D01*
X86357998Y-60552319D01*
X86366930Y-60516659D01*
X86379315Y-60482047D01*
X86395032Y-60448815D01*
X86413931Y-60417283D01*
X86435830Y-60387756D01*
X86460518Y-60360518D01*
X86487756Y-60335830D01*
X86517283Y-60313931D01*
X86548815Y-60295032D01*
X86582047Y-60279315D01*
X86616659Y-60266930D01*
X86652319Y-60257998D01*
X86688683Y-60252604D01*
X86725400Y-60250800D01*
X88174600Y-60250800D01*
X88211317Y-60252604D01*
G37*
G36*
X88211317Y-57252604D02*
G01*
X88247681Y-57257998D01*
X88283341Y-57266930D01*
X88317953Y-57279315D01*
X88351185Y-57295032D01*
X88382717Y-57313931D01*
X88412244Y-57335830D01*
X88439482Y-57360518D01*
X88464170Y-57387756D01*
X88486069Y-57417283D01*
X88504968Y-57448815D01*
X88520685Y-57482047D01*
X88533070Y-57516659D01*
X88542002Y-57552319D01*
X88547396Y-57588683D01*
X88549200Y-57625400D01*
X88549200Y-58374600D01*
X88547396Y-58411317D01*
X88542002Y-58447681D01*
X88533070Y-58483341D01*
X88520685Y-58517953D01*
X88504968Y-58551185D01*
X88486069Y-58582717D01*
X88464170Y-58612244D01*
X88439482Y-58639482D01*
X88412244Y-58664170D01*
X88382717Y-58686069D01*
X88351185Y-58704968D01*
X88317953Y-58720685D01*
X88283341Y-58733070D01*
X88247681Y-58742002D01*
X88211317Y-58747396D01*
X88174600Y-58749200D01*
X86725400Y-58749200D01*
X86688683Y-58747396D01*
X86652319Y-58742002D01*
X86616659Y-58733070D01*
X86582047Y-58720685D01*
X86548815Y-58704968D01*
X86517283Y-58686069D01*
X86487756Y-58664170D01*
X86460518Y-58639482D01*
X86435830Y-58612244D01*
X86413931Y-58582717D01*
X86395032Y-58551185D01*
X86379315Y-58517953D01*
X86366930Y-58483341D01*
X86357998Y-58447681D01*
X86352604Y-58411317D01*
X86350800Y-58374600D01*
X86350800Y-57625400D01*
X86352604Y-57588683D01*
X86357998Y-57552319D01*
X86366930Y-57516659D01*
X86379315Y-57482047D01*
X86395032Y-57448815D01*
X86413931Y-57417283D01*
X86435830Y-57387756D01*
X86460518Y-57360518D01*
X86487756Y-57335830D01*
X86517283Y-57313931D01*
X86548815Y-57295032D01*
X86582047Y-57279315D01*
X86616659Y-57266930D01*
X86652319Y-57257998D01*
X86688683Y-57252604D01*
X86725400Y-57250800D01*
X88174600Y-57250800D01*
X88211317Y-57252604D01*
G37*
G36*
X32711317Y-58252604D02*
G01*
X32747681Y-58257998D01*
X32783341Y-58266930D01*
X32817953Y-58279315D01*
X32851185Y-58295032D01*
X32882717Y-58313931D01*
X32912244Y-58335830D01*
X32939482Y-58360518D01*
X32964170Y-58387756D01*
X32986069Y-58417283D01*
X33004968Y-58448815D01*
X33020685Y-58482047D01*
X33033070Y-58516659D01*
X33042002Y-58552319D01*
X33047396Y-58588683D01*
X33049200Y-58625400D01*
X33049200Y-59374600D01*
X33047396Y-59411317D01*
X33042002Y-59447681D01*
X33033070Y-59483341D01*
X33020685Y-59517953D01*
X33004968Y-59551185D01*
X32986069Y-59582717D01*
X32964170Y-59612244D01*
X32939482Y-59639482D01*
X32912244Y-59664170D01*
X32882717Y-59686069D01*
X32851185Y-59704968D01*
X32817953Y-59720685D01*
X32783341Y-59733070D01*
X32747681Y-59742002D01*
X32711317Y-59747396D01*
X32674600Y-59749200D01*
X31225400Y-59749200D01*
X31188683Y-59747396D01*
X31152319Y-59742002D01*
X31116659Y-59733070D01*
X31082047Y-59720685D01*
X31048815Y-59704968D01*
X31017283Y-59686069D01*
X30987756Y-59664170D01*
X30960518Y-59639482D01*
X30935830Y-59612244D01*
X30913931Y-59582717D01*
X30895032Y-59551185D01*
X30879315Y-59517953D01*
X30866930Y-59483341D01*
X30857998Y-59447681D01*
X30852604Y-59411317D01*
X30850800Y-59374600D01*
X30850800Y-58625400D01*
X30852604Y-58588683D01*
X30857998Y-58552319D01*
X30866930Y-58516659D01*
X30879315Y-58482047D01*
X30895032Y-58448815D01*
X30913931Y-58417283D01*
X30935830Y-58387756D01*
X30960518Y-58360518D01*
X30987756Y-58335830D01*
X31017283Y-58313931D01*
X31048815Y-58295032D01*
X31082047Y-58279315D01*
X31116659Y-58266930D01*
X31152319Y-58257998D01*
X31188683Y-58252604D01*
X31225400Y-58250800D01*
X32674600Y-58250800D01*
X32711317Y-58252604D01*
G37*
G36*
X32711317Y-61252604D02*
G01*
X32747681Y-61257998D01*
X32783341Y-61266930D01*
X32817953Y-61279315D01*
X32851185Y-61295032D01*
X32882717Y-61313931D01*
X32912244Y-61335830D01*
X32939482Y-61360518D01*
X32964170Y-61387756D01*
X32986069Y-61417283D01*
X33004968Y-61448815D01*
X33020685Y-61482047D01*
X33033070Y-61516659D01*
X33042002Y-61552319D01*
X33047396Y-61588683D01*
X33049200Y-61625400D01*
X33049200Y-62374600D01*
X33047396Y-62411317D01*
X33042002Y-62447681D01*
X33033070Y-62483341D01*
X33020685Y-62517953D01*
X33004968Y-62551185D01*
X32986069Y-62582717D01*
X32964170Y-62612244D01*
X32939482Y-62639482D01*
X32912244Y-62664170D01*
X32882717Y-62686069D01*
X32851185Y-62704968D01*
X32817953Y-62720685D01*
X32783341Y-62733070D01*
X32747681Y-62742002D01*
X32711317Y-62747396D01*
X32674600Y-62749200D01*
X31225400Y-62749200D01*
X31188683Y-62747396D01*
X31152319Y-62742002D01*
X31116659Y-62733070D01*
X31082047Y-62720685D01*
X31048815Y-62704968D01*
X31017283Y-62686069D01*
X30987756Y-62664170D01*
X30960518Y-62639482D01*
X30935830Y-62612244D01*
X30913931Y-62582717D01*
X30895032Y-62551185D01*
X30879315Y-62517953D01*
X30866930Y-62483341D01*
X30857998Y-62447681D01*
X30852604Y-62411317D01*
X30850800Y-62374600D01*
X30850800Y-61625400D01*
X30852604Y-61588683D01*
X30857998Y-61552319D01*
X30866930Y-61516659D01*
X30879315Y-61482047D01*
X30895032Y-61448815D01*
X30913931Y-61417283D01*
X30935830Y-61387756D01*
X30960518Y-61360518D01*
X30987756Y-61335830D01*
X31017283Y-61313931D01*
X31048815Y-61295032D01*
X31082047Y-61279315D01*
X31116659Y-61266930D01*
X31152319Y-61257998D01*
X31188683Y-61252604D01*
X31225400Y-61250800D01*
X32674600Y-61250800D01*
X32711317Y-61252604D01*
G37*
G36*
X29311317Y-58252604D02*
G01*
X29347681Y-58257998D01*
X29383341Y-58266930D01*
X29417953Y-58279315D01*
X29451185Y-58295032D01*
X29482717Y-58313931D01*
X29512244Y-58335830D01*
X29539482Y-58360518D01*
X29564170Y-58387756D01*
X29586069Y-58417283D01*
X29604968Y-58448815D01*
X29620685Y-58482047D01*
X29633070Y-58516659D01*
X29642002Y-58552319D01*
X29647396Y-58588683D01*
X29649200Y-58625400D01*
X29649200Y-59374600D01*
X29647396Y-59411317D01*
X29642002Y-59447681D01*
X29633070Y-59483341D01*
X29620685Y-59517953D01*
X29604968Y-59551185D01*
X29586069Y-59582717D01*
X29564170Y-59612244D01*
X29539482Y-59639482D01*
X29512244Y-59664170D01*
X29482717Y-59686069D01*
X29451185Y-59704968D01*
X29417953Y-59720685D01*
X29383341Y-59733070D01*
X29347681Y-59742002D01*
X29311317Y-59747396D01*
X29274600Y-59749200D01*
X27825400Y-59749200D01*
X27788683Y-59747396D01*
X27752319Y-59742002D01*
X27716659Y-59733070D01*
X27682047Y-59720685D01*
X27648815Y-59704968D01*
X27617283Y-59686069D01*
X27587756Y-59664170D01*
X27560518Y-59639482D01*
X27535830Y-59612244D01*
X27513931Y-59582717D01*
X27495032Y-59551185D01*
X27479315Y-59517953D01*
X27466930Y-59483341D01*
X27457998Y-59447681D01*
X27452604Y-59411317D01*
X27450800Y-59374600D01*
X27450800Y-58625400D01*
X27452604Y-58588683D01*
X27457998Y-58552319D01*
X27466930Y-58516659D01*
X27479315Y-58482047D01*
X27495032Y-58448815D01*
X27513931Y-58417283D01*
X27535830Y-58387756D01*
X27560518Y-58360518D01*
X27587756Y-58335830D01*
X27617283Y-58313931D01*
X27648815Y-58295032D01*
X27682047Y-58279315D01*
X27716659Y-58266930D01*
X27752319Y-58257998D01*
X27788683Y-58252604D01*
X27825400Y-58250800D01*
X29274600Y-58250800D01*
X29311317Y-58252604D01*
G37*
G36*
X29311317Y-61252604D02*
G01*
X29347681Y-61257998D01*
X29383341Y-61266930D01*
X29417953Y-61279315D01*
X29451185Y-61295032D01*
X29482717Y-61313931D01*
X29512244Y-61335830D01*
X29539482Y-61360518D01*
X29564170Y-61387756D01*
X29586069Y-61417283D01*
X29604968Y-61448815D01*
X29620685Y-61482047D01*
X29633070Y-61516659D01*
X29642002Y-61552319D01*
X29647396Y-61588683D01*
X29649200Y-61625400D01*
X29649200Y-62374600D01*
X29647396Y-62411317D01*
X29642002Y-62447681D01*
X29633070Y-62483341D01*
X29620685Y-62517953D01*
X29604968Y-62551185D01*
X29586069Y-62582717D01*
X29564170Y-62612244D01*
X29539482Y-62639482D01*
X29512244Y-62664170D01*
X29482717Y-62686069D01*
X29451185Y-62704968D01*
X29417953Y-62720685D01*
X29383341Y-62733070D01*
X29347681Y-62742002D01*
X29311317Y-62747396D01*
X29274600Y-62749200D01*
X27825400Y-62749200D01*
X27788683Y-62747396D01*
X27752319Y-62742002D01*
X27716659Y-62733070D01*
X27682047Y-62720685D01*
X27648815Y-62704968D01*
X27617283Y-62686069D01*
X27587756Y-62664170D01*
X27560518Y-62639482D01*
X27535830Y-62612244D01*
X27513931Y-62582717D01*
X27495032Y-62551185D01*
X27479315Y-62517953D01*
X27466930Y-62483341D01*
X27457998Y-62447681D01*
X27452604Y-62411317D01*
X27450800Y-62374600D01*
X27450800Y-61625400D01*
X27452604Y-61588683D01*
X27457998Y-61552319D01*
X27466930Y-61516659D01*
X27479315Y-61482047D01*
X27495032Y-61448815D01*
X27513931Y-61417283D01*
X27535830Y-61387756D01*
X27560518Y-61360518D01*
X27587756Y-61335830D01*
X27617283Y-61313931D01*
X27648815Y-61295032D01*
X27682047Y-61279315D01*
X27716659Y-61266930D01*
X27752319Y-61257998D01*
X27788683Y-61252604D01*
X27825400Y-61250800D01*
X29274600Y-61250800D01*
X29311317Y-61252604D01*
G37*
G36*
X29311317Y-52752604D02*
G01*
X29347681Y-52757998D01*
X29383341Y-52766930D01*
X29417953Y-52779315D01*
X29451185Y-52795032D01*
X29482717Y-52813931D01*
X29512244Y-52835830D01*
X29539482Y-52860518D01*
X29564170Y-52887756D01*
X29586069Y-52917283D01*
X29604968Y-52948815D01*
X29620685Y-52982047D01*
X29633070Y-53016659D01*
X29642002Y-53052319D01*
X29647396Y-53088683D01*
X29649200Y-53125400D01*
X29649200Y-53874600D01*
X29647396Y-53911317D01*
X29642002Y-53947681D01*
X29633070Y-53983341D01*
X29620685Y-54017953D01*
X29604968Y-54051185D01*
X29586069Y-54082717D01*
X29564170Y-54112244D01*
X29539482Y-54139482D01*
X29512244Y-54164170D01*
X29482717Y-54186069D01*
X29451185Y-54204968D01*
X29417953Y-54220685D01*
X29383341Y-54233070D01*
X29347681Y-54242002D01*
X29311317Y-54247396D01*
X29274600Y-54249200D01*
X27825400Y-54249200D01*
X27788683Y-54247396D01*
X27752319Y-54242002D01*
X27716659Y-54233070D01*
X27682047Y-54220685D01*
X27648815Y-54204968D01*
X27617283Y-54186069D01*
X27587756Y-54164170D01*
X27560518Y-54139482D01*
X27535830Y-54112244D01*
X27513931Y-54082717D01*
X27495032Y-54051185D01*
X27479315Y-54017953D01*
X27466930Y-53983341D01*
X27457998Y-53947681D01*
X27452604Y-53911317D01*
X27450800Y-53874600D01*
X27450800Y-53125400D01*
X27452604Y-53088683D01*
X27457998Y-53052319D01*
X27466930Y-53016659D01*
X27479315Y-52982047D01*
X27495032Y-52948815D01*
X27513931Y-52917283D01*
X27535830Y-52887756D01*
X27560518Y-52860518D01*
X27587756Y-52835830D01*
X27617283Y-52813931D01*
X27648815Y-52795032D01*
X27682047Y-52779315D01*
X27716659Y-52766930D01*
X27752319Y-52757998D01*
X27788683Y-52752604D01*
X27825400Y-52750800D01*
X29274600Y-52750800D01*
X29311317Y-52752604D01*
G37*
G36*
X29311317Y-49752604D02*
G01*
X29347681Y-49757998D01*
X29383341Y-49766930D01*
X29417953Y-49779315D01*
X29451185Y-49795032D01*
X29482717Y-49813931D01*
X29512244Y-49835830D01*
X29539482Y-49860518D01*
X29564170Y-49887756D01*
X29586069Y-49917283D01*
X29604968Y-49948815D01*
X29620685Y-49982047D01*
X29633070Y-50016659D01*
X29642002Y-50052319D01*
X29647396Y-50088683D01*
X29649200Y-50125400D01*
X29649200Y-50874600D01*
X29647396Y-50911317D01*
X29642002Y-50947681D01*
X29633070Y-50983341D01*
X29620685Y-51017953D01*
X29604968Y-51051185D01*
X29586069Y-51082717D01*
X29564170Y-51112244D01*
X29539482Y-51139482D01*
X29512244Y-51164170D01*
X29482717Y-51186069D01*
X29451185Y-51204968D01*
X29417953Y-51220685D01*
X29383341Y-51233070D01*
X29347681Y-51242002D01*
X29311317Y-51247396D01*
X29274600Y-51249200D01*
X27825400Y-51249200D01*
X27788683Y-51247396D01*
X27752319Y-51242002D01*
X27716659Y-51233070D01*
X27682047Y-51220685D01*
X27648815Y-51204968D01*
X27617283Y-51186069D01*
X27587756Y-51164170D01*
X27560518Y-51139482D01*
X27535830Y-51112244D01*
X27513931Y-51082717D01*
X27495032Y-51051185D01*
X27479315Y-51017953D01*
X27466930Y-50983341D01*
X27457998Y-50947681D01*
X27452604Y-50911317D01*
X27450800Y-50874600D01*
X27450800Y-50125400D01*
X27452604Y-50088683D01*
X27457998Y-50052319D01*
X27466930Y-50016659D01*
X27479315Y-49982047D01*
X27495032Y-49948815D01*
X27513931Y-49917283D01*
X27535830Y-49887756D01*
X27560518Y-49860518D01*
X27587756Y-49835830D01*
X27617283Y-49813931D01*
X27648815Y-49795032D01*
X27682047Y-49779315D01*
X27716659Y-49766930D01*
X27752319Y-49757998D01*
X27788683Y-49752604D01*
X27825400Y-49750800D01*
X29274600Y-49750800D01*
X29311317Y-49752604D01*
G37*
G36*
X32711317Y-52752604D02*
G01*
X32747681Y-52757998D01*
X32783341Y-52766930D01*
X32817953Y-52779315D01*
X32851185Y-52795032D01*
X32882717Y-52813931D01*
X32912244Y-52835830D01*
X32939482Y-52860518D01*
X32964170Y-52887756D01*
X32986069Y-52917283D01*
X33004968Y-52948815D01*
X33020685Y-52982047D01*
X33033070Y-53016659D01*
X33042002Y-53052319D01*
X33047396Y-53088683D01*
X33049200Y-53125400D01*
X33049200Y-53874600D01*
X33047396Y-53911317D01*
X33042002Y-53947681D01*
X33033070Y-53983341D01*
X33020685Y-54017953D01*
X33004968Y-54051185D01*
X32986069Y-54082717D01*
X32964170Y-54112244D01*
X32939482Y-54139482D01*
X32912244Y-54164170D01*
X32882717Y-54186069D01*
X32851185Y-54204968D01*
X32817953Y-54220685D01*
X32783341Y-54233070D01*
X32747681Y-54242002D01*
X32711317Y-54247396D01*
X32674600Y-54249200D01*
X31225400Y-54249200D01*
X31188683Y-54247396D01*
X31152319Y-54242002D01*
X31116659Y-54233070D01*
X31082047Y-54220685D01*
X31048815Y-54204968D01*
X31017283Y-54186069D01*
X30987756Y-54164170D01*
X30960518Y-54139482D01*
X30935830Y-54112244D01*
X30913931Y-54082717D01*
X30895032Y-54051185D01*
X30879315Y-54017953D01*
X30866930Y-53983341D01*
X30857998Y-53947681D01*
X30852604Y-53911317D01*
X30850800Y-53874600D01*
X30850800Y-53125400D01*
X30852604Y-53088683D01*
X30857998Y-53052319D01*
X30866930Y-53016659D01*
X30879315Y-52982047D01*
X30895032Y-52948815D01*
X30913931Y-52917283D01*
X30935830Y-52887756D01*
X30960518Y-52860518D01*
X30987756Y-52835830D01*
X31017283Y-52813931D01*
X31048815Y-52795032D01*
X31082047Y-52779315D01*
X31116659Y-52766930D01*
X31152319Y-52757998D01*
X31188683Y-52752604D01*
X31225400Y-52750800D01*
X32674600Y-52750800D01*
X32711317Y-52752604D01*
G37*
G36*
X32711317Y-49752604D02*
G01*
X32747681Y-49757998D01*
X32783341Y-49766930D01*
X32817953Y-49779315D01*
X32851185Y-49795032D01*
X32882717Y-49813931D01*
X32912244Y-49835830D01*
X32939482Y-49860518D01*
X32964170Y-49887756D01*
X32986069Y-49917283D01*
X33004968Y-49948815D01*
X33020685Y-49982047D01*
X33033070Y-50016659D01*
X33042002Y-50052319D01*
X33047396Y-50088683D01*
X33049200Y-50125400D01*
X33049200Y-50874600D01*
X33047396Y-50911317D01*
X33042002Y-50947681D01*
X33033070Y-50983341D01*
X33020685Y-51017953D01*
X33004968Y-51051185D01*
X32986069Y-51082717D01*
X32964170Y-51112244D01*
X32939482Y-51139482D01*
X32912244Y-51164170D01*
X32882717Y-51186069D01*
X32851185Y-51204968D01*
X32817953Y-51220685D01*
X32783341Y-51233070D01*
X32747681Y-51242002D01*
X32711317Y-51247396D01*
X32674600Y-51249200D01*
X31225400Y-51249200D01*
X31188683Y-51247396D01*
X31152319Y-51242002D01*
X31116659Y-51233070D01*
X31082047Y-51220685D01*
X31048815Y-51204968D01*
X31017283Y-51186069D01*
X30987756Y-51164170D01*
X30960518Y-51139482D01*
X30935830Y-51112244D01*
X30913931Y-51082717D01*
X30895032Y-51051185D01*
X30879315Y-51017953D01*
X30866930Y-50983341D01*
X30857998Y-50947681D01*
X30852604Y-50911317D01*
X30850800Y-50874600D01*
X30850800Y-50125400D01*
X30852604Y-50088683D01*
X30857998Y-50052319D01*
X30866930Y-50016659D01*
X30879315Y-49982047D01*
X30895032Y-49948815D01*
X30913931Y-49917283D01*
X30935830Y-49887756D01*
X30960518Y-49860518D01*
X30987756Y-49835830D01*
X31017283Y-49813931D01*
X31048815Y-49795032D01*
X31082047Y-49779315D01*
X31116659Y-49766930D01*
X31152319Y-49757998D01*
X31188683Y-49752604D01*
X31225400Y-49750800D01*
X32674600Y-49750800D01*
X32711317Y-49752604D01*
G37*
G36*
X44590541Y-64526540D02*
G01*
X44605464Y-64528754D01*
X44620098Y-64532419D01*
X44634302Y-64537502D01*
X44647939Y-64543952D01*
X44660879Y-64551708D01*
X44672996Y-64560694D01*
X44684174Y-64570826D01*
X44694306Y-64582004D01*
X44703292Y-64594121D01*
X44711048Y-64607061D01*
X44717498Y-64620698D01*
X44722581Y-64634902D01*
X44726246Y-64649536D01*
X44728460Y-64664459D01*
X44729200Y-64679527D01*
X44729200Y-65330473D01*
X44728460Y-65345541D01*
X44726246Y-65360464D01*
X44722581Y-65375098D01*
X44717498Y-65389302D01*
X44711048Y-65402939D01*
X44703292Y-65415879D01*
X44694306Y-65427996D01*
X44684174Y-65439174D01*
X44672996Y-65449306D01*
X44660879Y-65458292D01*
X44647939Y-65466048D01*
X44634302Y-65472498D01*
X44620098Y-65477581D01*
X44605464Y-65481246D01*
X44590541Y-65483460D01*
X44575473Y-65484200D01*
X43914527Y-65484200D01*
X43899459Y-65483460D01*
X43884536Y-65481246D01*
X43869902Y-65477581D01*
X43855698Y-65472498D01*
X43842061Y-65466048D01*
X43829121Y-65458292D01*
X43817004Y-65449306D01*
X43805826Y-65439174D01*
X43795694Y-65427996D01*
X43786708Y-65415879D01*
X43778952Y-65402939D01*
X43772502Y-65389302D01*
X43767419Y-65375098D01*
X43763754Y-65360464D01*
X43761540Y-65345541D01*
X43760800Y-65330473D01*
X43760800Y-64679527D01*
X43761540Y-64664459D01*
X43763754Y-64649536D01*
X43767419Y-64634902D01*
X43772502Y-64620698D01*
X43778952Y-64607061D01*
X43786708Y-64594121D01*
X43795694Y-64582004D01*
X43805826Y-64570826D01*
X43817004Y-64560694D01*
X43829121Y-64551708D01*
X43842061Y-64543952D01*
X43855698Y-64537502D01*
X43869902Y-64532419D01*
X43884536Y-64528754D01*
X43899459Y-64526540D01*
X43914527Y-64525800D01*
X44575473Y-64525800D01*
X44590541Y-64526540D01*
G37*
G36*
X42699456Y-64526493D02*
G01*
X42713419Y-64528564D01*
X42727112Y-64531994D01*
X42740403Y-64536749D01*
X42753164Y-64542785D01*
X42765272Y-64550042D01*
X42776610Y-64558451D01*
X42787069Y-64567931D01*
X42796549Y-64578390D01*
X42804958Y-64589728D01*
X42812215Y-64601836D01*
X42818251Y-64614597D01*
X42823006Y-64627888D01*
X42826436Y-64641581D01*
X42828507Y-64655544D01*
X42829200Y-64669643D01*
X42829200Y-65340357D01*
X42828507Y-65354456D01*
X42826436Y-65368419D01*
X42823006Y-65382112D01*
X42818251Y-65395403D01*
X42812215Y-65408164D01*
X42804958Y-65420272D01*
X42796549Y-65431610D01*
X42787069Y-65442069D01*
X42776610Y-65451549D01*
X42765272Y-65459958D01*
X42753164Y-65467215D01*
X42740403Y-65473251D01*
X42727112Y-65478006D01*
X42713419Y-65481436D01*
X42699456Y-65483507D01*
X42685357Y-65484200D01*
X42414643Y-65484200D01*
X42400544Y-65483507D01*
X42386581Y-65481436D01*
X42372888Y-65478006D01*
X42359597Y-65473251D01*
X42346836Y-65467215D01*
X42334728Y-65459958D01*
X42323390Y-65451549D01*
X42312931Y-65442069D01*
X42303451Y-65431610D01*
X42295042Y-65420272D01*
X42287785Y-65408164D01*
X42281749Y-65395403D01*
X42276994Y-65382112D01*
X42273564Y-65368419D01*
X42271493Y-65354456D01*
X42270800Y-65340357D01*
X42270800Y-64669643D01*
X42271493Y-64655544D01*
X42273564Y-64641581D01*
X42276994Y-64627888D01*
X42281749Y-64614597D01*
X42287785Y-64601836D01*
X42295042Y-64589728D01*
X42303451Y-64578390D01*
X42312931Y-64567931D01*
X42323390Y-64558451D01*
X42334728Y-64550042D01*
X42346836Y-64542785D01*
X42359597Y-64536749D01*
X42372888Y-64531994D01*
X42386581Y-64528564D01*
X42400544Y-64526493D01*
X42414643Y-64525800D01*
X42685357Y-64525800D01*
X42699456Y-64526493D01*
G37*
G36*
X42699456Y-66516493D02*
G01*
X42713419Y-66518564D01*
X42727112Y-66521994D01*
X42740403Y-66526749D01*
X42753164Y-66532785D01*
X42765272Y-66540042D01*
X42776610Y-66548451D01*
X42787069Y-66557931D01*
X42796549Y-66568390D01*
X42804958Y-66579728D01*
X42812215Y-66591836D01*
X42818251Y-66604597D01*
X42823006Y-66617888D01*
X42826436Y-66631581D01*
X42828507Y-66645544D01*
X42829200Y-66659643D01*
X42829200Y-67330357D01*
X42828507Y-67344456D01*
X42826436Y-67358419D01*
X42823006Y-67372112D01*
X42818251Y-67385403D01*
X42812215Y-67398164D01*
X42804958Y-67410272D01*
X42796549Y-67421610D01*
X42787069Y-67432069D01*
X42776610Y-67441549D01*
X42765272Y-67449958D01*
X42753164Y-67457215D01*
X42740403Y-67463251D01*
X42727112Y-67468006D01*
X42713419Y-67471436D01*
X42699456Y-67473507D01*
X42685357Y-67474200D01*
X42414643Y-67474200D01*
X42400544Y-67473507D01*
X42386581Y-67471436D01*
X42372888Y-67468006D01*
X42359597Y-67463251D01*
X42346836Y-67457215D01*
X42334728Y-67449958D01*
X42323390Y-67441549D01*
X42312931Y-67432069D01*
X42303451Y-67421610D01*
X42295042Y-67410272D01*
X42287785Y-67398164D01*
X42281749Y-67385403D01*
X42276994Y-67372112D01*
X42273564Y-67358419D01*
X42271493Y-67344456D01*
X42270800Y-67330357D01*
X42270800Y-66659643D01*
X42271493Y-66645544D01*
X42273564Y-66631581D01*
X42276994Y-66617888D01*
X42281749Y-66604597D01*
X42287785Y-66591836D01*
X42295042Y-66579728D01*
X42303451Y-66568390D01*
X42312931Y-66557931D01*
X42323390Y-66548451D01*
X42334728Y-66540042D01*
X42346836Y-66532785D01*
X42359597Y-66526749D01*
X42372888Y-66521994D01*
X42386581Y-66518564D01*
X42400544Y-66516493D01*
X42414643Y-66515800D01*
X42685357Y-66515800D01*
X42699456Y-66516493D01*
G37*
G36*
X44599456Y-66516493D02*
G01*
X44613419Y-66518564D01*
X44627112Y-66521994D01*
X44640403Y-66526749D01*
X44653164Y-66532785D01*
X44665272Y-66540042D01*
X44676610Y-66548451D01*
X44687069Y-66557931D01*
X44696549Y-66568390D01*
X44704958Y-66579728D01*
X44712215Y-66591836D01*
X44718251Y-66604597D01*
X44723006Y-66617888D01*
X44726436Y-66631581D01*
X44728507Y-66645544D01*
X44729200Y-66659643D01*
X44729200Y-67330357D01*
X44728507Y-67344456D01*
X44726436Y-67358419D01*
X44723006Y-67372112D01*
X44718251Y-67385403D01*
X44712215Y-67398164D01*
X44704958Y-67410272D01*
X44696549Y-67421610D01*
X44687069Y-67432069D01*
X44676610Y-67441549D01*
X44665272Y-67449958D01*
X44653164Y-67457215D01*
X44640403Y-67463251D01*
X44627112Y-67468006D01*
X44613419Y-67471436D01*
X44599456Y-67473507D01*
X44585357Y-67474200D01*
X44314643Y-67474200D01*
X44300544Y-67473507D01*
X44286581Y-67471436D01*
X44272888Y-67468006D01*
X44259597Y-67463251D01*
X44246836Y-67457215D01*
X44234728Y-67449958D01*
X44223390Y-67441549D01*
X44212931Y-67432069D01*
X44203451Y-67421610D01*
X44195042Y-67410272D01*
X44187785Y-67398164D01*
X44181749Y-67385403D01*
X44176994Y-67372112D01*
X44173564Y-67358419D01*
X44171493Y-67344456D01*
X44170800Y-67330357D01*
X44170800Y-66659643D01*
X44171493Y-66645544D01*
X44173564Y-66631581D01*
X44176994Y-66617888D01*
X44181749Y-66604597D01*
X44187785Y-66591836D01*
X44195042Y-66579728D01*
X44203451Y-66568390D01*
X44212931Y-66557931D01*
X44223390Y-66548451D01*
X44234728Y-66540042D01*
X44246836Y-66532785D01*
X44259597Y-66526749D01*
X44272888Y-66521994D01*
X44286581Y-66518564D01*
X44300544Y-66516493D01*
X44314643Y-66515800D01*
X44585357Y-66515800D01*
X44599456Y-66516493D01*
G37*
G36*
X46585541Y-55961540D02*
G01*
X46600464Y-55963754D01*
X46615098Y-55967419D01*
X46629302Y-55972502D01*
X46642939Y-55978952D01*
X46655879Y-55986708D01*
X46667996Y-55995694D01*
X46679174Y-56005826D01*
X46689306Y-56017004D01*
X46698292Y-56029121D01*
X46706048Y-56042061D01*
X46712498Y-56055698D01*
X46717581Y-56069902D01*
X46721246Y-56084536D01*
X46723460Y-56099459D01*
X46724200Y-56114527D01*
X46724200Y-56775473D01*
X46723460Y-56790541D01*
X46721246Y-56805464D01*
X46717581Y-56820098D01*
X46712498Y-56834302D01*
X46706048Y-56847939D01*
X46698292Y-56860879D01*
X46689306Y-56872996D01*
X46679174Y-56884174D01*
X46667996Y-56894306D01*
X46655879Y-56903292D01*
X46642939Y-56911048D01*
X46629302Y-56917498D01*
X46615098Y-56922581D01*
X46600464Y-56926246D01*
X46585541Y-56928460D01*
X46570473Y-56929200D01*
X45919527Y-56929200D01*
X45904459Y-56928460D01*
X45889536Y-56926246D01*
X45874902Y-56922581D01*
X45860698Y-56917498D01*
X45847061Y-56911048D01*
X45834121Y-56903292D01*
X45822004Y-56894306D01*
X45810826Y-56884174D01*
X45800694Y-56872996D01*
X45791708Y-56860879D01*
X45783952Y-56847939D01*
X45777502Y-56834302D01*
X45772419Y-56820098D01*
X45768754Y-56805464D01*
X45766540Y-56790541D01*
X45765800Y-56775473D01*
X45765800Y-56114527D01*
X45766540Y-56099459D01*
X45768754Y-56084536D01*
X45772419Y-56069902D01*
X45777502Y-56055698D01*
X45783952Y-56042061D01*
X45791708Y-56029121D01*
X45800694Y-56017004D01*
X45810826Y-56005826D01*
X45822004Y-55995694D01*
X45834121Y-55986708D01*
X45847061Y-55978952D01*
X45860698Y-55972502D01*
X45874902Y-55967419D01*
X45889536Y-55963754D01*
X45904459Y-55961540D01*
X45919527Y-55960800D01*
X46570473Y-55960800D01*
X46585541Y-55961540D01*
G37*
G36*
X46594456Y-54471493D02*
G01*
X46608419Y-54473564D01*
X46622112Y-54476994D01*
X46635403Y-54481749D01*
X46648164Y-54487785D01*
X46660272Y-54495042D01*
X46671610Y-54503451D01*
X46682069Y-54512931D01*
X46691549Y-54523390D01*
X46699958Y-54534728D01*
X46707215Y-54546836D01*
X46713251Y-54559597D01*
X46718006Y-54572888D01*
X46721436Y-54586581D01*
X46723507Y-54600544D01*
X46724200Y-54614643D01*
X46724200Y-54885357D01*
X46723507Y-54899456D01*
X46721436Y-54913419D01*
X46718006Y-54927112D01*
X46713251Y-54940403D01*
X46707215Y-54953164D01*
X46699958Y-54965272D01*
X46691549Y-54976610D01*
X46682069Y-54987069D01*
X46671610Y-54996549D01*
X46660272Y-55004958D01*
X46648164Y-55012215D01*
X46635403Y-55018251D01*
X46622112Y-55023006D01*
X46608419Y-55026436D01*
X46594456Y-55028507D01*
X46580357Y-55029200D01*
X45909643Y-55029200D01*
X45895544Y-55028507D01*
X45881581Y-55026436D01*
X45867888Y-55023006D01*
X45854597Y-55018251D01*
X45841836Y-55012215D01*
X45829728Y-55004958D01*
X45818390Y-54996549D01*
X45807931Y-54987069D01*
X45798451Y-54976610D01*
X45790042Y-54965272D01*
X45782785Y-54953164D01*
X45776749Y-54940403D01*
X45771994Y-54927112D01*
X45768564Y-54913419D01*
X45766493Y-54899456D01*
X45765800Y-54885357D01*
X45765800Y-54614643D01*
X45766493Y-54600544D01*
X45768564Y-54586581D01*
X45771994Y-54572888D01*
X45776749Y-54559597D01*
X45782785Y-54546836D01*
X45790042Y-54534728D01*
X45798451Y-54523390D01*
X45807931Y-54512931D01*
X45818390Y-54503451D01*
X45829728Y-54495042D01*
X45841836Y-54487785D01*
X45854597Y-54481749D01*
X45867888Y-54476994D01*
X45881581Y-54473564D01*
X45895544Y-54471493D01*
X45909643Y-54470800D01*
X46580357Y-54470800D01*
X46594456Y-54471493D01*
G37*
G36*
X44604456Y-54471493D02*
G01*
X44618419Y-54473564D01*
X44632112Y-54476994D01*
X44645403Y-54481749D01*
X44658164Y-54487785D01*
X44670272Y-54495042D01*
X44681610Y-54503451D01*
X44692069Y-54512931D01*
X44701549Y-54523390D01*
X44709958Y-54534728D01*
X44717215Y-54546836D01*
X44723251Y-54559597D01*
X44728006Y-54572888D01*
X44731436Y-54586581D01*
X44733507Y-54600544D01*
X44734200Y-54614643D01*
X44734200Y-54885357D01*
X44733507Y-54899456D01*
X44731436Y-54913419D01*
X44728006Y-54927112D01*
X44723251Y-54940403D01*
X44717215Y-54953164D01*
X44709958Y-54965272D01*
X44701549Y-54976610D01*
X44692069Y-54987069D01*
X44681610Y-54996549D01*
X44670272Y-55004958D01*
X44658164Y-55012215D01*
X44645403Y-55018251D01*
X44632112Y-55023006D01*
X44618419Y-55026436D01*
X44604456Y-55028507D01*
X44590357Y-55029200D01*
X43919643Y-55029200D01*
X43905544Y-55028507D01*
X43891581Y-55026436D01*
X43877888Y-55023006D01*
X43864597Y-55018251D01*
X43851836Y-55012215D01*
X43839728Y-55004958D01*
X43828390Y-54996549D01*
X43817931Y-54987069D01*
X43808451Y-54976610D01*
X43800042Y-54965272D01*
X43792785Y-54953164D01*
X43786749Y-54940403D01*
X43781994Y-54927112D01*
X43778564Y-54913419D01*
X43776493Y-54899456D01*
X43775800Y-54885357D01*
X43775800Y-54614643D01*
X43776493Y-54600544D01*
X43778564Y-54586581D01*
X43781994Y-54572888D01*
X43786749Y-54559597D01*
X43792785Y-54546836D01*
X43800042Y-54534728D01*
X43808451Y-54523390D01*
X43817931Y-54512931D01*
X43828390Y-54503451D01*
X43839728Y-54495042D01*
X43851836Y-54487785D01*
X43864597Y-54481749D01*
X43877888Y-54476994D01*
X43891581Y-54473564D01*
X43905544Y-54471493D01*
X43919643Y-54470800D01*
X44590357Y-54470800D01*
X44604456Y-54471493D01*
G37*
G36*
X44604456Y-56371493D02*
G01*
X44618419Y-56373564D01*
X44632112Y-56376994D01*
X44645403Y-56381749D01*
X44658164Y-56387785D01*
X44670272Y-56395042D01*
X44681610Y-56403451D01*
X44692069Y-56412931D01*
X44701549Y-56423390D01*
X44709958Y-56434728D01*
X44717215Y-56446836D01*
X44723251Y-56459597D01*
X44728006Y-56472888D01*
X44731436Y-56486581D01*
X44733507Y-56500544D01*
X44734200Y-56514643D01*
X44734200Y-56785357D01*
X44733507Y-56799456D01*
X44731436Y-56813419D01*
X44728006Y-56827112D01*
X44723251Y-56840403D01*
X44717215Y-56853164D01*
X44709958Y-56865272D01*
X44701549Y-56876610D01*
X44692069Y-56887069D01*
X44681610Y-56896549D01*
X44670272Y-56904958D01*
X44658164Y-56912215D01*
X44645403Y-56918251D01*
X44632112Y-56923006D01*
X44618419Y-56926436D01*
X44604456Y-56928507D01*
X44590357Y-56929200D01*
X43919643Y-56929200D01*
X43905544Y-56928507D01*
X43891581Y-56926436D01*
X43877888Y-56923006D01*
X43864597Y-56918251D01*
X43851836Y-56912215D01*
X43839728Y-56904958D01*
X43828390Y-56896549D01*
X43817931Y-56887069D01*
X43808451Y-56876610D01*
X43800042Y-56865272D01*
X43792785Y-56853164D01*
X43786749Y-56840403D01*
X43781994Y-56827112D01*
X43778564Y-56813419D01*
X43776493Y-56799456D01*
X43775800Y-56785357D01*
X43775800Y-56514643D01*
X43776493Y-56500544D01*
X43778564Y-56486581D01*
X43781994Y-56472888D01*
X43786749Y-56459597D01*
X43792785Y-56446836D01*
X43800042Y-56434728D01*
X43808451Y-56423390D01*
X43817931Y-56412931D01*
X43828390Y-56403451D01*
X43839728Y-56395042D01*
X43851836Y-56387785D01*
X43864597Y-56381749D01*
X43877888Y-56376994D01*
X43891581Y-56373564D01*
X43905544Y-56371493D01*
X43919643Y-56370800D01*
X44590357Y-56370800D01*
X44604456Y-56371493D01*
G37*
G36*
X49717397Y-64066690D02*
G01*
X49735349Y-64069353D01*
X49752953Y-64073763D01*
X49770040Y-64079877D01*
X49786446Y-64087636D01*
X49802012Y-64096966D01*
X49816589Y-64107777D01*
X49830036Y-64119964D01*
X49842223Y-64133411D01*
X49853034Y-64147988D01*
X49862364Y-64163554D01*
X49870123Y-64179960D01*
X49876237Y-64197047D01*
X49880647Y-64214651D01*
X49883310Y-64232603D01*
X49884200Y-64250729D01*
X49884200Y-64749271D01*
X49883310Y-64767397D01*
X49880647Y-64785349D01*
X49876237Y-64802953D01*
X49870123Y-64820040D01*
X49862364Y-64836446D01*
X49853034Y-64852012D01*
X49842223Y-64866589D01*
X49830036Y-64880036D01*
X49816589Y-64892223D01*
X49802012Y-64903034D01*
X49786446Y-64912364D01*
X49770040Y-64920123D01*
X49752953Y-64926237D01*
X49735349Y-64930647D01*
X49717397Y-64933310D01*
X49699271Y-64934200D01*
X49320729Y-64934200D01*
X49302603Y-64933310D01*
X49284651Y-64930647D01*
X49267047Y-64926237D01*
X49249960Y-64920123D01*
X49233554Y-64912364D01*
X49217988Y-64903034D01*
X49203411Y-64892223D01*
X49189964Y-64880036D01*
X49177777Y-64866589D01*
X49166966Y-64852012D01*
X49157636Y-64836446D01*
X49149877Y-64820040D01*
X49143763Y-64802953D01*
X49139353Y-64785349D01*
X49136690Y-64767397D01*
X49135800Y-64749271D01*
X49135800Y-64250729D01*
X49136690Y-64232603D01*
X49139353Y-64214651D01*
X49143763Y-64197047D01*
X49149877Y-64179960D01*
X49157636Y-64163554D01*
X49166966Y-64147988D01*
X49177777Y-64133411D01*
X49189964Y-64119964D01*
X49203411Y-64107777D01*
X49217988Y-64096966D01*
X49233554Y-64087636D01*
X49249960Y-64079877D01*
X49267047Y-64073763D01*
X49284651Y-64069353D01*
X49302603Y-64066690D01*
X49320729Y-64065800D01*
X49699271Y-64065800D01*
X49717397Y-64066690D01*
G37*
G36*
X48197397Y-64066690D02*
G01*
X48215349Y-64069353D01*
X48232953Y-64073763D01*
X48250040Y-64079877D01*
X48266446Y-64087636D01*
X48282012Y-64096966D01*
X48296589Y-64107777D01*
X48310036Y-64119964D01*
X48322223Y-64133411D01*
X48333034Y-64147988D01*
X48342364Y-64163554D01*
X48350123Y-64179960D01*
X48356237Y-64197047D01*
X48360647Y-64214651D01*
X48363310Y-64232603D01*
X48364200Y-64250729D01*
X48364200Y-64749271D01*
X48363310Y-64767397D01*
X48360647Y-64785349D01*
X48356237Y-64802953D01*
X48350123Y-64820040D01*
X48342364Y-64836446D01*
X48333034Y-64852012D01*
X48322223Y-64866589D01*
X48310036Y-64880036D01*
X48296589Y-64892223D01*
X48282012Y-64903034D01*
X48266446Y-64912364D01*
X48250040Y-64920123D01*
X48232953Y-64926237D01*
X48215349Y-64930647D01*
X48197397Y-64933310D01*
X48179271Y-64934200D01*
X47800729Y-64934200D01*
X47782603Y-64933310D01*
X47764651Y-64930647D01*
X47747047Y-64926237D01*
X47729960Y-64920123D01*
X47713554Y-64912364D01*
X47697988Y-64903034D01*
X47683411Y-64892223D01*
X47669964Y-64880036D01*
X47657777Y-64866589D01*
X47646966Y-64852012D01*
X47637636Y-64836446D01*
X47629877Y-64820040D01*
X47623763Y-64802953D01*
X47619353Y-64785349D01*
X47616690Y-64767397D01*
X47615800Y-64749271D01*
X47615800Y-64250729D01*
X47616690Y-64232603D01*
X47619353Y-64214651D01*
X47623763Y-64197047D01*
X47629877Y-64179960D01*
X47637636Y-64163554D01*
X47646966Y-64147988D01*
X47657777Y-64133411D01*
X47669964Y-64119964D01*
X47683411Y-64107777D01*
X47697988Y-64096966D01*
X47713554Y-64087636D01*
X47729960Y-64079877D01*
X47747047Y-64073763D01*
X47764651Y-64069353D01*
X47782603Y-64066690D01*
X47800729Y-64065800D01*
X48179271Y-64065800D01*
X48197397Y-64066690D01*
G37*
G36*
X45967397Y-62066690D02*
G01*
X45985349Y-62069353D01*
X46002953Y-62073763D01*
X46020040Y-62079877D01*
X46036446Y-62087636D01*
X46052012Y-62096966D01*
X46066589Y-62107777D01*
X46080036Y-62119964D01*
X46092223Y-62133411D01*
X46103034Y-62147988D01*
X46112364Y-62163554D01*
X46120123Y-62179960D01*
X46126237Y-62197047D01*
X46130647Y-62214651D01*
X46133310Y-62232603D01*
X46134200Y-62250729D01*
X46134200Y-62749271D01*
X46133310Y-62767397D01*
X46130647Y-62785349D01*
X46126237Y-62802953D01*
X46120123Y-62820040D01*
X46112364Y-62836446D01*
X46103034Y-62852012D01*
X46092223Y-62866589D01*
X46080036Y-62880036D01*
X46066589Y-62892223D01*
X46052012Y-62903034D01*
X46036446Y-62912364D01*
X46020040Y-62920123D01*
X46002953Y-62926237D01*
X45985349Y-62930647D01*
X45967397Y-62933310D01*
X45949271Y-62934200D01*
X45570729Y-62934200D01*
X45552603Y-62933310D01*
X45534651Y-62930647D01*
X45517047Y-62926237D01*
X45499960Y-62920123D01*
X45483554Y-62912364D01*
X45467988Y-62903034D01*
X45453411Y-62892223D01*
X45439964Y-62880036D01*
X45427777Y-62866589D01*
X45416966Y-62852012D01*
X45407636Y-62836446D01*
X45399877Y-62820040D01*
X45393763Y-62802953D01*
X45389353Y-62785349D01*
X45386690Y-62767397D01*
X45385800Y-62749271D01*
X45385800Y-62250729D01*
X45386690Y-62232603D01*
X45389353Y-62214651D01*
X45393763Y-62197047D01*
X45399877Y-62179960D01*
X45407636Y-62163554D01*
X45416966Y-62147988D01*
X45427777Y-62133411D01*
X45439964Y-62119964D01*
X45453411Y-62107777D01*
X45467988Y-62096966D01*
X45483554Y-62087636D01*
X45499960Y-62079877D01*
X45517047Y-62073763D01*
X45534651Y-62069353D01*
X45552603Y-62066690D01*
X45570729Y-62065800D01*
X45949271Y-62065800D01*
X45967397Y-62066690D01*
G37*
G36*
X44447397Y-62066690D02*
G01*
X44465349Y-62069353D01*
X44482953Y-62073763D01*
X44500040Y-62079877D01*
X44516446Y-62087636D01*
X44532012Y-62096966D01*
X44546589Y-62107777D01*
X44560036Y-62119964D01*
X44572223Y-62133411D01*
X44583034Y-62147988D01*
X44592364Y-62163554D01*
X44600123Y-62179960D01*
X44606237Y-62197047D01*
X44610647Y-62214651D01*
X44613310Y-62232603D01*
X44614200Y-62250729D01*
X44614200Y-62749271D01*
X44613310Y-62767397D01*
X44610647Y-62785349D01*
X44606237Y-62802953D01*
X44600123Y-62820040D01*
X44592364Y-62836446D01*
X44583034Y-62852012D01*
X44572223Y-62866589D01*
X44560036Y-62880036D01*
X44546589Y-62892223D01*
X44532012Y-62903034D01*
X44516446Y-62912364D01*
X44500040Y-62920123D01*
X44482953Y-62926237D01*
X44465349Y-62930647D01*
X44447397Y-62933310D01*
X44429271Y-62934200D01*
X44050729Y-62934200D01*
X44032603Y-62933310D01*
X44014651Y-62930647D01*
X43997047Y-62926237D01*
X43979960Y-62920123D01*
X43963554Y-62912364D01*
X43947988Y-62903034D01*
X43933411Y-62892223D01*
X43919964Y-62880036D01*
X43907777Y-62866589D01*
X43896966Y-62852012D01*
X43887636Y-62836446D01*
X43879877Y-62820040D01*
X43873763Y-62802953D01*
X43869353Y-62785349D01*
X43866690Y-62767397D01*
X43865800Y-62749271D01*
X43865800Y-62250729D01*
X43866690Y-62232603D01*
X43869353Y-62214651D01*
X43873763Y-62197047D01*
X43879877Y-62179960D01*
X43887636Y-62163554D01*
X43896966Y-62147988D01*
X43907777Y-62133411D01*
X43919964Y-62119964D01*
X43933411Y-62107777D01*
X43947988Y-62096966D01*
X43963554Y-62087636D01*
X43979960Y-62079877D01*
X43997047Y-62073763D01*
X44014651Y-62069353D01*
X44032603Y-62066690D01*
X44050729Y-62065800D01*
X44429271Y-62065800D01*
X44447397Y-62066690D01*
G37*
G36*
X49717397Y-54316690D02*
G01*
X49735349Y-54319353D01*
X49752953Y-54323763D01*
X49770040Y-54329877D01*
X49786446Y-54337636D01*
X49802012Y-54346966D01*
X49816589Y-54357777D01*
X49830036Y-54369964D01*
X49842223Y-54383411D01*
X49853034Y-54397988D01*
X49862364Y-54413554D01*
X49870123Y-54429960D01*
X49876237Y-54447047D01*
X49880647Y-54464651D01*
X49883310Y-54482603D01*
X49884200Y-54500729D01*
X49884200Y-54999271D01*
X49883310Y-55017397D01*
X49880647Y-55035349D01*
X49876237Y-55052953D01*
X49870123Y-55070040D01*
X49862364Y-55086446D01*
X49853034Y-55102012D01*
X49842223Y-55116589D01*
X49830036Y-55130036D01*
X49816589Y-55142223D01*
X49802012Y-55153034D01*
X49786446Y-55162364D01*
X49770040Y-55170123D01*
X49752953Y-55176237D01*
X49735349Y-55180647D01*
X49717397Y-55183310D01*
X49699271Y-55184200D01*
X49320729Y-55184200D01*
X49302603Y-55183310D01*
X49284651Y-55180647D01*
X49267047Y-55176237D01*
X49249960Y-55170123D01*
X49233554Y-55162364D01*
X49217988Y-55153034D01*
X49203411Y-55142223D01*
X49189964Y-55130036D01*
X49177777Y-55116589D01*
X49166966Y-55102012D01*
X49157636Y-55086446D01*
X49149877Y-55070040D01*
X49143763Y-55052953D01*
X49139353Y-55035349D01*
X49136690Y-55017397D01*
X49135800Y-54999271D01*
X49135800Y-54500729D01*
X49136690Y-54482603D01*
X49139353Y-54464651D01*
X49143763Y-54447047D01*
X49149877Y-54429960D01*
X49157636Y-54413554D01*
X49166966Y-54397988D01*
X49177777Y-54383411D01*
X49189964Y-54369964D01*
X49203411Y-54357777D01*
X49217988Y-54346966D01*
X49233554Y-54337636D01*
X49249960Y-54329877D01*
X49267047Y-54323763D01*
X49284651Y-54319353D01*
X49302603Y-54316690D01*
X49320729Y-54315800D01*
X49699271Y-54315800D01*
X49717397Y-54316690D01*
G37*
G36*
X48197397Y-54316690D02*
G01*
X48215349Y-54319353D01*
X48232953Y-54323763D01*
X48250040Y-54329877D01*
X48266446Y-54337636D01*
X48282012Y-54346966D01*
X48296589Y-54357777D01*
X48310036Y-54369964D01*
X48322223Y-54383411D01*
X48333034Y-54397988D01*
X48342364Y-54413554D01*
X48350123Y-54429960D01*
X48356237Y-54447047D01*
X48360647Y-54464651D01*
X48363310Y-54482603D01*
X48364200Y-54500729D01*
X48364200Y-54999271D01*
X48363310Y-55017397D01*
X48360647Y-55035349D01*
X48356237Y-55052953D01*
X48350123Y-55070040D01*
X48342364Y-55086446D01*
X48333034Y-55102012D01*
X48322223Y-55116589D01*
X48310036Y-55130036D01*
X48296589Y-55142223D01*
X48282012Y-55153034D01*
X48266446Y-55162364D01*
X48250040Y-55170123D01*
X48232953Y-55176237D01*
X48215349Y-55180647D01*
X48197397Y-55183310D01*
X48179271Y-55184200D01*
X47800729Y-55184200D01*
X47782603Y-55183310D01*
X47764651Y-55180647D01*
X47747047Y-55176237D01*
X47729960Y-55170123D01*
X47713554Y-55162364D01*
X47697988Y-55153034D01*
X47683411Y-55142223D01*
X47669964Y-55130036D01*
X47657777Y-55116589D01*
X47646966Y-55102012D01*
X47637636Y-55086446D01*
X47629877Y-55070040D01*
X47623763Y-55052953D01*
X47619353Y-55035349D01*
X47616690Y-55017397D01*
X47615800Y-54999271D01*
X47615800Y-54500729D01*
X47616690Y-54482603D01*
X47619353Y-54464651D01*
X47623763Y-54447047D01*
X47629877Y-54429960D01*
X47637636Y-54413554D01*
X47646966Y-54397988D01*
X47657777Y-54383411D01*
X47669964Y-54369964D01*
X47683411Y-54357777D01*
X47697988Y-54346966D01*
X47713554Y-54337636D01*
X47729960Y-54329877D01*
X47747047Y-54323763D01*
X47764651Y-54319353D01*
X47782603Y-54316690D01*
X47800729Y-54315800D01*
X48179271Y-54315800D01*
X48197397Y-54316690D01*
G37*
G36*
X45977397Y-58566690D02*
G01*
X45995349Y-58569353D01*
X46012953Y-58573763D01*
X46030040Y-58579877D01*
X46046446Y-58587636D01*
X46062012Y-58596966D01*
X46076589Y-58607777D01*
X46090036Y-58619964D01*
X46102223Y-58633411D01*
X46113034Y-58647988D01*
X46122364Y-58663554D01*
X46130123Y-58679960D01*
X46136237Y-58697047D01*
X46140647Y-58714651D01*
X46143310Y-58732603D01*
X46144200Y-58750729D01*
X46144200Y-59249271D01*
X46143310Y-59267397D01*
X46140647Y-59285349D01*
X46136237Y-59302953D01*
X46130123Y-59320040D01*
X46122364Y-59336446D01*
X46113034Y-59352012D01*
X46102223Y-59366589D01*
X46090036Y-59380036D01*
X46076589Y-59392223D01*
X46062012Y-59403034D01*
X46046446Y-59412364D01*
X46030040Y-59420123D01*
X46012953Y-59426237D01*
X45995349Y-59430647D01*
X45977397Y-59433310D01*
X45959271Y-59434200D01*
X45580729Y-59434200D01*
X45562603Y-59433310D01*
X45544651Y-59430647D01*
X45527047Y-59426237D01*
X45509960Y-59420123D01*
X45493554Y-59412364D01*
X45477988Y-59403034D01*
X45463411Y-59392223D01*
X45449964Y-59380036D01*
X45437777Y-59366589D01*
X45426966Y-59352012D01*
X45417636Y-59336446D01*
X45409877Y-59320040D01*
X45403763Y-59302953D01*
X45399353Y-59285349D01*
X45396690Y-59267397D01*
X45395800Y-59249271D01*
X45395800Y-58750729D01*
X45396690Y-58732603D01*
X45399353Y-58714651D01*
X45403763Y-58697047D01*
X45409877Y-58679960D01*
X45417636Y-58663554D01*
X45426966Y-58647988D01*
X45437777Y-58633411D01*
X45449964Y-58619964D01*
X45463411Y-58607777D01*
X45477988Y-58596966D01*
X45493554Y-58587636D01*
X45509960Y-58579877D01*
X45527047Y-58573763D01*
X45544651Y-58569353D01*
X45562603Y-58566690D01*
X45580729Y-58565800D01*
X45959271Y-58565800D01*
X45977397Y-58566690D01*
G37*
G36*
X44457397Y-58566690D02*
G01*
X44475349Y-58569353D01*
X44492953Y-58573763D01*
X44510040Y-58579877D01*
X44526446Y-58587636D01*
X44542012Y-58596966D01*
X44556589Y-58607777D01*
X44570036Y-58619964D01*
X44582223Y-58633411D01*
X44593034Y-58647988D01*
X44602364Y-58663554D01*
X44610123Y-58679960D01*
X44616237Y-58697047D01*
X44620647Y-58714651D01*
X44623310Y-58732603D01*
X44624200Y-58750729D01*
X44624200Y-59249271D01*
X44623310Y-59267397D01*
X44620647Y-59285349D01*
X44616237Y-59302953D01*
X44610123Y-59320040D01*
X44602364Y-59336446D01*
X44593034Y-59352012D01*
X44582223Y-59366589D01*
X44570036Y-59380036D01*
X44556589Y-59392223D01*
X44542012Y-59403034D01*
X44526446Y-59412364D01*
X44510040Y-59420123D01*
X44492953Y-59426237D01*
X44475349Y-59430647D01*
X44457397Y-59433310D01*
X44439271Y-59434200D01*
X44060729Y-59434200D01*
X44042603Y-59433310D01*
X44024651Y-59430647D01*
X44007047Y-59426237D01*
X43989960Y-59420123D01*
X43973554Y-59412364D01*
X43957988Y-59403034D01*
X43943411Y-59392223D01*
X43929964Y-59380036D01*
X43917777Y-59366589D01*
X43906966Y-59352012D01*
X43897636Y-59336446D01*
X43889877Y-59320040D01*
X43883763Y-59302953D01*
X43879353Y-59285349D01*
X43876690Y-59267397D01*
X43875800Y-59249271D01*
X43875800Y-58750729D01*
X43876690Y-58732603D01*
X43879353Y-58714651D01*
X43883763Y-58697047D01*
X43889877Y-58679960D01*
X43897636Y-58663554D01*
X43906966Y-58647988D01*
X43917777Y-58633411D01*
X43929964Y-58619964D01*
X43943411Y-58607777D01*
X43957988Y-58596966D01*
X43973554Y-58587636D01*
X43989960Y-58579877D01*
X44007047Y-58573763D01*
X44024651Y-58569353D01*
X44042603Y-58566690D01*
X44060729Y-58565800D01*
X44439271Y-58565800D01*
X44457397Y-58566690D01*
G37*
G36*
X57376237Y-63896910D02*
G01*
X57398618Y-63900230D01*
X57420567Y-63905728D01*
X57441870Y-63913350D01*
X57462324Y-63923024D01*
X57481731Y-63934657D01*
X57499905Y-63948135D01*
X57516670Y-63963330D01*
X57531865Y-63980095D01*
X57545343Y-63998269D01*
X57556976Y-64017676D01*
X57566650Y-64038130D01*
X57574272Y-64059433D01*
X57579770Y-64081382D01*
X57583090Y-64103763D01*
X57584200Y-64126362D01*
X57584200Y-64873638D01*
X57583090Y-64896237D01*
X57579770Y-64918618D01*
X57574272Y-64940567D01*
X57566650Y-64961870D01*
X57556976Y-64982324D01*
X57545343Y-65001731D01*
X57531865Y-65019905D01*
X57516670Y-65036670D01*
X57499905Y-65051865D01*
X57481731Y-65065343D01*
X57462324Y-65076976D01*
X57441870Y-65086650D01*
X57420567Y-65094272D01*
X57398618Y-65099770D01*
X57376237Y-65103090D01*
X57353638Y-65104200D01*
X54646362Y-65104200D01*
X54623763Y-65103090D01*
X54601382Y-65099770D01*
X54579433Y-65094272D01*
X54558130Y-65086650D01*
X54537676Y-65076976D01*
X54518269Y-65065343D01*
X54500095Y-65051865D01*
X54483330Y-65036670D01*
X54468135Y-65019905D01*
X54454657Y-65001731D01*
X54443024Y-64982324D01*
X54433350Y-64961870D01*
X54425728Y-64940567D01*
X54420230Y-64918618D01*
X54416910Y-64896237D01*
X54415800Y-64873638D01*
X54415800Y-64126362D01*
X54416910Y-64103763D01*
X54420230Y-64081382D01*
X54425728Y-64059433D01*
X54433350Y-64038130D01*
X54443024Y-64017676D01*
X54454657Y-63998269D01*
X54468135Y-63980095D01*
X54483330Y-63963330D01*
X54500095Y-63948135D01*
X54518269Y-63934657D01*
X54537676Y-63923024D01*
X54558130Y-63913350D01*
X54579433Y-63905728D01*
X54601382Y-63900230D01*
X54623763Y-63896910D01*
X54646362Y-63895800D01*
X57353638Y-63895800D01*
X57376237Y-63896910D01*
G37*
G36*
X57376019Y-68468911D02*
G01*
X57398424Y-68472235D01*
X57420395Y-68477738D01*
X57441721Y-68485369D01*
X57462196Y-68495053D01*
X57481624Y-68506697D01*
X57499817Y-68520190D01*
X57516599Y-68535401D01*
X57531810Y-68552183D01*
X57545303Y-68570376D01*
X57556947Y-68589804D01*
X57566631Y-68610279D01*
X57574262Y-68631605D01*
X57579765Y-68653576D01*
X57583089Y-68675981D01*
X57584200Y-68698604D01*
X57584200Y-69445396D01*
X57583089Y-69468019D01*
X57579765Y-69490424D01*
X57574262Y-69512395D01*
X57566631Y-69533721D01*
X57556947Y-69554196D01*
X57545303Y-69573624D01*
X57531810Y-69591817D01*
X57516599Y-69608599D01*
X57499817Y-69623810D01*
X57481624Y-69637303D01*
X57462196Y-69648947D01*
X57441721Y-69658631D01*
X57420395Y-69666262D01*
X57398424Y-69671765D01*
X57376019Y-69675089D01*
X57353396Y-69676200D01*
X54646604Y-69676200D01*
X54623981Y-69675089D01*
X54601576Y-69671765D01*
X54579605Y-69666262D01*
X54558279Y-69658631D01*
X54537804Y-69648947D01*
X54518376Y-69637303D01*
X54500183Y-69623810D01*
X54483401Y-69608599D01*
X54468190Y-69591817D01*
X54454697Y-69573624D01*
X54443053Y-69554196D01*
X54433369Y-69533721D01*
X54425738Y-69512395D01*
X54420235Y-69490424D01*
X54416911Y-69468019D01*
X54415800Y-69445396D01*
X54415800Y-68698604D01*
X54416911Y-68675981D01*
X54420235Y-68653576D01*
X54425738Y-68631605D01*
X54433369Y-68610279D01*
X54443053Y-68589804D01*
X54454697Y-68570376D01*
X54468190Y-68552183D01*
X54483401Y-68535401D01*
X54500183Y-68520190D01*
X54518376Y-68506697D01*
X54537804Y-68495053D01*
X54558279Y-68485369D01*
X54579605Y-68477738D01*
X54601576Y-68472235D01*
X54623981Y-68468911D01*
X54646604Y-68467800D01*
X57353396Y-68467800D01*
X57376019Y-68468911D01*
G37*
D11*
X60400000Y-68061000D03*
X62510000Y-68061000D03*
X64620000Y-68061000D03*
X60400000Y-65511000D03*
X62510000Y-65511000D03*
X64620000Y-65511000D03*
D10*
G36*
X57376237Y-54146910D02*
G01*
X57398618Y-54150230D01*
X57420567Y-54155728D01*
X57441870Y-54163350D01*
X57462324Y-54173024D01*
X57481731Y-54184657D01*
X57499905Y-54198135D01*
X57516670Y-54213330D01*
X57531865Y-54230095D01*
X57545343Y-54248269D01*
X57556976Y-54267676D01*
X57566650Y-54288130D01*
X57574272Y-54309433D01*
X57579770Y-54331382D01*
X57583090Y-54353763D01*
X57584200Y-54376362D01*
X57584200Y-55123638D01*
X57583090Y-55146237D01*
X57579770Y-55168618D01*
X57574272Y-55190567D01*
X57566650Y-55211870D01*
X57556976Y-55232324D01*
X57545343Y-55251731D01*
X57531865Y-55269905D01*
X57516670Y-55286670D01*
X57499905Y-55301865D01*
X57481731Y-55315343D01*
X57462324Y-55326976D01*
X57441870Y-55336650D01*
X57420567Y-55344272D01*
X57398618Y-55349770D01*
X57376237Y-55353090D01*
X57353638Y-55354200D01*
X54646362Y-55354200D01*
X54623763Y-55353090D01*
X54601382Y-55349770D01*
X54579433Y-55344272D01*
X54558130Y-55336650D01*
X54537676Y-55326976D01*
X54518269Y-55315343D01*
X54500095Y-55301865D01*
X54483330Y-55286670D01*
X54468135Y-55269905D01*
X54454657Y-55251731D01*
X54443024Y-55232324D01*
X54433350Y-55211870D01*
X54425728Y-55190567D01*
X54420230Y-55168618D01*
X54416910Y-55146237D01*
X54415800Y-55123638D01*
X54415800Y-54376362D01*
X54416910Y-54353763D01*
X54420230Y-54331382D01*
X54425728Y-54309433D01*
X54433350Y-54288130D01*
X54443024Y-54267676D01*
X54454657Y-54248269D01*
X54468135Y-54230095D01*
X54483330Y-54213330D01*
X54500095Y-54198135D01*
X54518269Y-54184657D01*
X54537676Y-54173024D01*
X54558130Y-54163350D01*
X54579433Y-54155728D01*
X54601382Y-54150230D01*
X54623763Y-54146910D01*
X54646362Y-54145800D01*
X57353638Y-54145800D01*
X57376237Y-54146910D01*
G37*
G36*
X57376019Y-58718911D02*
G01*
X57398424Y-58722235D01*
X57420395Y-58727738D01*
X57441721Y-58735369D01*
X57462196Y-58745053D01*
X57481624Y-58756697D01*
X57499817Y-58770190D01*
X57516599Y-58785401D01*
X57531810Y-58802183D01*
X57545303Y-58820376D01*
X57556947Y-58839804D01*
X57566631Y-58860279D01*
X57574262Y-58881605D01*
X57579765Y-58903576D01*
X57583089Y-58925981D01*
X57584200Y-58948604D01*
X57584200Y-59695396D01*
X57583089Y-59718019D01*
X57579765Y-59740424D01*
X57574262Y-59762395D01*
X57566631Y-59783721D01*
X57556947Y-59804196D01*
X57545303Y-59823624D01*
X57531810Y-59841817D01*
X57516599Y-59858599D01*
X57499817Y-59873810D01*
X57481624Y-59887303D01*
X57462196Y-59898947D01*
X57441721Y-59908631D01*
X57420395Y-59916262D01*
X57398424Y-59921765D01*
X57376019Y-59925089D01*
X57353396Y-59926200D01*
X54646604Y-59926200D01*
X54623981Y-59925089D01*
X54601576Y-59921765D01*
X54579605Y-59916262D01*
X54558279Y-59908631D01*
X54537804Y-59898947D01*
X54518376Y-59887303D01*
X54500183Y-59873810D01*
X54483401Y-59858599D01*
X54468190Y-59841817D01*
X54454697Y-59823624D01*
X54443053Y-59804196D01*
X54433369Y-59783721D01*
X54425738Y-59762395D01*
X54420235Y-59740424D01*
X54416911Y-59718019D01*
X54415800Y-59695396D01*
X54415800Y-58948604D01*
X54416911Y-58925981D01*
X54420235Y-58903576D01*
X54425738Y-58881605D01*
X54433369Y-58860279D01*
X54443053Y-58839804D01*
X54454697Y-58820376D01*
X54468190Y-58802183D01*
X54483401Y-58785401D01*
X54500183Y-58770190D01*
X54518376Y-58756697D01*
X54537804Y-58745053D01*
X54558279Y-58735369D01*
X54579605Y-58727738D01*
X54601576Y-58722235D01*
X54623981Y-58718911D01*
X54646604Y-58717800D01*
X57353396Y-58717800D01*
X57376019Y-58718911D01*
G37*
D11*
X60400000Y-58311000D03*
X62510000Y-58311000D03*
X64620000Y-58311000D03*
X60400000Y-55761000D03*
X62510000Y-55761000D03*
X64620000Y-55761000D03*
D10*
G36*
X36697397Y-50066690D02*
G01*
X36715349Y-50069353D01*
X36732953Y-50073763D01*
X36750040Y-50079877D01*
X36766446Y-50087636D01*
X36782012Y-50096966D01*
X36796589Y-50107777D01*
X36810036Y-50119964D01*
X36822223Y-50133411D01*
X36833034Y-50147988D01*
X36842364Y-50163554D01*
X36850123Y-50179960D01*
X36856237Y-50197047D01*
X36860647Y-50214651D01*
X36863310Y-50232603D01*
X36864200Y-50250729D01*
X36864200Y-50749271D01*
X36863310Y-50767397D01*
X36860647Y-50785349D01*
X36856237Y-50802953D01*
X36850123Y-50820040D01*
X36842364Y-50836446D01*
X36833034Y-50852012D01*
X36822223Y-50866589D01*
X36810036Y-50880036D01*
X36796589Y-50892223D01*
X36782012Y-50903034D01*
X36766446Y-50912364D01*
X36750040Y-50920123D01*
X36732953Y-50926237D01*
X36715349Y-50930647D01*
X36697397Y-50933310D01*
X36679271Y-50934200D01*
X36300729Y-50934200D01*
X36282603Y-50933310D01*
X36264651Y-50930647D01*
X36247047Y-50926237D01*
X36229960Y-50920123D01*
X36213554Y-50912364D01*
X36197988Y-50903034D01*
X36183411Y-50892223D01*
X36169964Y-50880036D01*
X36157777Y-50866589D01*
X36146966Y-50852012D01*
X36137636Y-50836446D01*
X36129877Y-50820040D01*
X36123763Y-50802953D01*
X36119353Y-50785349D01*
X36116690Y-50767397D01*
X36115800Y-50749271D01*
X36115800Y-50250729D01*
X36116690Y-50232603D01*
X36119353Y-50214651D01*
X36123763Y-50197047D01*
X36129877Y-50179960D01*
X36137636Y-50163554D01*
X36146966Y-50147988D01*
X36157777Y-50133411D01*
X36169964Y-50119964D01*
X36183411Y-50107777D01*
X36197988Y-50096966D01*
X36213554Y-50087636D01*
X36229960Y-50079877D01*
X36247047Y-50073763D01*
X36264651Y-50069353D01*
X36282603Y-50066690D01*
X36300729Y-50065800D01*
X36679271Y-50065800D01*
X36697397Y-50066690D01*
G37*
G36*
X38217397Y-50066690D02*
G01*
X38235349Y-50069353D01*
X38252953Y-50073763D01*
X38270040Y-50079877D01*
X38286446Y-50087636D01*
X38302012Y-50096966D01*
X38316589Y-50107777D01*
X38330036Y-50119964D01*
X38342223Y-50133411D01*
X38353034Y-50147988D01*
X38362364Y-50163554D01*
X38370123Y-50179960D01*
X38376237Y-50197047D01*
X38380647Y-50214651D01*
X38383310Y-50232603D01*
X38384200Y-50250729D01*
X38384200Y-50749271D01*
X38383310Y-50767397D01*
X38380647Y-50785349D01*
X38376237Y-50802953D01*
X38370123Y-50820040D01*
X38362364Y-50836446D01*
X38353034Y-50852012D01*
X38342223Y-50866589D01*
X38330036Y-50880036D01*
X38316589Y-50892223D01*
X38302012Y-50903034D01*
X38286446Y-50912364D01*
X38270040Y-50920123D01*
X38252953Y-50926237D01*
X38235349Y-50930647D01*
X38217397Y-50933310D01*
X38199271Y-50934200D01*
X37820729Y-50934200D01*
X37802603Y-50933310D01*
X37784651Y-50930647D01*
X37767047Y-50926237D01*
X37749960Y-50920123D01*
X37733554Y-50912364D01*
X37717988Y-50903034D01*
X37703411Y-50892223D01*
X37689964Y-50880036D01*
X37677777Y-50866589D01*
X37666966Y-50852012D01*
X37657636Y-50836446D01*
X37649877Y-50820040D01*
X37643763Y-50802953D01*
X37639353Y-50785349D01*
X37636690Y-50767397D01*
X37635800Y-50749271D01*
X37635800Y-50250729D01*
X37636690Y-50232603D01*
X37639353Y-50214651D01*
X37643763Y-50197047D01*
X37649877Y-50179960D01*
X37657636Y-50163554D01*
X37666966Y-50147988D01*
X37677777Y-50133411D01*
X37689964Y-50119964D01*
X37703411Y-50107777D01*
X37717988Y-50096966D01*
X37733554Y-50087636D01*
X37749960Y-50079877D01*
X37767047Y-50073763D01*
X37784651Y-50069353D01*
X37802603Y-50066690D01*
X37820729Y-50065800D01*
X38199271Y-50065800D01*
X38217397Y-50066690D01*
G37*
G36*
X69257424Y-65816931D02*
G01*
X69280216Y-65820311D01*
X69302567Y-65825910D01*
X69324261Y-65833672D01*
X69345090Y-65843524D01*
X69364853Y-65855369D01*
X69383360Y-65869095D01*
X69400432Y-65884568D01*
X69415905Y-65901640D01*
X69429631Y-65920147D01*
X69441476Y-65939910D01*
X69451328Y-65960739D01*
X69459090Y-65982433D01*
X69464689Y-66004784D01*
X69468069Y-66027576D01*
X69469200Y-66050589D01*
X69469200Y-67149411D01*
X69468069Y-67172424D01*
X69464689Y-67195216D01*
X69459090Y-67217567D01*
X69451328Y-67239261D01*
X69441476Y-67260090D01*
X69429631Y-67279853D01*
X69415905Y-67298360D01*
X69400432Y-67315432D01*
X69383360Y-67330905D01*
X69364853Y-67344631D01*
X69345090Y-67356476D01*
X69324261Y-67366328D01*
X69302567Y-67374090D01*
X69280216Y-67379689D01*
X69257424Y-67383069D01*
X69234411Y-67384200D01*
X68035589Y-67384200D01*
X68012576Y-67383069D01*
X67989784Y-67379689D01*
X67967433Y-67374090D01*
X67945739Y-67366328D01*
X67924910Y-67356476D01*
X67905147Y-67344631D01*
X67886640Y-67330905D01*
X67869568Y-67315432D01*
X67854095Y-67298360D01*
X67840369Y-67279853D01*
X67828524Y-67260090D01*
X67818672Y-67239261D01*
X67810910Y-67217567D01*
X67805311Y-67195216D01*
X67801931Y-67172424D01*
X67800800Y-67149411D01*
X67800800Y-66050589D01*
X67801931Y-66027576D01*
X67805311Y-66004784D01*
X67810910Y-65982433D01*
X67818672Y-65960739D01*
X67828524Y-65939910D01*
X67840369Y-65920147D01*
X67854095Y-65901640D01*
X67869568Y-65884568D01*
X67886640Y-65869095D01*
X67905147Y-65855369D01*
X67924910Y-65843524D01*
X67945739Y-65833672D01*
X67967433Y-65825910D01*
X67989784Y-65820311D01*
X68012576Y-65816931D01*
X68035589Y-65815800D01*
X69234411Y-65815800D01*
X69257424Y-65816931D01*
G37*
G36*
X73187424Y-65816931D02*
G01*
X73210216Y-65820311D01*
X73232567Y-65825910D01*
X73254261Y-65833672D01*
X73275090Y-65843524D01*
X73294853Y-65855369D01*
X73313360Y-65869095D01*
X73330432Y-65884568D01*
X73345905Y-65901640D01*
X73359631Y-65920147D01*
X73371476Y-65939910D01*
X73381328Y-65960739D01*
X73389090Y-65982433D01*
X73394689Y-66004784D01*
X73398069Y-66027576D01*
X73399200Y-66050589D01*
X73399200Y-67149411D01*
X73398069Y-67172424D01*
X73394689Y-67195216D01*
X73389090Y-67217567D01*
X73381328Y-67239261D01*
X73371476Y-67260090D01*
X73359631Y-67279853D01*
X73345905Y-67298360D01*
X73330432Y-67315432D01*
X73313360Y-67330905D01*
X73294853Y-67344631D01*
X73275090Y-67356476D01*
X73254261Y-67366328D01*
X73232567Y-67374090D01*
X73210216Y-67379689D01*
X73187424Y-67383069D01*
X73164411Y-67384200D01*
X71965589Y-67384200D01*
X71942576Y-67383069D01*
X71919784Y-67379689D01*
X71897433Y-67374090D01*
X71875739Y-67366328D01*
X71854910Y-67356476D01*
X71835147Y-67344631D01*
X71816640Y-67330905D01*
X71799568Y-67315432D01*
X71784095Y-67298360D01*
X71770369Y-67279853D01*
X71758524Y-67260090D01*
X71748672Y-67239261D01*
X71740910Y-67217567D01*
X71735311Y-67195216D01*
X71731931Y-67172424D01*
X71730800Y-67149411D01*
X71730800Y-66050589D01*
X71731931Y-66027576D01*
X71735311Y-66004784D01*
X71740910Y-65982433D01*
X71748672Y-65960739D01*
X71758524Y-65939910D01*
X71770369Y-65920147D01*
X71784095Y-65901640D01*
X71799568Y-65884568D01*
X71816640Y-65869095D01*
X71835147Y-65855369D01*
X71854910Y-65843524D01*
X71875739Y-65833672D01*
X71897433Y-65825910D01*
X71919784Y-65820311D01*
X71942576Y-65816931D01*
X71965589Y-65815800D01*
X73164411Y-65815800D01*
X73187424Y-65816931D01*
G37*
G36*
X52572424Y-63666931D02*
G01*
X52595216Y-63670311D01*
X52617567Y-63675910D01*
X52639261Y-63683672D01*
X52660090Y-63693524D01*
X52679853Y-63705369D01*
X52698360Y-63719095D01*
X52715432Y-63734568D01*
X52730905Y-63751640D01*
X52744631Y-63770147D01*
X52756476Y-63789910D01*
X52766328Y-63810739D01*
X52774090Y-63832433D01*
X52779689Y-63854784D01*
X52783069Y-63877576D01*
X52784200Y-63900589D01*
X52784200Y-65099411D01*
X52783069Y-65122424D01*
X52779689Y-65145216D01*
X52774090Y-65167567D01*
X52766328Y-65189261D01*
X52756476Y-65210090D01*
X52744631Y-65229853D01*
X52730905Y-65248360D01*
X52715432Y-65265432D01*
X52698360Y-65280905D01*
X52679853Y-65294631D01*
X52660090Y-65306476D01*
X52639261Y-65316328D01*
X52617567Y-65324090D01*
X52595216Y-65329689D01*
X52572424Y-65333069D01*
X52549411Y-65334200D01*
X51450589Y-65334200D01*
X51427576Y-65333069D01*
X51404784Y-65329689D01*
X51382433Y-65324090D01*
X51360739Y-65316328D01*
X51339910Y-65306476D01*
X51320147Y-65294631D01*
X51301640Y-65280905D01*
X51284568Y-65265432D01*
X51269095Y-65248360D01*
X51255369Y-65229853D01*
X51243524Y-65210090D01*
X51233672Y-65189261D01*
X51225910Y-65167567D01*
X51220311Y-65145216D01*
X51216931Y-65122424D01*
X51215800Y-65099411D01*
X51215800Y-63900589D01*
X51216931Y-63877576D01*
X51220311Y-63854784D01*
X51225910Y-63832433D01*
X51233672Y-63810739D01*
X51243524Y-63789910D01*
X51255369Y-63770147D01*
X51269095Y-63751640D01*
X51284568Y-63734568D01*
X51301640Y-63719095D01*
X51320147Y-63705369D01*
X51339910Y-63693524D01*
X51360739Y-63683672D01*
X51382433Y-63675910D01*
X51404784Y-63670311D01*
X51427576Y-63666931D01*
X51450589Y-63665800D01*
X52549411Y-63665800D01*
X52572424Y-63666931D01*
G37*
G36*
X52572424Y-67596931D02*
G01*
X52595216Y-67600311D01*
X52617567Y-67605910D01*
X52639261Y-67613672D01*
X52660090Y-67623524D01*
X52679853Y-67635369D01*
X52698360Y-67649095D01*
X52715432Y-67664568D01*
X52730905Y-67681640D01*
X52744631Y-67700147D01*
X52756476Y-67719910D01*
X52766328Y-67740739D01*
X52774090Y-67762433D01*
X52779689Y-67784784D01*
X52783069Y-67807576D01*
X52784200Y-67830589D01*
X52784200Y-69029411D01*
X52783069Y-69052424D01*
X52779689Y-69075216D01*
X52774090Y-69097567D01*
X52766328Y-69119261D01*
X52756476Y-69140090D01*
X52744631Y-69159853D01*
X52730905Y-69178360D01*
X52715432Y-69195432D01*
X52698360Y-69210905D01*
X52679853Y-69224631D01*
X52660090Y-69236476D01*
X52639261Y-69246328D01*
X52617567Y-69254090D01*
X52595216Y-69259689D01*
X52572424Y-69263069D01*
X52549411Y-69264200D01*
X51450589Y-69264200D01*
X51427576Y-69263069D01*
X51404784Y-69259689D01*
X51382433Y-69254090D01*
X51360739Y-69246328D01*
X51339910Y-69236476D01*
X51320147Y-69224631D01*
X51301640Y-69210905D01*
X51284568Y-69195432D01*
X51269095Y-69178360D01*
X51255369Y-69159853D01*
X51243524Y-69140090D01*
X51233672Y-69119261D01*
X51225910Y-69097567D01*
X51220311Y-69075216D01*
X51216931Y-69052424D01*
X51215800Y-69029411D01*
X51215800Y-67830589D01*
X51216931Y-67807576D01*
X51220311Y-67784784D01*
X51225910Y-67762433D01*
X51233672Y-67740739D01*
X51243524Y-67719910D01*
X51255369Y-67700147D01*
X51269095Y-67681640D01*
X51284568Y-67664568D01*
X51301640Y-67649095D01*
X51320147Y-67635369D01*
X51339910Y-67623524D01*
X51360739Y-67613672D01*
X51382433Y-67605910D01*
X51404784Y-67600311D01*
X51427576Y-67596931D01*
X51450589Y-67595800D01*
X52549411Y-67595800D01*
X52572424Y-67596931D01*
G37*
G36*
X69072424Y-56166931D02*
G01*
X69095216Y-56170311D01*
X69117567Y-56175910D01*
X69139261Y-56183672D01*
X69160090Y-56193524D01*
X69179853Y-56205369D01*
X69198360Y-56219095D01*
X69215432Y-56234568D01*
X69230905Y-56251640D01*
X69244631Y-56270147D01*
X69256476Y-56289910D01*
X69266328Y-56310739D01*
X69274090Y-56332433D01*
X69279689Y-56354784D01*
X69283069Y-56377576D01*
X69284200Y-56400589D01*
X69284200Y-57599411D01*
X69283069Y-57622424D01*
X69279689Y-57645216D01*
X69274090Y-57667567D01*
X69266328Y-57689261D01*
X69256476Y-57710090D01*
X69244631Y-57729853D01*
X69230905Y-57748360D01*
X69215432Y-57765432D01*
X69198360Y-57780905D01*
X69179853Y-57794631D01*
X69160090Y-57806476D01*
X69139261Y-57816328D01*
X69117567Y-57824090D01*
X69095216Y-57829689D01*
X69072424Y-57833069D01*
X69049411Y-57834200D01*
X67950589Y-57834200D01*
X67927576Y-57833069D01*
X67904784Y-57829689D01*
X67882433Y-57824090D01*
X67860739Y-57816328D01*
X67839910Y-57806476D01*
X67820147Y-57794631D01*
X67801640Y-57780905D01*
X67784568Y-57765432D01*
X67769095Y-57748360D01*
X67755369Y-57729853D01*
X67743524Y-57710090D01*
X67733672Y-57689261D01*
X67725910Y-57667567D01*
X67720311Y-57645216D01*
X67716931Y-57622424D01*
X67715800Y-57599411D01*
X67715800Y-56400589D01*
X67716931Y-56377576D01*
X67720311Y-56354784D01*
X67725910Y-56332433D01*
X67733672Y-56310739D01*
X67743524Y-56289910D01*
X67755369Y-56270147D01*
X67769095Y-56251640D01*
X67784568Y-56234568D01*
X67801640Y-56219095D01*
X67820147Y-56205369D01*
X67839910Y-56193524D01*
X67860739Y-56183672D01*
X67882433Y-56175910D01*
X67904784Y-56170311D01*
X67927576Y-56166931D01*
X67950589Y-56165800D01*
X69049411Y-56165800D01*
X69072424Y-56166931D01*
G37*
G36*
X69072424Y-52236931D02*
G01*
X69095216Y-52240311D01*
X69117567Y-52245910D01*
X69139261Y-52253672D01*
X69160090Y-52263524D01*
X69179853Y-52275369D01*
X69198360Y-52289095D01*
X69215432Y-52304568D01*
X69230905Y-52321640D01*
X69244631Y-52340147D01*
X69256476Y-52359910D01*
X69266328Y-52380739D01*
X69274090Y-52402433D01*
X69279689Y-52424784D01*
X69283069Y-52447576D01*
X69284200Y-52470589D01*
X69284200Y-53669411D01*
X69283069Y-53692424D01*
X69279689Y-53715216D01*
X69274090Y-53737567D01*
X69266328Y-53759261D01*
X69256476Y-53780090D01*
X69244631Y-53799853D01*
X69230905Y-53818360D01*
X69215432Y-53835432D01*
X69198360Y-53850905D01*
X69179853Y-53864631D01*
X69160090Y-53876476D01*
X69139261Y-53886328D01*
X69117567Y-53894090D01*
X69095216Y-53899689D01*
X69072424Y-53903069D01*
X69049411Y-53904200D01*
X67950589Y-53904200D01*
X67927576Y-53903069D01*
X67904784Y-53899689D01*
X67882433Y-53894090D01*
X67860739Y-53886328D01*
X67839910Y-53876476D01*
X67820147Y-53864631D01*
X67801640Y-53850905D01*
X67784568Y-53835432D01*
X67769095Y-53818360D01*
X67755369Y-53799853D01*
X67743524Y-53780090D01*
X67733672Y-53759261D01*
X67725910Y-53737567D01*
X67720311Y-53715216D01*
X67716931Y-53692424D01*
X67715800Y-53669411D01*
X67715800Y-52470589D01*
X67716931Y-52447576D01*
X67720311Y-52424784D01*
X67725910Y-52402433D01*
X67733672Y-52380739D01*
X67743524Y-52359910D01*
X67755369Y-52340147D01*
X67769095Y-52321640D01*
X67784568Y-52304568D01*
X67801640Y-52289095D01*
X67820147Y-52275369D01*
X67839910Y-52263524D01*
X67860739Y-52253672D01*
X67882433Y-52245910D01*
X67904784Y-52240311D01*
X67927576Y-52236931D01*
X67950589Y-52235800D01*
X69049411Y-52235800D01*
X69072424Y-52236931D01*
G37*
G36*
X52572424Y-53916931D02*
G01*
X52595216Y-53920311D01*
X52617567Y-53925910D01*
X52639261Y-53933672D01*
X52660090Y-53943524D01*
X52679853Y-53955369D01*
X52698360Y-53969095D01*
X52715432Y-53984568D01*
X52730905Y-54001640D01*
X52744631Y-54020147D01*
X52756476Y-54039910D01*
X52766328Y-54060739D01*
X52774090Y-54082433D01*
X52779689Y-54104784D01*
X52783069Y-54127576D01*
X52784200Y-54150589D01*
X52784200Y-55349411D01*
X52783069Y-55372424D01*
X52779689Y-55395216D01*
X52774090Y-55417567D01*
X52766328Y-55439261D01*
X52756476Y-55460090D01*
X52744631Y-55479853D01*
X52730905Y-55498360D01*
X52715432Y-55515432D01*
X52698360Y-55530905D01*
X52679853Y-55544631D01*
X52660090Y-55556476D01*
X52639261Y-55566328D01*
X52617567Y-55574090D01*
X52595216Y-55579689D01*
X52572424Y-55583069D01*
X52549411Y-55584200D01*
X51450589Y-55584200D01*
X51427576Y-55583069D01*
X51404784Y-55579689D01*
X51382433Y-55574090D01*
X51360739Y-55566328D01*
X51339910Y-55556476D01*
X51320147Y-55544631D01*
X51301640Y-55530905D01*
X51284568Y-55515432D01*
X51269095Y-55498360D01*
X51255369Y-55479853D01*
X51243524Y-55460090D01*
X51233672Y-55439261D01*
X51225910Y-55417567D01*
X51220311Y-55395216D01*
X51216931Y-55372424D01*
X51215800Y-55349411D01*
X51215800Y-54150589D01*
X51216931Y-54127576D01*
X51220311Y-54104784D01*
X51225910Y-54082433D01*
X51233672Y-54060739D01*
X51243524Y-54039910D01*
X51255369Y-54020147D01*
X51269095Y-54001640D01*
X51284568Y-53984568D01*
X51301640Y-53969095D01*
X51320147Y-53955369D01*
X51339910Y-53943524D01*
X51360739Y-53933672D01*
X51382433Y-53925910D01*
X51404784Y-53920311D01*
X51427576Y-53916931D01*
X51450589Y-53915800D01*
X52549411Y-53915800D01*
X52572424Y-53916931D01*
G37*
G36*
X52572424Y-57846931D02*
G01*
X52595216Y-57850311D01*
X52617567Y-57855910D01*
X52639261Y-57863672D01*
X52660090Y-57873524D01*
X52679853Y-57885369D01*
X52698360Y-57899095D01*
X52715432Y-57914568D01*
X52730905Y-57931640D01*
X52744631Y-57950147D01*
X52756476Y-57969910D01*
X52766328Y-57990739D01*
X52774090Y-58012433D01*
X52779689Y-58034784D01*
X52783069Y-58057576D01*
X52784200Y-58080589D01*
X52784200Y-59279411D01*
X52783069Y-59302424D01*
X52779689Y-59325216D01*
X52774090Y-59347567D01*
X52766328Y-59369261D01*
X52756476Y-59390090D01*
X52744631Y-59409853D01*
X52730905Y-59428360D01*
X52715432Y-59445432D01*
X52698360Y-59460905D01*
X52679853Y-59474631D01*
X52660090Y-59486476D01*
X52639261Y-59496328D01*
X52617567Y-59504090D01*
X52595216Y-59509689D01*
X52572424Y-59513069D01*
X52549411Y-59514200D01*
X51450589Y-59514200D01*
X51427576Y-59513069D01*
X51404784Y-59509689D01*
X51382433Y-59504090D01*
X51360739Y-59496328D01*
X51339910Y-59486476D01*
X51320147Y-59474631D01*
X51301640Y-59460905D01*
X51284568Y-59445432D01*
X51269095Y-59428360D01*
X51255369Y-59409853D01*
X51243524Y-59390090D01*
X51233672Y-59369261D01*
X51225910Y-59347567D01*
X51220311Y-59325216D01*
X51216931Y-59302424D01*
X51215800Y-59279411D01*
X51215800Y-58080589D01*
X51216931Y-58057576D01*
X51220311Y-58034784D01*
X51225910Y-58012433D01*
X51233672Y-57990739D01*
X51243524Y-57969910D01*
X51255369Y-57950147D01*
X51269095Y-57931640D01*
X51284568Y-57914568D01*
X51301640Y-57899095D01*
X51320147Y-57885369D01*
X51339910Y-57873524D01*
X51360739Y-57863672D01*
X51382433Y-57855910D01*
X51404784Y-57850311D01*
X51427576Y-57846931D01*
X51450589Y-57845800D01*
X52549411Y-57845800D01*
X52572424Y-57846931D01*
G37*
G36*
X75047875Y-55341928D02*
G01*
X75070619Y-55345302D01*
X75092922Y-55350888D01*
X75114570Y-55358634D01*
X75135354Y-55368465D01*
X75155075Y-55380285D01*
X75173542Y-55393981D01*
X75190578Y-55409422D01*
X75206019Y-55426458D01*
X75219715Y-55444925D01*
X75231535Y-55464646D01*
X75241366Y-55485430D01*
X75249112Y-55507078D01*
X75254698Y-55529381D01*
X75258072Y-55552125D01*
X75259200Y-55575089D01*
X75259200Y-58374911D01*
X75258072Y-58397875D01*
X75254698Y-58420619D01*
X75249112Y-58442922D01*
X75241366Y-58464570D01*
X75231535Y-58485354D01*
X75219715Y-58505075D01*
X75206019Y-58523542D01*
X75190578Y-58540578D01*
X75173542Y-58556019D01*
X75155075Y-58569715D01*
X75135354Y-58581535D01*
X75114570Y-58591366D01*
X75092922Y-58599112D01*
X75070619Y-58604698D01*
X75047875Y-58608072D01*
X75024911Y-58609200D01*
X73975089Y-58609200D01*
X73952125Y-58608072D01*
X73929381Y-58604698D01*
X73907078Y-58599112D01*
X73885430Y-58591366D01*
X73864646Y-58581535D01*
X73844925Y-58569715D01*
X73826458Y-58556019D01*
X73809422Y-58540578D01*
X73793981Y-58523542D01*
X73780285Y-58505075D01*
X73768465Y-58485354D01*
X73758634Y-58464570D01*
X73750888Y-58442922D01*
X73745302Y-58420619D01*
X73741928Y-58397875D01*
X73740800Y-58374911D01*
X73740800Y-55575089D01*
X73741928Y-55552125D01*
X73745302Y-55529381D01*
X73750888Y-55507078D01*
X73758634Y-55485430D01*
X73768465Y-55464646D01*
X73780285Y-55444925D01*
X73793981Y-55426458D01*
X73809422Y-55409422D01*
X73826458Y-55393981D01*
X73844925Y-55380285D01*
X73864646Y-55368465D01*
X73885430Y-55358634D01*
X73907078Y-55350888D01*
X73929381Y-55345302D01*
X73952125Y-55341928D01*
X73975089Y-55340800D01*
X75024911Y-55340800D01*
X75047875Y-55341928D01*
G37*
G36*
X75047875Y-60391928D02*
G01*
X75070619Y-60395302D01*
X75092922Y-60400888D01*
X75114570Y-60408634D01*
X75135354Y-60418465D01*
X75155075Y-60430285D01*
X75173542Y-60443981D01*
X75190578Y-60459422D01*
X75206019Y-60476458D01*
X75219715Y-60494925D01*
X75231535Y-60514646D01*
X75241366Y-60535430D01*
X75249112Y-60557078D01*
X75254698Y-60579381D01*
X75258072Y-60602125D01*
X75259200Y-60625089D01*
X75259200Y-63424911D01*
X75258072Y-63447875D01*
X75254698Y-63470619D01*
X75249112Y-63492922D01*
X75241366Y-63514570D01*
X75231535Y-63535354D01*
X75219715Y-63555075D01*
X75206019Y-63573542D01*
X75190578Y-63590578D01*
X75173542Y-63606019D01*
X75155075Y-63619715D01*
X75135354Y-63631535D01*
X75114570Y-63641366D01*
X75092922Y-63649112D01*
X75070619Y-63654698D01*
X75047875Y-63658072D01*
X75024911Y-63659200D01*
X73975089Y-63659200D01*
X73952125Y-63658072D01*
X73929381Y-63654698D01*
X73907078Y-63649112D01*
X73885430Y-63641366D01*
X73864646Y-63631535D01*
X73844925Y-63619715D01*
X73826458Y-63606019D01*
X73809422Y-63590578D01*
X73793981Y-63573542D01*
X73780285Y-63555075D01*
X73768465Y-63535354D01*
X73758634Y-63514570D01*
X73750888Y-63492922D01*
X73745302Y-63470619D01*
X73741928Y-63447875D01*
X73740800Y-63424911D01*
X73740800Y-60625089D01*
X73741928Y-60602125D01*
X73745302Y-60579381D01*
X73750888Y-60557078D01*
X73758634Y-60535430D01*
X73768465Y-60514646D01*
X73780285Y-60494925D01*
X73793981Y-60476458D01*
X73809422Y-60459422D01*
X73826458Y-60443981D01*
X73844925Y-60430285D01*
X73864646Y-60418465D01*
X73885430Y-60408634D01*
X73907078Y-60400888D01*
X73929381Y-60395302D01*
X73952125Y-60391928D01*
X73975089Y-60390800D01*
X75024911Y-60390800D01*
X75047875Y-60391928D01*
G37*
G36*
X44217397Y-68316690D02*
G01*
X44235349Y-68319353D01*
X44252953Y-68323763D01*
X44270040Y-68329877D01*
X44286446Y-68337636D01*
X44302012Y-68346966D01*
X44316589Y-68357777D01*
X44330036Y-68369964D01*
X44342223Y-68383411D01*
X44353034Y-68397988D01*
X44362364Y-68413554D01*
X44370123Y-68429960D01*
X44376237Y-68447047D01*
X44380647Y-68464651D01*
X44383310Y-68482603D01*
X44384200Y-68500729D01*
X44384200Y-68999271D01*
X44383310Y-69017397D01*
X44380647Y-69035349D01*
X44376237Y-69052953D01*
X44370123Y-69070040D01*
X44362364Y-69086446D01*
X44353034Y-69102012D01*
X44342223Y-69116589D01*
X44330036Y-69130036D01*
X44316589Y-69142223D01*
X44302012Y-69153034D01*
X44286446Y-69162364D01*
X44270040Y-69170123D01*
X44252953Y-69176237D01*
X44235349Y-69180647D01*
X44217397Y-69183310D01*
X44199271Y-69184200D01*
X43820729Y-69184200D01*
X43802603Y-69183310D01*
X43784651Y-69180647D01*
X43767047Y-69176237D01*
X43749960Y-69170123D01*
X43733554Y-69162364D01*
X43717988Y-69153034D01*
X43703411Y-69142223D01*
X43689964Y-69130036D01*
X43677777Y-69116589D01*
X43666966Y-69102012D01*
X43657636Y-69086446D01*
X43649877Y-69070040D01*
X43643763Y-69052953D01*
X43639353Y-69035349D01*
X43636690Y-69017397D01*
X43635800Y-68999271D01*
X43635800Y-68500729D01*
X43636690Y-68482603D01*
X43639353Y-68464651D01*
X43643763Y-68447047D01*
X43649877Y-68429960D01*
X43657636Y-68413554D01*
X43666966Y-68397988D01*
X43677777Y-68383411D01*
X43689964Y-68369964D01*
X43703411Y-68357777D01*
X43717988Y-68346966D01*
X43733554Y-68337636D01*
X43749960Y-68329877D01*
X43767047Y-68323763D01*
X43784651Y-68319353D01*
X43802603Y-68316690D01*
X43820729Y-68315800D01*
X44199271Y-68315800D01*
X44217397Y-68316690D01*
G37*
G36*
X42697397Y-68316690D02*
G01*
X42715349Y-68319353D01*
X42732953Y-68323763D01*
X42750040Y-68329877D01*
X42766446Y-68337636D01*
X42782012Y-68346966D01*
X42796589Y-68357777D01*
X42810036Y-68369964D01*
X42822223Y-68383411D01*
X42833034Y-68397988D01*
X42842364Y-68413554D01*
X42850123Y-68429960D01*
X42856237Y-68447047D01*
X42860647Y-68464651D01*
X42863310Y-68482603D01*
X42864200Y-68500729D01*
X42864200Y-68999271D01*
X42863310Y-69017397D01*
X42860647Y-69035349D01*
X42856237Y-69052953D01*
X42850123Y-69070040D01*
X42842364Y-69086446D01*
X42833034Y-69102012D01*
X42822223Y-69116589D01*
X42810036Y-69130036D01*
X42796589Y-69142223D01*
X42782012Y-69153034D01*
X42766446Y-69162364D01*
X42750040Y-69170123D01*
X42732953Y-69176237D01*
X42715349Y-69180647D01*
X42697397Y-69183310D01*
X42679271Y-69184200D01*
X42300729Y-69184200D01*
X42282603Y-69183310D01*
X42264651Y-69180647D01*
X42247047Y-69176237D01*
X42229960Y-69170123D01*
X42213554Y-69162364D01*
X42197988Y-69153034D01*
X42183411Y-69142223D01*
X42169964Y-69130036D01*
X42157777Y-69116589D01*
X42146966Y-69102012D01*
X42137636Y-69086446D01*
X42129877Y-69070040D01*
X42123763Y-69052953D01*
X42119353Y-69035349D01*
X42116690Y-69017397D01*
X42115800Y-68999271D01*
X42115800Y-68500729D01*
X42116690Y-68482603D01*
X42119353Y-68464651D01*
X42123763Y-68447047D01*
X42129877Y-68429960D01*
X42137636Y-68413554D01*
X42146966Y-68397988D01*
X42157777Y-68383411D01*
X42169964Y-68369964D01*
X42183411Y-68357777D01*
X42197988Y-68346966D01*
X42213554Y-68337636D01*
X42229960Y-68329877D01*
X42247047Y-68323763D01*
X42264651Y-68319353D01*
X42282603Y-68316690D01*
X42300729Y-68315800D01*
X42679271Y-68315800D01*
X42697397Y-68316690D01*
G37*
G36*
X44217397Y-70066690D02*
G01*
X44235349Y-70069353D01*
X44252953Y-70073763D01*
X44270040Y-70079877D01*
X44286446Y-70087636D01*
X44302012Y-70096966D01*
X44316589Y-70107777D01*
X44330036Y-70119964D01*
X44342223Y-70133411D01*
X44353034Y-70147988D01*
X44362364Y-70163554D01*
X44370123Y-70179960D01*
X44376237Y-70197047D01*
X44380647Y-70214651D01*
X44383310Y-70232603D01*
X44384200Y-70250729D01*
X44384200Y-70749271D01*
X44383310Y-70767397D01*
X44380647Y-70785349D01*
X44376237Y-70802953D01*
X44370123Y-70820040D01*
X44362364Y-70836446D01*
X44353034Y-70852012D01*
X44342223Y-70866589D01*
X44330036Y-70880036D01*
X44316589Y-70892223D01*
X44302012Y-70903034D01*
X44286446Y-70912364D01*
X44270040Y-70920123D01*
X44252953Y-70926237D01*
X44235349Y-70930647D01*
X44217397Y-70933310D01*
X44199271Y-70934200D01*
X43820729Y-70934200D01*
X43802603Y-70933310D01*
X43784651Y-70930647D01*
X43767047Y-70926237D01*
X43749960Y-70920123D01*
X43733554Y-70912364D01*
X43717988Y-70903034D01*
X43703411Y-70892223D01*
X43689964Y-70880036D01*
X43677777Y-70866589D01*
X43666966Y-70852012D01*
X43657636Y-70836446D01*
X43649877Y-70820040D01*
X43643763Y-70802953D01*
X43639353Y-70785349D01*
X43636690Y-70767397D01*
X43635800Y-70749271D01*
X43635800Y-70250729D01*
X43636690Y-70232603D01*
X43639353Y-70214651D01*
X43643763Y-70197047D01*
X43649877Y-70179960D01*
X43657636Y-70163554D01*
X43666966Y-70147988D01*
X43677777Y-70133411D01*
X43689964Y-70119964D01*
X43703411Y-70107777D01*
X43717988Y-70096966D01*
X43733554Y-70087636D01*
X43749960Y-70079877D01*
X43767047Y-70073763D01*
X43784651Y-70069353D01*
X43802603Y-70066690D01*
X43820729Y-70065800D01*
X44199271Y-70065800D01*
X44217397Y-70066690D01*
G37*
G36*
X42697397Y-70066690D02*
G01*
X42715349Y-70069353D01*
X42732953Y-70073763D01*
X42750040Y-70079877D01*
X42766446Y-70087636D01*
X42782012Y-70096966D01*
X42796589Y-70107777D01*
X42810036Y-70119964D01*
X42822223Y-70133411D01*
X42833034Y-70147988D01*
X42842364Y-70163554D01*
X42850123Y-70179960D01*
X42856237Y-70197047D01*
X42860647Y-70214651D01*
X42863310Y-70232603D01*
X42864200Y-70250729D01*
X42864200Y-70749271D01*
X42863310Y-70767397D01*
X42860647Y-70785349D01*
X42856237Y-70802953D01*
X42850123Y-70820040D01*
X42842364Y-70836446D01*
X42833034Y-70852012D01*
X42822223Y-70866589D01*
X42810036Y-70880036D01*
X42796589Y-70892223D01*
X42782012Y-70903034D01*
X42766446Y-70912364D01*
X42750040Y-70920123D01*
X42732953Y-70926237D01*
X42715349Y-70930647D01*
X42697397Y-70933310D01*
X42679271Y-70934200D01*
X42300729Y-70934200D01*
X42282603Y-70933310D01*
X42264651Y-70930647D01*
X42247047Y-70926237D01*
X42229960Y-70920123D01*
X42213554Y-70912364D01*
X42197988Y-70903034D01*
X42183411Y-70892223D01*
X42169964Y-70880036D01*
X42157777Y-70866589D01*
X42146966Y-70852012D01*
X42137636Y-70836446D01*
X42129877Y-70820040D01*
X42123763Y-70802953D01*
X42119353Y-70785349D01*
X42116690Y-70767397D01*
X42115800Y-70749271D01*
X42115800Y-70250729D01*
X42116690Y-70232603D01*
X42119353Y-70214651D01*
X42123763Y-70197047D01*
X42129877Y-70179960D01*
X42137636Y-70163554D01*
X42146966Y-70147988D01*
X42157777Y-70133411D01*
X42169964Y-70119964D01*
X42183411Y-70107777D01*
X42197988Y-70096966D01*
X42213554Y-70087636D01*
X42229960Y-70079877D01*
X42247047Y-70073763D01*
X42264651Y-70069353D01*
X42282603Y-70066690D01*
X42300729Y-70065800D01*
X42679271Y-70065800D01*
X42697397Y-70066690D01*
G37*
G36*
X42767397Y-52856690D02*
G01*
X42785349Y-52859353D01*
X42802953Y-52863763D01*
X42820040Y-52869877D01*
X42836446Y-52877636D01*
X42852012Y-52886966D01*
X42866589Y-52897777D01*
X42880036Y-52909964D01*
X42892223Y-52923411D01*
X42903034Y-52937988D01*
X42912364Y-52953554D01*
X42920123Y-52969960D01*
X42926237Y-52987047D01*
X42930647Y-53004651D01*
X42933310Y-53022603D01*
X42934200Y-53040729D01*
X42934200Y-53419271D01*
X42933310Y-53437397D01*
X42930647Y-53455349D01*
X42926237Y-53472953D01*
X42920123Y-53490040D01*
X42912364Y-53506446D01*
X42903034Y-53522012D01*
X42892223Y-53536589D01*
X42880036Y-53550036D01*
X42866589Y-53562223D01*
X42852012Y-53573034D01*
X42836446Y-53582364D01*
X42820040Y-53590123D01*
X42802953Y-53596237D01*
X42785349Y-53600647D01*
X42767397Y-53603310D01*
X42749271Y-53604200D01*
X42250729Y-53604200D01*
X42232603Y-53603310D01*
X42214651Y-53600647D01*
X42197047Y-53596237D01*
X42179960Y-53590123D01*
X42163554Y-53582364D01*
X42147988Y-53573034D01*
X42133411Y-53562223D01*
X42119964Y-53550036D01*
X42107777Y-53536589D01*
X42096966Y-53522012D01*
X42087636Y-53506446D01*
X42079877Y-53490040D01*
X42073763Y-53472953D01*
X42069353Y-53455349D01*
X42066690Y-53437397D01*
X42065800Y-53419271D01*
X42065800Y-53040729D01*
X42066690Y-53022603D01*
X42069353Y-53004651D01*
X42073763Y-52987047D01*
X42079877Y-52969960D01*
X42087636Y-52953554D01*
X42096966Y-52937988D01*
X42107777Y-52923411D01*
X42119964Y-52909964D01*
X42133411Y-52897777D01*
X42147988Y-52886966D01*
X42163554Y-52877636D01*
X42179960Y-52869877D01*
X42197047Y-52863763D01*
X42214651Y-52859353D01*
X42232603Y-52856690D01*
X42250729Y-52855800D01*
X42749271Y-52855800D01*
X42767397Y-52856690D01*
G37*
G36*
X42767397Y-54376690D02*
G01*
X42785349Y-54379353D01*
X42802953Y-54383763D01*
X42820040Y-54389877D01*
X42836446Y-54397636D01*
X42852012Y-54406966D01*
X42866589Y-54417777D01*
X42880036Y-54429964D01*
X42892223Y-54443411D01*
X42903034Y-54457988D01*
X42912364Y-54473554D01*
X42920123Y-54489960D01*
X42926237Y-54507047D01*
X42930647Y-54524651D01*
X42933310Y-54542603D01*
X42934200Y-54560729D01*
X42934200Y-54939271D01*
X42933310Y-54957397D01*
X42930647Y-54975349D01*
X42926237Y-54992953D01*
X42920123Y-55010040D01*
X42912364Y-55026446D01*
X42903034Y-55042012D01*
X42892223Y-55056589D01*
X42880036Y-55070036D01*
X42866589Y-55082223D01*
X42852012Y-55093034D01*
X42836446Y-55102364D01*
X42820040Y-55110123D01*
X42802953Y-55116237D01*
X42785349Y-55120647D01*
X42767397Y-55123310D01*
X42749271Y-55124200D01*
X42250729Y-55124200D01*
X42232603Y-55123310D01*
X42214651Y-55120647D01*
X42197047Y-55116237D01*
X42179960Y-55110123D01*
X42163554Y-55102364D01*
X42147988Y-55093034D01*
X42133411Y-55082223D01*
X42119964Y-55070036D01*
X42107777Y-55056589D01*
X42096966Y-55042012D01*
X42087636Y-55026446D01*
X42079877Y-55010040D01*
X42073763Y-54992953D01*
X42069353Y-54975349D01*
X42066690Y-54957397D01*
X42065800Y-54939271D01*
X42065800Y-54560729D01*
X42066690Y-54542603D01*
X42069353Y-54524651D01*
X42073763Y-54507047D01*
X42079877Y-54489960D01*
X42087636Y-54473554D01*
X42096966Y-54457988D01*
X42107777Y-54443411D01*
X42119964Y-54429964D01*
X42133411Y-54417777D01*
X42147988Y-54406966D01*
X42163554Y-54397636D01*
X42179960Y-54389877D01*
X42197047Y-54383763D01*
X42214651Y-54379353D01*
X42232603Y-54376690D01*
X42250729Y-54375800D01*
X42749271Y-54375800D01*
X42767397Y-54376690D01*
G37*
G36*
X41017397Y-52846690D02*
G01*
X41035349Y-52849353D01*
X41052953Y-52853763D01*
X41070040Y-52859877D01*
X41086446Y-52867636D01*
X41102012Y-52876966D01*
X41116589Y-52887777D01*
X41130036Y-52899964D01*
X41142223Y-52913411D01*
X41153034Y-52927988D01*
X41162364Y-52943554D01*
X41170123Y-52959960D01*
X41176237Y-52977047D01*
X41180647Y-52994651D01*
X41183310Y-53012603D01*
X41184200Y-53030729D01*
X41184200Y-53409271D01*
X41183310Y-53427397D01*
X41180647Y-53445349D01*
X41176237Y-53462953D01*
X41170123Y-53480040D01*
X41162364Y-53496446D01*
X41153034Y-53512012D01*
X41142223Y-53526589D01*
X41130036Y-53540036D01*
X41116589Y-53552223D01*
X41102012Y-53563034D01*
X41086446Y-53572364D01*
X41070040Y-53580123D01*
X41052953Y-53586237D01*
X41035349Y-53590647D01*
X41017397Y-53593310D01*
X40999271Y-53594200D01*
X40500729Y-53594200D01*
X40482603Y-53593310D01*
X40464651Y-53590647D01*
X40447047Y-53586237D01*
X40429960Y-53580123D01*
X40413554Y-53572364D01*
X40397988Y-53563034D01*
X40383411Y-53552223D01*
X40369964Y-53540036D01*
X40357777Y-53526589D01*
X40346966Y-53512012D01*
X40337636Y-53496446D01*
X40329877Y-53480040D01*
X40323763Y-53462953D01*
X40319353Y-53445349D01*
X40316690Y-53427397D01*
X40315800Y-53409271D01*
X40315800Y-53030729D01*
X40316690Y-53012603D01*
X40319353Y-52994651D01*
X40323763Y-52977047D01*
X40329877Y-52959960D01*
X40337636Y-52943554D01*
X40346966Y-52927988D01*
X40357777Y-52913411D01*
X40369964Y-52899964D01*
X40383411Y-52887777D01*
X40397988Y-52876966D01*
X40413554Y-52867636D01*
X40429960Y-52859877D01*
X40447047Y-52853763D01*
X40464651Y-52849353D01*
X40482603Y-52846690D01*
X40500729Y-52845800D01*
X40999271Y-52845800D01*
X41017397Y-52846690D01*
G37*
G36*
X41017397Y-54366690D02*
G01*
X41035349Y-54369353D01*
X41052953Y-54373763D01*
X41070040Y-54379877D01*
X41086446Y-54387636D01*
X41102012Y-54396966D01*
X41116589Y-54407777D01*
X41130036Y-54419964D01*
X41142223Y-54433411D01*
X41153034Y-54447988D01*
X41162364Y-54463554D01*
X41170123Y-54479960D01*
X41176237Y-54497047D01*
X41180647Y-54514651D01*
X41183310Y-54532603D01*
X41184200Y-54550729D01*
X41184200Y-54929271D01*
X41183310Y-54947397D01*
X41180647Y-54965349D01*
X41176237Y-54982953D01*
X41170123Y-55000040D01*
X41162364Y-55016446D01*
X41153034Y-55032012D01*
X41142223Y-55046589D01*
X41130036Y-55060036D01*
X41116589Y-55072223D01*
X41102012Y-55083034D01*
X41086446Y-55092364D01*
X41070040Y-55100123D01*
X41052953Y-55106237D01*
X41035349Y-55110647D01*
X41017397Y-55113310D01*
X40999271Y-55114200D01*
X40500729Y-55114200D01*
X40482603Y-55113310D01*
X40464651Y-55110647D01*
X40447047Y-55106237D01*
X40429960Y-55100123D01*
X40413554Y-55092364D01*
X40397988Y-55083034D01*
X40383411Y-55072223D01*
X40369964Y-55060036D01*
X40357777Y-55046589D01*
X40346966Y-55032012D01*
X40337636Y-55016446D01*
X40329877Y-55000040D01*
X40323763Y-54982953D01*
X40319353Y-54965349D01*
X40316690Y-54947397D01*
X40315800Y-54929271D01*
X40315800Y-54550729D01*
X40316690Y-54532603D01*
X40319353Y-54514651D01*
X40323763Y-54497047D01*
X40329877Y-54479960D01*
X40337636Y-54463554D01*
X40346966Y-54447988D01*
X40357777Y-54433411D01*
X40369964Y-54419964D01*
X40383411Y-54407777D01*
X40397988Y-54396966D01*
X40413554Y-54387636D01*
X40429960Y-54379877D01*
X40447047Y-54373763D01*
X40464651Y-54369353D01*
X40482603Y-54366690D01*
X40500729Y-54365800D01*
X40999271Y-54365800D01*
X41017397Y-54366690D01*
G37*
G36*
X48197875Y-47741928D02*
G01*
X48220619Y-47745302D01*
X48242922Y-47750888D01*
X48264570Y-47758634D01*
X48285354Y-47768465D01*
X48305075Y-47780285D01*
X48323542Y-47793981D01*
X48340578Y-47809422D01*
X48356019Y-47826458D01*
X48369715Y-47844925D01*
X48381535Y-47864646D01*
X48391366Y-47885430D01*
X48399112Y-47907078D01*
X48404698Y-47929381D01*
X48408072Y-47952125D01*
X48409200Y-47975089D01*
X48409200Y-49024911D01*
X48408072Y-49047875D01*
X48404698Y-49070619D01*
X48399112Y-49092922D01*
X48391366Y-49114570D01*
X48381535Y-49135354D01*
X48369715Y-49155075D01*
X48356019Y-49173542D01*
X48340578Y-49190578D01*
X48323542Y-49206019D01*
X48305075Y-49219715D01*
X48285354Y-49231535D01*
X48264570Y-49241366D01*
X48242922Y-49249112D01*
X48220619Y-49254698D01*
X48197875Y-49258072D01*
X48174911Y-49259200D01*
X45375089Y-49259200D01*
X45352125Y-49258072D01*
X45329381Y-49254698D01*
X45307078Y-49249112D01*
X45285430Y-49241366D01*
X45264646Y-49231535D01*
X45244925Y-49219715D01*
X45226458Y-49206019D01*
X45209422Y-49190578D01*
X45193981Y-49173542D01*
X45180285Y-49155075D01*
X45168465Y-49135354D01*
X45158634Y-49114570D01*
X45150888Y-49092922D01*
X45145302Y-49070619D01*
X45141928Y-49047875D01*
X45140800Y-49024911D01*
X45140800Y-47975089D01*
X45141928Y-47952125D01*
X45145302Y-47929381D01*
X45150888Y-47907078D01*
X45158634Y-47885430D01*
X45168465Y-47864646D01*
X45180285Y-47844925D01*
X45193981Y-47826458D01*
X45209422Y-47809422D01*
X45226458Y-47793981D01*
X45244925Y-47780285D01*
X45264646Y-47768465D01*
X45285430Y-47758634D01*
X45307078Y-47750888D01*
X45329381Y-47745302D01*
X45352125Y-47741928D01*
X45375089Y-47740800D01*
X48174911Y-47740800D01*
X48197875Y-47741928D01*
G37*
G36*
X43147875Y-47741928D02*
G01*
X43170619Y-47745302D01*
X43192922Y-47750888D01*
X43214570Y-47758634D01*
X43235354Y-47768465D01*
X43255075Y-47780285D01*
X43273542Y-47793981D01*
X43290578Y-47809422D01*
X43306019Y-47826458D01*
X43319715Y-47844925D01*
X43331535Y-47864646D01*
X43341366Y-47885430D01*
X43349112Y-47907078D01*
X43354698Y-47929381D01*
X43358072Y-47952125D01*
X43359200Y-47975089D01*
X43359200Y-49024911D01*
X43358072Y-49047875D01*
X43354698Y-49070619D01*
X43349112Y-49092922D01*
X43341366Y-49114570D01*
X43331535Y-49135354D01*
X43319715Y-49155075D01*
X43306019Y-49173542D01*
X43290578Y-49190578D01*
X43273542Y-49206019D01*
X43255075Y-49219715D01*
X43235354Y-49231535D01*
X43214570Y-49241366D01*
X43192922Y-49249112D01*
X43170619Y-49254698D01*
X43147875Y-49258072D01*
X43124911Y-49259200D01*
X40325089Y-49259200D01*
X40302125Y-49258072D01*
X40279381Y-49254698D01*
X40257078Y-49249112D01*
X40235430Y-49241366D01*
X40214646Y-49231535D01*
X40194925Y-49219715D01*
X40176458Y-49206019D01*
X40159422Y-49190578D01*
X40143981Y-49173542D01*
X40130285Y-49155075D01*
X40118465Y-49135354D01*
X40108634Y-49114570D01*
X40100888Y-49092922D01*
X40095302Y-49070619D01*
X40091928Y-49047875D01*
X40090800Y-49024911D01*
X40090800Y-47975089D01*
X40091928Y-47952125D01*
X40095302Y-47929381D01*
X40100888Y-47907078D01*
X40108634Y-47885430D01*
X40118465Y-47864646D01*
X40130285Y-47844925D01*
X40143981Y-47826458D01*
X40159422Y-47809422D01*
X40176458Y-47793981D01*
X40194925Y-47780285D01*
X40214646Y-47768465D01*
X40235430Y-47758634D01*
X40257078Y-47750888D01*
X40279381Y-47745302D01*
X40302125Y-47741928D01*
X40325089Y-47740800D01*
X43124911Y-47740800D01*
X43147875Y-47741928D01*
G37*
G36*
X35369015Y-47666895D02*
G01*
X35391098Y-47670171D01*
X35412753Y-47675595D01*
X35433772Y-47683116D01*
X35453952Y-47692661D01*
X35473100Y-47704138D01*
X35491031Y-47717436D01*
X35507572Y-47732428D01*
X35522564Y-47748969D01*
X35535862Y-47766900D01*
X35547339Y-47786048D01*
X35556884Y-47806228D01*
X35564405Y-47827247D01*
X35569829Y-47848902D01*
X35573105Y-47870985D01*
X35574200Y-47893282D01*
X35574200Y-49106718D01*
X35573105Y-49129015D01*
X35569829Y-49151098D01*
X35564405Y-49172753D01*
X35556884Y-49193772D01*
X35547339Y-49213952D01*
X35535862Y-49233100D01*
X35522564Y-49251031D01*
X35507572Y-49267572D01*
X35491031Y-49282564D01*
X35473100Y-49295862D01*
X35453952Y-49307339D01*
X35433772Y-49316884D01*
X35412753Y-49324405D01*
X35391098Y-49329829D01*
X35369015Y-49333105D01*
X35346718Y-49334200D01*
X34773282Y-49334200D01*
X34750985Y-49333105D01*
X34728902Y-49329829D01*
X34707247Y-49324405D01*
X34686228Y-49316884D01*
X34666048Y-49307339D01*
X34646900Y-49295862D01*
X34628969Y-49282564D01*
X34612428Y-49267572D01*
X34597436Y-49251031D01*
X34584138Y-49233100D01*
X34572661Y-49213952D01*
X34563116Y-49193772D01*
X34555595Y-49172753D01*
X34550171Y-49151098D01*
X34546895Y-49129015D01*
X34545800Y-49106718D01*
X34545800Y-47893282D01*
X34546895Y-47870985D01*
X34550171Y-47848902D01*
X34555595Y-47827247D01*
X34563116Y-47806228D01*
X34572661Y-47786048D01*
X34584138Y-47766900D01*
X34597436Y-47748969D01*
X34612428Y-47732428D01*
X34628969Y-47717436D01*
X34646900Y-47704138D01*
X34666048Y-47692661D01*
X34686228Y-47683116D01*
X34707247Y-47675595D01*
X34728902Y-47670171D01*
X34750985Y-47666895D01*
X34773282Y-47665800D01*
X35346718Y-47665800D01*
X35369015Y-47666895D01*
G37*
G36*
X38309015Y-47666895D02*
G01*
X38331098Y-47670171D01*
X38352753Y-47675595D01*
X38373772Y-47683116D01*
X38393952Y-47692661D01*
X38413100Y-47704138D01*
X38431031Y-47717436D01*
X38447572Y-47732428D01*
X38462564Y-47748969D01*
X38475862Y-47766900D01*
X38487339Y-47786048D01*
X38496884Y-47806228D01*
X38504405Y-47827247D01*
X38509829Y-47848902D01*
X38513105Y-47870985D01*
X38514200Y-47893282D01*
X38514200Y-49106718D01*
X38513105Y-49129015D01*
X38509829Y-49151098D01*
X38504405Y-49172753D01*
X38496884Y-49193772D01*
X38487339Y-49213952D01*
X38475862Y-49233100D01*
X38462564Y-49251031D01*
X38447572Y-49267572D01*
X38431031Y-49282564D01*
X38413100Y-49295862D01*
X38393952Y-49307339D01*
X38373772Y-49316884D01*
X38352753Y-49324405D01*
X38331098Y-49329829D01*
X38309015Y-49333105D01*
X38286718Y-49334200D01*
X37713282Y-49334200D01*
X37690985Y-49333105D01*
X37668902Y-49329829D01*
X37647247Y-49324405D01*
X37626228Y-49316884D01*
X37606048Y-49307339D01*
X37586900Y-49295862D01*
X37568969Y-49282564D01*
X37552428Y-49267572D01*
X37537436Y-49251031D01*
X37524138Y-49233100D01*
X37512661Y-49213952D01*
X37503116Y-49193772D01*
X37495595Y-49172753D01*
X37490171Y-49151098D01*
X37486895Y-49129015D01*
X37485800Y-49106718D01*
X37485800Y-47893282D01*
X37486895Y-47870985D01*
X37490171Y-47848902D01*
X37495595Y-47827247D01*
X37503116Y-47806228D01*
X37512661Y-47786048D01*
X37524138Y-47766900D01*
X37537436Y-47748969D01*
X37552428Y-47732428D01*
X37568969Y-47717436D01*
X37586900Y-47704138D01*
X37606048Y-47692661D01*
X37626228Y-47683116D01*
X37647247Y-47675595D01*
X37668902Y-47670171D01*
X37690985Y-47666895D01*
X37713282Y-47665800D01*
X38286718Y-47665800D01*
X38309015Y-47666895D01*
G37*
G36*
X36687397Y-46066690D02*
G01*
X36705349Y-46069353D01*
X36722953Y-46073763D01*
X36740040Y-46079877D01*
X36756446Y-46087636D01*
X36772012Y-46096966D01*
X36786589Y-46107777D01*
X36800036Y-46119964D01*
X36812223Y-46133411D01*
X36823034Y-46147988D01*
X36832364Y-46163554D01*
X36840123Y-46179960D01*
X36846237Y-46197047D01*
X36850647Y-46214651D01*
X36853310Y-46232603D01*
X36854200Y-46250729D01*
X36854200Y-46749271D01*
X36853310Y-46767397D01*
X36850647Y-46785349D01*
X36846237Y-46802953D01*
X36840123Y-46820040D01*
X36832364Y-46836446D01*
X36823034Y-46852012D01*
X36812223Y-46866589D01*
X36800036Y-46880036D01*
X36786589Y-46892223D01*
X36772012Y-46903034D01*
X36756446Y-46912364D01*
X36740040Y-46920123D01*
X36722953Y-46926237D01*
X36705349Y-46930647D01*
X36687397Y-46933310D01*
X36669271Y-46934200D01*
X36290729Y-46934200D01*
X36272603Y-46933310D01*
X36254651Y-46930647D01*
X36237047Y-46926237D01*
X36219960Y-46920123D01*
X36203554Y-46912364D01*
X36187988Y-46903034D01*
X36173411Y-46892223D01*
X36159964Y-46880036D01*
X36147777Y-46866589D01*
X36136966Y-46852012D01*
X36127636Y-46836446D01*
X36119877Y-46820040D01*
X36113763Y-46802953D01*
X36109353Y-46785349D01*
X36106690Y-46767397D01*
X36105800Y-46749271D01*
X36105800Y-46250729D01*
X36106690Y-46232603D01*
X36109353Y-46214651D01*
X36113763Y-46197047D01*
X36119877Y-46179960D01*
X36127636Y-46163554D01*
X36136966Y-46147988D01*
X36147777Y-46133411D01*
X36159964Y-46119964D01*
X36173411Y-46107777D01*
X36187988Y-46096966D01*
X36203554Y-46087636D01*
X36219960Y-46079877D01*
X36237047Y-46073763D01*
X36254651Y-46069353D01*
X36272603Y-46066690D01*
X36290729Y-46065800D01*
X36669271Y-46065800D01*
X36687397Y-46066690D01*
G37*
G36*
X38207397Y-46066690D02*
G01*
X38225349Y-46069353D01*
X38242953Y-46073763D01*
X38260040Y-46079877D01*
X38276446Y-46087636D01*
X38292012Y-46096966D01*
X38306589Y-46107777D01*
X38320036Y-46119964D01*
X38332223Y-46133411D01*
X38343034Y-46147988D01*
X38352364Y-46163554D01*
X38360123Y-46179960D01*
X38366237Y-46197047D01*
X38370647Y-46214651D01*
X38373310Y-46232603D01*
X38374200Y-46250729D01*
X38374200Y-46749271D01*
X38373310Y-46767397D01*
X38370647Y-46785349D01*
X38366237Y-46802953D01*
X38360123Y-46820040D01*
X38352364Y-46836446D01*
X38343034Y-46852012D01*
X38332223Y-46866589D01*
X38320036Y-46880036D01*
X38306589Y-46892223D01*
X38292012Y-46903034D01*
X38276446Y-46912364D01*
X38260040Y-46920123D01*
X38242953Y-46926237D01*
X38225349Y-46930647D01*
X38207397Y-46933310D01*
X38189271Y-46934200D01*
X37810729Y-46934200D01*
X37792603Y-46933310D01*
X37774651Y-46930647D01*
X37757047Y-46926237D01*
X37739960Y-46920123D01*
X37723554Y-46912364D01*
X37707988Y-46903034D01*
X37693411Y-46892223D01*
X37679964Y-46880036D01*
X37667777Y-46866589D01*
X37656966Y-46852012D01*
X37647636Y-46836446D01*
X37639877Y-46820040D01*
X37633763Y-46802953D01*
X37629353Y-46785349D01*
X37626690Y-46767397D01*
X37625800Y-46749271D01*
X37625800Y-46250729D01*
X37626690Y-46232603D01*
X37629353Y-46214651D01*
X37633763Y-46197047D01*
X37639877Y-46179960D01*
X37647636Y-46163554D01*
X37656966Y-46147988D01*
X37667777Y-46133411D01*
X37679964Y-46119964D01*
X37693411Y-46107777D01*
X37707988Y-46096966D01*
X37723554Y-46087636D01*
X37739960Y-46079877D01*
X37757047Y-46073763D01*
X37774651Y-46069353D01*
X37792603Y-46066690D01*
X37810729Y-46065800D01*
X38189271Y-46065800D01*
X38207397Y-46066690D01*
G37*
M02*
