G04 #@! TF.GenerationSoftware,KiCad,Pcbnew,(5.1.5)-3*
G04 #@! TF.CreationDate,2021-01-14T16:52:46-05:00*
G04 #@! TF.ProjectId,MOSFET_test_board,4d4f5346-4554-45f7-9465-73745f626f61,rev?*
G04 #@! TF.SameCoordinates,Original*
G04 #@! TF.FileFunction,Copper,L2,Bot*
G04 #@! TF.FilePolarity,Positive*
%FSLAX46Y46*%
G04 Gerber Fmt 4.6, Leading zero omitted, Abs format (unit mm)*
G04 Created by KiCad (PCBNEW (5.1.5)-3) date 2021-01-14 16:52:46*
%MOMM*%
%LPD*%
G04 APERTURE LIST*
%ADD10O,1.700000X1.700000*%
%ADD11R,1.700000X1.700000*%
%ADD12C,0.500000*%
%ADD13C,0.800000*%
%ADD14C,0.254000*%
G04 APERTURE END LIST*
D10*
X37500000Y-61580000D03*
X37500000Y-59040000D03*
D11*
X37500000Y-56500000D03*
D12*
X65070000Y-66786000D03*
X62570000Y-66786000D03*
X61320000Y-66786000D03*
X60070000Y-66786000D03*
X63820000Y-66786000D03*
X65070000Y-57036000D03*
X62570000Y-57036000D03*
X61320000Y-57036000D03*
X60070000Y-57036000D03*
X63820000Y-57036000D03*
D13*
X34500000Y-57500000D03*
X40500000Y-60500000D03*
X39500000Y-57500000D03*
X80500000Y-67500000D03*
X80500000Y-56750000D03*
X80500000Y-52500000D03*
X85500000Y-52500000D03*
X80500000Y-47500000D03*
X75500000Y-47500000D03*
X70500000Y-47500000D03*
X65500000Y-47500000D03*
X60500000Y-47500000D03*
X55500000Y-47500000D03*
X50500000Y-47500000D03*
X65500000Y-62500000D03*
X60500000Y-62500000D03*
X55500000Y-62500000D03*
X50500000Y-62500000D03*
X40500000Y-70000000D03*
X35500000Y-70000000D03*
X30500000Y-65000000D03*
X35500000Y-65000000D03*
X40500000Y-65000000D03*
X33000000Y-47500000D03*
X35500000Y-52500000D03*
X50500000Y-52500000D03*
X55500000Y-52500000D03*
X70500000Y-52500000D03*
X73000000Y-60000000D03*
X80500000Y-70000000D03*
X34500000Y-62500000D03*
X35500000Y-60500000D03*
D14*
G36*
X89344000Y-68868668D02*
G01*
X89344000Y-71873000D01*
X26656000Y-71873000D01*
X26656000Y-68829511D01*
X27769000Y-68829511D01*
X27769000Y-69170489D01*
X27835521Y-69504914D01*
X27966007Y-69819936D01*
X28155444Y-70103448D01*
X28396552Y-70344556D01*
X28680064Y-70533993D01*
X28995086Y-70664479D01*
X29329511Y-70731000D01*
X29670489Y-70731000D01*
X30004914Y-70664479D01*
X30319936Y-70533993D01*
X30603448Y-70344556D01*
X30844556Y-70103448D01*
X31033993Y-69819936D01*
X31164479Y-69504914D01*
X31231000Y-69170489D01*
X31231000Y-68829511D01*
X84769000Y-68829511D01*
X84769000Y-69170489D01*
X84835521Y-69504914D01*
X84966007Y-69819936D01*
X85155444Y-70103448D01*
X85396552Y-70344556D01*
X85680064Y-70533993D01*
X85995086Y-70664479D01*
X86329511Y-70731000D01*
X86670489Y-70731000D01*
X87004914Y-70664479D01*
X87319936Y-70533993D01*
X87603448Y-70344556D01*
X87844556Y-70103448D01*
X88033993Y-69819936D01*
X88164479Y-69504914D01*
X88231000Y-69170489D01*
X88231000Y-68829511D01*
X88164479Y-68495086D01*
X88033993Y-68180064D01*
X87844556Y-67896552D01*
X87603448Y-67655444D01*
X87319936Y-67466007D01*
X87004914Y-67335521D01*
X86670489Y-67269000D01*
X86329511Y-67269000D01*
X85995086Y-67335521D01*
X85680064Y-67466007D01*
X85396552Y-67655444D01*
X85155444Y-67896552D01*
X84966007Y-68180064D01*
X84835521Y-68495086D01*
X84769000Y-68829511D01*
X31231000Y-68829511D01*
X31164479Y-68495086D01*
X31033993Y-68180064D01*
X30844556Y-67896552D01*
X30603448Y-67655444D01*
X30319936Y-67466007D01*
X30004914Y-67335521D01*
X29670489Y-67269000D01*
X29329511Y-67269000D01*
X28995086Y-67335521D01*
X28680064Y-67466007D01*
X28396552Y-67655444D01*
X28155444Y-67896552D01*
X27966007Y-68180064D01*
X27835521Y-68495086D01*
X27769000Y-68829511D01*
X26656000Y-68829511D01*
X26656000Y-66723852D01*
X59439000Y-66723852D01*
X59439000Y-66848148D01*
X59463249Y-66970056D01*
X59510815Y-67084891D01*
X59579870Y-67188239D01*
X59667761Y-67276130D01*
X59771109Y-67345185D01*
X59885944Y-67392751D01*
X60007852Y-67417000D01*
X60132148Y-67417000D01*
X60254056Y-67392751D01*
X60368891Y-67345185D01*
X60472239Y-67276130D01*
X60560130Y-67188239D01*
X60629185Y-67084891D01*
X60676751Y-66970056D01*
X60695000Y-66878312D01*
X60713249Y-66970056D01*
X60760815Y-67084891D01*
X60829870Y-67188239D01*
X60917761Y-67276130D01*
X61021109Y-67345185D01*
X61135944Y-67392751D01*
X61257852Y-67417000D01*
X61382148Y-67417000D01*
X61504056Y-67392751D01*
X61618891Y-67345185D01*
X61722239Y-67276130D01*
X61810130Y-67188239D01*
X61879185Y-67084891D01*
X61926751Y-66970056D01*
X61945000Y-66878312D01*
X61963249Y-66970056D01*
X62010815Y-67084891D01*
X62079870Y-67188239D01*
X62167761Y-67276130D01*
X62271109Y-67345185D01*
X62385944Y-67392751D01*
X62507852Y-67417000D01*
X62632148Y-67417000D01*
X62754056Y-67392751D01*
X62868891Y-67345185D01*
X62972239Y-67276130D01*
X63060130Y-67188239D01*
X63129185Y-67084891D01*
X63176751Y-66970056D01*
X63195000Y-66878312D01*
X63213249Y-66970056D01*
X63260815Y-67084891D01*
X63329870Y-67188239D01*
X63417761Y-67276130D01*
X63521109Y-67345185D01*
X63635944Y-67392751D01*
X63757852Y-67417000D01*
X63882148Y-67417000D01*
X64004056Y-67392751D01*
X64118891Y-67345185D01*
X64222239Y-67276130D01*
X64310130Y-67188239D01*
X64379185Y-67084891D01*
X64426751Y-66970056D01*
X64445000Y-66878312D01*
X64463249Y-66970056D01*
X64510815Y-67084891D01*
X64579870Y-67188239D01*
X64667761Y-67276130D01*
X64771109Y-67345185D01*
X64885944Y-67392751D01*
X65007852Y-67417000D01*
X65132148Y-67417000D01*
X65254056Y-67392751D01*
X65368891Y-67345185D01*
X65472239Y-67276130D01*
X65560130Y-67188239D01*
X65629185Y-67084891D01*
X65676751Y-66970056D01*
X65701000Y-66848148D01*
X65701000Y-66723852D01*
X65676751Y-66601944D01*
X65629185Y-66487109D01*
X65560130Y-66383761D01*
X65472239Y-66295870D01*
X65368891Y-66226815D01*
X65254056Y-66179249D01*
X65132148Y-66155000D01*
X65007852Y-66155000D01*
X64885944Y-66179249D01*
X64771109Y-66226815D01*
X64667761Y-66295870D01*
X64579870Y-66383761D01*
X64510815Y-66487109D01*
X64463249Y-66601944D01*
X64445000Y-66693688D01*
X64426751Y-66601944D01*
X64379185Y-66487109D01*
X64310130Y-66383761D01*
X64222239Y-66295870D01*
X64118891Y-66226815D01*
X64004056Y-66179249D01*
X63882148Y-66155000D01*
X63757852Y-66155000D01*
X63635944Y-66179249D01*
X63521109Y-66226815D01*
X63417761Y-66295870D01*
X63329870Y-66383761D01*
X63260815Y-66487109D01*
X63213249Y-66601944D01*
X63195000Y-66693688D01*
X63176751Y-66601944D01*
X63129185Y-66487109D01*
X63060130Y-66383761D01*
X62972239Y-66295870D01*
X62868891Y-66226815D01*
X62754056Y-66179249D01*
X62632148Y-66155000D01*
X62507852Y-66155000D01*
X62385944Y-66179249D01*
X62271109Y-66226815D01*
X62167761Y-66295870D01*
X62079870Y-66383761D01*
X62010815Y-66487109D01*
X61963249Y-66601944D01*
X61945000Y-66693688D01*
X61926751Y-66601944D01*
X61879185Y-66487109D01*
X61810130Y-66383761D01*
X61722239Y-66295870D01*
X61618891Y-66226815D01*
X61504056Y-66179249D01*
X61382148Y-66155000D01*
X61257852Y-66155000D01*
X61135944Y-66179249D01*
X61021109Y-66226815D01*
X60917761Y-66295870D01*
X60829870Y-66383761D01*
X60760815Y-66487109D01*
X60713249Y-66601944D01*
X60695000Y-66693688D01*
X60676751Y-66601944D01*
X60629185Y-66487109D01*
X60560130Y-66383761D01*
X60472239Y-66295870D01*
X60368891Y-66226815D01*
X60254056Y-66179249D01*
X60132148Y-66155000D01*
X60007852Y-66155000D01*
X59885944Y-66179249D01*
X59771109Y-66226815D01*
X59667761Y-66295870D01*
X59579870Y-66383761D01*
X59510815Y-66487109D01*
X59463249Y-66601944D01*
X59439000Y-66723852D01*
X26656000Y-66723852D01*
X26656000Y-61458757D01*
X36269000Y-61458757D01*
X36269000Y-61701243D01*
X36316307Y-61939069D01*
X36409102Y-62163097D01*
X36543820Y-62364717D01*
X36715283Y-62536180D01*
X36916903Y-62670898D01*
X37140931Y-62763693D01*
X37378757Y-62811000D01*
X37621243Y-62811000D01*
X37859069Y-62763693D01*
X38083097Y-62670898D01*
X38284717Y-62536180D01*
X38456180Y-62364717D01*
X38590898Y-62163097D01*
X38683693Y-61939069D01*
X38731000Y-61701243D01*
X38731000Y-61458757D01*
X38683693Y-61220931D01*
X38590898Y-60996903D01*
X38456180Y-60795283D01*
X38284717Y-60623820D01*
X38083097Y-60489102D01*
X37859069Y-60396307D01*
X37621243Y-60349000D01*
X37378757Y-60349000D01*
X37140931Y-60396307D01*
X36916903Y-60489102D01*
X36715283Y-60623820D01*
X36543820Y-60795283D01*
X36409102Y-60996903D01*
X36316307Y-61220931D01*
X36269000Y-61458757D01*
X26656000Y-61458757D01*
X26656000Y-58918757D01*
X36269000Y-58918757D01*
X36269000Y-59161243D01*
X36316307Y-59399069D01*
X36409102Y-59623097D01*
X36543820Y-59824717D01*
X36715283Y-59996180D01*
X36916903Y-60130898D01*
X37140931Y-60223693D01*
X37378757Y-60271000D01*
X37621243Y-60271000D01*
X37859069Y-60223693D01*
X38083097Y-60130898D01*
X38284717Y-59996180D01*
X38456180Y-59824717D01*
X38590898Y-59623097D01*
X38683693Y-59399069D01*
X38731000Y-59161243D01*
X38731000Y-58918757D01*
X38683693Y-58680931D01*
X38590898Y-58456903D01*
X38456180Y-58255283D01*
X38284717Y-58083820D01*
X38083097Y-57949102D01*
X37859069Y-57856307D01*
X37621243Y-57809000D01*
X37378757Y-57809000D01*
X37140931Y-57856307D01*
X36916903Y-57949102D01*
X36715283Y-58083820D01*
X36543820Y-58255283D01*
X36409102Y-58456903D01*
X36316307Y-58680931D01*
X36269000Y-58918757D01*
X26656000Y-58918757D01*
X26656000Y-55650000D01*
X36267157Y-55650000D01*
X36267157Y-57350000D01*
X36274513Y-57424689D01*
X36296299Y-57496508D01*
X36331678Y-57562696D01*
X36379289Y-57620711D01*
X36437304Y-57668322D01*
X36503492Y-57703701D01*
X36575311Y-57725487D01*
X36650000Y-57732843D01*
X38350000Y-57732843D01*
X38424689Y-57725487D01*
X38496508Y-57703701D01*
X38562696Y-57668322D01*
X38620711Y-57620711D01*
X38668322Y-57562696D01*
X38703701Y-57496508D01*
X38725487Y-57424689D01*
X38732843Y-57350000D01*
X38732843Y-56973852D01*
X59439000Y-56973852D01*
X59439000Y-57098148D01*
X59463249Y-57220056D01*
X59510815Y-57334891D01*
X59579870Y-57438239D01*
X59667761Y-57526130D01*
X59771109Y-57595185D01*
X59885944Y-57642751D01*
X60007852Y-57667000D01*
X60132148Y-57667000D01*
X60254056Y-57642751D01*
X60368891Y-57595185D01*
X60472239Y-57526130D01*
X60560130Y-57438239D01*
X60629185Y-57334891D01*
X60676751Y-57220056D01*
X60695000Y-57128312D01*
X60713249Y-57220056D01*
X60760815Y-57334891D01*
X60829870Y-57438239D01*
X60917761Y-57526130D01*
X61021109Y-57595185D01*
X61135944Y-57642751D01*
X61257852Y-57667000D01*
X61382148Y-57667000D01*
X61504056Y-57642751D01*
X61618891Y-57595185D01*
X61722239Y-57526130D01*
X61810130Y-57438239D01*
X61879185Y-57334891D01*
X61926751Y-57220056D01*
X61945000Y-57128312D01*
X61963249Y-57220056D01*
X62010815Y-57334891D01*
X62079870Y-57438239D01*
X62167761Y-57526130D01*
X62271109Y-57595185D01*
X62385944Y-57642751D01*
X62507852Y-57667000D01*
X62632148Y-57667000D01*
X62754056Y-57642751D01*
X62868891Y-57595185D01*
X62972239Y-57526130D01*
X63060130Y-57438239D01*
X63129185Y-57334891D01*
X63176751Y-57220056D01*
X63195000Y-57128312D01*
X63213249Y-57220056D01*
X63260815Y-57334891D01*
X63329870Y-57438239D01*
X63417761Y-57526130D01*
X63521109Y-57595185D01*
X63635944Y-57642751D01*
X63757852Y-57667000D01*
X63882148Y-57667000D01*
X64004056Y-57642751D01*
X64118891Y-57595185D01*
X64222239Y-57526130D01*
X64310130Y-57438239D01*
X64379185Y-57334891D01*
X64426751Y-57220056D01*
X64445000Y-57128312D01*
X64463249Y-57220056D01*
X64510815Y-57334891D01*
X64579870Y-57438239D01*
X64667761Y-57526130D01*
X64771109Y-57595185D01*
X64885944Y-57642751D01*
X65007852Y-57667000D01*
X65132148Y-57667000D01*
X65254056Y-57642751D01*
X65368891Y-57595185D01*
X65472239Y-57526130D01*
X65560130Y-57438239D01*
X65629185Y-57334891D01*
X65676751Y-57220056D01*
X65701000Y-57098148D01*
X65701000Y-56973852D01*
X65676751Y-56851944D01*
X65629185Y-56737109D01*
X65560130Y-56633761D01*
X65472239Y-56545870D01*
X65368891Y-56476815D01*
X65254056Y-56429249D01*
X65132148Y-56405000D01*
X65007852Y-56405000D01*
X64885944Y-56429249D01*
X64771109Y-56476815D01*
X64667761Y-56545870D01*
X64579870Y-56633761D01*
X64510815Y-56737109D01*
X64463249Y-56851944D01*
X64445000Y-56943688D01*
X64426751Y-56851944D01*
X64379185Y-56737109D01*
X64310130Y-56633761D01*
X64222239Y-56545870D01*
X64118891Y-56476815D01*
X64004056Y-56429249D01*
X63882148Y-56405000D01*
X63757852Y-56405000D01*
X63635944Y-56429249D01*
X63521109Y-56476815D01*
X63417761Y-56545870D01*
X63329870Y-56633761D01*
X63260815Y-56737109D01*
X63213249Y-56851944D01*
X63195000Y-56943688D01*
X63176751Y-56851944D01*
X63129185Y-56737109D01*
X63060130Y-56633761D01*
X62972239Y-56545870D01*
X62868891Y-56476815D01*
X62754056Y-56429249D01*
X62632148Y-56405000D01*
X62507852Y-56405000D01*
X62385944Y-56429249D01*
X62271109Y-56476815D01*
X62167761Y-56545870D01*
X62079870Y-56633761D01*
X62010815Y-56737109D01*
X61963249Y-56851944D01*
X61945000Y-56943688D01*
X61926751Y-56851944D01*
X61879185Y-56737109D01*
X61810130Y-56633761D01*
X61722239Y-56545870D01*
X61618891Y-56476815D01*
X61504056Y-56429249D01*
X61382148Y-56405000D01*
X61257852Y-56405000D01*
X61135944Y-56429249D01*
X61021109Y-56476815D01*
X60917761Y-56545870D01*
X60829870Y-56633761D01*
X60760815Y-56737109D01*
X60713249Y-56851944D01*
X60695000Y-56943688D01*
X60676751Y-56851944D01*
X60629185Y-56737109D01*
X60560130Y-56633761D01*
X60472239Y-56545870D01*
X60368891Y-56476815D01*
X60254056Y-56429249D01*
X60132148Y-56405000D01*
X60007852Y-56405000D01*
X59885944Y-56429249D01*
X59771109Y-56476815D01*
X59667761Y-56545870D01*
X59579870Y-56633761D01*
X59510815Y-56737109D01*
X59463249Y-56851944D01*
X59439000Y-56973852D01*
X38732843Y-56973852D01*
X38732843Y-55650000D01*
X38725487Y-55575311D01*
X38703701Y-55503492D01*
X38668322Y-55437304D01*
X38620711Y-55379289D01*
X38562696Y-55331678D01*
X38496508Y-55296299D01*
X38424689Y-55274513D01*
X38350000Y-55267157D01*
X36650000Y-55267157D01*
X36575311Y-55274513D01*
X36503492Y-55296299D01*
X36437304Y-55331678D01*
X36379289Y-55379289D01*
X36331678Y-55437304D01*
X36296299Y-55503492D01*
X36274513Y-55575311D01*
X36267157Y-55650000D01*
X26656000Y-55650000D01*
X26656000Y-47829511D01*
X84519000Y-47829511D01*
X84519000Y-48170489D01*
X84585521Y-48504914D01*
X84716007Y-48819936D01*
X84905444Y-49103448D01*
X85146552Y-49344556D01*
X85430064Y-49533993D01*
X85745086Y-49664479D01*
X86079511Y-49731000D01*
X86420489Y-49731000D01*
X86754914Y-49664479D01*
X87069936Y-49533993D01*
X87353448Y-49344556D01*
X87594556Y-49103448D01*
X87783993Y-48819936D01*
X87914479Y-48504914D01*
X87981000Y-48170489D01*
X87981000Y-47829511D01*
X87914479Y-47495086D01*
X87783993Y-47180064D01*
X87594556Y-46896552D01*
X87353448Y-46655444D01*
X87069936Y-46466007D01*
X86754914Y-46335521D01*
X86420489Y-46269000D01*
X86079511Y-46269000D01*
X85745086Y-46335521D01*
X85430064Y-46466007D01*
X85146552Y-46655444D01*
X84905444Y-46896552D01*
X84716007Y-47180064D01*
X84585521Y-47495086D01*
X84519000Y-47829511D01*
X26656000Y-47829511D01*
X26656000Y-45127000D01*
X89124170Y-45127000D01*
X89344000Y-68868668D01*
G37*
X89344000Y-68868668D02*
X89344000Y-71873000D01*
X26656000Y-71873000D01*
X26656000Y-68829511D01*
X27769000Y-68829511D01*
X27769000Y-69170489D01*
X27835521Y-69504914D01*
X27966007Y-69819936D01*
X28155444Y-70103448D01*
X28396552Y-70344556D01*
X28680064Y-70533993D01*
X28995086Y-70664479D01*
X29329511Y-70731000D01*
X29670489Y-70731000D01*
X30004914Y-70664479D01*
X30319936Y-70533993D01*
X30603448Y-70344556D01*
X30844556Y-70103448D01*
X31033993Y-69819936D01*
X31164479Y-69504914D01*
X31231000Y-69170489D01*
X31231000Y-68829511D01*
X84769000Y-68829511D01*
X84769000Y-69170489D01*
X84835521Y-69504914D01*
X84966007Y-69819936D01*
X85155444Y-70103448D01*
X85396552Y-70344556D01*
X85680064Y-70533993D01*
X85995086Y-70664479D01*
X86329511Y-70731000D01*
X86670489Y-70731000D01*
X87004914Y-70664479D01*
X87319936Y-70533993D01*
X87603448Y-70344556D01*
X87844556Y-70103448D01*
X88033993Y-69819936D01*
X88164479Y-69504914D01*
X88231000Y-69170489D01*
X88231000Y-68829511D01*
X88164479Y-68495086D01*
X88033993Y-68180064D01*
X87844556Y-67896552D01*
X87603448Y-67655444D01*
X87319936Y-67466007D01*
X87004914Y-67335521D01*
X86670489Y-67269000D01*
X86329511Y-67269000D01*
X85995086Y-67335521D01*
X85680064Y-67466007D01*
X85396552Y-67655444D01*
X85155444Y-67896552D01*
X84966007Y-68180064D01*
X84835521Y-68495086D01*
X84769000Y-68829511D01*
X31231000Y-68829511D01*
X31164479Y-68495086D01*
X31033993Y-68180064D01*
X30844556Y-67896552D01*
X30603448Y-67655444D01*
X30319936Y-67466007D01*
X30004914Y-67335521D01*
X29670489Y-67269000D01*
X29329511Y-67269000D01*
X28995086Y-67335521D01*
X28680064Y-67466007D01*
X28396552Y-67655444D01*
X28155444Y-67896552D01*
X27966007Y-68180064D01*
X27835521Y-68495086D01*
X27769000Y-68829511D01*
X26656000Y-68829511D01*
X26656000Y-66723852D01*
X59439000Y-66723852D01*
X59439000Y-66848148D01*
X59463249Y-66970056D01*
X59510815Y-67084891D01*
X59579870Y-67188239D01*
X59667761Y-67276130D01*
X59771109Y-67345185D01*
X59885944Y-67392751D01*
X60007852Y-67417000D01*
X60132148Y-67417000D01*
X60254056Y-67392751D01*
X60368891Y-67345185D01*
X60472239Y-67276130D01*
X60560130Y-67188239D01*
X60629185Y-67084891D01*
X60676751Y-66970056D01*
X60695000Y-66878312D01*
X60713249Y-66970056D01*
X60760815Y-67084891D01*
X60829870Y-67188239D01*
X60917761Y-67276130D01*
X61021109Y-67345185D01*
X61135944Y-67392751D01*
X61257852Y-67417000D01*
X61382148Y-67417000D01*
X61504056Y-67392751D01*
X61618891Y-67345185D01*
X61722239Y-67276130D01*
X61810130Y-67188239D01*
X61879185Y-67084891D01*
X61926751Y-66970056D01*
X61945000Y-66878312D01*
X61963249Y-66970056D01*
X62010815Y-67084891D01*
X62079870Y-67188239D01*
X62167761Y-67276130D01*
X62271109Y-67345185D01*
X62385944Y-67392751D01*
X62507852Y-67417000D01*
X62632148Y-67417000D01*
X62754056Y-67392751D01*
X62868891Y-67345185D01*
X62972239Y-67276130D01*
X63060130Y-67188239D01*
X63129185Y-67084891D01*
X63176751Y-66970056D01*
X63195000Y-66878312D01*
X63213249Y-66970056D01*
X63260815Y-67084891D01*
X63329870Y-67188239D01*
X63417761Y-67276130D01*
X63521109Y-67345185D01*
X63635944Y-67392751D01*
X63757852Y-67417000D01*
X63882148Y-67417000D01*
X64004056Y-67392751D01*
X64118891Y-67345185D01*
X64222239Y-67276130D01*
X64310130Y-67188239D01*
X64379185Y-67084891D01*
X64426751Y-66970056D01*
X64445000Y-66878312D01*
X64463249Y-66970056D01*
X64510815Y-67084891D01*
X64579870Y-67188239D01*
X64667761Y-67276130D01*
X64771109Y-67345185D01*
X64885944Y-67392751D01*
X65007852Y-67417000D01*
X65132148Y-67417000D01*
X65254056Y-67392751D01*
X65368891Y-67345185D01*
X65472239Y-67276130D01*
X65560130Y-67188239D01*
X65629185Y-67084891D01*
X65676751Y-66970056D01*
X65701000Y-66848148D01*
X65701000Y-66723852D01*
X65676751Y-66601944D01*
X65629185Y-66487109D01*
X65560130Y-66383761D01*
X65472239Y-66295870D01*
X65368891Y-66226815D01*
X65254056Y-66179249D01*
X65132148Y-66155000D01*
X65007852Y-66155000D01*
X64885944Y-66179249D01*
X64771109Y-66226815D01*
X64667761Y-66295870D01*
X64579870Y-66383761D01*
X64510815Y-66487109D01*
X64463249Y-66601944D01*
X64445000Y-66693688D01*
X64426751Y-66601944D01*
X64379185Y-66487109D01*
X64310130Y-66383761D01*
X64222239Y-66295870D01*
X64118891Y-66226815D01*
X64004056Y-66179249D01*
X63882148Y-66155000D01*
X63757852Y-66155000D01*
X63635944Y-66179249D01*
X63521109Y-66226815D01*
X63417761Y-66295870D01*
X63329870Y-66383761D01*
X63260815Y-66487109D01*
X63213249Y-66601944D01*
X63195000Y-66693688D01*
X63176751Y-66601944D01*
X63129185Y-66487109D01*
X63060130Y-66383761D01*
X62972239Y-66295870D01*
X62868891Y-66226815D01*
X62754056Y-66179249D01*
X62632148Y-66155000D01*
X62507852Y-66155000D01*
X62385944Y-66179249D01*
X62271109Y-66226815D01*
X62167761Y-66295870D01*
X62079870Y-66383761D01*
X62010815Y-66487109D01*
X61963249Y-66601944D01*
X61945000Y-66693688D01*
X61926751Y-66601944D01*
X61879185Y-66487109D01*
X61810130Y-66383761D01*
X61722239Y-66295870D01*
X61618891Y-66226815D01*
X61504056Y-66179249D01*
X61382148Y-66155000D01*
X61257852Y-66155000D01*
X61135944Y-66179249D01*
X61021109Y-66226815D01*
X60917761Y-66295870D01*
X60829870Y-66383761D01*
X60760815Y-66487109D01*
X60713249Y-66601944D01*
X60695000Y-66693688D01*
X60676751Y-66601944D01*
X60629185Y-66487109D01*
X60560130Y-66383761D01*
X60472239Y-66295870D01*
X60368891Y-66226815D01*
X60254056Y-66179249D01*
X60132148Y-66155000D01*
X60007852Y-66155000D01*
X59885944Y-66179249D01*
X59771109Y-66226815D01*
X59667761Y-66295870D01*
X59579870Y-66383761D01*
X59510815Y-66487109D01*
X59463249Y-66601944D01*
X59439000Y-66723852D01*
X26656000Y-66723852D01*
X26656000Y-61458757D01*
X36269000Y-61458757D01*
X36269000Y-61701243D01*
X36316307Y-61939069D01*
X36409102Y-62163097D01*
X36543820Y-62364717D01*
X36715283Y-62536180D01*
X36916903Y-62670898D01*
X37140931Y-62763693D01*
X37378757Y-62811000D01*
X37621243Y-62811000D01*
X37859069Y-62763693D01*
X38083097Y-62670898D01*
X38284717Y-62536180D01*
X38456180Y-62364717D01*
X38590898Y-62163097D01*
X38683693Y-61939069D01*
X38731000Y-61701243D01*
X38731000Y-61458757D01*
X38683693Y-61220931D01*
X38590898Y-60996903D01*
X38456180Y-60795283D01*
X38284717Y-60623820D01*
X38083097Y-60489102D01*
X37859069Y-60396307D01*
X37621243Y-60349000D01*
X37378757Y-60349000D01*
X37140931Y-60396307D01*
X36916903Y-60489102D01*
X36715283Y-60623820D01*
X36543820Y-60795283D01*
X36409102Y-60996903D01*
X36316307Y-61220931D01*
X36269000Y-61458757D01*
X26656000Y-61458757D01*
X26656000Y-58918757D01*
X36269000Y-58918757D01*
X36269000Y-59161243D01*
X36316307Y-59399069D01*
X36409102Y-59623097D01*
X36543820Y-59824717D01*
X36715283Y-59996180D01*
X36916903Y-60130898D01*
X37140931Y-60223693D01*
X37378757Y-60271000D01*
X37621243Y-60271000D01*
X37859069Y-60223693D01*
X38083097Y-60130898D01*
X38284717Y-59996180D01*
X38456180Y-59824717D01*
X38590898Y-59623097D01*
X38683693Y-59399069D01*
X38731000Y-59161243D01*
X38731000Y-58918757D01*
X38683693Y-58680931D01*
X38590898Y-58456903D01*
X38456180Y-58255283D01*
X38284717Y-58083820D01*
X38083097Y-57949102D01*
X37859069Y-57856307D01*
X37621243Y-57809000D01*
X37378757Y-57809000D01*
X37140931Y-57856307D01*
X36916903Y-57949102D01*
X36715283Y-58083820D01*
X36543820Y-58255283D01*
X36409102Y-58456903D01*
X36316307Y-58680931D01*
X36269000Y-58918757D01*
X26656000Y-58918757D01*
X26656000Y-55650000D01*
X36267157Y-55650000D01*
X36267157Y-57350000D01*
X36274513Y-57424689D01*
X36296299Y-57496508D01*
X36331678Y-57562696D01*
X36379289Y-57620711D01*
X36437304Y-57668322D01*
X36503492Y-57703701D01*
X36575311Y-57725487D01*
X36650000Y-57732843D01*
X38350000Y-57732843D01*
X38424689Y-57725487D01*
X38496508Y-57703701D01*
X38562696Y-57668322D01*
X38620711Y-57620711D01*
X38668322Y-57562696D01*
X38703701Y-57496508D01*
X38725487Y-57424689D01*
X38732843Y-57350000D01*
X38732843Y-56973852D01*
X59439000Y-56973852D01*
X59439000Y-57098148D01*
X59463249Y-57220056D01*
X59510815Y-57334891D01*
X59579870Y-57438239D01*
X59667761Y-57526130D01*
X59771109Y-57595185D01*
X59885944Y-57642751D01*
X60007852Y-57667000D01*
X60132148Y-57667000D01*
X60254056Y-57642751D01*
X60368891Y-57595185D01*
X60472239Y-57526130D01*
X60560130Y-57438239D01*
X60629185Y-57334891D01*
X60676751Y-57220056D01*
X60695000Y-57128312D01*
X60713249Y-57220056D01*
X60760815Y-57334891D01*
X60829870Y-57438239D01*
X60917761Y-57526130D01*
X61021109Y-57595185D01*
X61135944Y-57642751D01*
X61257852Y-57667000D01*
X61382148Y-57667000D01*
X61504056Y-57642751D01*
X61618891Y-57595185D01*
X61722239Y-57526130D01*
X61810130Y-57438239D01*
X61879185Y-57334891D01*
X61926751Y-57220056D01*
X61945000Y-57128312D01*
X61963249Y-57220056D01*
X62010815Y-57334891D01*
X62079870Y-57438239D01*
X62167761Y-57526130D01*
X62271109Y-57595185D01*
X62385944Y-57642751D01*
X62507852Y-57667000D01*
X62632148Y-57667000D01*
X62754056Y-57642751D01*
X62868891Y-57595185D01*
X62972239Y-57526130D01*
X63060130Y-57438239D01*
X63129185Y-57334891D01*
X63176751Y-57220056D01*
X63195000Y-57128312D01*
X63213249Y-57220056D01*
X63260815Y-57334891D01*
X63329870Y-57438239D01*
X63417761Y-57526130D01*
X63521109Y-57595185D01*
X63635944Y-57642751D01*
X63757852Y-57667000D01*
X63882148Y-57667000D01*
X64004056Y-57642751D01*
X64118891Y-57595185D01*
X64222239Y-57526130D01*
X64310130Y-57438239D01*
X64379185Y-57334891D01*
X64426751Y-57220056D01*
X64445000Y-57128312D01*
X64463249Y-57220056D01*
X64510815Y-57334891D01*
X64579870Y-57438239D01*
X64667761Y-57526130D01*
X64771109Y-57595185D01*
X64885944Y-57642751D01*
X65007852Y-57667000D01*
X65132148Y-57667000D01*
X65254056Y-57642751D01*
X65368891Y-57595185D01*
X65472239Y-57526130D01*
X65560130Y-57438239D01*
X65629185Y-57334891D01*
X65676751Y-57220056D01*
X65701000Y-57098148D01*
X65701000Y-56973852D01*
X65676751Y-56851944D01*
X65629185Y-56737109D01*
X65560130Y-56633761D01*
X65472239Y-56545870D01*
X65368891Y-56476815D01*
X65254056Y-56429249D01*
X65132148Y-56405000D01*
X65007852Y-56405000D01*
X64885944Y-56429249D01*
X64771109Y-56476815D01*
X64667761Y-56545870D01*
X64579870Y-56633761D01*
X64510815Y-56737109D01*
X64463249Y-56851944D01*
X64445000Y-56943688D01*
X64426751Y-56851944D01*
X64379185Y-56737109D01*
X64310130Y-56633761D01*
X64222239Y-56545870D01*
X64118891Y-56476815D01*
X64004056Y-56429249D01*
X63882148Y-56405000D01*
X63757852Y-56405000D01*
X63635944Y-56429249D01*
X63521109Y-56476815D01*
X63417761Y-56545870D01*
X63329870Y-56633761D01*
X63260815Y-56737109D01*
X63213249Y-56851944D01*
X63195000Y-56943688D01*
X63176751Y-56851944D01*
X63129185Y-56737109D01*
X63060130Y-56633761D01*
X62972239Y-56545870D01*
X62868891Y-56476815D01*
X62754056Y-56429249D01*
X62632148Y-56405000D01*
X62507852Y-56405000D01*
X62385944Y-56429249D01*
X62271109Y-56476815D01*
X62167761Y-56545870D01*
X62079870Y-56633761D01*
X62010815Y-56737109D01*
X61963249Y-56851944D01*
X61945000Y-56943688D01*
X61926751Y-56851944D01*
X61879185Y-56737109D01*
X61810130Y-56633761D01*
X61722239Y-56545870D01*
X61618891Y-56476815D01*
X61504056Y-56429249D01*
X61382148Y-56405000D01*
X61257852Y-56405000D01*
X61135944Y-56429249D01*
X61021109Y-56476815D01*
X60917761Y-56545870D01*
X60829870Y-56633761D01*
X60760815Y-56737109D01*
X60713249Y-56851944D01*
X60695000Y-56943688D01*
X60676751Y-56851944D01*
X60629185Y-56737109D01*
X60560130Y-56633761D01*
X60472239Y-56545870D01*
X60368891Y-56476815D01*
X60254056Y-56429249D01*
X60132148Y-56405000D01*
X60007852Y-56405000D01*
X59885944Y-56429249D01*
X59771109Y-56476815D01*
X59667761Y-56545870D01*
X59579870Y-56633761D01*
X59510815Y-56737109D01*
X59463249Y-56851944D01*
X59439000Y-56973852D01*
X38732843Y-56973852D01*
X38732843Y-55650000D01*
X38725487Y-55575311D01*
X38703701Y-55503492D01*
X38668322Y-55437304D01*
X38620711Y-55379289D01*
X38562696Y-55331678D01*
X38496508Y-55296299D01*
X38424689Y-55274513D01*
X38350000Y-55267157D01*
X36650000Y-55267157D01*
X36575311Y-55274513D01*
X36503492Y-55296299D01*
X36437304Y-55331678D01*
X36379289Y-55379289D01*
X36331678Y-55437304D01*
X36296299Y-55503492D01*
X36274513Y-55575311D01*
X36267157Y-55650000D01*
X26656000Y-55650000D01*
X26656000Y-47829511D01*
X84519000Y-47829511D01*
X84519000Y-48170489D01*
X84585521Y-48504914D01*
X84716007Y-48819936D01*
X84905444Y-49103448D01*
X85146552Y-49344556D01*
X85430064Y-49533993D01*
X85745086Y-49664479D01*
X86079511Y-49731000D01*
X86420489Y-49731000D01*
X86754914Y-49664479D01*
X87069936Y-49533993D01*
X87353448Y-49344556D01*
X87594556Y-49103448D01*
X87783993Y-48819936D01*
X87914479Y-48504914D01*
X87981000Y-48170489D01*
X87981000Y-47829511D01*
X87914479Y-47495086D01*
X87783993Y-47180064D01*
X87594556Y-46896552D01*
X87353448Y-46655444D01*
X87069936Y-46466007D01*
X86754914Y-46335521D01*
X86420489Y-46269000D01*
X86079511Y-46269000D01*
X85745086Y-46335521D01*
X85430064Y-46466007D01*
X85146552Y-46655444D01*
X84905444Y-46896552D01*
X84716007Y-47180064D01*
X84585521Y-47495086D01*
X84519000Y-47829511D01*
X26656000Y-47829511D01*
X26656000Y-45127000D01*
X89124170Y-45127000D01*
X89344000Y-68868668D01*
M02*
