G04 #@! TF.GenerationSoftware,KiCad,Pcbnew,(5.1.5)-3*
G04 #@! TF.CreationDate,2021-01-14T16:52:46-05:00*
G04 #@! TF.ProjectId,MOSFET_test_board,4d4f5346-4554-45f7-9465-73745f626f61,rev?*
G04 #@! TF.SameCoordinates,Original*
G04 #@! TF.FileFunction,Soldermask,Top*
G04 #@! TF.FilePolarity,Negative*
%FSLAX46Y46*%
G04 Gerber Fmt 4.6, Leading zero omitted, Abs format (unit mm)*
G04 Created by KiCad (PCBNEW (5.1.5)-3) date 2021-01-14 16:52:46*
%MOMM*%
%LPD*%
G04 APERTURE LIST*
%ADD10C,0.100000*%
G04 APERTURE END LIST*
D10*
G36*
X63875000Y-66321000D02*
G01*
X63875000Y-64701000D01*
X65365000Y-64701000D01*
X65365000Y-66321000D01*
X63875000Y-66321000D01*
G37*
X63875000Y-66321000D02*
X63875000Y-64701000D01*
X65365000Y-64701000D01*
X65365000Y-66321000D01*
X63875000Y-66321000D01*
G36*
X63875000Y-68871000D02*
G01*
X63875000Y-67251000D01*
X65365000Y-67251000D01*
X65365000Y-68871000D01*
X63875000Y-68871000D01*
G37*
X63875000Y-68871000D02*
X63875000Y-67251000D01*
X65365000Y-67251000D01*
X65365000Y-68871000D01*
X63875000Y-68871000D01*
G36*
X61765000Y-68871000D02*
G01*
X61765000Y-67251000D01*
X63255000Y-67251000D01*
X63255000Y-68871000D01*
X61765000Y-68871000D01*
G37*
X61765000Y-68871000D02*
X61765000Y-67251000D01*
X63255000Y-67251000D01*
X63255000Y-68871000D01*
X61765000Y-68871000D01*
G36*
X61765000Y-66321000D02*
G01*
X61765000Y-64701000D01*
X63255000Y-64701000D01*
X63255000Y-66321000D01*
X61765000Y-66321000D01*
G37*
X61765000Y-66321000D02*
X61765000Y-64701000D01*
X63255000Y-64701000D01*
X63255000Y-66321000D01*
X61765000Y-66321000D01*
G36*
X59655000Y-66321000D02*
G01*
X59655000Y-64701000D01*
X61145000Y-64701000D01*
X61145000Y-66321000D01*
X59655000Y-66321000D01*
G37*
X59655000Y-66321000D02*
X59655000Y-64701000D01*
X61145000Y-64701000D01*
X61145000Y-66321000D01*
X59655000Y-66321000D01*
G36*
X59655000Y-68871000D02*
G01*
X59655000Y-67251000D01*
X61145000Y-67251000D01*
X61145000Y-68871000D01*
X59655000Y-68871000D01*
G37*
X59655000Y-68871000D02*
X59655000Y-67251000D01*
X61145000Y-67251000D01*
X61145000Y-68871000D01*
X59655000Y-68871000D01*
G36*
X63875000Y-56571000D02*
G01*
X63875000Y-54951000D01*
X65365000Y-54951000D01*
X65365000Y-56571000D01*
X63875000Y-56571000D01*
G37*
X63875000Y-56571000D02*
X63875000Y-54951000D01*
X65365000Y-54951000D01*
X65365000Y-56571000D01*
X63875000Y-56571000D01*
G36*
X63875000Y-59121000D02*
G01*
X63875000Y-57501000D01*
X65365000Y-57501000D01*
X65365000Y-59121000D01*
X63875000Y-59121000D01*
G37*
X63875000Y-59121000D02*
X63875000Y-57501000D01*
X65365000Y-57501000D01*
X65365000Y-59121000D01*
X63875000Y-59121000D01*
G36*
X61765000Y-59121000D02*
G01*
X61765000Y-57501000D01*
X63255000Y-57501000D01*
X63255000Y-59121000D01*
X61765000Y-59121000D01*
G37*
X61765000Y-59121000D02*
X61765000Y-57501000D01*
X63255000Y-57501000D01*
X63255000Y-59121000D01*
X61765000Y-59121000D01*
G36*
X61765000Y-56571000D02*
G01*
X61765000Y-54951000D01*
X63255000Y-54951000D01*
X63255000Y-56571000D01*
X61765000Y-56571000D01*
G37*
X61765000Y-56571000D02*
X61765000Y-54951000D01*
X63255000Y-54951000D01*
X63255000Y-56571000D01*
X61765000Y-56571000D01*
G36*
X59655000Y-56571000D02*
G01*
X59655000Y-54951000D01*
X61145000Y-54951000D01*
X61145000Y-56571000D01*
X59655000Y-56571000D01*
G37*
X59655000Y-56571000D02*
X59655000Y-54951000D01*
X61145000Y-54951000D01*
X61145000Y-56571000D01*
X59655000Y-56571000D01*
G36*
X59655000Y-59121000D02*
G01*
X59655000Y-57501000D01*
X61145000Y-57501000D01*
X61145000Y-59121000D01*
X59655000Y-59121000D01*
G37*
X59655000Y-59121000D02*
X59655000Y-57501000D01*
X61145000Y-57501000D01*
X61145000Y-59121000D01*
X59655000Y-59121000D01*
G36*
X44316359Y-69969261D02*
G01*
X44355609Y-69981168D01*
X44391776Y-70000499D01*
X44423481Y-70026519D01*
X44449501Y-70058224D01*
X44468832Y-70094391D01*
X44480739Y-70133641D01*
X44485000Y-70176908D01*
X44485000Y-70823092D01*
X44480739Y-70866359D01*
X44468832Y-70905609D01*
X44449501Y-70941776D01*
X44423481Y-70973481D01*
X44391776Y-70999501D01*
X44355609Y-71018832D01*
X44316359Y-71030739D01*
X44273092Y-71035000D01*
X43746908Y-71035000D01*
X43703641Y-71030739D01*
X43664391Y-71018832D01*
X43628224Y-70999501D01*
X43596519Y-70973481D01*
X43570499Y-70941776D01*
X43551168Y-70905609D01*
X43539261Y-70866359D01*
X43535000Y-70823092D01*
X43535000Y-70176908D01*
X43539261Y-70133641D01*
X43551168Y-70094391D01*
X43570499Y-70058224D01*
X43596519Y-70026519D01*
X43628224Y-70000499D01*
X43664391Y-69981168D01*
X43703641Y-69969261D01*
X43746908Y-69965000D01*
X44273092Y-69965000D01*
X44316359Y-69969261D01*
G37*
G36*
X42796359Y-69969261D02*
G01*
X42835609Y-69981168D01*
X42871776Y-70000499D01*
X42903481Y-70026519D01*
X42929501Y-70058224D01*
X42948832Y-70094391D01*
X42960739Y-70133641D01*
X42965000Y-70176908D01*
X42965000Y-70823092D01*
X42960739Y-70866359D01*
X42948832Y-70905609D01*
X42929501Y-70941776D01*
X42903481Y-70973481D01*
X42871776Y-70999501D01*
X42835609Y-71018832D01*
X42796359Y-71030739D01*
X42753092Y-71035000D01*
X42226908Y-71035000D01*
X42183641Y-71030739D01*
X42144391Y-71018832D01*
X42108224Y-70999501D01*
X42076519Y-70973481D01*
X42050499Y-70941776D01*
X42031168Y-70905609D01*
X42019261Y-70866359D01*
X42015000Y-70823092D01*
X42015000Y-70176908D01*
X42019261Y-70133641D01*
X42031168Y-70094391D01*
X42050499Y-70058224D01*
X42076519Y-70026519D01*
X42108224Y-70000499D01*
X42144391Y-69981168D01*
X42183641Y-69969261D01*
X42226908Y-69965000D01*
X42753092Y-69965000D01*
X42796359Y-69969261D01*
G37*
G36*
X86702037Y-67612760D02*
G01*
X86908365Y-67653801D01*
X87163149Y-67759336D01*
X87392448Y-67912549D01*
X87587451Y-68107552D01*
X87740664Y-68336851D01*
X87846199Y-68591635D01*
X87846199Y-68591637D01*
X87900000Y-68862111D01*
X87900000Y-69137889D01*
X87897248Y-69151724D01*
X87846199Y-69408365D01*
X87740664Y-69663149D01*
X87587451Y-69892448D01*
X87392448Y-70087451D01*
X87163149Y-70240664D01*
X86908365Y-70346199D01*
X86728047Y-70382066D01*
X86637889Y-70400000D01*
X86362111Y-70400000D01*
X86271953Y-70382066D01*
X86091635Y-70346199D01*
X85836851Y-70240664D01*
X85607552Y-70087451D01*
X85412549Y-69892448D01*
X85259336Y-69663149D01*
X85153801Y-69408365D01*
X85102752Y-69151724D01*
X85100000Y-69137889D01*
X85100000Y-68862111D01*
X85153801Y-68591637D01*
X85153801Y-68591635D01*
X85259336Y-68336851D01*
X85412549Y-68107552D01*
X85607552Y-67912549D01*
X85836851Y-67759336D01*
X86091635Y-67653801D01*
X86297963Y-67612760D01*
X86362111Y-67600000D01*
X86637889Y-67600000D01*
X86702037Y-67612760D01*
G37*
G36*
X29702037Y-67612760D02*
G01*
X29908365Y-67653801D01*
X30163149Y-67759336D01*
X30392448Y-67912549D01*
X30587451Y-68107552D01*
X30740664Y-68336851D01*
X30846199Y-68591635D01*
X30846199Y-68591637D01*
X30900000Y-68862111D01*
X30900000Y-69137889D01*
X30897248Y-69151724D01*
X30846199Y-69408365D01*
X30740664Y-69663149D01*
X30587451Y-69892448D01*
X30392448Y-70087451D01*
X30163149Y-70240664D01*
X29908365Y-70346199D01*
X29728047Y-70382066D01*
X29637889Y-70400000D01*
X29362111Y-70400000D01*
X29271953Y-70382066D01*
X29091635Y-70346199D01*
X28836851Y-70240664D01*
X28607552Y-70087451D01*
X28412549Y-69892448D01*
X28259336Y-69663149D01*
X28153801Y-69408365D01*
X28102752Y-69151724D01*
X28100000Y-69137889D01*
X28100000Y-68862111D01*
X28153801Y-68591637D01*
X28153801Y-68591635D01*
X28259336Y-68336851D01*
X28412549Y-68107552D01*
X28607552Y-67912549D01*
X28836851Y-67759336D01*
X29091635Y-67653801D01*
X29297963Y-67612760D01*
X29362111Y-67600000D01*
X29637889Y-67600000D01*
X29702037Y-67612760D01*
G37*
G36*
X57493053Y-68371818D02*
G01*
X57537732Y-68385371D01*
X57578909Y-68407381D01*
X57615000Y-68437000D01*
X57644619Y-68473091D01*
X57666629Y-68514268D01*
X57680182Y-68558947D01*
X57685000Y-68607864D01*
X57685000Y-69536136D01*
X57680182Y-69585053D01*
X57666629Y-69629732D01*
X57644619Y-69670909D01*
X57615000Y-69707000D01*
X57578909Y-69736619D01*
X57537732Y-69758629D01*
X57493053Y-69772182D01*
X57444136Y-69777000D01*
X54555864Y-69777000D01*
X54506947Y-69772182D01*
X54462268Y-69758629D01*
X54421091Y-69736619D01*
X54385000Y-69707000D01*
X54355381Y-69670909D01*
X54333371Y-69629732D01*
X54319818Y-69585053D01*
X54315000Y-69536136D01*
X54315000Y-68607864D01*
X54319818Y-68558947D01*
X54333371Y-68514268D01*
X54355381Y-68473091D01*
X54385000Y-68437000D01*
X54421091Y-68407381D01*
X54462268Y-68385371D01*
X54506947Y-68371818D01*
X54555864Y-68367000D01*
X57444136Y-68367000D01*
X57493053Y-68371818D01*
G37*
G36*
X52699872Y-67499655D02*
G01*
X52742962Y-67512726D01*
X52782673Y-67533953D01*
X52817481Y-67562519D01*
X52846047Y-67597327D01*
X52867274Y-67637038D01*
X52880345Y-67680128D01*
X52885000Y-67727393D01*
X52885000Y-69132607D01*
X52880345Y-69179872D01*
X52867274Y-69222962D01*
X52846047Y-69262673D01*
X52817481Y-69297481D01*
X52782673Y-69326047D01*
X52742962Y-69347274D01*
X52699872Y-69360345D01*
X52652607Y-69365000D01*
X51347393Y-69365000D01*
X51300128Y-69360345D01*
X51257038Y-69347274D01*
X51217327Y-69326047D01*
X51182519Y-69297481D01*
X51153953Y-69262673D01*
X51132726Y-69222962D01*
X51119655Y-69179872D01*
X51115000Y-69132607D01*
X51115000Y-67727393D01*
X51119655Y-67680128D01*
X51132726Y-67637038D01*
X51153953Y-67597327D01*
X51182519Y-67562519D01*
X51217327Y-67533953D01*
X51257038Y-67512726D01*
X51300128Y-67499655D01*
X51347393Y-67495000D01*
X52652607Y-67495000D01*
X52699872Y-67499655D01*
G37*
G36*
X44316359Y-68219261D02*
G01*
X44355609Y-68231168D01*
X44391776Y-68250499D01*
X44423481Y-68276519D01*
X44449501Y-68308224D01*
X44468832Y-68344391D01*
X44480739Y-68383641D01*
X44485000Y-68426908D01*
X44485000Y-69073092D01*
X44480739Y-69116359D01*
X44468832Y-69155609D01*
X44449501Y-69191776D01*
X44423481Y-69223481D01*
X44391776Y-69249501D01*
X44355609Y-69268832D01*
X44316359Y-69280739D01*
X44273092Y-69285000D01*
X43746908Y-69285000D01*
X43703641Y-69280739D01*
X43664391Y-69268832D01*
X43628224Y-69249501D01*
X43596519Y-69223481D01*
X43570499Y-69191776D01*
X43551168Y-69155609D01*
X43539261Y-69116359D01*
X43535000Y-69073092D01*
X43535000Y-68426908D01*
X43539261Y-68383641D01*
X43551168Y-68344391D01*
X43570499Y-68308224D01*
X43596519Y-68276519D01*
X43628224Y-68250499D01*
X43664391Y-68231168D01*
X43703641Y-68219261D01*
X43746908Y-68215000D01*
X44273092Y-68215000D01*
X44316359Y-68219261D01*
G37*
G36*
X42796359Y-68219261D02*
G01*
X42835609Y-68231168D01*
X42871776Y-68250499D01*
X42903481Y-68276519D01*
X42929501Y-68308224D01*
X42948832Y-68344391D01*
X42960739Y-68383641D01*
X42965000Y-68426908D01*
X42965000Y-69073092D01*
X42960739Y-69116359D01*
X42948832Y-69155609D01*
X42929501Y-69191776D01*
X42903481Y-69223481D01*
X42871776Y-69249501D01*
X42835609Y-69268832D01*
X42796359Y-69280739D01*
X42753092Y-69285000D01*
X42226908Y-69285000D01*
X42183641Y-69280739D01*
X42144391Y-69268832D01*
X42108224Y-69249501D01*
X42076519Y-69223481D01*
X42050499Y-69191776D01*
X42031168Y-69155609D01*
X42019261Y-69116359D01*
X42015000Y-69073092D01*
X42015000Y-68426908D01*
X42019261Y-68383641D01*
X42031168Y-68344391D01*
X42050499Y-68308224D01*
X42076519Y-68276519D01*
X42108224Y-68250499D01*
X42144391Y-68231168D01*
X42183641Y-68219261D01*
X42226908Y-68215000D01*
X42753092Y-68215000D01*
X42796359Y-68219261D01*
G37*
G36*
X44691882Y-66418533D02*
G01*
X44724014Y-66428280D01*
X44753629Y-66444110D01*
X44779587Y-66465413D01*
X44800890Y-66491371D01*
X44816720Y-66520986D01*
X44826467Y-66553118D01*
X44830000Y-66588990D01*
X44830000Y-67401010D01*
X44826467Y-67436882D01*
X44816720Y-67469014D01*
X44800890Y-67498629D01*
X44779587Y-67524587D01*
X44753629Y-67545890D01*
X44724014Y-67561720D01*
X44691882Y-67571467D01*
X44656010Y-67575000D01*
X44243990Y-67575000D01*
X44208118Y-67571467D01*
X44175986Y-67561720D01*
X44146371Y-67545890D01*
X44120413Y-67524587D01*
X44099110Y-67498629D01*
X44083280Y-67469014D01*
X44073533Y-67436882D01*
X44070000Y-67401010D01*
X44070000Y-66588990D01*
X44073533Y-66553118D01*
X44083280Y-66520986D01*
X44099110Y-66491371D01*
X44120413Y-66465413D01*
X44146371Y-66444110D01*
X44175986Y-66428280D01*
X44208118Y-66418533D01*
X44243990Y-66415000D01*
X44656010Y-66415000D01*
X44691882Y-66418533D01*
G37*
G36*
X42791882Y-66418533D02*
G01*
X42824014Y-66428280D01*
X42853629Y-66444110D01*
X42879587Y-66465413D01*
X42900890Y-66491371D01*
X42916720Y-66520986D01*
X42926467Y-66553118D01*
X42930000Y-66588990D01*
X42930000Y-67401010D01*
X42926467Y-67436882D01*
X42916720Y-67469014D01*
X42900890Y-67498629D01*
X42879587Y-67524587D01*
X42853629Y-67545890D01*
X42824014Y-67561720D01*
X42791882Y-67571467D01*
X42756010Y-67575000D01*
X42343990Y-67575000D01*
X42308118Y-67571467D01*
X42275986Y-67561720D01*
X42246371Y-67545890D01*
X42220413Y-67524587D01*
X42199110Y-67498629D01*
X42183280Y-67469014D01*
X42173533Y-67436882D01*
X42170000Y-67401010D01*
X42170000Y-66588990D01*
X42173533Y-66553118D01*
X42183280Y-66520986D01*
X42199110Y-66491371D01*
X42220413Y-66465413D01*
X42246371Y-66444110D01*
X42275986Y-66428280D01*
X42308118Y-66418533D01*
X42343990Y-66415000D01*
X42756010Y-66415000D01*
X42791882Y-66418533D01*
G37*
G36*
X69384872Y-65719655D02*
G01*
X69427962Y-65732726D01*
X69467673Y-65753953D01*
X69502481Y-65782519D01*
X69531047Y-65817327D01*
X69552274Y-65857038D01*
X69565345Y-65900128D01*
X69570000Y-65947393D01*
X69570000Y-67252607D01*
X69565345Y-67299872D01*
X69552274Y-67342962D01*
X69531047Y-67382673D01*
X69502481Y-67417481D01*
X69467673Y-67446047D01*
X69427962Y-67467274D01*
X69384872Y-67480345D01*
X69337607Y-67485000D01*
X67932393Y-67485000D01*
X67885128Y-67480345D01*
X67842038Y-67467274D01*
X67802327Y-67446047D01*
X67767519Y-67417481D01*
X67738953Y-67382673D01*
X67717726Y-67342962D01*
X67704655Y-67299872D01*
X67700000Y-67252607D01*
X67700000Y-65947393D01*
X67704655Y-65900128D01*
X67717726Y-65857038D01*
X67738953Y-65817327D01*
X67767519Y-65782519D01*
X67802327Y-65753953D01*
X67842038Y-65732726D01*
X67885128Y-65719655D01*
X67932393Y-65715000D01*
X69337607Y-65715000D01*
X69384872Y-65719655D01*
G37*
G36*
X73314872Y-65719655D02*
G01*
X73357962Y-65732726D01*
X73397673Y-65753953D01*
X73432481Y-65782519D01*
X73461047Y-65817327D01*
X73482274Y-65857038D01*
X73495345Y-65900128D01*
X73500000Y-65947393D01*
X73500000Y-67252607D01*
X73495345Y-67299872D01*
X73482274Y-67342962D01*
X73461047Y-67382673D01*
X73432481Y-67417481D01*
X73397673Y-67446047D01*
X73357962Y-67467274D01*
X73314872Y-67480345D01*
X73267607Y-67485000D01*
X71862393Y-67485000D01*
X71815128Y-67480345D01*
X71772038Y-67467274D01*
X71732327Y-67446047D01*
X71697519Y-67417481D01*
X71668953Y-67382673D01*
X71647726Y-67342962D01*
X71634655Y-67299872D01*
X71630000Y-67252607D01*
X71630000Y-65947393D01*
X71634655Y-65900128D01*
X71647726Y-65857038D01*
X71668953Y-65817327D01*
X71697519Y-65782519D01*
X71732327Y-65753953D01*
X71772038Y-65732726D01*
X71815128Y-65719655D01*
X71862393Y-65715000D01*
X73267607Y-65715000D01*
X73314872Y-65719655D01*
G37*
G36*
X60107795Y-66487640D02*
G01*
X60157507Y-66497528D01*
X60212103Y-66520143D01*
X60261239Y-66552974D01*
X60303026Y-66594761D01*
X60335857Y-66643897D01*
X60358472Y-66698493D01*
X60370000Y-66756453D01*
X60370000Y-66815547D01*
X60358472Y-66873507D01*
X60335857Y-66928103D01*
X60303026Y-66977239D01*
X60261239Y-67019026D01*
X60212103Y-67051857D01*
X60157507Y-67074472D01*
X60107795Y-67084360D01*
X60099548Y-67086000D01*
X60040452Y-67086000D01*
X60032205Y-67084360D01*
X59982493Y-67074472D01*
X59927897Y-67051857D01*
X59878761Y-67019026D01*
X59836974Y-66977239D01*
X59804143Y-66928103D01*
X59781528Y-66873507D01*
X59770000Y-66815547D01*
X59770000Y-66756453D01*
X59781528Y-66698493D01*
X59804143Y-66643897D01*
X59836974Y-66594761D01*
X59878761Y-66552974D01*
X59927897Y-66520143D01*
X59982493Y-66497528D01*
X60032205Y-66487640D01*
X60040452Y-66486000D01*
X60099548Y-66486000D01*
X60107795Y-66487640D01*
G37*
G36*
X63857795Y-66487640D02*
G01*
X63907507Y-66497528D01*
X63962103Y-66520143D01*
X64011239Y-66552974D01*
X64053026Y-66594761D01*
X64085857Y-66643897D01*
X64108472Y-66698493D01*
X64120000Y-66756453D01*
X64120000Y-66815547D01*
X64108472Y-66873507D01*
X64085857Y-66928103D01*
X64053026Y-66977239D01*
X64011239Y-67019026D01*
X63962103Y-67051857D01*
X63907507Y-67074472D01*
X63857795Y-67084360D01*
X63849548Y-67086000D01*
X63790452Y-67086000D01*
X63782205Y-67084360D01*
X63732493Y-67074472D01*
X63677897Y-67051857D01*
X63628761Y-67019026D01*
X63586974Y-66977239D01*
X63554143Y-66928103D01*
X63531528Y-66873507D01*
X63520000Y-66815547D01*
X63520000Y-66756453D01*
X63531528Y-66698493D01*
X63554143Y-66643897D01*
X63586974Y-66594761D01*
X63628761Y-66552974D01*
X63677897Y-66520143D01*
X63732493Y-66497528D01*
X63782205Y-66487640D01*
X63790452Y-66486000D01*
X63849548Y-66486000D01*
X63857795Y-66487640D01*
G37*
G36*
X61357795Y-66487640D02*
G01*
X61407507Y-66497528D01*
X61462103Y-66520143D01*
X61511239Y-66552974D01*
X61553026Y-66594761D01*
X61585857Y-66643897D01*
X61608472Y-66698493D01*
X61620000Y-66756453D01*
X61620000Y-66815547D01*
X61608472Y-66873507D01*
X61585857Y-66928103D01*
X61553026Y-66977239D01*
X61511239Y-67019026D01*
X61462103Y-67051857D01*
X61407507Y-67074472D01*
X61357795Y-67084360D01*
X61349548Y-67086000D01*
X61290452Y-67086000D01*
X61282205Y-67084360D01*
X61232493Y-67074472D01*
X61177897Y-67051857D01*
X61128761Y-67019026D01*
X61086974Y-66977239D01*
X61054143Y-66928103D01*
X61031528Y-66873507D01*
X61020000Y-66815547D01*
X61020000Y-66756453D01*
X61031528Y-66698493D01*
X61054143Y-66643897D01*
X61086974Y-66594761D01*
X61128761Y-66552974D01*
X61177897Y-66520143D01*
X61232493Y-66497528D01*
X61282205Y-66487640D01*
X61290452Y-66486000D01*
X61349548Y-66486000D01*
X61357795Y-66487640D01*
G37*
G36*
X65107795Y-66487640D02*
G01*
X65157507Y-66497528D01*
X65212103Y-66520143D01*
X65261239Y-66552974D01*
X65303026Y-66594761D01*
X65335857Y-66643897D01*
X65358472Y-66698493D01*
X65370000Y-66756453D01*
X65370000Y-66815547D01*
X65358472Y-66873507D01*
X65335857Y-66928103D01*
X65303026Y-66977239D01*
X65261239Y-67019026D01*
X65212103Y-67051857D01*
X65157507Y-67074472D01*
X65107795Y-67084360D01*
X65099548Y-67086000D01*
X65040452Y-67086000D01*
X65032205Y-67084360D01*
X64982493Y-67074472D01*
X64927897Y-67051857D01*
X64878761Y-67019026D01*
X64836974Y-66977239D01*
X64804143Y-66928103D01*
X64781528Y-66873507D01*
X64770000Y-66815547D01*
X64770000Y-66756453D01*
X64781528Y-66698493D01*
X64804143Y-66643897D01*
X64836974Y-66594761D01*
X64878761Y-66552974D01*
X64927897Y-66520143D01*
X64982493Y-66497528D01*
X65032205Y-66487640D01*
X65040452Y-66486000D01*
X65099548Y-66486000D01*
X65107795Y-66487640D01*
G37*
G36*
X62607795Y-66487640D02*
G01*
X62657507Y-66497528D01*
X62712103Y-66520143D01*
X62761239Y-66552974D01*
X62803026Y-66594761D01*
X62835857Y-66643897D01*
X62858472Y-66698493D01*
X62870000Y-66756453D01*
X62870000Y-66815547D01*
X62858472Y-66873507D01*
X62835857Y-66928103D01*
X62803026Y-66977239D01*
X62761239Y-67019026D01*
X62712103Y-67051857D01*
X62657507Y-67074472D01*
X62607795Y-67084360D01*
X62599548Y-67086000D01*
X62540452Y-67086000D01*
X62532205Y-67084360D01*
X62482493Y-67074472D01*
X62427897Y-67051857D01*
X62378761Y-67019026D01*
X62336974Y-66977239D01*
X62304143Y-66928103D01*
X62281528Y-66873507D01*
X62270000Y-66815547D01*
X62270000Y-66756453D01*
X62281528Y-66698493D01*
X62304143Y-66643897D01*
X62336974Y-66594761D01*
X62378761Y-66552974D01*
X62427897Y-66520143D01*
X62482493Y-66497528D01*
X62532205Y-66487640D01*
X62540452Y-66486000D01*
X62599548Y-66486000D01*
X62607795Y-66487640D01*
G37*
G36*
X77550000Y-65950000D02*
G01*
X76450000Y-65950000D01*
X76450000Y-64850000D01*
X77550000Y-64850000D01*
X77550000Y-65950000D01*
G37*
G36*
X42791882Y-64428533D02*
G01*
X42824014Y-64438280D01*
X42853629Y-64454110D01*
X42879587Y-64475413D01*
X42900890Y-64501371D01*
X42916720Y-64530986D01*
X42926467Y-64563118D01*
X42930000Y-64598990D01*
X42930000Y-65411010D01*
X42926467Y-65446882D01*
X42916720Y-65479014D01*
X42900890Y-65508629D01*
X42879587Y-65534587D01*
X42853629Y-65555890D01*
X42824014Y-65571720D01*
X42791882Y-65581467D01*
X42756010Y-65585000D01*
X42343990Y-65585000D01*
X42308118Y-65581467D01*
X42275986Y-65571720D01*
X42246371Y-65555890D01*
X42220413Y-65534587D01*
X42199110Y-65508629D01*
X42183280Y-65479014D01*
X42173533Y-65446882D01*
X42170000Y-65411010D01*
X42170000Y-64598990D01*
X42173533Y-64563118D01*
X42183280Y-64530986D01*
X42199110Y-64501371D01*
X42220413Y-64475413D01*
X42246371Y-64454110D01*
X42275986Y-64438280D01*
X42308118Y-64428533D01*
X42343990Y-64425000D01*
X42756010Y-64425000D01*
X42791882Y-64428533D01*
G37*
G36*
X44707521Y-64428159D02*
G01*
X44736012Y-64436802D01*
X44762264Y-64450834D01*
X44785278Y-64469722D01*
X44804166Y-64492736D01*
X44818198Y-64518988D01*
X44826841Y-64547479D01*
X44830000Y-64579557D01*
X44830000Y-65430443D01*
X44826841Y-65462521D01*
X44818198Y-65491012D01*
X44804166Y-65517264D01*
X44785278Y-65540278D01*
X44762264Y-65559166D01*
X44736012Y-65573198D01*
X44707521Y-65581841D01*
X44675443Y-65585000D01*
X43814557Y-65585000D01*
X43782479Y-65581841D01*
X43753988Y-65573198D01*
X43727736Y-65559166D01*
X43704722Y-65540278D01*
X43685834Y-65517264D01*
X43671802Y-65491012D01*
X43663159Y-65462521D01*
X43660000Y-65430443D01*
X43660000Y-64579557D01*
X43663159Y-64547479D01*
X43671802Y-64518988D01*
X43685834Y-64492736D01*
X43704722Y-64469722D01*
X43727736Y-64450834D01*
X43753988Y-64436802D01*
X43782479Y-64428159D01*
X43814557Y-64425000D01*
X44675443Y-64425000D01*
X44707521Y-64428159D01*
G37*
G36*
X52699872Y-63569655D02*
G01*
X52742962Y-63582726D01*
X52782673Y-63603953D01*
X52817481Y-63632519D01*
X52846047Y-63667327D01*
X52867274Y-63707038D01*
X52880345Y-63750128D01*
X52885000Y-63797393D01*
X52885000Y-65202607D01*
X52880345Y-65249872D01*
X52867274Y-65292962D01*
X52846047Y-65332673D01*
X52817481Y-65367481D01*
X52782673Y-65396047D01*
X52742962Y-65417274D01*
X52699872Y-65430345D01*
X52652607Y-65435000D01*
X51347393Y-65435000D01*
X51300128Y-65430345D01*
X51257038Y-65417274D01*
X51217327Y-65396047D01*
X51182519Y-65367481D01*
X51153953Y-65332673D01*
X51132726Y-65292962D01*
X51119655Y-65249872D01*
X51115000Y-65202607D01*
X51115000Y-63797393D01*
X51119655Y-63750128D01*
X51132726Y-63707038D01*
X51153953Y-63667327D01*
X51182519Y-63632519D01*
X51217327Y-63603953D01*
X51257038Y-63582726D01*
X51300128Y-63569655D01*
X51347393Y-63565000D01*
X52652607Y-63565000D01*
X52699872Y-63569655D01*
G37*
G36*
X57493297Y-63799812D02*
G01*
X57537921Y-63813349D01*
X57579045Y-63835330D01*
X57615089Y-63864911D01*
X57644670Y-63900955D01*
X57666651Y-63942079D01*
X57680188Y-63986703D01*
X57685000Y-64035562D01*
X57685000Y-64964438D01*
X57680188Y-65013297D01*
X57666651Y-65057921D01*
X57644670Y-65099045D01*
X57615089Y-65135089D01*
X57579045Y-65164670D01*
X57537921Y-65186651D01*
X57493297Y-65200188D01*
X57444438Y-65205000D01*
X54555562Y-65205000D01*
X54506703Y-65200188D01*
X54462079Y-65186651D01*
X54420955Y-65164670D01*
X54384911Y-65135089D01*
X54355330Y-65099045D01*
X54333349Y-65057921D01*
X54319812Y-65013297D01*
X54315000Y-64964438D01*
X54315000Y-64035562D01*
X54319812Y-63986703D01*
X54333349Y-63942079D01*
X54355330Y-63900955D01*
X54384911Y-63864911D01*
X54420955Y-63835330D01*
X54462079Y-63813349D01*
X54506703Y-63799812D01*
X54555562Y-63795000D01*
X57444438Y-63795000D01*
X57493297Y-63799812D01*
G37*
G36*
X48296359Y-63969261D02*
G01*
X48335609Y-63981168D01*
X48371776Y-64000499D01*
X48403481Y-64026519D01*
X48429501Y-64058224D01*
X48448832Y-64094391D01*
X48460739Y-64133641D01*
X48465000Y-64176908D01*
X48465000Y-64823092D01*
X48460739Y-64866359D01*
X48448832Y-64905609D01*
X48429501Y-64941776D01*
X48403481Y-64973481D01*
X48371776Y-64999501D01*
X48335609Y-65018832D01*
X48296359Y-65030739D01*
X48253092Y-65035000D01*
X47726908Y-65035000D01*
X47683641Y-65030739D01*
X47644391Y-65018832D01*
X47608224Y-64999501D01*
X47576519Y-64973481D01*
X47550499Y-64941776D01*
X47531168Y-64905609D01*
X47519261Y-64866359D01*
X47515000Y-64823092D01*
X47515000Y-64176908D01*
X47519261Y-64133641D01*
X47531168Y-64094391D01*
X47550499Y-64058224D01*
X47576519Y-64026519D01*
X47608224Y-64000499D01*
X47644391Y-63981168D01*
X47683641Y-63969261D01*
X47726908Y-63965000D01*
X48253092Y-63965000D01*
X48296359Y-63969261D01*
G37*
G36*
X49816359Y-63969261D02*
G01*
X49855609Y-63981168D01*
X49891776Y-64000499D01*
X49923481Y-64026519D01*
X49949501Y-64058224D01*
X49968832Y-64094391D01*
X49980739Y-64133641D01*
X49985000Y-64176908D01*
X49985000Y-64823092D01*
X49980739Y-64866359D01*
X49968832Y-64905609D01*
X49949501Y-64941776D01*
X49923481Y-64973481D01*
X49891776Y-64999501D01*
X49855609Y-65018832D01*
X49816359Y-65030739D01*
X49773092Y-65035000D01*
X49246908Y-65035000D01*
X49203641Y-65030739D01*
X49164391Y-65018832D01*
X49128224Y-64999501D01*
X49096519Y-64973481D01*
X49070499Y-64941776D01*
X49051168Y-64905609D01*
X49039261Y-64866359D01*
X49035000Y-64823092D01*
X49035000Y-64176908D01*
X49039261Y-64133641D01*
X49051168Y-64094391D01*
X49070499Y-64058224D01*
X49096519Y-64026519D01*
X49128224Y-64000499D01*
X49164391Y-63981168D01*
X49203641Y-63969261D01*
X49246908Y-63965000D01*
X49773092Y-63965000D01*
X49816359Y-63969261D01*
G37*
G36*
X75174157Y-60294672D02*
G01*
X75217416Y-60307795D01*
X75257278Y-60329101D01*
X75292221Y-60357779D01*
X75320899Y-60392722D01*
X75342205Y-60432584D01*
X75355328Y-60475843D01*
X75360000Y-60523280D01*
X75360000Y-63526720D01*
X75355328Y-63574157D01*
X75342205Y-63617416D01*
X75320899Y-63657278D01*
X75292221Y-63692221D01*
X75257278Y-63720899D01*
X75217416Y-63742205D01*
X75174157Y-63755328D01*
X75126720Y-63760000D01*
X73873280Y-63760000D01*
X73825843Y-63755328D01*
X73782584Y-63742205D01*
X73742722Y-63720899D01*
X73707779Y-63692221D01*
X73679101Y-63657278D01*
X73657795Y-63617416D01*
X73644672Y-63574157D01*
X73640000Y-63526720D01*
X73640000Y-60523280D01*
X73644672Y-60475843D01*
X73657795Y-60432584D01*
X73679101Y-60392722D01*
X73707779Y-60357779D01*
X73742722Y-60329101D01*
X73782584Y-60307795D01*
X73825843Y-60294672D01*
X73873280Y-60290000D01*
X75126720Y-60290000D01*
X75174157Y-60294672D01*
G37*
G36*
X44546359Y-61969261D02*
G01*
X44585609Y-61981168D01*
X44621776Y-62000499D01*
X44653481Y-62026519D01*
X44679501Y-62058224D01*
X44698832Y-62094391D01*
X44710739Y-62133641D01*
X44715000Y-62176908D01*
X44715000Y-62823092D01*
X44710739Y-62866359D01*
X44698832Y-62905609D01*
X44679501Y-62941776D01*
X44653481Y-62973481D01*
X44621776Y-62999501D01*
X44585609Y-63018832D01*
X44546359Y-63030739D01*
X44503092Y-63035000D01*
X43976908Y-63035000D01*
X43933641Y-63030739D01*
X43894391Y-63018832D01*
X43858224Y-62999501D01*
X43826519Y-62973481D01*
X43800499Y-62941776D01*
X43781168Y-62905609D01*
X43769261Y-62866359D01*
X43765000Y-62823092D01*
X43765000Y-62176908D01*
X43769261Y-62133641D01*
X43781168Y-62094391D01*
X43800499Y-62058224D01*
X43826519Y-62026519D01*
X43858224Y-62000499D01*
X43894391Y-61981168D01*
X43933641Y-61969261D01*
X43976908Y-61965000D01*
X44503092Y-61965000D01*
X44546359Y-61969261D01*
G37*
G36*
X46066359Y-61969261D02*
G01*
X46105609Y-61981168D01*
X46141776Y-62000499D01*
X46173481Y-62026519D01*
X46199501Y-62058224D01*
X46218832Y-62094391D01*
X46230739Y-62133641D01*
X46235000Y-62176908D01*
X46235000Y-62823092D01*
X46230739Y-62866359D01*
X46218832Y-62905609D01*
X46199501Y-62941776D01*
X46173481Y-62973481D01*
X46141776Y-62999501D01*
X46105609Y-63018832D01*
X46066359Y-63030739D01*
X46023092Y-63035000D01*
X45496908Y-63035000D01*
X45453641Y-63030739D01*
X45414391Y-63018832D01*
X45378224Y-62999501D01*
X45346519Y-62973481D01*
X45320499Y-62941776D01*
X45301168Y-62905609D01*
X45289261Y-62866359D01*
X45285000Y-62823092D01*
X45285000Y-62176908D01*
X45289261Y-62133641D01*
X45301168Y-62094391D01*
X45320499Y-62058224D01*
X45346519Y-62026519D01*
X45378224Y-62000499D01*
X45414391Y-61981168D01*
X45453641Y-61969261D01*
X45496908Y-61965000D01*
X46023092Y-61965000D01*
X46066359Y-61969261D01*
G37*
G36*
X29427988Y-61157923D02*
G01*
X29502980Y-61180671D01*
X29572093Y-61217614D01*
X29632671Y-61267329D01*
X29682386Y-61327907D01*
X29719329Y-61397020D01*
X29742077Y-61472012D01*
X29750000Y-61552454D01*
X29750000Y-62447546D01*
X29742077Y-62527988D01*
X29719329Y-62602980D01*
X29682386Y-62672093D01*
X29632671Y-62732671D01*
X29572093Y-62782386D01*
X29502980Y-62819329D01*
X29427988Y-62842077D01*
X29347546Y-62850000D01*
X27752454Y-62850000D01*
X27672012Y-62842077D01*
X27597020Y-62819329D01*
X27527907Y-62782386D01*
X27467329Y-62732671D01*
X27417614Y-62672093D01*
X27380671Y-62602980D01*
X27357923Y-62527988D01*
X27350000Y-62447546D01*
X27350000Y-61552454D01*
X27357923Y-61472012D01*
X27380671Y-61397020D01*
X27417614Y-61327907D01*
X27467329Y-61267329D01*
X27527907Y-61217614D01*
X27597020Y-61180671D01*
X27672012Y-61157923D01*
X27752454Y-61150000D01*
X29347546Y-61150000D01*
X29427988Y-61157923D01*
G37*
G36*
X32827988Y-61157923D02*
G01*
X32902980Y-61180671D01*
X32972093Y-61217614D01*
X33032671Y-61267329D01*
X33082386Y-61327907D01*
X33119329Y-61397020D01*
X33142077Y-61472012D01*
X33150000Y-61552454D01*
X33150000Y-62447546D01*
X33142077Y-62527988D01*
X33119329Y-62602980D01*
X33082386Y-62672093D01*
X33032671Y-62732671D01*
X32972093Y-62782386D01*
X32902980Y-62819329D01*
X32827988Y-62842077D01*
X32747546Y-62850000D01*
X31152454Y-62850000D01*
X31072012Y-62842077D01*
X30997020Y-62819329D01*
X30927907Y-62782386D01*
X30867329Y-62732671D01*
X30817614Y-62672093D01*
X30780671Y-62602980D01*
X30757923Y-62527988D01*
X30750000Y-62447546D01*
X30750000Y-61552454D01*
X30757923Y-61472012D01*
X30780671Y-61397020D01*
X30817614Y-61327907D01*
X30867329Y-61267329D01*
X30927907Y-61217614D01*
X30997020Y-61180671D01*
X31072012Y-61157923D01*
X31152454Y-61150000D01*
X32747546Y-61150000D01*
X32827988Y-61157923D01*
G37*
G36*
X37686682Y-60699501D02*
G01*
X37762520Y-60714586D01*
X37926310Y-60782430D01*
X38073717Y-60880924D01*
X38199076Y-61006283D01*
X38199077Y-61006285D01*
X38297571Y-61153692D01*
X38365414Y-61317481D01*
X38400000Y-61491356D01*
X38400000Y-61668644D01*
X38387264Y-61732671D01*
X38365414Y-61842520D01*
X38297570Y-62006310D01*
X38199076Y-62153717D01*
X38073717Y-62279076D01*
X37926310Y-62377570D01*
X37762520Y-62445414D01*
X37704561Y-62456943D01*
X37588644Y-62480000D01*
X37411356Y-62480000D01*
X37295439Y-62456943D01*
X37237480Y-62445414D01*
X37073690Y-62377570D01*
X36926283Y-62279076D01*
X36800924Y-62153717D01*
X36702430Y-62006310D01*
X36634586Y-61842520D01*
X36612736Y-61732671D01*
X36600000Y-61668644D01*
X36600000Y-61491356D01*
X36634586Y-61317481D01*
X36702429Y-61153692D01*
X36800923Y-61006285D01*
X36800924Y-61006283D01*
X36926283Y-60880924D01*
X37073690Y-60782430D01*
X37237480Y-60714586D01*
X37313318Y-60699501D01*
X37411356Y-60680000D01*
X37588644Y-60680000D01*
X37686682Y-60699501D01*
G37*
G36*
X84927988Y-60157923D02*
G01*
X85002980Y-60180671D01*
X85072093Y-60217614D01*
X85132671Y-60267329D01*
X85182386Y-60327907D01*
X85219329Y-60397020D01*
X85242077Y-60472012D01*
X85250000Y-60552454D01*
X85250000Y-61447546D01*
X85242077Y-61527988D01*
X85219329Y-61602980D01*
X85182386Y-61672093D01*
X85132671Y-61732671D01*
X85072093Y-61782386D01*
X85002980Y-61819329D01*
X84927988Y-61842077D01*
X84847546Y-61850000D01*
X83252454Y-61850000D01*
X83172012Y-61842077D01*
X83097020Y-61819329D01*
X83027907Y-61782386D01*
X82967329Y-61732671D01*
X82917614Y-61672093D01*
X82880671Y-61602980D01*
X82857923Y-61527988D01*
X82850000Y-61447546D01*
X82850000Y-60552454D01*
X82857923Y-60472012D01*
X82880671Y-60397020D01*
X82917614Y-60327907D01*
X82967329Y-60267329D01*
X83027907Y-60217614D01*
X83097020Y-60180671D01*
X83172012Y-60157923D01*
X83252454Y-60150000D01*
X84847546Y-60150000D01*
X84927988Y-60157923D01*
G37*
G36*
X88327988Y-60157923D02*
G01*
X88402980Y-60180671D01*
X88472093Y-60217614D01*
X88532671Y-60267329D01*
X88582386Y-60327907D01*
X88619329Y-60397020D01*
X88642077Y-60472012D01*
X88650000Y-60552454D01*
X88650000Y-61447546D01*
X88642077Y-61527988D01*
X88619329Y-61602980D01*
X88582386Y-61672093D01*
X88532671Y-61732671D01*
X88472093Y-61782386D01*
X88402980Y-61819329D01*
X88327988Y-61842077D01*
X88247546Y-61850000D01*
X86652454Y-61850000D01*
X86572012Y-61842077D01*
X86497020Y-61819329D01*
X86427907Y-61782386D01*
X86367329Y-61732671D01*
X86317614Y-61672093D01*
X86280671Y-61602980D01*
X86257923Y-61527988D01*
X86250000Y-61447546D01*
X86250000Y-60552454D01*
X86257923Y-60472012D01*
X86280671Y-60397020D01*
X86317614Y-60327907D01*
X86367329Y-60267329D01*
X86427907Y-60217614D01*
X86497020Y-60180671D01*
X86572012Y-60157923D01*
X86652454Y-60150000D01*
X88247546Y-60150000D01*
X88327988Y-60157923D01*
G37*
G36*
X42800000Y-61550000D02*
G01*
X41700000Y-61550000D01*
X41700000Y-60450000D01*
X42800000Y-60450000D01*
X42800000Y-61550000D01*
G37*
G36*
X80866359Y-59789261D02*
G01*
X80905609Y-59801168D01*
X80941776Y-59820499D01*
X80973481Y-59846519D01*
X80999501Y-59878224D01*
X81018832Y-59914391D01*
X81030739Y-59953641D01*
X81035000Y-59996908D01*
X81035000Y-60523092D01*
X81030739Y-60566359D01*
X81018832Y-60605609D01*
X80999501Y-60641776D01*
X80973481Y-60673481D01*
X80941776Y-60699501D01*
X80905609Y-60718832D01*
X80866359Y-60730739D01*
X80823092Y-60735000D01*
X80176908Y-60735000D01*
X80133641Y-60730739D01*
X80094391Y-60718832D01*
X80058224Y-60699501D01*
X80026519Y-60673481D01*
X80000499Y-60641776D01*
X79981168Y-60605609D01*
X79969261Y-60566359D01*
X79965000Y-60523092D01*
X79965000Y-59996908D01*
X79969261Y-59953641D01*
X79981168Y-59914391D01*
X80000499Y-59878224D01*
X80026519Y-59846519D01*
X80058224Y-59820499D01*
X80094391Y-59801168D01*
X80133641Y-59789261D01*
X80176908Y-59785000D01*
X80823092Y-59785000D01*
X80866359Y-59789261D01*
G37*
G36*
X57493053Y-58621818D02*
G01*
X57537732Y-58635371D01*
X57578909Y-58657381D01*
X57615000Y-58687000D01*
X57644619Y-58723091D01*
X57666629Y-58764268D01*
X57680182Y-58808947D01*
X57685000Y-58857864D01*
X57685000Y-59786136D01*
X57680182Y-59835053D01*
X57666629Y-59879732D01*
X57644619Y-59920909D01*
X57615000Y-59957000D01*
X57578909Y-59986619D01*
X57537732Y-60008629D01*
X57493053Y-60022182D01*
X57444136Y-60027000D01*
X54555864Y-60027000D01*
X54506947Y-60022182D01*
X54462268Y-60008629D01*
X54421091Y-59986619D01*
X54385000Y-59957000D01*
X54355381Y-59920909D01*
X54333371Y-59879732D01*
X54319818Y-59835053D01*
X54315000Y-59786136D01*
X54315000Y-58857864D01*
X54319818Y-58808947D01*
X54333371Y-58764268D01*
X54355381Y-58723091D01*
X54385000Y-58687000D01*
X54421091Y-58657381D01*
X54462268Y-58635371D01*
X54506947Y-58621818D01*
X54555864Y-58617000D01*
X57444136Y-58617000D01*
X57493053Y-58621818D01*
G37*
G36*
X37679970Y-58158166D02*
G01*
X37762520Y-58174586D01*
X37926310Y-58242430D01*
X38073717Y-58340924D01*
X38199076Y-58466283D01*
X38297570Y-58613690D01*
X38297571Y-58613692D01*
X38309388Y-58642221D01*
X38346854Y-58732671D01*
X38365414Y-58777481D01*
X38400000Y-58951356D01*
X38400000Y-59128644D01*
X38390692Y-59175438D01*
X38365414Y-59302520D01*
X38347383Y-59346051D01*
X38303734Y-59451430D01*
X38297570Y-59466310D01*
X38199076Y-59613717D01*
X38073717Y-59739076D01*
X37926310Y-59837570D01*
X37762520Y-59905414D01*
X37717389Y-59914391D01*
X37588644Y-59940000D01*
X37411356Y-59940000D01*
X37282611Y-59914391D01*
X37237480Y-59905414D01*
X37073690Y-59837570D01*
X36926283Y-59739076D01*
X36800924Y-59613717D01*
X36702430Y-59466310D01*
X36696267Y-59451430D01*
X36652617Y-59346051D01*
X36634586Y-59302520D01*
X36609308Y-59175438D01*
X36600000Y-59128644D01*
X36600000Y-58951356D01*
X36634586Y-58777481D01*
X36653147Y-58732671D01*
X36690612Y-58642221D01*
X36702429Y-58613692D01*
X36702430Y-58613690D01*
X36800924Y-58466283D01*
X36926283Y-58340924D01*
X37073690Y-58242430D01*
X37237480Y-58174586D01*
X37320030Y-58158166D01*
X37411356Y-58140000D01*
X37588644Y-58140000D01*
X37679970Y-58158166D01*
G37*
G36*
X32827988Y-58157923D02*
G01*
X32902980Y-58180671D01*
X32972093Y-58217614D01*
X33032671Y-58267329D01*
X33082386Y-58327907D01*
X33119329Y-58397020D01*
X33142077Y-58472012D01*
X33150000Y-58552454D01*
X33150000Y-59447546D01*
X33142077Y-59527988D01*
X33119329Y-59602980D01*
X33082386Y-59672093D01*
X33032671Y-59732671D01*
X32972093Y-59782386D01*
X32902980Y-59819329D01*
X32827988Y-59842077D01*
X32747546Y-59850000D01*
X31152454Y-59850000D01*
X31072012Y-59842077D01*
X30997020Y-59819329D01*
X30927907Y-59782386D01*
X30867329Y-59732671D01*
X30817614Y-59672093D01*
X30780671Y-59602980D01*
X30757923Y-59527988D01*
X30750000Y-59447546D01*
X30750000Y-58552454D01*
X30757923Y-58472012D01*
X30780671Y-58397020D01*
X30817614Y-58327907D01*
X30867329Y-58267329D01*
X30927907Y-58217614D01*
X30997020Y-58180671D01*
X31072012Y-58157923D01*
X31152454Y-58150000D01*
X32747546Y-58150000D01*
X32827988Y-58157923D01*
G37*
G36*
X29427988Y-58157923D02*
G01*
X29502980Y-58180671D01*
X29572093Y-58217614D01*
X29632671Y-58267329D01*
X29682386Y-58327907D01*
X29719329Y-58397020D01*
X29742077Y-58472012D01*
X29750000Y-58552454D01*
X29750000Y-59447546D01*
X29742077Y-59527988D01*
X29719329Y-59602980D01*
X29682386Y-59672093D01*
X29632671Y-59732671D01*
X29572093Y-59782386D01*
X29502980Y-59819329D01*
X29427988Y-59842077D01*
X29347546Y-59850000D01*
X27752454Y-59850000D01*
X27672012Y-59842077D01*
X27597020Y-59819329D01*
X27527907Y-59782386D01*
X27467329Y-59732671D01*
X27417614Y-59672093D01*
X27380671Y-59602980D01*
X27357923Y-59527988D01*
X27350000Y-59447546D01*
X27350000Y-58552454D01*
X27357923Y-58472012D01*
X27380671Y-58397020D01*
X27417614Y-58327907D01*
X27467329Y-58267329D01*
X27527907Y-58217614D01*
X27597020Y-58180671D01*
X27672012Y-58157923D01*
X27752454Y-58150000D01*
X29347546Y-58150000D01*
X29427988Y-58157923D01*
G37*
G36*
X52699872Y-57749655D02*
G01*
X52742962Y-57762726D01*
X52782673Y-57783953D01*
X52817481Y-57812519D01*
X52846047Y-57847327D01*
X52867274Y-57887038D01*
X52880345Y-57930128D01*
X52885000Y-57977393D01*
X52885000Y-59382607D01*
X52880345Y-59429872D01*
X52867274Y-59472962D01*
X52846047Y-59512673D01*
X52817481Y-59547481D01*
X52782673Y-59576047D01*
X52742962Y-59597274D01*
X52699872Y-59610345D01*
X52652607Y-59615000D01*
X51347393Y-59615000D01*
X51300128Y-59610345D01*
X51257038Y-59597274D01*
X51217327Y-59576047D01*
X51182519Y-59547481D01*
X51153953Y-59512673D01*
X51132726Y-59472962D01*
X51119655Y-59429872D01*
X51115000Y-59382607D01*
X51115000Y-57977393D01*
X51119655Y-57930128D01*
X51132726Y-57887038D01*
X51153953Y-57847327D01*
X51182519Y-57812519D01*
X51217327Y-57783953D01*
X51257038Y-57762726D01*
X51300128Y-57749655D01*
X51347393Y-57745000D01*
X52652607Y-57745000D01*
X52699872Y-57749655D01*
G37*
G36*
X42800000Y-59550000D02*
G01*
X41700000Y-59550000D01*
X41700000Y-58450000D01*
X42800000Y-58450000D01*
X42800000Y-59550000D01*
G37*
G36*
X44556359Y-58469261D02*
G01*
X44595609Y-58481168D01*
X44631776Y-58500499D01*
X44663481Y-58526519D01*
X44689501Y-58558224D01*
X44708832Y-58594391D01*
X44720739Y-58633641D01*
X44725000Y-58676908D01*
X44725000Y-59323092D01*
X44720739Y-59366359D01*
X44708832Y-59405609D01*
X44689501Y-59441776D01*
X44663481Y-59473481D01*
X44631776Y-59499501D01*
X44595609Y-59518832D01*
X44556359Y-59530739D01*
X44513092Y-59535000D01*
X43986908Y-59535000D01*
X43943641Y-59530739D01*
X43904391Y-59518832D01*
X43868224Y-59499501D01*
X43836519Y-59473481D01*
X43810499Y-59441776D01*
X43791168Y-59405609D01*
X43779261Y-59366359D01*
X43775000Y-59323092D01*
X43775000Y-58676908D01*
X43779261Y-58633641D01*
X43791168Y-58594391D01*
X43810499Y-58558224D01*
X43836519Y-58526519D01*
X43868224Y-58500499D01*
X43904391Y-58481168D01*
X43943641Y-58469261D01*
X43986908Y-58465000D01*
X44513092Y-58465000D01*
X44556359Y-58469261D01*
G37*
G36*
X46076359Y-58469261D02*
G01*
X46115609Y-58481168D01*
X46151776Y-58500499D01*
X46183481Y-58526519D01*
X46209501Y-58558224D01*
X46228832Y-58594391D01*
X46240739Y-58633641D01*
X46245000Y-58676908D01*
X46245000Y-59323092D01*
X46240739Y-59366359D01*
X46228832Y-59405609D01*
X46209501Y-59441776D01*
X46183481Y-59473481D01*
X46151776Y-59499501D01*
X46115609Y-59518832D01*
X46076359Y-59530739D01*
X46033092Y-59535000D01*
X45506908Y-59535000D01*
X45463641Y-59530739D01*
X45424391Y-59518832D01*
X45388224Y-59499501D01*
X45356519Y-59473481D01*
X45330499Y-59441776D01*
X45311168Y-59405609D01*
X45299261Y-59366359D01*
X45295000Y-59323092D01*
X45295000Y-58676908D01*
X45299261Y-58633641D01*
X45311168Y-58594391D01*
X45330499Y-58558224D01*
X45356519Y-58526519D01*
X45388224Y-58500499D01*
X45424391Y-58481168D01*
X45463641Y-58469261D01*
X45506908Y-58465000D01*
X46033092Y-58465000D01*
X46076359Y-58469261D01*
G37*
G36*
X80866359Y-58269261D02*
G01*
X80905609Y-58281168D01*
X80941776Y-58300499D01*
X80973481Y-58326519D01*
X80999501Y-58358224D01*
X81018832Y-58394391D01*
X81030739Y-58433641D01*
X81035000Y-58476908D01*
X81035000Y-59003092D01*
X81030739Y-59046359D01*
X81018832Y-59085609D01*
X80999501Y-59121776D01*
X80973481Y-59153481D01*
X80941776Y-59179501D01*
X80905609Y-59198832D01*
X80866359Y-59210739D01*
X80823092Y-59215000D01*
X80176908Y-59215000D01*
X80133641Y-59210739D01*
X80094391Y-59198832D01*
X80058224Y-59179501D01*
X80026519Y-59153481D01*
X80000499Y-59121776D01*
X79981168Y-59085609D01*
X79969261Y-59046359D01*
X79965000Y-59003092D01*
X79965000Y-58476908D01*
X79969261Y-58433641D01*
X79981168Y-58394391D01*
X80000499Y-58358224D01*
X80026519Y-58326519D01*
X80058224Y-58300499D01*
X80094391Y-58281168D01*
X80133641Y-58269261D01*
X80176908Y-58265000D01*
X80823092Y-58265000D01*
X80866359Y-58269261D01*
G37*
G36*
X88327988Y-57157923D02*
G01*
X88402980Y-57180671D01*
X88472093Y-57217614D01*
X88532671Y-57267329D01*
X88582386Y-57327907D01*
X88619329Y-57397020D01*
X88642077Y-57472012D01*
X88650000Y-57552454D01*
X88650000Y-58447546D01*
X88642077Y-58527988D01*
X88619329Y-58602980D01*
X88582386Y-58672093D01*
X88532671Y-58732671D01*
X88472093Y-58782386D01*
X88402980Y-58819329D01*
X88327988Y-58842077D01*
X88247546Y-58850000D01*
X86652454Y-58850000D01*
X86572012Y-58842077D01*
X86497020Y-58819329D01*
X86427907Y-58782386D01*
X86367329Y-58732671D01*
X86317614Y-58672093D01*
X86280671Y-58602980D01*
X86257923Y-58527988D01*
X86250000Y-58447546D01*
X86250000Y-57552454D01*
X86257923Y-57472012D01*
X86280671Y-57397020D01*
X86317614Y-57327907D01*
X86367329Y-57267329D01*
X86427907Y-57217614D01*
X86497020Y-57180671D01*
X86572012Y-57157923D01*
X86652454Y-57150000D01*
X88247546Y-57150000D01*
X88327988Y-57157923D01*
G37*
G36*
X84927988Y-57157923D02*
G01*
X85002980Y-57180671D01*
X85072093Y-57217614D01*
X85132671Y-57267329D01*
X85182386Y-57327907D01*
X85219329Y-57397020D01*
X85242077Y-57472012D01*
X85250000Y-57552454D01*
X85250000Y-58447546D01*
X85242077Y-58527988D01*
X85219329Y-58602980D01*
X85182386Y-58672093D01*
X85132671Y-58732671D01*
X85072093Y-58782386D01*
X85002980Y-58819329D01*
X84927988Y-58842077D01*
X84847546Y-58850000D01*
X83252454Y-58850000D01*
X83172012Y-58842077D01*
X83097020Y-58819329D01*
X83027907Y-58782386D01*
X82967329Y-58732671D01*
X82917614Y-58672093D01*
X82880671Y-58602980D01*
X82857923Y-58527988D01*
X82850000Y-58447546D01*
X82850000Y-57552454D01*
X82857923Y-57472012D01*
X82880671Y-57397020D01*
X82917614Y-57327907D01*
X82967329Y-57267329D01*
X83027907Y-57217614D01*
X83097020Y-57180671D01*
X83172012Y-57157923D01*
X83252454Y-57150000D01*
X84847546Y-57150000D01*
X84927988Y-57157923D01*
G37*
G36*
X75174157Y-55244672D02*
G01*
X75217416Y-55257795D01*
X75257278Y-55279101D01*
X75292221Y-55307779D01*
X75320899Y-55342722D01*
X75342205Y-55382584D01*
X75355328Y-55425843D01*
X75360000Y-55473280D01*
X75360000Y-58476720D01*
X75355328Y-58524157D01*
X75342205Y-58567416D01*
X75320899Y-58607278D01*
X75292221Y-58642221D01*
X75257278Y-58670899D01*
X75217416Y-58692205D01*
X75174157Y-58705328D01*
X75126720Y-58710000D01*
X73873280Y-58710000D01*
X73825843Y-58705328D01*
X73782584Y-58692205D01*
X73742722Y-58670899D01*
X73707779Y-58642221D01*
X73679101Y-58607278D01*
X73657795Y-58567416D01*
X73644672Y-58524157D01*
X73640000Y-58476720D01*
X73640000Y-55473280D01*
X73644672Y-55425843D01*
X73657795Y-55382584D01*
X73679101Y-55342722D01*
X73707779Y-55307779D01*
X73742722Y-55279101D01*
X73782584Y-55257795D01*
X73825843Y-55244672D01*
X73873280Y-55240000D01*
X75126720Y-55240000D01*
X75174157Y-55244672D01*
G37*
G36*
X69199872Y-56069655D02*
G01*
X69242962Y-56082726D01*
X69282673Y-56103953D01*
X69317481Y-56132519D01*
X69346047Y-56167327D01*
X69367274Y-56207038D01*
X69380345Y-56250128D01*
X69385000Y-56297393D01*
X69385000Y-57702607D01*
X69380345Y-57749872D01*
X69367274Y-57792962D01*
X69346047Y-57832673D01*
X69317481Y-57867481D01*
X69282673Y-57896047D01*
X69242962Y-57917274D01*
X69199872Y-57930345D01*
X69152607Y-57935000D01*
X67847393Y-57935000D01*
X67800128Y-57930345D01*
X67757038Y-57917274D01*
X67717327Y-57896047D01*
X67682519Y-57867481D01*
X67653953Y-57832673D01*
X67632726Y-57792962D01*
X67619655Y-57749872D01*
X67615000Y-57702607D01*
X67615000Y-56297393D01*
X67619655Y-56250128D01*
X67632726Y-56207038D01*
X67653953Y-56167327D01*
X67682519Y-56132519D01*
X67717327Y-56103953D01*
X67757038Y-56082726D01*
X67800128Y-56069655D01*
X67847393Y-56065000D01*
X69152607Y-56065000D01*
X69199872Y-56069655D01*
G37*
G36*
X38400000Y-57400000D02*
G01*
X36600000Y-57400000D01*
X36600000Y-55600000D01*
X38400000Y-55600000D01*
X38400000Y-57400000D01*
G37*
G36*
X60107795Y-56737640D02*
G01*
X60157507Y-56747528D01*
X60212103Y-56770143D01*
X60261239Y-56802974D01*
X60303026Y-56844761D01*
X60335857Y-56893897D01*
X60358472Y-56948493D01*
X60370000Y-57006453D01*
X60370000Y-57065547D01*
X60358472Y-57123507D01*
X60335857Y-57178103D01*
X60303026Y-57227239D01*
X60261239Y-57269026D01*
X60212103Y-57301857D01*
X60157507Y-57324472D01*
X60107795Y-57334360D01*
X60099548Y-57336000D01*
X60040452Y-57336000D01*
X60032205Y-57334360D01*
X59982493Y-57324472D01*
X59927897Y-57301857D01*
X59878761Y-57269026D01*
X59836974Y-57227239D01*
X59804143Y-57178103D01*
X59781528Y-57123507D01*
X59770000Y-57065547D01*
X59770000Y-57006453D01*
X59781528Y-56948493D01*
X59804143Y-56893897D01*
X59836974Y-56844761D01*
X59878761Y-56802974D01*
X59927897Y-56770143D01*
X59982493Y-56747528D01*
X60032205Y-56737640D01*
X60040452Y-56736000D01*
X60099548Y-56736000D01*
X60107795Y-56737640D01*
G37*
G36*
X61357795Y-56737640D02*
G01*
X61407507Y-56747528D01*
X61462103Y-56770143D01*
X61511239Y-56802974D01*
X61553026Y-56844761D01*
X61585857Y-56893897D01*
X61608472Y-56948493D01*
X61620000Y-57006453D01*
X61620000Y-57065547D01*
X61608472Y-57123507D01*
X61585857Y-57178103D01*
X61553026Y-57227239D01*
X61511239Y-57269026D01*
X61462103Y-57301857D01*
X61407507Y-57324472D01*
X61357795Y-57334360D01*
X61349548Y-57336000D01*
X61290452Y-57336000D01*
X61282205Y-57334360D01*
X61232493Y-57324472D01*
X61177897Y-57301857D01*
X61128761Y-57269026D01*
X61086974Y-57227239D01*
X61054143Y-57178103D01*
X61031528Y-57123507D01*
X61020000Y-57065547D01*
X61020000Y-57006453D01*
X61031528Y-56948493D01*
X61054143Y-56893897D01*
X61086974Y-56844761D01*
X61128761Y-56802974D01*
X61177897Y-56770143D01*
X61232493Y-56747528D01*
X61282205Y-56737640D01*
X61290452Y-56736000D01*
X61349548Y-56736000D01*
X61357795Y-56737640D01*
G37*
G36*
X63857795Y-56737640D02*
G01*
X63907507Y-56747528D01*
X63962103Y-56770143D01*
X64011239Y-56802974D01*
X64053026Y-56844761D01*
X64085857Y-56893897D01*
X64108472Y-56948493D01*
X64120000Y-57006453D01*
X64120000Y-57065547D01*
X64108472Y-57123507D01*
X64085857Y-57178103D01*
X64053026Y-57227239D01*
X64011239Y-57269026D01*
X63962103Y-57301857D01*
X63907507Y-57324472D01*
X63857795Y-57334360D01*
X63849548Y-57336000D01*
X63790452Y-57336000D01*
X63782205Y-57334360D01*
X63732493Y-57324472D01*
X63677897Y-57301857D01*
X63628761Y-57269026D01*
X63586974Y-57227239D01*
X63554143Y-57178103D01*
X63531528Y-57123507D01*
X63520000Y-57065547D01*
X63520000Y-57006453D01*
X63531528Y-56948493D01*
X63554143Y-56893897D01*
X63586974Y-56844761D01*
X63628761Y-56802974D01*
X63677897Y-56770143D01*
X63732493Y-56747528D01*
X63782205Y-56737640D01*
X63790452Y-56736000D01*
X63849548Y-56736000D01*
X63857795Y-56737640D01*
G37*
G36*
X65107795Y-56737640D02*
G01*
X65157507Y-56747528D01*
X65212103Y-56770143D01*
X65261239Y-56802974D01*
X65303026Y-56844761D01*
X65335857Y-56893897D01*
X65358472Y-56948493D01*
X65370000Y-57006453D01*
X65370000Y-57065547D01*
X65358472Y-57123507D01*
X65335857Y-57178103D01*
X65303026Y-57227239D01*
X65261239Y-57269026D01*
X65212103Y-57301857D01*
X65157507Y-57324472D01*
X65107795Y-57334360D01*
X65099548Y-57336000D01*
X65040452Y-57336000D01*
X65032205Y-57334360D01*
X64982493Y-57324472D01*
X64927897Y-57301857D01*
X64878761Y-57269026D01*
X64836974Y-57227239D01*
X64804143Y-57178103D01*
X64781528Y-57123507D01*
X64770000Y-57065547D01*
X64770000Y-57006453D01*
X64781528Y-56948493D01*
X64804143Y-56893897D01*
X64836974Y-56844761D01*
X64878761Y-56802974D01*
X64927897Y-56770143D01*
X64982493Y-56747528D01*
X65032205Y-56737640D01*
X65040452Y-56736000D01*
X65099548Y-56736000D01*
X65107795Y-56737640D01*
G37*
G36*
X62607795Y-56737640D02*
G01*
X62657507Y-56747528D01*
X62712103Y-56770143D01*
X62761239Y-56802974D01*
X62803026Y-56844761D01*
X62835857Y-56893897D01*
X62858472Y-56948493D01*
X62870000Y-57006453D01*
X62870000Y-57065547D01*
X62858472Y-57123507D01*
X62835857Y-57178103D01*
X62803026Y-57227239D01*
X62761239Y-57269026D01*
X62712103Y-57301857D01*
X62657507Y-57324472D01*
X62607795Y-57334360D01*
X62599548Y-57336000D01*
X62540452Y-57336000D01*
X62532205Y-57334360D01*
X62482493Y-57324472D01*
X62427897Y-57301857D01*
X62378761Y-57269026D01*
X62336974Y-57227239D01*
X62304143Y-57178103D01*
X62281528Y-57123507D01*
X62270000Y-57065547D01*
X62270000Y-57006453D01*
X62281528Y-56948493D01*
X62304143Y-56893897D01*
X62336974Y-56844761D01*
X62378761Y-56802974D01*
X62427897Y-56770143D01*
X62482493Y-56747528D01*
X62532205Y-56737640D01*
X62540452Y-56736000D01*
X62599548Y-56736000D01*
X62607795Y-56737640D01*
G37*
G36*
X46702521Y-55863159D02*
G01*
X46731012Y-55871802D01*
X46757264Y-55885834D01*
X46780278Y-55904722D01*
X46799166Y-55927736D01*
X46813198Y-55953988D01*
X46821841Y-55982479D01*
X46825000Y-56014557D01*
X46825000Y-56875443D01*
X46821841Y-56907521D01*
X46813198Y-56936012D01*
X46799166Y-56962264D01*
X46780278Y-56985278D01*
X46757264Y-57004166D01*
X46731012Y-57018198D01*
X46702521Y-57026841D01*
X46670443Y-57030000D01*
X45819557Y-57030000D01*
X45787479Y-57026841D01*
X45758988Y-57018198D01*
X45732736Y-57004166D01*
X45709722Y-56985278D01*
X45690834Y-56962264D01*
X45676802Y-56936012D01*
X45668159Y-56907521D01*
X45665000Y-56875443D01*
X45665000Y-56014557D01*
X45668159Y-55982479D01*
X45676802Y-55953988D01*
X45690834Y-55927736D01*
X45709722Y-55904722D01*
X45732736Y-55885834D01*
X45758988Y-55871802D01*
X45787479Y-55863159D01*
X45819557Y-55860000D01*
X46670443Y-55860000D01*
X46702521Y-55863159D01*
G37*
G36*
X44696882Y-56273533D02*
G01*
X44729014Y-56283280D01*
X44758629Y-56299110D01*
X44784587Y-56320413D01*
X44805890Y-56346371D01*
X44821720Y-56375986D01*
X44831467Y-56408118D01*
X44835000Y-56443990D01*
X44835000Y-56856010D01*
X44831467Y-56891882D01*
X44821720Y-56924014D01*
X44805890Y-56953629D01*
X44784587Y-56979587D01*
X44758629Y-57000890D01*
X44729014Y-57016720D01*
X44696882Y-57026467D01*
X44661010Y-57030000D01*
X43848990Y-57030000D01*
X43813118Y-57026467D01*
X43780986Y-57016720D01*
X43751371Y-57000890D01*
X43725413Y-56979587D01*
X43704110Y-56953629D01*
X43688280Y-56924014D01*
X43678533Y-56891882D01*
X43675000Y-56856010D01*
X43675000Y-56443990D01*
X43678533Y-56408118D01*
X43688280Y-56375986D01*
X43704110Y-56346371D01*
X43725413Y-56320413D01*
X43751371Y-56299110D01*
X43780986Y-56283280D01*
X43813118Y-56273533D01*
X43848990Y-56270000D01*
X44661010Y-56270000D01*
X44696882Y-56273533D01*
G37*
G36*
X52699872Y-53819655D02*
G01*
X52742962Y-53832726D01*
X52782673Y-53853953D01*
X52817481Y-53882519D01*
X52846047Y-53917327D01*
X52867274Y-53957038D01*
X52880345Y-54000128D01*
X52885000Y-54047393D01*
X52885000Y-55452607D01*
X52880345Y-55499872D01*
X52867274Y-55542962D01*
X52846047Y-55582673D01*
X52817481Y-55617481D01*
X52782673Y-55646047D01*
X52742962Y-55667274D01*
X52699872Y-55680345D01*
X52652607Y-55685000D01*
X51347393Y-55685000D01*
X51300128Y-55680345D01*
X51257038Y-55667274D01*
X51217327Y-55646047D01*
X51182519Y-55617481D01*
X51153953Y-55582673D01*
X51132726Y-55542962D01*
X51119655Y-55499872D01*
X51115000Y-55452607D01*
X51115000Y-54047393D01*
X51119655Y-54000128D01*
X51132726Y-53957038D01*
X51153953Y-53917327D01*
X51182519Y-53882519D01*
X51217327Y-53853953D01*
X51257038Y-53832726D01*
X51300128Y-53819655D01*
X51347393Y-53815000D01*
X52652607Y-53815000D01*
X52699872Y-53819655D01*
G37*
G36*
X57493297Y-54049812D02*
G01*
X57537921Y-54063349D01*
X57579045Y-54085330D01*
X57615089Y-54114911D01*
X57644670Y-54150955D01*
X57666651Y-54192079D01*
X57680188Y-54236703D01*
X57685000Y-54285562D01*
X57685000Y-55214438D01*
X57680188Y-55263297D01*
X57666651Y-55307921D01*
X57644670Y-55349045D01*
X57615089Y-55385089D01*
X57579045Y-55414670D01*
X57537921Y-55436651D01*
X57493297Y-55450188D01*
X57444438Y-55455000D01*
X54555562Y-55455000D01*
X54506703Y-55450188D01*
X54462079Y-55436651D01*
X54420955Y-55414670D01*
X54384911Y-55385089D01*
X54355330Y-55349045D01*
X54333349Y-55307921D01*
X54319812Y-55263297D01*
X54315000Y-55214438D01*
X54315000Y-54285562D01*
X54319812Y-54236703D01*
X54333349Y-54192079D01*
X54355330Y-54150955D01*
X54384911Y-54114911D01*
X54420955Y-54085330D01*
X54462079Y-54063349D01*
X54506703Y-54049812D01*
X54555562Y-54045000D01*
X57444438Y-54045000D01*
X57493297Y-54049812D01*
G37*
G36*
X48296359Y-54219261D02*
G01*
X48335609Y-54231168D01*
X48371776Y-54250499D01*
X48403481Y-54276519D01*
X48429501Y-54308224D01*
X48448832Y-54344391D01*
X48460739Y-54383641D01*
X48465000Y-54426908D01*
X48465000Y-55073092D01*
X48460739Y-55116359D01*
X48448832Y-55155609D01*
X48429501Y-55191776D01*
X48403481Y-55223481D01*
X48371776Y-55249501D01*
X48335609Y-55268832D01*
X48296359Y-55280739D01*
X48253092Y-55285000D01*
X47726908Y-55285000D01*
X47683641Y-55280739D01*
X47644391Y-55268832D01*
X47608224Y-55249501D01*
X47576519Y-55223481D01*
X47550499Y-55191776D01*
X47531168Y-55155609D01*
X47519261Y-55116359D01*
X47515000Y-55073092D01*
X47515000Y-54426908D01*
X47519261Y-54383641D01*
X47531168Y-54344391D01*
X47550499Y-54308224D01*
X47576519Y-54276519D01*
X47608224Y-54250499D01*
X47644391Y-54231168D01*
X47683641Y-54219261D01*
X47726908Y-54215000D01*
X48253092Y-54215000D01*
X48296359Y-54219261D01*
G37*
G36*
X49816359Y-54219261D02*
G01*
X49855609Y-54231168D01*
X49891776Y-54250499D01*
X49923481Y-54276519D01*
X49949501Y-54308224D01*
X49968832Y-54344391D01*
X49980739Y-54383641D01*
X49985000Y-54426908D01*
X49985000Y-55073092D01*
X49980739Y-55116359D01*
X49968832Y-55155609D01*
X49949501Y-55191776D01*
X49923481Y-55223481D01*
X49891776Y-55249501D01*
X49855609Y-55268832D01*
X49816359Y-55280739D01*
X49773092Y-55285000D01*
X49246908Y-55285000D01*
X49203641Y-55280739D01*
X49164391Y-55268832D01*
X49128224Y-55249501D01*
X49096519Y-55223481D01*
X49070499Y-55191776D01*
X49051168Y-55155609D01*
X49039261Y-55116359D01*
X49035000Y-55073092D01*
X49035000Y-54426908D01*
X49039261Y-54383641D01*
X49051168Y-54344391D01*
X49070499Y-54308224D01*
X49096519Y-54276519D01*
X49128224Y-54250499D01*
X49164391Y-54231168D01*
X49203641Y-54219261D01*
X49246908Y-54215000D01*
X49773092Y-54215000D01*
X49816359Y-54219261D01*
G37*
G36*
X42866359Y-54279261D02*
G01*
X42905609Y-54291168D01*
X42941776Y-54310499D01*
X42973481Y-54336519D01*
X42999501Y-54368224D01*
X43018832Y-54404391D01*
X43030739Y-54443641D01*
X43035000Y-54486908D01*
X43035000Y-55013092D01*
X43030739Y-55056359D01*
X43018832Y-55095609D01*
X42999501Y-55131776D01*
X42973481Y-55163481D01*
X42941776Y-55189501D01*
X42905609Y-55208832D01*
X42866359Y-55220739D01*
X42823092Y-55225000D01*
X42176908Y-55225000D01*
X42133641Y-55220739D01*
X42094391Y-55208832D01*
X42058224Y-55189501D01*
X42026519Y-55163481D01*
X42000499Y-55131776D01*
X41981168Y-55095609D01*
X41969261Y-55056359D01*
X41965000Y-55013092D01*
X41965000Y-54486908D01*
X41969261Y-54443641D01*
X41981168Y-54404391D01*
X42000499Y-54368224D01*
X42026519Y-54336519D01*
X42058224Y-54310499D01*
X42094391Y-54291168D01*
X42133641Y-54279261D01*
X42176908Y-54275000D01*
X42823092Y-54275000D01*
X42866359Y-54279261D01*
G37*
G36*
X41116359Y-54269261D02*
G01*
X41155609Y-54281168D01*
X41191776Y-54300499D01*
X41223481Y-54326519D01*
X41249501Y-54358224D01*
X41268832Y-54394391D01*
X41280739Y-54433641D01*
X41285000Y-54476908D01*
X41285000Y-55003092D01*
X41280739Y-55046359D01*
X41268832Y-55085609D01*
X41249501Y-55121776D01*
X41223481Y-55153481D01*
X41191776Y-55179501D01*
X41155609Y-55198832D01*
X41116359Y-55210739D01*
X41073092Y-55215000D01*
X40426908Y-55215000D01*
X40383641Y-55210739D01*
X40344391Y-55198832D01*
X40308224Y-55179501D01*
X40276519Y-55153481D01*
X40250499Y-55121776D01*
X40231168Y-55085609D01*
X40219261Y-55046359D01*
X40215000Y-55003092D01*
X40215000Y-54476908D01*
X40219261Y-54433641D01*
X40231168Y-54394391D01*
X40250499Y-54358224D01*
X40276519Y-54326519D01*
X40308224Y-54300499D01*
X40344391Y-54281168D01*
X40383641Y-54269261D01*
X40426908Y-54265000D01*
X41073092Y-54265000D01*
X41116359Y-54269261D01*
G37*
G36*
X46686882Y-54373533D02*
G01*
X46719014Y-54383280D01*
X46748629Y-54399110D01*
X46774587Y-54420413D01*
X46795890Y-54446371D01*
X46811720Y-54475986D01*
X46821467Y-54508118D01*
X46825000Y-54543990D01*
X46825000Y-54956010D01*
X46821467Y-54991882D01*
X46811720Y-55024014D01*
X46795890Y-55053629D01*
X46774587Y-55079587D01*
X46748629Y-55100890D01*
X46719014Y-55116720D01*
X46686882Y-55126467D01*
X46651010Y-55130000D01*
X45838990Y-55130000D01*
X45803118Y-55126467D01*
X45770986Y-55116720D01*
X45741371Y-55100890D01*
X45715413Y-55079587D01*
X45694110Y-55053629D01*
X45678280Y-55024014D01*
X45668533Y-54991882D01*
X45665000Y-54956010D01*
X45665000Y-54543990D01*
X45668533Y-54508118D01*
X45678280Y-54475986D01*
X45694110Y-54446371D01*
X45715413Y-54420413D01*
X45741371Y-54399110D01*
X45770986Y-54383280D01*
X45803118Y-54373533D01*
X45838990Y-54370000D01*
X46651010Y-54370000D01*
X46686882Y-54373533D01*
G37*
G36*
X44696882Y-54373533D02*
G01*
X44729014Y-54383280D01*
X44758629Y-54399110D01*
X44784587Y-54420413D01*
X44805890Y-54446371D01*
X44821720Y-54475986D01*
X44831467Y-54508118D01*
X44835000Y-54543990D01*
X44835000Y-54956010D01*
X44831467Y-54991882D01*
X44821720Y-55024014D01*
X44805890Y-55053629D01*
X44784587Y-55079587D01*
X44758629Y-55100890D01*
X44729014Y-55116720D01*
X44696882Y-55126467D01*
X44661010Y-55130000D01*
X43848990Y-55130000D01*
X43813118Y-55126467D01*
X43780986Y-55116720D01*
X43751371Y-55100890D01*
X43725413Y-55079587D01*
X43704110Y-55053629D01*
X43688280Y-55024014D01*
X43678533Y-54991882D01*
X43675000Y-54956010D01*
X43675000Y-54543990D01*
X43678533Y-54508118D01*
X43688280Y-54475986D01*
X43704110Y-54446371D01*
X43725413Y-54420413D01*
X43751371Y-54399110D01*
X43780986Y-54383280D01*
X43813118Y-54373533D01*
X43848990Y-54370000D01*
X44661010Y-54370000D01*
X44696882Y-54373533D01*
G37*
G36*
X29427988Y-52657923D02*
G01*
X29502980Y-52680671D01*
X29572093Y-52717614D01*
X29632671Y-52767329D01*
X29682386Y-52827907D01*
X29719329Y-52897020D01*
X29742077Y-52972012D01*
X29750000Y-53052454D01*
X29750000Y-53947546D01*
X29742077Y-54027988D01*
X29719329Y-54102980D01*
X29682386Y-54172093D01*
X29632671Y-54232671D01*
X29572093Y-54282386D01*
X29502980Y-54319329D01*
X29427988Y-54342077D01*
X29347546Y-54350000D01*
X27752454Y-54350000D01*
X27672012Y-54342077D01*
X27597020Y-54319329D01*
X27527907Y-54282386D01*
X27467329Y-54232671D01*
X27417614Y-54172093D01*
X27380671Y-54102980D01*
X27357923Y-54027988D01*
X27350000Y-53947546D01*
X27350000Y-53052454D01*
X27357923Y-52972012D01*
X27380671Y-52897020D01*
X27417614Y-52827907D01*
X27467329Y-52767329D01*
X27527907Y-52717614D01*
X27597020Y-52680671D01*
X27672012Y-52657923D01*
X27752454Y-52650000D01*
X29347546Y-52650000D01*
X29427988Y-52657923D01*
G37*
G36*
X32827988Y-52657923D02*
G01*
X32902980Y-52680671D01*
X32972093Y-52717614D01*
X33032671Y-52767329D01*
X33082386Y-52827907D01*
X33119329Y-52897020D01*
X33142077Y-52972012D01*
X33150000Y-53052454D01*
X33150000Y-53947546D01*
X33142077Y-54027988D01*
X33119329Y-54102980D01*
X33082386Y-54172093D01*
X33032671Y-54232671D01*
X32972093Y-54282386D01*
X32902980Y-54319329D01*
X32827988Y-54342077D01*
X32747546Y-54350000D01*
X31152454Y-54350000D01*
X31072012Y-54342077D01*
X30997020Y-54319329D01*
X30927907Y-54282386D01*
X30867329Y-54232671D01*
X30817614Y-54172093D01*
X30780671Y-54102980D01*
X30757923Y-54027988D01*
X30750000Y-53947546D01*
X30750000Y-53052454D01*
X30757923Y-52972012D01*
X30780671Y-52897020D01*
X30817614Y-52827907D01*
X30867329Y-52767329D01*
X30927907Y-52717614D01*
X30997020Y-52680671D01*
X31072012Y-52657923D01*
X31152454Y-52650000D01*
X32747546Y-52650000D01*
X32827988Y-52657923D01*
G37*
G36*
X69199872Y-52139655D02*
G01*
X69242962Y-52152726D01*
X69282673Y-52173953D01*
X69317481Y-52202519D01*
X69346047Y-52237327D01*
X69367274Y-52277038D01*
X69380345Y-52320128D01*
X69385000Y-52367393D01*
X69385000Y-53772607D01*
X69380345Y-53819872D01*
X69367274Y-53862962D01*
X69346047Y-53902673D01*
X69317481Y-53937481D01*
X69282673Y-53966047D01*
X69242962Y-53987274D01*
X69199872Y-54000345D01*
X69152607Y-54005000D01*
X67847393Y-54005000D01*
X67800128Y-54000345D01*
X67757038Y-53987274D01*
X67717327Y-53966047D01*
X67682519Y-53937481D01*
X67653953Y-53902673D01*
X67632726Y-53862962D01*
X67619655Y-53819872D01*
X67615000Y-53772607D01*
X67615000Y-52367393D01*
X67619655Y-52320128D01*
X67632726Y-52277038D01*
X67653953Y-52237327D01*
X67682519Y-52202519D01*
X67717327Y-52173953D01*
X67757038Y-52152726D01*
X67800128Y-52139655D01*
X67847393Y-52135000D01*
X69152607Y-52135000D01*
X69199872Y-52139655D01*
G37*
G36*
X42866359Y-52759261D02*
G01*
X42905609Y-52771168D01*
X42941776Y-52790499D01*
X42973481Y-52816519D01*
X42999501Y-52848224D01*
X43018832Y-52884391D01*
X43030739Y-52923641D01*
X43035000Y-52966908D01*
X43035000Y-53493092D01*
X43030739Y-53536359D01*
X43018832Y-53575609D01*
X42999501Y-53611776D01*
X42973481Y-53643481D01*
X42941776Y-53669501D01*
X42905609Y-53688832D01*
X42866359Y-53700739D01*
X42823092Y-53705000D01*
X42176908Y-53705000D01*
X42133641Y-53700739D01*
X42094391Y-53688832D01*
X42058224Y-53669501D01*
X42026519Y-53643481D01*
X42000499Y-53611776D01*
X41981168Y-53575609D01*
X41969261Y-53536359D01*
X41965000Y-53493092D01*
X41965000Y-52966908D01*
X41969261Y-52923641D01*
X41981168Y-52884391D01*
X42000499Y-52848224D01*
X42026519Y-52816519D01*
X42058224Y-52790499D01*
X42094391Y-52771168D01*
X42133641Y-52759261D01*
X42176908Y-52755000D01*
X42823092Y-52755000D01*
X42866359Y-52759261D01*
G37*
G36*
X41116359Y-52749261D02*
G01*
X41155609Y-52761168D01*
X41191776Y-52780499D01*
X41223481Y-52806519D01*
X41249501Y-52838224D01*
X41268832Y-52874391D01*
X41280739Y-52913641D01*
X41285000Y-52956908D01*
X41285000Y-53483092D01*
X41280739Y-53526359D01*
X41268832Y-53565609D01*
X41249501Y-53601776D01*
X41223481Y-53633481D01*
X41191776Y-53659501D01*
X41155609Y-53678832D01*
X41116359Y-53690739D01*
X41073092Y-53695000D01*
X40426908Y-53695000D01*
X40383641Y-53690739D01*
X40344391Y-53678832D01*
X40308224Y-53659501D01*
X40276519Y-53633481D01*
X40250499Y-53601776D01*
X40231168Y-53565609D01*
X40219261Y-53526359D01*
X40215000Y-53483092D01*
X40215000Y-52956908D01*
X40219261Y-52913641D01*
X40231168Y-52874391D01*
X40250499Y-52838224D01*
X40276519Y-52806519D01*
X40308224Y-52780499D01*
X40344391Y-52761168D01*
X40383641Y-52749261D01*
X40426908Y-52745000D01*
X41073092Y-52745000D01*
X41116359Y-52749261D01*
G37*
G36*
X32827988Y-49657923D02*
G01*
X32902980Y-49680671D01*
X32972093Y-49717614D01*
X33032671Y-49767329D01*
X33082386Y-49827907D01*
X33119329Y-49897020D01*
X33142077Y-49972012D01*
X33150000Y-50052454D01*
X33150000Y-50947546D01*
X33142077Y-51027988D01*
X33119329Y-51102980D01*
X33082386Y-51172093D01*
X33032671Y-51232671D01*
X32972093Y-51282386D01*
X32902980Y-51319329D01*
X32827988Y-51342077D01*
X32747546Y-51350000D01*
X31152454Y-51350000D01*
X31072012Y-51342077D01*
X30997020Y-51319329D01*
X30927907Y-51282386D01*
X30867329Y-51232671D01*
X30817614Y-51172093D01*
X30780671Y-51102980D01*
X30757923Y-51027988D01*
X30750000Y-50947546D01*
X30750000Y-50052454D01*
X30757923Y-49972012D01*
X30780671Y-49897020D01*
X30817614Y-49827907D01*
X30867329Y-49767329D01*
X30927907Y-49717614D01*
X30997020Y-49680671D01*
X31072012Y-49657923D01*
X31152454Y-49650000D01*
X32747546Y-49650000D01*
X32827988Y-49657923D01*
G37*
G36*
X29427988Y-49657923D02*
G01*
X29502980Y-49680671D01*
X29572093Y-49717614D01*
X29632671Y-49767329D01*
X29682386Y-49827907D01*
X29719329Y-49897020D01*
X29742077Y-49972012D01*
X29750000Y-50052454D01*
X29750000Y-50947546D01*
X29742077Y-51027988D01*
X29719329Y-51102980D01*
X29682386Y-51172093D01*
X29632671Y-51232671D01*
X29572093Y-51282386D01*
X29502980Y-51319329D01*
X29427988Y-51342077D01*
X29347546Y-51350000D01*
X27752454Y-51350000D01*
X27672012Y-51342077D01*
X27597020Y-51319329D01*
X27527907Y-51282386D01*
X27467329Y-51232671D01*
X27417614Y-51172093D01*
X27380671Y-51102980D01*
X27357923Y-51027988D01*
X27350000Y-50947546D01*
X27350000Y-50052454D01*
X27357923Y-49972012D01*
X27380671Y-49897020D01*
X27417614Y-49827907D01*
X27467329Y-49767329D01*
X27527907Y-49717614D01*
X27597020Y-49680671D01*
X27672012Y-49657923D01*
X27752454Y-49650000D01*
X29347546Y-49650000D01*
X29427988Y-49657923D01*
G37*
G36*
X38316359Y-49969261D02*
G01*
X38355609Y-49981168D01*
X38391776Y-50000499D01*
X38423481Y-50026519D01*
X38449501Y-50058224D01*
X38468832Y-50094391D01*
X38480739Y-50133641D01*
X38485000Y-50176908D01*
X38485000Y-50823092D01*
X38480739Y-50866359D01*
X38468832Y-50905609D01*
X38449501Y-50941776D01*
X38423481Y-50973481D01*
X38391776Y-50999501D01*
X38355609Y-51018832D01*
X38316359Y-51030739D01*
X38273092Y-51035000D01*
X37746908Y-51035000D01*
X37703641Y-51030739D01*
X37664391Y-51018832D01*
X37628224Y-50999501D01*
X37596519Y-50973481D01*
X37570499Y-50941776D01*
X37551168Y-50905609D01*
X37539261Y-50866359D01*
X37535000Y-50823092D01*
X37535000Y-50176908D01*
X37539261Y-50133641D01*
X37551168Y-50094391D01*
X37570499Y-50058224D01*
X37596519Y-50026519D01*
X37628224Y-50000499D01*
X37664391Y-49981168D01*
X37703641Y-49969261D01*
X37746908Y-49965000D01*
X38273092Y-49965000D01*
X38316359Y-49969261D01*
G37*
G36*
X36796359Y-49969261D02*
G01*
X36835609Y-49981168D01*
X36871776Y-50000499D01*
X36903481Y-50026519D01*
X36929501Y-50058224D01*
X36948832Y-50094391D01*
X36960739Y-50133641D01*
X36965000Y-50176908D01*
X36965000Y-50823092D01*
X36960739Y-50866359D01*
X36948832Y-50905609D01*
X36929501Y-50941776D01*
X36903481Y-50973481D01*
X36871776Y-50999501D01*
X36835609Y-51018832D01*
X36796359Y-51030739D01*
X36753092Y-51035000D01*
X36226908Y-51035000D01*
X36183641Y-51030739D01*
X36144391Y-51018832D01*
X36108224Y-50999501D01*
X36076519Y-50973481D01*
X36050499Y-50941776D01*
X36031168Y-50905609D01*
X36019261Y-50866359D01*
X36015000Y-50823092D01*
X36015000Y-50176908D01*
X36019261Y-50133641D01*
X36031168Y-50094391D01*
X36050499Y-50058224D01*
X36076519Y-50026519D01*
X36108224Y-50000499D01*
X36144391Y-49981168D01*
X36183641Y-49969261D01*
X36226908Y-49965000D01*
X36753092Y-49965000D01*
X36796359Y-49969261D01*
G37*
G36*
X38418397Y-47569929D02*
G01*
X38464161Y-47583811D01*
X38506337Y-47606356D01*
X38543305Y-47636695D01*
X38573644Y-47673663D01*
X38596189Y-47715839D01*
X38610071Y-47761603D01*
X38615000Y-47811650D01*
X38615000Y-49188350D01*
X38610071Y-49238397D01*
X38596189Y-49284161D01*
X38573644Y-49326337D01*
X38543305Y-49363305D01*
X38506337Y-49393644D01*
X38464161Y-49416189D01*
X38418397Y-49430071D01*
X38368350Y-49435000D01*
X37631650Y-49435000D01*
X37581603Y-49430071D01*
X37535839Y-49416189D01*
X37493663Y-49393644D01*
X37456695Y-49363305D01*
X37426356Y-49326337D01*
X37403811Y-49284161D01*
X37389929Y-49238397D01*
X37385000Y-49188350D01*
X37385000Y-47811650D01*
X37389929Y-47761603D01*
X37403811Y-47715839D01*
X37426356Y-47673663D01*
X37456695Y-47636695D01*
X37493663Y-47606356D01*
X37535839Y-47583811D01*
X37581603Y-47569929D01*
X37631650Y-47565000D01*
X38368350Y-47565000D01*
X38418397Y-47569929D01*
G37*
G36*
X35478397Y-47569929D02*
G01*
X35524161Y-47583811D01*
X35566337Y-47606356D01*
X35603305Y-47636695D01*
X35633644Y-47673663D01*
X35656189Y-47715839D01*
X35670071Y-47761603D01*
X35675000Y-47811650D01*
X35675000Y-49188350D01*
X35670071Y-49238397D01*
X35656189Y-49284161D01*
X35633644Y-49326337D01*
X35603305Y-49363305D01*
X35566337Y-49393644D01*
X35524161Y-49416189D01*
X35478397Y-49430071D01*
X35428350Y-49435000D01*
X34691650Y-49435000D01*
X34641603Y-49430071D01*
X34595839Y-49416189D01*
X34553663Y-49393644D01*
X34516695Y-49363305D01*
X34486356Y-49326337D01*
X34463811Y-49284161D01*
X34449929Y-49238397D01*
X34445000Y-49188350D01*
X34445000Y-47811650D01*
X34449929Y-47761603D01*
X34463811Y-47715839D01*
X34486356Y-47673663D01*
X34516695Y-47636695D01*
X34553663Y-47606356D01*
X34595839Y-47583811D01*
X34641603Y-47569929D01*
X34691650Y-47565000D01*
X35428350Y-47565000D01*
X35478397Y-47569929D01*
G37*
G36*
X86478047Y-46617934D02*
G01*
X86658365Y-46653801D01*
X86913149Y-46759336D01*
X87142448Y-46912549D01*
X87337451Y-47107552D01*
X87490664Y-47336851D01*
X87596199Y-47591635D01*
X87650000Y-47862112D01*
X87650000Y-48137888D01*
X87596199Y-48408365D01*
X87490664Y-48663149D01*
X87337451Y-48892448D01*
X87142448Y-49087451D01*
X86913149Y-49240664D01*
X86658365Y-49346199D01*
X86478047Y-49382066D01*
X86387889Y-49400000D01*
X86112111Y-49400000D01*
X86021953Y-49382066D01*
X85841635Y-49346199D01*
X85586851Y-49240664D01*
X85357552Y-49087451D01*
X85162549Y-48892448D01*
X85009336Y-48663149D01*
X84903801Y-48408365D01*
X84850000Y-48137888D01*
X84850000Y-47862112D01*
X84903801Y-47591635D01*
X85009336Y-47336851D01*
X85162549Y-47107552D01*
X85357552Y-46912549D01*
X85586851Y-46759336D01*
X85841635Y-46653801D01*
X86021953Y-46617934D01*
X86112111Y-46600000D01*
X86387889Y-46600000D01*
X86478047Y-46617934D01*
G37*
G36*
X48324157Y-47644672D02*
G01*
X48367416Y-47657795D01*
X48407278Y-47679101D01*
X48442221Y-47707779D01*
X48470899Y-47742722D01*
X48492205Y-47782584D01*
X48505328Y-47825843D01*
X48510000Y-47873280D01*
X48510000Y-49126720D01*
X48505328Y-49174157D01*
X48492205Y-49217416D01*
X48470899Y-49257278D01*
X48442221Y-49292221D01*
X48407278Y-49320899D01*
X48367416Y-49342205D01*
X48324157Y-49355328D01*
X48276720Y-49360000D01*
X45273280Y-49360000D01*
X45225843Y-49355328D01*
X45182584Y-49342205D01*
X45142722Y-49320899D01*
X45107779Y-49292221D01*
X45079101Y-49257278D01*
X45057795Y-49217416D01*
X45044672Y-49174157D01*
X45040000Y-49126720D01*
X45040000Y-47873280D01*
X45044672Y-47825843D01*
X45057795Y-47782584D01*
X45079101Y-47742722D01*
X45107779Y-47707779D01*
X45142722Y-47679101D01*
X45182584Y-47657795D01*
X45225843Y-47644672D01*
X45273280Y-47640000D01*
X48276720Y-47640000D01*
X48324157Y-47644672D01*
G37*
G36*
X43274157Y-47644672D02*
G01*
X43317416Y-47657795D01*
X43357278Y-47679101D01*
X43392221Y-47707779D01*
X43420899Y-47742722D01*
X43442205Y-47782584D01*
X43455328Y-47825843D01*
X43460000Y-47873280D01*
X43460000Y-49126720D01*
X43455328Y-49174157D01*
X43442205Y-49217416D01*
X43420899Y-49257278D01*
X43392221Y-49292221D01*
X43357278Y-49320899D01*
X43317416Y-49342205D01*
X43274157Y-49355328D01*
X43226720Y-49360000D01*
X40223280Y-49360000D01*
X40175843Y-49355328D01*
X40132584Y-49342205D01*
X40092722Y-49320899D01*
X40057779Y-49292221D01*
X40029101Y-49257278D01*
X40007795Y-49217416D01*
X39994672Y-49174157D01*
X39990000Y-49126720D01*
X39990000Y-47873280D01*
X39994672Y-47825843D01*
X40007795Y-47782584D01*
X40029101Y-47742722D01*
X40057779Y-47707779D01*
X40092722Y-47679101D01*
X40132584Y-47657795D01*
X40175843Y-47644672D01*
X40223280Y-47640000D01*
X43226720Y-47640000D01*
X43274157Y-47644672D01*
G37*
G36*
X38306359Y-45969261D02*
G01*
X38345609Y-45981168D01*
X38381776Y-46000499D01*
X38413481Y-46026519D01*
X38439501Y-46058224D01*
X38458832Y-46094391D01*
X38470739Y-46133641D01*
X38475000Y-46176908D01*
X38475000Y-46823092D01*
X38470739Y-46866359D01*
X38458832Y-46905609D01*
X38439501Y-46941776D01*
X38413481Y-46973481D01*
X38381776Y-46999501D01*
X38345609Y-47018832D01*
X38306359Y-47030739D01*
X38263092Y-47035000D01*
X37736908Y-47035000D01*
X37693641Y-47030739D01*
X37654391Y-47018832D01*
X37618224Y-46999501D01*
X37586519Y-46973481D01*
X37560499Y-46941776D01*
X37541168Y-46905609D01*
X37529261Y-46866359D01*
X37525000Y-46823092D01*
X37525000Y-46176908D01*
X37529261Y-46133641D01*
X37541168Y-46094391D01*
X37560499Y-46058224D01*
X37586519Y-46026519D01*
X37618224Y-46000499D01*
X37654391Y-45981168D01*
X37693641Y-45969261D01*
X37736908Y-45965000D01*
X38263092Y-45965000D01*
X38306359Y-45969261D01*
G37*
G36*
X36786359Y-45969261D02*
G01*
X36825609Y-45981168D01*
X36861776Y-46000499D01*
X36893481Y-46026519D01*
X36919501Y-46058224D01*
X36938832Y-46094391D01*
X36950739Y-46133641D01*
X36955000Y-46176908D01*
X36955000Y-46823092D01*
X36950739Y-46866359D01*
X36938832Y-46905609D01*
X36919501Y-46941776D01*
X36893481Y-46973481D01*
X36861776Y-46999501D01*
X36825609Y-47018832D01*
X36786359Y-47030739D01*
X36743092Y-47035000D01*
X36216908Y-47035000D01*
X36173641Y-47030739D01*
X36134391Y-47018832D01*
X36098224Y-46999501D01*
X36066519Y-46973481D01*
X36040499Y-46941776D01*
X36021168Y-46905609D01*
X36009261Y-46866359D01*
X36005000Y-46823092D01*
X36005000Y-46176908D01*
X36009261Y-46133641D01*
X36021168Y-46094391D01*
X36040499Y-46058224D01*
X36066519Y-46026519D01*
X36098224Y-46000499D01*
X36134391Y-45981168D01*
X36173641Y-45969261D01*
X36216908Y-45965000D01*
X36743092Y-45965000D01*
X36786359Y-45969261D01*
G37*
M02*
