G04 #@! TF.GenerationSoftware,KiCad,Pcbnew,(5.1.5)-3*
G04 #@! TF.CreationDate,2021-01-14T16:52:46-05:00*
G04 #@! TF.ProjectId,MOSFET_test_board,4d4f5346-4554-45f7-9465-73745f626f61,rev?*
G04 #@! TF.SameCoordinates,Original*
G04 #@! TF.FileFunction,Copper,L1,Top*
G04 #@! TF.FilePolarity,Positive*
%FSLAX46Y46*%
G04 Gerber Fmt 4.6, Leading zero omitted, Abs format (unit mm)*
G04 Created by KiCad (PCBNEW (5.1.5)-3) date 2021-01-14 16:52:46*
%MOMM*%
%LPD*%
G04 APERTURE LIST*
%ADD10O,1.700000X1.700000*%
%ADD11R,1.700000X1.700000*%
%ADD12C,0.100000*%
%ADD13R,1.000000X1.000000*%
%ADD14C,0.500000*%
%ADD15C,0.800000*%
%ADD16C,0.750000*%
%ADD17C,1.000000*%
%ADD18C,0.500000*%
%ADD19C,1.500000*%
%ADD20C,0.250000*%
%ADD21C,0.400000*%
%ADD22C,0.254000*%
G04 APERTURE END LIST*
D10*
X37500000Y-61580000D03*
X37500000Y-59040000D03*
D11*
X37500000Y-56500000D03*
G04 #@! TA.AperFunction,SMDPad,CuDef*
D12*
G36*
X80795552Y-58316011D02*
G01*
X80815941Y-58319036D01*
X80835935Y-58324044D01*
X80855342Y-58330988D01*
X80873975Y-58339801D01*
X80891654Y-58350397D01*
X80908210Y-58362676D01*
X80923482Y-58376518D01*
X80937324Y-58391790D01*
X80949603Y-58408346D01*
X80960199Y-58426025D01*
X80969012Y-58444658D01*
X80975956Y-58464065D01*
X80980964Y-58484059D01*
X80983989Y-58504448D01*
X80985000Y-58525035D01*
X80985000Y-58954965D01*
X80983989Y-58975552D01*
X80980964Y-58995941D01*
X80975956Y-59015935D01*
X80969012Y-59035342D01*
X80960199Y-59053975D01*
X80949603Y-59071654D01*
X80937324Y-59088210D01*
X80923482Y-59103482D01*
X80908210Y-59117324D01*
X80891654Y-59129603D01*
X80873975Y-59140199D01*
X80855342Y-59149012D01*
X80835935Y-59155956D01*
X80815941Y-59160964D01*
X80795552Y-59163989D01*
X80774965Y-59165000D01*
X80225035Y-59165000D01*
X80204448Y-59163989D01*
X80184059Y-59160964D01*
X80164065Y-59155956D01*
X80144658Y-59149012D01*
X80126025Y-59140199D01*
X80108346Y-59129603D01*
X80091790Y-59117324D01*
X80076518Y-59103482D01*
X80062676Y-59088210D01*
X80050397Y-59071654D01*
X80039801Y-59053975D01*
X80030988Y-59035342D01*
X80024044Y-59015935D01*
X80019036Y-58995941D01*
X80016011Y-58975552D01*
X80015000Y-58954965D01*
X80015000Y-58525035D01*
X80016011Y-58504448D01*
X80019036Y-58484059D01*
X80024044Y-58464065D01*
X80030988Y-58444658D01*
X80039801Y-58426025D01*
X80050397Y-58408346D01*
X80062676Y-58391790D01*
X80076518Y-58376518D01*
X80091790Y-58362676D01*
X80108346Y-58350397D01*
X80126025Y-58339801D01*
X80144658Y-58330988D01*
X80164065Y-58324044D01*
X80184059Y-58319036D01*
X80204448Y-58316011D01*
X80225035Y-58315000D01*
X80774965Y-58315000D01*
X80795552Y-58316011D01*
G37*
G04 #@! TD.AperFunction*
G04 #@! TA.AperFunction,SMDPad,CuDef*
G36*
X80795552Y-59836011D02*
G01*
X80815941Y-59839036D01*
X80835935Y-59844044D01*
X80855342Y-59850988D01*
X80873975Y-59859801D01*
X80891654Y-59870397D01*
X80908210Y-59882676D01*
X80923482Y-59896518D01*
X80937324Y-59911790D01*
X80949603Y-59928346D01*
X80960199Y-59946025D01*
X80969012Y-59964658D01*
X80975956Y-59984065D01*
X80980964Y-60004059D01*
X80983989Y-60024448D01*
X80985000Y-60045035D01*
X80985000Y-60474965D01*
X80983989Y-60495552D01*
X80980964Y-60515941D01*
X80975956Y-60535935D01*
X80969012Y-60555342D01*
X80960199Y-60573975D01*
X80949603Y-60591654D01*
X80937324Y-60608210D01*
X80923482Y-60623482D01*
X80908210Y-60637324D01*
X80891654Y-60649603D01*
X80873975Y-60660199D01*
X80855342Y-60669012D01*
X80835935Y-60675956D01*
X80815941Y-60680964D01*
X80795552Y-60683989D01*
X80774965Y-60685000D01*
X80225035Y-60685000D01*
X80204448Y-60683989D01*
X80184059Y-60680964D01*
X80164065Y-60675956D01*
X80144658Y-60669012D01*
X80126025Y-60660199D01*
X80108346Y-60649603D01*
X80091790Y-60637324D01*
X80076518Y-60623482D01*
X80062676Y-60608210D01*
X80050397Y-60591654D01*
X80039801Y-60573975D01*
X80030988Y-60555342D01*
X80024044Y-60535935D01*
X80019036Y-60515941D01*
X80016011Y-60495552D01*
X80015000Y-60474965D01*
X80015000Y-60045035D01*
X80016011Y-60024448D01*
X80019036Y-60004059D01*
X80024044Y-59984065D01*
X80030988Y-59964658D01*
X80039801Y-59946025D01*
X80050397Y-59928346D01*
X80062676Y-59911790D01*
X80076518Y-59896518D01*
X80091790Y-59882676D01*
X80108346Y-59870397D01*
X80126025Y-59859801D01*
X80144658Y-59850988D01*
X80164065Y-59844044D01*
X80184059Y-59839036D01*
X80204448Y-59836011D01*
X80225035Y-59835000D01*
X80774965Y-59835000D01*
X80795552Y-59836011D01*
G37*
G04 #@! TD.AperFunction*
G04 #@! TA.AperFunction,SMDPad,CuDef*
G36*
X84839207Y-60201926D02*
G01*
X84878036Y-60207686D01*
X84916114Y-60217224D01*
X84953073Y-60230448D01*
X84988559Y-60247231D01*
X85022228Y-60267412D01*
X85053757Y-60290796D01*
X85082843Y-60317157D01*
X85109204Y-60346243D01*
X85132588Y-60377772D01*
X85152769Y-60411441D01*
X85169552Y-60446927D01*
X85182776Y-60483886D01*
X85192314Y-60521964D01*
X85198074Y-60560793D01*
X85200000Y-60600000D01*
X85200000Y-61400000D01*
X85198074Y-61439207D01*
X85192314Y-61478036D01*
X85182776Y-61516114D01*
X85169552Y-61553073D01*
X85152769Y-61588559D01*
X85132588Y-61622228D01*
X85109204Y-61653757D01*
X85082843Y-61682843D01*
X85053757Y-61709204D01*
X85022228Y-61732588D01*
X84988559Y-61752769D01*
X84953073Y-61769552D01*
X84916114Y-61782776D01*
X84878036Y-61792314D01*
X84839207Y-61798074D01*
X84800000Y-61800000D01*
X83300000Y-61800000D01*
X83260793Y-61798074D01*
X83221964Y-61792314D01*
X83183886Y-61782776D01*
X83146927Y-61769552D01*
X83111441Y-61752769D01*
X83077772Y-61732588D01*
X83046243Y-61709204D01*
X83017157Y-61682843D01*
X82990796Y-61653757D01*
X82967412Y-61622228D01*
X82947231Y-61588559D01*
X82930448Y-61553073D01*
X82917224Y-61516114D01*
X82907686Y-61478036D01*
X82901926Y-61439207D01*
X82900000Y-61400000D01*
X82900000Y-60600000D01*
X82901926Y-60560793D01*
X82907686Y-60521964D01*
X82917224Y-60483886D01*
X82930448Y-60446927D01*
X82947231Y-60411441D01*
X82967412Y-60377772D01*
X82990796Y-60346243D01*
X83017157Y-60317157D01*
X83046243Y-60290796D01*
X83077772Y-60267412D01*
X83111441Y-60247231D01*
X83146927Y-60230448D01*
X83183886Y-60217224D01*
X83221964Y-60207686D01*
X83260793Y-60201926D01*
X83300000Y-60200000D01*
X84800000Y-60200000D01*
X84839207Y-60201926D01*
G37*
G04 #@! TD.AperFunction*
G04 #@! TA.AperFunction,SMDPad,CuDef*
G36*
X84839207Y-57201926D02*
G01*
X84878036Y-57207686D01*
X84916114Y-57217224D01*
X84953073Y-57230448D01*
X84988559Y-57247231D01*
X85022228Y-57267412D01*
X85053757Y-57290796D01*
X85082843Y-57317157D01*
X85109204Y-57346243D01*
X85132588Y-57377772D01*
X85152769Y-57411441D01*
X85169552Y-57446927D01*
X85182776Y-57483886D01*
X85192314Y-57521964D01*
X85198074Y-57560793D01*
X85200000Y-57600000D01*
X85200000Y-58400000D01*
X85198074Y-58439207D01*
X85192314Y-58478036D01*
X85182776Y-58516114D01*
X85169552Y-58553073D01*
X85152769Y-58588559D01*
X85132588Y-58622228D01*
X85109204Y-58653757D01*
X85082843Y-58682843D01*
X85053757Y-58709204D01*
X85022228Y-58732588D01*
X84988559Y-58752769D01*
X84953073Y-58769552D01*
X84916114Y-58782776D01*
X84878036Y-58792314D01*
X84839207Y-58798074D01*
X84800000Y-58800000D01*
X83300000Y-58800000D01*
X83260793Y-58798074D01*
X83221964Y-58792314D01*
X83183886Y-58782776D01*
X83146927Y-58769552D01*
X83111441Y-58752769D01*
X83077772Y-58732588D01*
X83046243Y-58709204D01*
X83017157Y-58682843D01*
X82990796Y-58653757D01*
X82967412Y-58622228D01*
X82947231Y-58588559D01*
X82930448Y-58553073D01*
X82917224Y-58516114D01*
X82907686Y-58478036D01*
X82901926Y-58439207D01*
X82900000Y-58400000D01*
X82900000Y-57600000D01*
X82901926Y-57560793D01*
X82907686Y-57521964D01*
X82917224Y-57483886D01*
X82930448Y-57446927D01*
X82947231Y-57411441D01*
X82967412Y-57377772D01*
X82990796Y-57346243D01*
X83017157Y-57317157D01*
X83046243Y-57290796D01*
X83077772Y-57267412D01*
X83111441Y-57247231D01*
X83146927Y-57230448D01*
X83183886Y-57217224D01*
X83221964Y-57207686D01*
X83260793Y-57201926D01*
X83300000Y-57200000D01*
X84800000Y-57200000D01*
X84839207Y-57201926D01*
G37*
G04 #@! TD.AperFunction*
G04 #@! TA.AperFunction,SMDPad,CuDef*
G36*
X88239207Y-60201926D02*
G01*
X88278036Y-60207686D01*
X88316114Y-60217224D01*
X88353073Y-60230448D01*
X88388559Y-60247231D01*
X88422228Y-60267412D01*
X88453757Y-60290796D01*
X88482843Y-60317157D01*
X88509204Y-60346243D01*
X88532588Y-60377772D01*
X88552769Y-60411441D01*
X88569552Y-60446927D01*
X88582776Y-60483886D01*
X88592314Y-60521964D01*
X88598074Y-60560793D01*
X88600000Y-60600000D01*
X88600000Y-61400000D01*
X88598074Y-61439207D01*
X88592314Y-61478036D01*
X88582776Y-61516114D01*
X88569552Y-61553073D01*
X88552769Y-61588559D01*
X88532588Y-61622228D01*
X88509204Y-61653757D01*
X88482843Y-61682843D01*
X88453757Y-61709204D01*
X88422228Y-61732588D01*
X88388559Y-61752769D01*
X88353073Y-61769552D01*
X88316114Y-61782776D01*
X88278036Y-61792314D01*
X88239207Y-61798074D01*
X88200000Y-61800000D01*
X86700000Y-61800000D01*
X86660793Y-61798074D01*
X86621964Y-61792314D01*
X86583886Y-61782776D01*
X86546927Y-61769552D01*
X86511441Y-61752769D01*
X86477772Y-61732588D01*
X86446243Y-61709204D01*
X86417157Y-61682843D01*
X86390796Y-61653757D01*
X86367412Y-61622228D01*
X86347231Y-61588559D01*
X86330448Y-61553073D01*
X86317224Y-61516114D01*
X86307686Y-61478036D01*
X86301926Y-61439207D01*
X86300000Y-61400000D01*
X86300000Y-60600000D01*
X86301926Y-60560793D01*
X86307686Y-60521964D01*
X86317224Y-60483886D01*
X86330448Y-60446927D01*
X86347231Y-60411441D01*
X86367412Y-60377772D01*
X86390796Y-60346243D01*
X86417157Y-60317157D01*
X86446243Y-60290796D01*
X86477772Y-60267412D01*
X86511441Y-60247231D01*
X86546927Y-60230448D01*
X86583886Y-60217224D01*
X86621964Y-60207686D01*
X86660793Y-60201926D01*
X86700000Y-60200000D01*
X88200000Y-60200000D01*
X88239207Y-60201926D01*
G37*
G04 #@! TD.AperFunction*
G04 #@! TA.AperFunction,SMDPad,CuDef*
G36*
X88239207Y-57201926D02*
G01*
X88278036Y-57207686D01*
X88316114Y-57217224D01*
X88353073Y-57230448D01*
X88388559Y-57247231D01*
X88422228Y-57267412D01*
X88453757Y-57290796D01*
X88482843Y-57317157D01*
X88509204Y-57346243D01*
X88532588Y-57377772D01*
X88552769Y-57411441D01*
X88569552Y-57446927D01*
X88582776Y-57483886D01*
X88592314Y-57521964D01*
X88598074Y-57560793D01*
X88600000Y-57600000D01*
X88600000Y-58400000D01*
X88598074Y-58439207D01*
X88592314Y-58478036D01*
X88582776Y-58516114D01*
X88569552Y-58553073D01*
X88552769Y-58588559D01*
X88532588Y-58622228D01*
X88509204Y-58653757D01*
X88482843Y-58682843D01*
X88453757Y-58709204D01*
X88422228Y-58732588D01*
X88388559Y-58752769D01*
X88353073Y-58769552D01*
X88316114Y-58782776D01*
X88278036Y-58792314D01*
X88239207Y-58798074D01*
X88200000Y-58800000D01*
X86700000Y-58800000D01*
X86660793Y-58798074D01*
X86621964Y-58792314D01*
X86583886Y-58782776D01*
X86546927Y-58769552D01*
X86511441Y-58752769D01*
X86477772Y-58732588D01*
X86446243Y-58709204D01*
X86417157Y-58682843D01*
X86390796Y-58653757D01*
X86367412Y-58622228D01*
X86347231Y-58588559D01*
X86330448Y-58553073D01*
X86317224Y-58516114D01*
X86307686Y-58478036D01*
X86301926Y-58439207D01*
X86300000Y-58400000D01*
X86300000Y-57600000D01*
X86301926Y-57560793D01*
X86307686Y-57521964D01*
X86317224Y-57483886D01*
X86330448Y-57446927D01*
X86347231Y-57411441D01*
X86367412Y-57377772D01*
X86390796Y-57346243D01*
X86417157Y-57317157D01*
X86446243Y-57290796D01*
X86477772Y-57267412D01*
X86511441Y-57247231D01*
X86546927Y-57230448D01*
X86583886Y-57217224D01*
X86621964Y-57207686D01*
X86660793Y-57201926D01*
X86700000Y-57200000D01*
X88200000Y-57200000D01*
X88239207Y-57201926D01*
G37*
G04 #@! TD.AperFunction*
G04 #@! TA.AperFunction,SMDPad,CuDef*
G36*
X32739207Y-58201926D02*
G01*
X32778036Y-58207686D01*
X32816114Y-58217224D01*
X32853073Y-58230448D01*
X32888559Y-58247231D01*
X32922228Y-58267412D01*
X32953757Y-58290796D01*
X32982843Y-58317157D01*
X33009204Y-58346243D01*
X33032588Y-58377772D01*
X33052769Y-58411441D01*
X33069552Y-58446927D01*
X33082776Y-58483886D01*
X33092314Y-58521964D01*
X33098074Y-58560793D01*
X33100000Y-58600000D01*
X33100000Y-59400000D01*
X33098074Y-59439207D01*
X33092314Y-59478036D01*
X33082776Y-59516114D01*
X33069552Y-59553073D01*
X33052769Y-59588559D01*
X33032588Y-59622228D01*
X33009204Y-59653757D01*
X32982843Y-59682843D01*
X32953757Y-59709204D01*
X32922228Y-59732588D01*
X32888559Y-59752769D01*
X32853073Y-59769552D01*
X32816114Y-59782776D01*
X32778036Y-59792314D01*
X32739207Y-59798074D01*
X32700000Y-59800000D01*
X31200000Y-59800000D01*
X31160793Y-59798074D01*
X31121964Y-59792314D01*
X31083886Y-59782776D01*
X31046927Y-59769552D01*
X31011441Y-59752769D01*
X30977772Y-59732588D01*
X30946243Y-59709204D01*
X30917157Y-59682843D01*
X30890796Y-59653757D01*
X30867412Y-59622228D01*
X30847231Y-59588559D01*
X30830448Y-59553073D01*
X30817224Y-59516114D01*
X30807686Y-59478036D01*
X30801926Y-59439207D01*
X30800000Y-59400000D01*
X30800000Y-58600000D01*
X30801926Y-58560793D01*
X30807686Y-58521964D01*
X30817224Y-58483886D01*
X30830448Y-58446927D01*
X30847231Y-58411441D01*
X30867412Y-58377772D01*
X30890796Y-58346243D01*
X30917157Y-58317157D01*
X30946243Y-58290796D01*
X30977772Y-58267412D01*
X31011441Y-58247231D01*
X31046927Y-58230448D01*
X31083886Y-58217224D01*
X31121964Y-58207686D01*
X31160793Y-58201926D01*
X31200000Y-58200000D01*
X32700000Y-58200000D01*
X32739207Y-58201926D01*
G37*
G04 #@! TD.AperFunction*
G04 #@! TA.AperFunction,SMDPad,CuDef*
G36*
X32739207Y-61201926D02*
G01*
X32778036Y-61207686D01*
X32816114Y-61217224D01*
X32853073Y-61230448D01*
X32888559Y-61247231D01*
X32922228Y-61267412D01*
X32953757Y-61290796D01*
X32982843Y-61317157D01*
X33009204Y-61346243D01*
X33032588Y-61377772D01*
X33052769Y-61411441D01*
X33069552Y-61446927D01*
X33082776Y-61483886D01*
X33092314Y-61521964D01*
X33098074Y-61560793D01*
X33100000Y-61600000D01*
X33100000Y-62400000D01*
X33098074Y-62439207D01*
X33092314Y-62478036D01*
X33082776Y-62516114D01*
X33069552Y-62553073D01*
X33052769Y-62588559D01*
X33032588Y-62622228D01*
X33009204Y-62653757D01*
X32982843Y-62682843D01*
X32953757Y-62709204D01*
X32922228Y-62732588D01*
X32888559Y-62752769D01*
X32853073Y-62769552D01*
X32816114Y-62782776D01*
X32778036Y-62792314D01*
X32739207Y-62798074D01*
X32700000Y-62800000D01*
X31200000Y-62800000D01*
X31160793Y-62798074D01*
X31121964Y-62792314D01*
X31083886Y-62782776D01*
X31046927Y-62769552D01*
X31011441Y-62752769D01*
X30977772Y-62732588D01*
X30946243Y-62709204D01*
X30917157Y-62682843D01*
X30890796Y-62653757D01*
X30867412Y-62622228D01*
X30847231Y-62588559D01*
X30830448Y-62553073D01*
X30817224Y-62516114D01*
X30807686Y-62478036D01*
X30801926Y-62439207D01*
X30800000Y-62400000D01*
X30800000Y-61600000D01*
X30801926Y-61560793D01*
X30807686Y-61521964D01*
X30817224Y-61483886D01*
X30830448Y-61446927D01*
X30847231Y-61411441D01*
X30867412Y-61377772D01*
X30890796Y-61346243D01*
X30917157Y-61317157D01*
X30946243Y-61290796D01*
X30977772Y-61267412D01*
X31011441Y-61247231D01*
X31046927Y-61230448D01*
X31083886Y-61217224D01*
X31121964Y-61207686D01*
X31160793Y-61201926D01*
X31200000Y-61200000D01*
X32700000Y-61200000D01*
X32739207Y-61201926D01*
G37*
G04 #@! TD.AperFunction*
G04 #@! TA.AperFunction,SMDPad,CuDef*
G36*
X29339207Y-58201926D02*
G01*
X29378036Y-58207686D01*
X29416114Y-58217224D01*
X29453073Y-58230448D01*
X29488559Y-58247231D01*
X29522228Y-58267412D01*
X29553757Y-58290796D01*
X29582843Y-58317157D01*
X29609204Y-58346243D01*
X29632588Y-58377772D01*
X29652769Y-58411441D01*
X29669552Y-58446927D01*
X29682776Y-58483886D01*
X29692314Y-58521964D01*
X29698074Y-58560793D01*
X29700000Y-58600000D01*
X29700000Y-59400000D01*
X29698074Y-59439207D01*
X29692314Y-59478036D01*
X29682776Y-59516114D01*
X29669552Y-59553073D01*
X29652769Y-59588559D01*
X29632588Y-59622228D01*
X29609204Y-59653757D01*
X29582843Y-59682843D01*
X29553757Y-59709204D01*
X29522228Y-59732588D01*
X29488559Y-59752769D01*
X29453073Y-59769552D01*
X29416114Y-59782776D01*
X29378036Y-59792314D01*
X29339207Y-59798074D01*
X29300000Y-59800000D01*
X27800000Y-59800000D01*
X27760793Y-59798074D01*
X27721964Y-59792314D01*
X27683886Y-59782776D01*
X27646927Y-59769552D01*
X27611441Y-59752769D01*
X27577772Y-59732588D01*
X27546243Y-59709204D01*
X27517157Y-59682843D01*
X27490796Y-59653757D01*
X27467412Y-59622228D01*
X27447231Y-59588559D01*
X27430448Y-59553073D01*
X27417224Y-59516114D01*
X27407686Y-59478036D01*
X27401926Y-59439207D01*
X27400000Y-59400000D01*
X27400000Y-58600000D01*
X27401926Y-58560793D01*
X27407686Y-58521964D01*
X27417224Y-58483886D01*
X27430448Y-58446927D01*
X27447231Y-58411441D01*
X27467412Y-58377772D01*
X27490796Y-58346243D01*
X27517157Y-58317157D01*
X27546243Y-58290796D01*
X27577772Y-58267412D01*
X27611441Y-58247231D01*
X27646927Y-58230448D01*
X27683886Y-58217224D01*
X27721964Y-58207686D01*
X27760793Y-58201926D01*
X27800000Y-58200000D01*
X29300000Y-58200000D01*
X29339207Y-58201926D01*
G37*
G04 #@! TD.AperFunction*
G04 #@! TA.AperFunction,SMDPad,CuDef*
G36*
X29339207Y-61201926D02*
G01*
X29378036Y-61207686D01*
X29416114Y-61217224D01*
X29453073Y-61230448D01*
X29488559Y-61247231D01*
X29522228Y-61267412D01*
X29553757Y-61290796D01*
X29582843Y-61317157D01*
X29609204Y-61346243D01*
X29632588Y-61377772D01*
X29652769Y-61411441D01*
X29669552Y-61446927D01*
X29682776Y-61483886D01*
X29692314Y-61521964D01*
X29698074Y-61560793D01*
X29700000Y-61600000D01*
X29700000Y-62400000D01*
X29698074Y-62439207D01*
X29692314Y-62478036D01*
X29682776Y-62516114D01*
X29669552Y-62553073D01*
X29652769Y-62588559D01*
X29632588Y-62622228D01*
X29609204Y-62653757D01*
X29582843Y-62682843D01*
X29553757Y-62709204D01*
X29522228Y-62732588D01*
X29488559Y-62752769D01*
X29453073Y-62769552D01*
X29416114Y-62782776D01*
X29378036Y-62792314D01*
X29339207Y-62798074D01*
X29300000Y-62800000D01*
X27800000Y-62800000D01*
X27760793Y-62798074D01*
X27721964Y-62792314D01*
X27683886Y-62782776D01*
X27646927Y-62769552D01*
X27611441Y-62752769D01*
X27577772Y-62732588D01*
X27546243Y-62709204D01*
X27517157Y-62682843D01*
X27490796Y-62653757D01*
X27467412Y-62622228D01*
X27447231Y-62588559D01*
X27430448Y-62553073D01*
X27417224Y-62516114D01*
X27407686Y-62478036D01*
X27401926Y-62439207D01*
X27400000Y-62400000D01*
X27400000Y-61600000D01*
X27401926Y-61560793D01*
X27407686Y-61521964D01*
X27417224Y-61483886D01*
X27430448Y-61446927D01*
X27447231Y-61411441D01*
X27467412Y-61377772D01*
X27490796Y-61346243D01*
X27517157Y-61317157D01*
X27546243Y-61290796D01*
X27577772Y-61267412D01*
X27611441Y-61247231D01*
X27646927Y-61230448D01*
X27683886Y-61217224D01*
X27721964Y-61207686D01*
X27760793Y-61201926D01*
X27800000Y-61200000D01*
X29300000Y-61200000D01*
X29339207Y-61201926D01*
G37*
G04 #@! TD.AperFunction*
G04 #@! TA.AperFunction,SMDPad,CuDef*
G36*
X29339207Y-52701926D02*
G01*
X29378036Y-52707686D01*
X29416114Y-52717224D01*
X29453073Y-52730448D01*
X29488559Y-52747231D01*
X29522228Y-52767412D01*
X29553757Y-52790796D01*
X29582843Y-52817157D01*
X29609204Y-52846243D01*
X29632588Y-52877772D01*
X29652769Y-52911441D01*
X29669552Y-52946927D01*
X29682776Y-52983886D01*
X29692314Y-53021964D01*
X29698074Y-53060793D01*
X29700000Y-53100000D01*
X29700000Y-53900000D01*
X29698074Y-53939207D01*
X29692314Y-53978036D01*
X29682776Y-54016114D01*
X29669552Y-54053073D01*
X29652769Y-54088559D01*
X29632588Y-54122228D01*
X29609204Y-54153757D01*
X29582843Y-54182843D01*
X29553757Y-54209204D01*
X29522228Y-54232588D01*
X29488559Y-54252769D01*
X29453073Y-54269552D01*
X29416114Y-54282776D01*
X29378036Y-54292314D01*
X29339207Y-54298074D01*
X29300000Y-54300000D01*
X27800000Y-54300000D01*
X27760793Y-54298074D01*
X27721964Y-54292314D01*
X27683886Y-54282776D01*
X27646927Y-54269552D01*
X27611441Y-54252769D01*
X27577772Y-54232588D01*
X27546243Y-54209204D01*
X27517157Y-54182843D01*
X27490796Y-54153757D01*
X27467412Y-54122228D01*
X27447231Y-54088559D01*
X27430448Y-54053073D01*
X27417224Y-54016114D01*
X27407686Y-53978036D01*
X27401926Y-53939207D01*
X27400000Y-53900000D01*
X27400000Y-53100000D01*
X27401926Y-53060793D01*
X27407686Y-53021964D01*
X27417224Y-52983886D01*
X27430448Y-52946927D01*
X27447231Y-52911441D01*
X27467412Y-52877772D01*
X27490796Y-52846243D01*
X27517157Y-52817157D01*
X27546243Y-52790796D01*
X27577772Y-52767412D01*
X27611441Y-52747231D01*
X27646927Y-52730448D01*
X27683886Y-52717224D01*
X27721964Y-52707686D01*
X27760793Y-52701926D01*
X27800000Y-52700000D01*
X29300000Y-52700000D01*
X29339207Y-52701926D01*
G37*
G04 #@! TD.AperFunction*
G04 #@! TA.AperFunction,SMDPad,CuDef*
G36*
X29339207Y-49701926D02*
G01*
X29378036Y-49707686D01*
X29416114Y-49717224D01*
X29453073Y-49730448D01*
X29488559Y-49747231D01*
X29522228Y-49767412D01*
X29553757Y-49790796D01*
X29582843Y-49817157D01*
X29609204Y-49846243D01*
X29632588Y-49877772D01*
X29652769Y-49911441D01*
X29669552Y-49946927D01*
X29682776Y-49983886D01*
X29692314Y-50021964D01*
X29698074Y-50060793D01*
X29700000Y-50100000D01*
X29700000Y-50900000D01*
X29698074Y-50939207D01*
X29692314Y-50978036D01*
X29682776Y-51016114D01*
X29669552Y-51053073D01*
X29652769Y-51088559D01*
X29632588Y-51122228D01*
X29609204Y-51153757D01*
X29582843Y-51182843D01*
X29553757Y-51209204D01*
X29522228Y-51232588D01*
X29488559Y-51252769D01*
X29453073Y-51269552D01*
X29416114Y-51282776D01*
X29378036Y-51292314D01*
X29339207Y-51298074D01*
X29300000Y-51300000D01*
X27800000Y-51300000D01*
X27760793Y-51298074D01*
X27721964Y-51292314D01*
X27683886Y-51282776D01*
X27646927Y-51269552D01*
X27611441Y-51252769D01*
X27577772Y-51232588D01*
X27546243Y-51209204D01*
X27517157Y-51182843D01*
X27490796Y-51153757D01*
X27467412Y-51122228D01*
X27447231Y-51088559D01*
X27430448Y-51053073D01*
X27417224Y-51016114D01*
X27407686Y-50978036D01*
X27401926Y-50939207D01*
X27400000Y-50900000D01*
X27400000Y-50100000D01*
X27401926Y-50060793D01*
X27407686Y-50021964D01*
X27417224Y-49983886D01*
X27430448Y-49946927D01*
X27447231Y-49911441D01*
X27467412Y-49877772D01*
X27490796Y-49846243D01*
X27517157Y-49817157D01*
X27546243Y-49790796D01*
X27577772Y-49767412D01*
X27611441Y-49747231D01*
X27646927Y-49730448D01*
X27683886Y-49717224D01*
X27721964Y-49707686D01*
X27760793Y-49701926D01*
X27800000Y-49700000D01*
X29300000Y-49700000D01*
X29339207Y-49701926D01*
G37*
G04 #@! TD.AperFunction*
G04 #@! TA.AperFunction,SMDPad,CuDef*
G36*
X32739207Y-52701926D02*
G01*
X32778036Y-52707686D01*
X32816114Y-52717224D01*
X32853073Y-52730448D01*
X32888559Y-52747231D01*
X32922228Y-52767412D01*
X32953757Y-52790796D01*
X32982843Y-52817157D01*
X33009204Y-52846243D01*
X33032588Y-52877772D01*
X33052769Y-52911441D01*
X33069552Y-52946927D01*
X33082776Y-52983886D01*
X33092314Y-53021964D01*
X33098074Y-53060793D01*
X33100000Y-53100000D01*
X33100000Y-53900000D01*
X33098074Y-53939207D01*
X33092314Y-53978036D01*
X33082776Y-54016114D01*
X33069552Y-54053073D01*
X33052769Y-54088559D01*
X33032588Y-54122228D01*
X33009204Y-54153757D01*
X32982843Y-54182843D01*
X32953757Y-54209204D01*
X32922228Y-54232588D01*
X32888559Y-54252769D01*
X32853073Y-54269552D01*
X32816114Y-54282776D01*
X32778036Y-54292314D01*
X32739207Y-54298074D01*
X32700000Y-54300000D01*
X31200000Y-54300000D01*
X31160793Y-54298074D01*
X31121964Y-54292314D01*
X31083886Y-54282776D01*
X31046927Y-54269552D01*
X31011441Y-54252769D01*
X30977772Y-54232588D01*
X30946243Y-54209204D01*
X30917157Y-54182843D01*
X30890796Y-54153757D01*
X30867412Y-54122228D01*
X30847231Y-54088559D01*
X30830448Y-54053073D01*
X30817224Y-54016114D01*
X30807686Y-53978036D01*
X30801926Y-53939207D01*
X30800000Y-53900000D01*
X30800000Y-53100000D01*
X30801926Y-53060793D01*
X30807686Y-53021964D01*
X30817224Y-52983886D01*
X30830448Y-52946927D01*
X30847231Y-52911441D01*
X30867412Y-52877772D01*
X30890796Y-52846243D01*
X30917157Y-52817157D01*
X30946243Y-52790796D01*
X30977772Y-52767412D01*
X31011441Y-52747231D01*
X31046927Y-52730448D01*
X31083886Y-52717224D01*
X31121964Y-52707686D01*
X31160793Y-52701926D01*
X31200000Y-52700000D01*
X32700000Y-52700000D01*
X32739207Y-52701926D01*
G37*
G04 #@! TD.AperFunction*
G04 #@! TA.AperFunction,SMDPad,CuDef*
G36*
X32739207Y-49701926D02*
G01*
X32778036Y-49707686D01*
X32816114Y-49717224D01*
X32853073Y-49730448D01*
X32888559Y-49747231D01*
X32922228Y-49767412D01*
X32953757Y-49790796D01*
X32982843Y-49817157D01*
X33009204Y-49846243D01*
X33032588Y-49877772D01*
X33052769Y-49911441D01*
X33069552Y-49946927D01*
X33082776Y-49983886D01*
X33092314Y-50021964D01*
X33098074Y-50060793D01*
X33100000Y-50100000D01*
X33100000Y-50900000D01*
X33098074Y-50939207D01*
X33092314Y-50978036D01*
X33082776Y-51016114D01*
X33069552Y-51053073D01*
X33052769Y-51088559D01*
X33032588Y-51122228D01*
X33009204Y-51153757D01*
X32982843Y-51182843D01*
X32953757Y-51209204D01*
X32922228Y-51232588D01*
X32888559Y-51252769D01*
X32853073Y-51269552D01*
X32816114Y-51282776D01*
X32778036Y-51292314D01*
X32739207Y-51298074D01*
X32700000Y-51300000D01*
X31200000Y-51300000D01*
X31160793Y-51298074D01*
X31121964Y-51292314D01*
X31083886Y-51282776D01*
X31046927Y-51269552D01*
X31011441Y-51252769D01*
X30977772Y-51232588D01*
X30946243Y-51209204D01*
X30917157Y-51182843D01*
X30890796Y-51153757D01*
X30867412Y-51122228D01*
X30847231Y-51088559D01*
X30830448Y-51053073D01*
X30817224Y-51016114D01*
X30807686Y-50978036D01*
X30801926Y-50939207D01*
X30800000Y-50900000D01*
X30800000Y-50100000D01*
X30801926Y-50060793D01*
X30807686Y-50021964D01*
X30817224Y-49983886D01*
X30830448Y-49946927D01*
X30847231Y-49911441D01*
X30867412Y-49877772D01*
X30890796Y-49846243D01*
X30917157Y-49817157D01*
X30946243Y-49790796D01*
X30977772Y-49767412D01*
X31011441Y-49747231D01*
X31046927Y-49730448D01*
X31083886Y-49717224D01*
X31121964Y-49707686D01*
X31160793Y-49701926D01*
X31200000Y-49700000D01*
X32700000Y-49700000D01*
X32739207Y-49701926D01*
G37*
G04 #@! TD.AperFunction*
G04 #@! TA.AperFunction,SMDPad,CuDef*
G36*
X44626641Y-64475819D02*
G01*
X44643146Y-64478267D01*
X44659331Y-64482321D01*
X44675041Y-64487942D01*
X44690125Y-64495076D01*
X44704436Y-64503654D01*
X44717838Y-64513594D01*
X44730201Y-64524799D01*
X44741406Y-64537162D01*
X44751346Y-64550564D01*
X44759924Y-64564875D01*
X44767058Y-64579959D01*
X44772679Y-64595669D01*
X44776733Y-64611854D01*
X44779181Y-64628359D01*
X44780000Y-64645024D01*
X44780000Y-65364976D01*
X44779181Y-65381641D01*
X44776733Y-65398146D01*
X44772679Y-65414331D01*
X44767058Y-65430041D01*
X44759924Y-65445125D01*
X44751346Y-65459436D01*
X44741406Y-65472838D01*
X44730201Y-65485201D01*
X44717838Y-65496406D01*
X44704436Y-65506346D01*
X44690125Y-65514924D01*
X44675041Y-65522058D01*
X44659331Y-65527679D01*
X44643146Y-65531733D01*
X44626641Y-65534181D01*
X44609976Y-65535000D01*
X43880024Y-65535000D01*
X43863359Y-65534181D01*
X43846854Y-65531733D01*
X43830669Y-65527679D01*
X43814959Y-65522058D01*
X43799875Y-65514924D01*
X43785564Y-65506346D01*
X43772162Y-65496406D01*
X43759799Y-65485201D01*
X43748594Y-65472838D01*
X43738654Y-65459436D01*
X43730076Y-65445125D01*
X43722942Y-65430041D01*
X43717321Y-65414331D01*
X43713267Y-65398146D01*
X43710819Y-65381641D01*
X43710000Y-65364976D01*
X43710000Y-64645024D01*
X43710819Y-64628359D01*
X43713267Y-64611854D01*
X43717321Y-64595669D01*
X43722942Y-64579959D01*
X43730076Y-64564875D01*
X43738654Y-64550564D01*
X43748594Y-64537162D01*
X43759799Y-64524799D01*
X43772162Y-64513594D01*
X43785564Y-64503654D01*
X43799875Y-64495076D01*
X43814959Y-64487942D01*
X43830669Y-64482321D01*
X43846854Y-64478267D01*
X43863359Y-64475819D01*
X43880024Y-64475000D01*
X44609976Y-64475000D01*
X44626641Y-64475819D01*
G37*
G04 #@! TD.AperFunction*
G04 #@! TA.AperFunction,SMDPad,CuDef*
G36*
X42726648Y-64475819D02*
G01*
X42743152Y-64478267D01*
X42759337Y-64482321D01*
X42775046Y-64487942D01*
X42790129Y-64495075D01*
X42804440Y-64503653D01*
X42817841Y-64513592D01*
X42830203Y-64524797D01*
X42841408Y-64537159D01*
X42851347Y-64550560D01*
X42859925Y-64564871D01*
X42867058Y-64579954D01*
X42872679Y-64595663D01*
X42876733Y-64611848D01*
X42879181Y-64628352D01*
X42880000Y-64645016D01*
X42880000Y-65364984D01*
X42879181Y-65381648D01*
X42876733Y-65398152D01*
X42872679Y-65414337D01*
X42867058Y-65430046D01*
X42859925Y-65445129D01*
X42851347Y-65459440D01*
X42841408Y-65472841D01*
X42830203Y-65485203D01*
X42817841Y-65496408D01*
X42804440Y-65506347D01*
X42790129Y-65514925D01*
X42775046Y-65522058D01*
X42759337Y-65527679D01*
X42743152Y-65531733D01*
X42726648Y-65534181D01*
X42709984Y-65535000D01*
X42390016Y-65535000D01*
X42373352Y-65534181D01*
X42356848Y-65531733D01*
X42340663Y-65527679D01*
X42324954Y-65522058D01*
X42309871Y-65514925D01*
X42295560Y-65506347D01*
X42282159Y-65496408D01*
X42269797Y-65485203D01*
X42258592Y-65472841D01*
X42248653Y-65459440D01*
X42240075Y-65445129D01*
X42232942Y-65430046D01*
X42227321Y-65414337D01*
X42223267Y-65398152D01*
X42220819Y-65381648D01*
X42220000Y-65364984D01*
X42220000Y-64645016D01*
X42220819Y-64628352D01*
X42223267Y-64611848D01*
X42227321Y-64595663D01*
X42232942Y-64579954D01*
X42240075Y-64564871D01*
X42248653Y-64550560D01*
X42258592Y-64537159D01*
X42269797Y-64524797D01*
X42282159Y-64513592D01*
X42295560Y-64503653D01*
X42309871Y-64495075D01*
X42324954Y-64487942D01*
X42340663Y-64482321D01*
X42356848Y-64478267D01*
X42373352Y-64475819D01*
X42390016Y-64475000D01*
X42709984Y-64475000D01*
X42726648Y-64475819D01*
G37*
G04 #@! TD.AperFunction*
G04 #@! TA.AperFunction,SMDPad,CuDef*
G36*
X42726648Y-66465819D02*
G01*
X42743152Y-66468267D01*
X42759337Y-66472321D01*
X42775046Y-66477942D01*
X42790129Y-66485075D01*
X42804440Y-66493653D01*
X42817841Y-66503592D01*
X42830203Y-66514797D01*
X42841408Y-66527159D01*
X42851347Y-66540560D01*
X42859925Y-66554871D01*
X42867058Y-66569954D01*
X42872679Y-66585663D01*
X42876733Y-66601848D01*
X42879181Y-66618352D01*
X42880000Y-66635016D01*
X42880000Y-67354984D01*
X42879181Y-67371648D01*
X42876733Y-67388152D01*
X42872679Y-67404337D01*
X42867058Y-67420046D01*
X42859925Y-67435129D01*
X42851347Y-67449440D01*
X42841408Y-67462841D01*
X42830203Y-67475203D01*
X42817841Y-67486408D01*
X42804440Y-67496347D01*
X42790129Y-67504925D01*
X42775046Y-67512058D01*
X42759337Y-67517679D01*
X42743152Y-67521733D01*
X42726648Y-67524181D01*
X42709984Y-67525000D01*
X42390016Y-67525000D01*
X42373352Y-67524181D01*
X42356848Y-67521733D01*
X42340663Y-67517679D01*
X42324954Y-67512058D01*
X42309871Y-67504925D01*
X42295560Y-67496347D01*
X42282159Y-67486408D01*
X42269797Y-67475203D01*
X42258592Y-67462841D01*
X42248653Y-67449440D01*
X42240075Y-67435129D01*
X42232942Y-67420046D01*
X42227321Y-67404337D01*
X42223267Y-67388152D01*
X42220819Y-67371648D01*
X42220000Y-67354984D01*
X42220000Y-66635016D01*
X42220819Y-66618352D01*
X42223267Y-66601848D01*
X42227321Y-66585663D01*
X42232942Y-66569954D01*
X42240075Y-66554871D01*
X42248653Y-66540560D01*
X42258592Y-66527159D01*
X42269797Y-66514797D01*
X42282159Y-66503592D01*
X42295560Y-66493653D01*
X42309871Y-66485075D01*
X42324954Y-66477942D01*
X42340663Y-66472321D01*
X42356848Y-66468267D01*
X42373352Y-66465819D01*
X42390016Y-66465000D01*
X42709984Y-66465000D01*
X42726648Y-66465819D01*
G37*
G04 #@! TD.AperFunction*
G04 #@! TA.AperFunction,SMDPad,CuDef*
G36*
X44626648Y-66465819D02*
G01*
X44643152Y-66468267D01*
X44659337Y-66472321D01*
X44675046Y-66477942D01*
X44690129Y-66485075D01*
X44704440Y-66493653D01*
X44717841Y-66503592D01*
X44730203Y-66514797D01*
X44741408Y-66527159D01*
X44751347Y-66540560D01*
X44759925Y-66554871D01*
X44767058Y-66569954D01*
X44772679Y-66585663D01*
X44776733Y-66601848D01*
X44779181Y-66618352D01*
X44780000Y-66635016D01*
X44780000Y-67354984D01*
X44779181Y-67371648D01*
X44776733Y-67388152D01*
X44772679Y-67404337D01*
X44767058Y-67420046D01*
X44759925Y-67435129D01*
X44751347Y-67449440D01*
X44741408Y-67462841D01*
X44730203Y-67475203D01*
X44717841Y-67486408D01*
X44704440Y-67496347D01*
X44690129Y-67504925D01*
X44675046Y-67512058D01*
X44659337Y-67517679D01*
X44643152Y-67521733D01*
X44626648Y-67524181D01*
X44609984Y-67525000D01*
X44290016Y-67525000D01*
X44273352Y-67524181D01*
X44256848Y-67521733D01*
X44240663Y-67517679D01*
X44224954Y-67512058D01*
X44209871Y-67504925D01*
X44195560Y-67496347D01*
X44182159Y-67486408D01*
X44169797Y-67475203D01*
X44158592Y-67462841D01*
X44148653Y-67449440D01*
X44140075Y-67435129D01*
X44132942Y-67420046D01*
X44127321Y-67404337D01*
X44123267Y-67388152D01*
X44120819Y-67371648D01*
X44120000Y-67354984D01*
X44120000Y-66635016D01*
X44120819Y-66618352D01*
X44123267Y-66601848D01*
X44127321Y-66585663D01*
X44132942Y-66569954D01*
X44140075Y-66554871D01*
X44148653Y-66540560D01*
X44158592Y-66527159D01*
X44169797Y-66514797D01*
X44182159Y-66503592D01*
X44195560Y-66493653D01*
X44209871Y-66485075D01*
X44224954Y-66477942D01*
X44240663Y-66472321D01*
X44256848Y-66468267D01*
X44273352Y-66465819D01*
X44290016Y-66465000D01*
X44609984Y-66465000D01*
X44626648Y-66465819D01*
G37*
G04 #@! TD.AperFunction*
G04 #@! TA.AperFunction,SMDPad,CuDef*
G36*
X46621641Y-55910819D02*
G01*
X46638146Y-55913267D01*
X46654331Y-55917321D01*
X46670041Y-55922942D01*
X46685125Y-55930076D01*
X46699436Y-55938654D01*
X46712838Y-55948594D01*
X46725201Y-55959799D01*
X46736406Y-55972162D01*
X46746346Y-55985564D01*
X46754924Y-55999875D01*
X46762058Y-56014959D01*
X46767679Y-56030669D01*
X46771733Y-56046854D01*
X46774181Y-56063359D01*
X46775000Y-56080024D01*
X46775000Y-56809976D01*
X46774181Y-56826641D01*
X46771733Y-56843146D01*
X46767679Y-56859331D01*
X46762058Y-56875041D01*
X46754924Y-56890125D01*
X46746346Y-56904436D01*
X46736406Y-56917838D01*
X46725201Y-56930201D01*
X46712838Y-56941406D01*
X46699436Y-56951346D01*
X46685125Y-56959924D01*
X46670041Y-56967058D01*
X46654331Y-56972679D01*
X46638146Y-56976733D01*
X46621641Y-56979181D01*
X46604976Y-56980000D01*
X45885024Y-56980000D01*
X45868359Y-56979181D01*
X45851854Y-56976733D01*
X45835669Y-56972679D01*
X45819959Y-56967058D01*
X45804875Y-56959924D01*
X45790564Y-56951346D01*
X45777162Y-56941406D01*
X45764799Y-56930201D01*
X45753594Y-56917838D01*
X45743654Y-56904436D01*
X45735076Y-56890125D01*
X45727942Y-56875041D01*
X45722321Y-56859331D01*
X45718267Y-56843146D01*
X45715819Y-56826641D01*
X45715000Y-56809976D01*
X45715000Y-56080024D01*
X45715819Y-56063359D01*
X45718267Y-56046854D01*
X45722321Y-56030669D01*
X45727942Y-56014959D01*
X45735076Y-55999875D01*
X45743654Y-55985564D01*
X45753594Y-55972162D01*
X45764799Y-55959799D01*
X45777162Y-55948594D01*
X45790564Y-55938654D01*
X45804875Y-55930076D01*
X45819959Y-55922942D01*
X45835669Y-55917321D01*
X45851854Y-55913267D01*
X45868359Y-55910819D01*
X45885024Y-55910000D01*
X46604976Y-55910000D01*
X46621641Y-55910819D01*
G37*
G04 #@! TD.AperFunction*
G04 #@! TA.AperFunction,SMDPad,CuDef*
G36*
X46621648Y-54420819D02*
G01*
X46638152Y-54423267D01*
X46654337Y-54427321D01*
X46670046Y-54432942D01*
X46685129Y-54440075D01*
X46699440Y-54448653D01*
X46712841Y-54458592D01*
X46725203Y-54469797D01*
X46736408Y-54482159D01*
X46746347Y-54495560D01*
X46754925Y-54509871D01*
X46762058Y-54524954D01*
X46767679Y-54540663D01*
X46771733Y-54556848D01*
X46774181Y-54573352D01*
X46775000Y-54590016D01*
X46775000Y-54909984D01*
X46774181Y-54926648D01*
X46771733Y-54943152D01*
X46767679Y-54959337D01*
X46762058Y-54975046D01*
X46754925Y-54990129D01*
X46746347Y-55004440D01*
X46736408Y-55017841D01*
X46725203Y-55030203D01*
X46712841Y-55041408D01*
X46699440Y-55051347D01*
X46685129Y-55059925D01*
X46670046Y-55067058D01*
X46654337Y-55072679D01*
X46638152Y-55076733D01*
X46621648Y-55079181D01*
X46604984Y-55080000D01*
X45885016Y-55080000D01*
X45868352Y-55079181D01*
X45851848Y-55076733D01*
X45835663Y-55072679D01*
X45819954Y-55067058D01*
X45804871Y-55059925D01*
X45790560Y-55051347D01*
X45777159Y-55041408D01*
X45764797Y-55030203D01*
X45753592Y-55017841D01*
X45743653Y-55004440D01*
X45735075Y-54990129D01*
X45727942Y-54975046D01*
X45722321Y-54959337D01*
X45718267Y-54943152D01*
X45715819Y-54926648D01*
X45715000Y-54909984D01*
X45715000Y-54590016D01*
X45715819Y-54573352D01*
X45718267Y-54556848D01*
X45722321Y-54540663D01*
X45727942Y-54524954D01*
X45735075Y-54509871D01*
X45743653Y-54495560D01*
X45753592Y-54482159D01*
X45764797Y-54469797D01*
X45777159Y-54458592D01*
X45790560Y-54448653D01*
X45804871Y-54440075D01*
X45819954Y-54432942D01*
X45835663Y-54427321D01*
X45851848Y-54423267D01*
X45868352Y-54420819D01*
X45885016Y-54420000D01*
X46604984Y-54420000D01*
X46621648Y-54420819D01*
G37*
G04 #@! TD.AperFunction*
G04 #@! TA.AperFunction,SMDPad,CuDef*
G36*
X44631648Y-54420819D02*
G01*
X44648152Y-54423267D01*
X44664337Y-54427321D01*
X44680046Y-54432942D01*
X44695129Y-54440075D01*
X44709440Y-54448653D01*
X44722841Y-54458592D01*
X44735203Y-54469797D01*
X44746408Y-54482159D01*
X44756347Y-54495560D01*
X44764925Y-54509871D01*
X44772058Y-54524954D01*
X44777679Y-54540663D01*
X44781733Y-54556848D01*
X44784181Y-54573352D01*
X44785000Y-54590016D01*
X44785000Y-54909984D01*
X44784181Y-54926648D01*
X44781733Y-54943152D01*
X44777679Y-54959337D01*
X44772058Y-54975046D01*
X44764925Y-54990129D01*
X44756347Y-55004440D01*
X44746408Y-55017841D01*
X44735203Y-55030203D01*
X44722841Y-55041408D01*
X44709440Y-55051347D01*
X44695129Y-55059925D01*
X44680046Y-55067058D01*
X44664337Y-55072679D01*
X44648152Y-55076733D01*
X44631648Y-55079181D01*
X44614984Y-55080000D01*
X43895016Y-55080000D01*
X43878352Y-55079181D01*
X43861848Y-55076733D01*
X43845663Y-55072679D01*
X43829954Y-55067058D01*
X43814871Y-55059925D01*
X43800560Y-55051347D01*
X43787159Y-55041408D01*
X43774797Y-55030203D01*
X43763592Y-55017841D01*
X43753653Y-55004440D01*
X43745075Y-54990129D01*
X43737942Y-54975046D01*
X43732321Y-54959337D01*
X43728267Y-54943152D01*
X43725819Y-54926648D01*
X43725000Y-54909984D01*
X43725000Y-54590016D01*
X43725819Y-54573352D01*
X43728267Y-54556848D01*
X43732321Y-54540663D01*
X43737942Y-54524954D01*
X43745075Y-54509871D01*
X43753653Y-54495560D01*
X43763592Y-54482159D01*
X43774797Y-54469797D01*
X43787159Y-54458592D01*
X43800560Y-54448653D01*
X43814871Y-54440075D01*
X43829954Y-54432942D01*
X43845663Y-54427321D01*
X43861848Y-54423267D01*
X43878352Y-54420819D01*
X43895016Y-54420000D01*
X44614984Y-54420000D01*
X44631648Y-54420819D01*
G37*
G04 #@! TD.AperFunction*
G04 #@! TA.AperFunction,SMDPad,CuDef*
G36*
X44631648Y-56320819D02*
G01*
X44648152Y-56323267D01*
X44664337Y-56327321D01*
X44680046Y-56332942D01*
X44695129Y-56340075D01*
X44709440Y-56348653D01*
X44722841Y-56358592D01*
X44735203Y-56369797D01*
X44746408Y-56382159D01*
X44756347Y-56395560D01*
X44764925Y-56409871D01*
X44772058Y-56424954D01*
X44777679Y-56440663D01*
X44781733Y-56456848D01*
X44784181Y-56473352D01*
X44785000Y-56490016D01*
X44785000Y-56809984D01*
X44784181Y-56826648D01*
X44781733Y-56843152D01*
X44777679Y-56859337D01*
X44772058Y-56875046D01*
X44764925Y-56890129D01*
X44756347Y-56904440D01*
X44746408Y-56917841D01*
X44735203Y-56930203D01*
X44722841Y-56941408D01*
X44709440Y-56951347D01*
X44695129Y-56959925D01*
X44680046Y-56967058D01*
X44664337Y-56972679D01*
X44648152Y-56976733D01*
X44631648Y-56979181D01*
X44614984Y-56980000D01*
X43895016Y-56980000D01*
X43878352Y-56979181D01*
X43861848Y-56976733D01*
X43845663Y-56972679D01*
X43829954Y-56967058D01*
X43814871Y-56959925D01*
X43800560Y-56951347D01*
X43787159Y-56941408D01*
X43774797Y-56930203D01*
X43763592Y-56917841D01*
X43753653Y-56904440D01*
X43745075Y-56890129D01*
X43737942Y-56875046D01*
X43732321Y-56859337D01*
X43728267Y-56843152D01*
X43725819Y-56826648D01*
X43725000Y-56809984D01*
X43725000Y-56490016D01*
X43725819Y-56473352D01*
X43728267Y-56456848D01*
X43732321Y-56440663D01*
X43737942Y-56424954D01*
X43745075Y-56409871D01*
X43753653Y-56395560D01*
X43763592Y-56382159D01*
X43774797Y-56369797D01*
X43787159Y-56358592D01*
X43800560Y-56348653D01*
X43814871Y-56340075D01*
X43829954Y-56332942D01*
X43845663Y-56327321D01*
X43861848Y-56323267D01*
X43878352Y-56320819D01*
X43895016Y-56320000D01*
X44614984Y-56320000D01*
X44631648Y-56320819D01*
G37*
G04 #@! TD.AperFunction*
D13*
X77000000Y-65400000D03*
X42250000Y-61000000D03*
X42250000Y-59000000D03*
G04 #@! TA.AperFunction,SMDPad,CuDef*
D12*
G36*
X49745552Y-64016011D02*
G01*
X49765941Y-64019036D01*
X49785935Y-64024044D01*
X49805342Y-64030988D01*
X49823975Y-64039801D01*
X49841654Y-64050397D01*
X49858210Y-64062676D01*
X49873482Y-64076518D01*
X49887324Y-64091790D01*
X49899603Y-64108346D01*
X49910199Y-64126025D01*
X49919012Y-64144658D01*
X49925956Y-64164065D01*
X49930964Y-64184059D01*
X49933989Y-64204448D01*
X49935000Y-64225035D01*
X49935000Y-64774965D01*
X49933989Y-64795552D01*
X49930964Y-64815941D01*
X49925956Y-64835935D01*
X49919012Y-64855342D01*
X49910199Y-64873975D01*
X49899603Y-64891654D01*
X49887324Y-64908210D01*
X49873482Y-64923482D01*
X49858210Y-64937324D01*
X49841654Y-64949603D01*
X49823975Y-64960199D01*
X49805342Y-64969012D01*
X49785935Y-64975956D01*
X49765941Y-64980964D01*
X49745552Y-64983989D01*
X49724965Y-64985000D01*
X49295035Y-64985000D01*
X49274448Y-64983989D01*
X49254059Y-64980964D01*
X49234065Y-64975956D01*
X49214658Y-64969012D01*
X49196025Y-64960199D01*
X49178346Y-64949603D01*
X49161790Y-64937324D01*
X49146518Y-64923482D01*
X49132676Y-64908210D01*
X49120397Y-64891654D01*
X49109801Y-64873975D01*
X49100988Y-64855342D01*
X49094044Y-64835935D01*
X49089036Y-64815941D01*
X49086011Y-64795552D01*
X49085000Y-64774965D01*
X49085000Y-64225035D01*
X49086011Y-64204448D01*
X49089036Y-64184059D01*
X49094044Y-64164065D01*
X49100988Y-64144658D01*
X49109801Y-64126025D01*
X49120397Y-64108346D01*
X49132676Y-64091790D01*
X49146518Y-64076518D01*
X49161790Y-64062676D01*
X49178346Y-64050397D01*
X49196025Y-64039801D01*
X49214658Y-64030988D01*
X49234065Y-64024044D01*
X49254059Y-64019036D01*
X49274448Y-64016011D01*
X49295035Y-64015000D01*
X49724965Y-64015000D01*
X49745552Y-64016011D01*
G37*
G04 #@! TD.AperFunction*
G04 #@! TA.AperFunction,SMDPad,CuDef*
G36*
X48225552Y-64016011D02*
G01*
X48245941Y-64019036D01*
X48265935Y-64024044D01*
X48285342Y-64030988D01*
X48303975Y-64039801D01*
X48321654Y-64050397D01*
X48338210Y-64062676D01*
X48353482Y-64076518D01*
X48367324Y-64091790D01*
X48379603Y-64108346D01*
X48390199Y-64126025D01*
X48399012Y-64144658D01*
X48405956Y-64164065D01*
X48410964Y-64184059D01*
X48413989Y-64204448D01*
X48415000Y-64225035D01*
X48415000Y-64774965D01*
X48413989Y-64795552D01*
X48410964Y-64815941D01*
X48405956Y-64835935D01*
X48399012Y-64855342D01*
X48390199Y-64873975D01*
X48379603Y-64891654D01*
X48367324Y-64908210D01*
X48353482Y-64923482D01*
X48338210Y-64937324D01*
X48321654Y-64949603D01*
X48303975Y-64960199D01*
X48285342Y-64969012D01*
X48265935Y-64975956D01*
X48245941Y-64980964D01*
X48225552Y-64983989D01*
X48204965Y-64985000D01*
X47775035Y-64985000D01*
X47754448Y-64983989D01*
X47734059Y-64980964D01*
X47714065Y-64975956D01*
X47694658Y-64969012D01*
X47676025Y-64960199D01*
X47658346Y-64949603D01*
X47641790Y-64937324D01*
X47626518Y-64923482D01*
X47612676Y-64908210D01*
X47600397Y-64891654D01*
X47589801Y-64873975D01*
X47580988Y-64855342D01*
X47574044Y-64835935D01*
X47569036Y-64815941D01*
X47566011Y-64795552D01*
X47565000Y-64774965D01*
X47565000Y-64225035D01*
X47566011Y-64204448D01*
X47569036Y-64184059D01*
X47574044Y-64164065D01*
X47580988Y-64144658D01*
X47589801Y-64126025D01*
X47600397Y-64108346D01*
X47612676Y-64091790D01*
X47626518Y-64076518D01*
X47641790Y-64062676D01*
X47658346Y-64050397D01*
X47676025Y-64039801D01*
X47694658Y-64030988D01*
X47714065Y-64024044D01*
X47734059Y-64019036D01*
X47754448Y-64016011D01*
X47775035Y-64015000D01*
X48204965Y-64015000D01*
X48225552Y-64016011D01*
G37*
G04 #@! TD.AperFunction*
G04 #@! TA.AperFunction,SMDPad,CuDef*
G36*
X45995552Y-62016011D02*
G01*
X46015941Y-62019036D01*
X46035935Y-62024044D01*
X46055342Y-62030988D01*
X46073975Y-62039801D01*
X46091654Y-62050397D01*
X46108210Y-62062676D01*
X46123482Y-62076518D01*
X46137324Y-62091790D01*
X46149603Y-62108346D01*
X46160199Y-62126025D01*
X46169012Y-62144658D01*
X46175956Y-62164065D01*
X46180964Y-62184059D01*
X46183989Y-62204448D01*
X46185000Y-62225035D01*
X46185000Y-62774965D01*
X46183989Y-62795552D01*
X46180964Y-62815941D01*
X46175956Y-62835935D01*
X46169012Y-62855342D01*
X46160199Y-62873975D01*
X46149603Y-62891654D01*
X46137324Y-62908210D01*
X46123482Y-62923482D01*
X46108210Y-62937324D01*
X46091654Y-62949603D01*
X46073975Y-62960199D01*
X46055342Y-62969012D01*
X46035935Y-62975956D01*
X46015941Y-62980964D01*
X45995552Y-62983989D01*
X45974965Y-62985000D01*
X45545035Y-62985000D01*
X45524448Y-62983989D01*
X45504059Y-62980964D01*
X45484065Y-62975956D01*
X45464658Y-62969012D01*
X45446025Y-62960199D01*
X45428346Y-62949603D01*
X45411790Y-62937324D01*
X45396518Y-62923482D01*
X45382676Y-62908210D01*
X45370397Y-62891654D01*
X45359801Y-62873975D01*
X45350988Y-62855342D01*
X45344044Y-62835935D01*
X45339036Y-62815941D01*
X45336011Y-62795552D01*
X45335000Y-62774965D01*
X45335000Y-62225035D01*
X45336011Y-62204448D01*
X45339036Y-62184059D01*
X45344044Y-62164065D01*
X45350988Y-62144658D01*
X45359801Y-62126025D01*
X45370397Y-62108346D01*
X45382676Y-62091790D01*
X45396518Y-62076518D01*
X45411790Y-62062676D01*
X45428346Y-62050397D01*
X45446025Y-62039801D01*
X45464658Y-62030988D01*
X45484065Y-62024044D01*
X45504059Y-62019036D01*
X45524448Y-62016011D01*
X45545035Y-62015000D01*
X45974965Y-62015000D01*
X45995552Y-62016011D01*
G37*
G04 #@! TD.AperFunction*
G04 #@! TA.AperFunction,SMDPad,CuDef*
G36*
X44475552Y-62016011D02*
G01*
X44495941Y-62019036D01*
X44515935Y-62024044D01*
X44535342Y-62030988D01*
X44553975Y-62039801D01*
X44571654Y-62050397D01*
X44588210Y-62062676D01*
X44603482Y-62076518D01*
X44617324Y-62091790D01*
X44629603Y-62108346D01*
X44640199Y-62126025D01*
X44649012Y-62144658D01*
X44655956Y-62164065D01*
X44660964Y-62184059D01*
X44663989Y-62204448D01*
X44665000Y-62225035D01*
X44665000Y-62774965D01*
X44663989Y-62795552D01*
X44660964Y-62815941D01*
X44655956Y-62835935D01*
X44649012Y-62855342D01*
X44640199Y-62873975D01*
X44629603Y-62891654D01*
X44617324Y-62908210D01*
X44603482Y-62923482D01*
X44588210Y-62937324D01*
X44571654Y-62949603D01*
X44553975Y-62960199D01*
X44535342Y-62969012D01*
X44515935Y-62975956D01*
X44495941Y-62980964D01*
X44475552Y-62983989D01*
X44454965Y-62985000D01*
X44025035Y-62985000D01*
X44004448Y-62983989D01*
X43984059Y-62980964D01*
X43964065Y-62975956D01*
X43944658Y-62969012D01*
X43926025Y-62960199D01*
X43908346Y-62949603D01*
X43891790Y-62937324D01*
X43876518Y-62923482D01*
X43862676Y-62908210D01*
X43850397Y-62891654D01*
X43839801Y-62873975D01*
X43830988Y-62855342D01*
X43824044Y-62835935D01*
X43819036Y-62815941D01*
X43816011Y-62795552D01*
X43815000Y-62774965D01*
X43815000Y-62225035D01*
X43816011Y-62204448D01*
X43819036Y-62184059D01*
X43824044Y-62164065D01*
X43830988Y-62144658D01*
X43839801Y-62126025D01*
X43850397Y-62108346D01*
X43862676Y-62091790D01*
X43876518Y-62076518D01*
X43891790Y-62062676D01*
X43908346Y-62050397D01*
X43926025Y-62039801D01*
X43944658Y-62030988D01*
X43964065Y-62024044D01*
X43984059Y-62019036D01*
X44004448Y-62016011D01*
X44025035Y-62015000D01*
X44454965Y-62015000D01*
X44475552Y-62016011D01*
G37*
G04 #@! TD.AperFunction*
G04 #@! TA.AperFunction,SMDPad,CuDef*
G36*
X49745552Y-54266011D02*
G01*
X49765941Y-54269036D01*
X49785935Y-54274044D01*
X49805342Y-54280988D01*
X49823975Y-54289801D01*
X49841654Y-54300397D01*
X49858210Y-54312676D01*
X49873482Y-54326518D01*
X49887324Y-54341790D01*
X49899603Y-54358346D01*
X49910199Y-54376025D01*
X49919012Y-54394658D01*
X49925956Y-54414065D01*
X49930964Y-54434059D01*
X49933989Y-54454448D01*
X49935000Y-54475035D01*
X49935000Y-55024965D01*
X49933989Y-55045552D01*
X49930964Y-55065941D01*
X49925956Y-55085935D01*
X49919012Y-55105342D01*
X49910199Y-55123975D01*
X49899603Y-55141654D01*
X49887324Y-55158210D01*
X49873482Y-55173482D01*
X49858210Y-55187324D01*
X49841654Y-55199603D01*
X49823975Y-55210199D01*
X49805342Y-55219012D01*
X49785935Y-55225956D01*
X49765941Y-55230964D01*
X49745552Y-55233989D01*
X49724965Y-55235000D01*
X49295035Y-55235000D01*
X49274448Y-55233989D01*
X49254059Y-55230964D01*
X49234065Y-55225956D01*
X49214658Y-55219012D01*
X49196025Y-55210199D01*
X49178346Y-55199603D01*
X49161790Y-55187324D01*
X49146518Y-55173482D01*
X49132676Y-55158210D01*
X49120397Y-55141654D01*
X49109801Y-55123975D01*
X49100988Y-55105342D01*
X49094044Y-55085935D01*
X49089036Y-55065941D01*
X49086011Y-55045552D01*
X49085000Y-55024965D01*
X49085000Y-54475035D01*
X49086011Y-54454448D01*
X49089036Y-54434059D01*
X49094044Y-54414065D01*
X49100988Y-54394658D01*
X49109801Y-54376025D01*
X49120397Y-54358346D01*
X49132676Y-54341790D01*
X49146518Y-54326518D01*
X49161790Y-54312676D01*
X49178346Y-54300397D01*
X49196025Y-54289801D01*
X49214658Y-54280988D01*
X49234065Y-54274044D01*
X49254059Y-54269036D01*
X49274448Y-54266011D01*
X49295035Y-54265000D01*
X49724965Y-54265000D01*
X49745552Y-54266011D01*
G37*
G04 #@! TD.AperFunction*
G04 #@! TA.AperFunction,SMDPad,CuDef*
G36*
X48225552Y-54266011D02*
G01*
X48245941Y-54269036D01*
X48265935Y-54274044D01*
X48285342Y-54280988D01*
X48303975Y-54289801D01*
X48321654Y-54300397D01*
X48338210Y-54312676D01*
X48353482Y-54326518D01*
X48367324Y-54341790D01*
X48379603Y-54358346D01*
X48390199Y-54376025D01*
X48399012Y-54394658D01*
X48405956Y-54414065D01*
X48410964Y-54434059D01*
X48413989Y-54454448D01*
X48415000Y-54475035D01*
X48415000Y-55024965D01*
X48413989Y-55045552D01*
X48410964Y-55065941D01*
X48405956Y-55085935D01*
X48399012Y-55105342D01*
X48390199Y-55123975D01*
X48379603Y-55141654D01*
X48367324Y-55158210D01*
X48353482Y-55173482D01*
X48338210Y-55187324D01*
X48321654Y-55199603D01*
X48303975Y-55210199D01*
X48285342Y-55219012D01*
X48265935Y-55225956D01*
X48245941Y-55230964D01*
X48225552Y-55233989D01*
X48204965Y-55235000D01*
X47775035Y-55235000D01*
X47754448Y-55233989D01*
X47734059Y-55230964D01*
X47714065Y-55225956D01*
X47694658Y-55219012D01*
X47676025Y-55210199D01*
X47658346Y-55199603D01*
X47641790Y-55187324D01*
X47626518Y-55173482D01*
X47612676Y-55158210D01*
X47600397Y-55141654D01*
X47589801Y-55123975D01*
X47580988Y-55105342D01*
X47574044Y-55085935D01*
X47569036Y-55065941D01*
X47566011Y-55045552D01*
X47565000Y-55024965D01*
X47565000Y-54475035D01*
X47566011Y-54454448D01*
X47569036Y-54434059D01*
X47574044Y-54414065D01*
X47580988Y-54394658D01*
X47589801Y-54376025D01*
X47600397Y-54358346D01*
X47612676Y-54341790D01*
X47626518Y-54326518D01*
X47641790Y-54312676D01*
X47658346Y-54300397D01*
X47676025Y-54289801D01*
X47694658Y-54280988D01*
X47714065Y-54274044D01*
X47734059Y-54269036D01*
X47754448Y-54266011D01*
X47775035Y-54265000D01*
X48204965Y-54265000D01*
X48225552Y-54266011D01*
G37*
G04 #@! TD.AperFunction*
G04 #@! TA.AperFunction,SMDPad,CuDef*
G36*
X46005552Y-58516011D02*
G01*
X46025941Y-58519036D01*
X46045935Y-58524044D01*
X46065342Y-58530988D01*
X46083975Y-58539801D01*
X46101654Y-58550397D01*
X46118210Y-58562676D01*
X46133482Y-58576518D01*
X46147324Y-58591790D01*
X46159603Y-58608346D01*
X46170199Y-58626025D01*
X46179012Y-58644658D01*
X46185956Y-58664065D01*
X46190964Y-58684059D01*
X46193989Y-58704448D01*
X46195000Y-58725035D01*
X46195000Y-59274965D01*
X46193989Y-59295552D01*
X46190964Y-59315941D01*
X46185956Y-59335935D01*
X46179012Y-59355342D01*
X46170199Y-59373975D01*
X46159603Y-59391654D01*
X46147324Y-59408210D01*
X46133482Y-59423482D01*
X46118210Y-59437324D01*
X46101654Y-59449603D01*
X46083975Y-59460199D01*
X46065342Y-59469012D01*
X46045935Y-59475956D01*
X46025941Y-59480964D01*
X46005552Y-59483989D01*
X45984965Y-59485000D01*
X45555035Y-59485000D01*
X45534448Y-59483989D01*
X45514059Y-59480964D01*
X45494065Y-59475956D01*
X45474658Y-59469012D01*
X45456025Y-59460199D01*
X45438346Y-59449603D01*
X45421790Y-59437324D01*
X45406518Y-59423482D01*
X45392676Y-59408210D01*
X45380397Y-59391654D01*
X45369801Y-59373975D01*
X45360988Y-59355342D01*
X45354044Y-59335935D01*
X45349036Y-59315941D01*
X45346011Y-59295552D01*
X45345000Y-59274965D01*
X45345000Y-58725035D01*
X45346011Y-58704448D01*
X45349036Y-58684059D01*
X45354044Y-58664065D01*
X45360988Y-58644658D01*
X45369801Y-58626025D01*
X45380397Y-58608346D01*
X45392676Y-58591790D01*
X45406518Y-58576518D01*
X45421790Y-58562676D01*
X45438346Y-58550397D01*
X45456025Y-58539801D01*
X45474658Y-58530988D01*
X45494065Y-58524044D01*
X45514059Y-58519036D01*
X45534448Y-58516011D01*
X45555035Y-58515000D01*
X45984965Y-58515000D01*
X46005552Y-58516011D01*
G37*
G04 #@! TD.AperFunction*
G04 #@! TA.AperFunction,SMDPad,CuDef*
G36*
X44485552Y-58516011D02*
G01*
X44505941Y-58519036D01*
X44525935Y-58524044D01*
X44545342Y-58530988D01*
X44563975Y-58539801D01*
X44581654Y-58550397D01*
X44598210Y-58562676D01*
X44613482Y-58576518D01*
X44627324Y-58591790D01*
X44639603Y-58608346D01*
X44650199Y-58626025D01*
X44659012Y-58644658D01*
X44665956Y-58664065D01*
X44670964Y-58684059D01*
X44673989Y-58704448D01*
X44675000Y-58725035D01*
X44675000Y-59274965D01*
X44673989Y-59295552D01*
X44670964Y-59315941D01*
X44665956Y-59335935D01*
X44659012Y-59355342D01*
X44650199Y-59373975D01*
X44639603Y-59391654D01*
X44627324Y-59408210D01*
X44613482Y-59423482D01*
X44598210Y-59437324D01*
X44581654Y-59449603D01*
X44563975Y-59460199D01*
X44545342Y-59469012D01*
X44525935Y-59475956D01*
X44505941Y-59480964D01*
X44485552Y-59483989D01*
X44464965Y-59485000D01*
X44035035Y-59485000D01*
X44014448Y-59483989D01*
X43994059Y-59480964D01*
X43974065Y-59475956D01*
X43954658Y-59469012D01*
X43936025Y-59460199D01*
X43918346Y-59449603D01*
X43901790Y-59437324D01*
X43886518Y-59423482D01*
X43872676Y-59408210D01*
X43860397Y-59391654D01*
X43849801Y-59373975D01*
X43840988Y-59355342D01*
X43834044Y-59335935D01*
X43829036Y-59315941D01*
X43826011Y-59295552D01*
X43825000Y-59274965D01*
X43825000Y-58725035D01*
X43826011Y-58704448D01*
X43829036Y-58684059D01*
X43834044Y-58664065D01*
X43840988Y-58644658D01*
X43849801Y-58626025D01*
X43860397Y-58608346D01*
X43872676Y-58591790D01*
X43886518Y-58576518D01*
X43901790Y-58562676D01*
X43918346Y-58550397D01*
X43936025Y-58539801D01*
X43954658Y-58530988D01*
X43974065Y-58524044D01*
X43994059Y-58519036D01*
X44014448Y-58516011D01*
X44035035Y-58515000D01*
X44464965Y-58515000D01*
X44485552Y-58516011D01*
G37*
G04 #@! TD.AperFunction*
G04 #@! TA.AperFunction,SMDPad,CuDef*
G36*
X57409551Y-63846204D02*
G01*
X57433814Y-63849803D01*
X57457608Y-63855763D01*
X57480703Y-63864026D01*
X57502877Y-63874514D01*
X57523916Y-63887124D01*
X57543617Y-63901736D01*
X57561792Y-63918208D01*
X57578264Y-63936383D01*
X57592876Y-63956084D01*
X57605486Y-63977123D01*
X57615974Y-63999297D01*
X57624237Y-64022392D01*
X57630197Y-64046186D01*
X57633796Y-64070449D01*
X57635000Y-64094948D01*
X57635000Y-64905052D01*
X57633796Y-64929551D01*
X57630197Y-64953814D01*
X57624237Y-64977608D01*
X57615974Y-65000703D01*
X57605486Y-65022877D01*
X57592876Y-65043916D01*
X57578264Y-65063617D01*
X57561792Y-65081792D01*
X57543617Y-65098264D01*
X57523916Y-65112876D01*
X57502877Y-65125486D01*
X57480703Y-65135974D01*
X57457608Y-65144237D01*
X57433814Y-65150197D01*
X57409551Y-65153796D01*
X57385052Y-65155000D01*
X54614948Y-65155000D01*
X54590449Y-65153796D01*
X54566186Y-65150197D01*
X54542392Y-65144237D01*
X54519297Y-65135974D01*
X54497123Y-65125486D01*
X54476084Y-65112876D01*
X54456383Y-65098264D01*
X54438208Y-65081792D01*
X54421736Y-65063617D01*
X54407124Y-65043916D01*
X54394514Y-65022877D01*
X54384026Y-65000703D01*
X54375763Y-64977608D01*
X54369803Y-64953814D01*
X54366204Y-64929551D01*
X54365000Y-64905052D01*
X54365000Y-64094948D01*
X54366204Y-64070449D01*
X54369803Y-64046186D01*
X54375763Y-64022392D01*
X54384026Y-63999297D01*
X54394514Y-63977123D01*
X54407124Y-63956084D01*
X54421736Y-63936383D01*
X54438208Y-63918208D01*
X54456383Y-63901736D01*
X54476084Y-63887124D01*
X54497123Y-63874514D01*
X54519297Y-63864026D01*
X54542392Y-63855763D01*
X54566186Y-63849803D01*
X54590449Y-63846204D01*
X54614948Y-63845000D01*
X57385052Y-63845000D01*
X57409551Y-63846204D01*
G37*
G04 #@! TD.AperFunction*
G04 #@! TA.AperFunction,SMDPad,CuDef*
G36*
X57409315Y-68418205D02*
G01*
X57433604Y-68421808D01*
X57457422Y-68427774D01*
X57480541Y-68436046D01*
X57502738Y-68446544D01*
X57523799Y-68459168D01*
X57543522Y-68473795D01*
X57561715Y-68490285D01*
X57578205Y-68508478D01*
X57592832Y-68528201D01*
X57605456Y-68549262D01*
X57615954Y-68571459D01*
X57624226Y-68594578D01*
X57630192Y-68618396D01*
X57633795Y-68642685D01*
X57635000Y-68667210D01*
X57635000Y-69476790D01*
X57633795Y-69501315D01*
X57630192Y-69525604D01*
X57624226Y-69549422D01*
X57615954Y-69572541D01*
X57605456Y-69594738D01*
X57592832Y-69615799D01*
X57578205Y-69635522D01*
X57561715Y-69653715D01*
X57543522Y-69670205D01*
X57523799Y-69684832D01*
X57502738Y-69697456D01*
X57480541Y-69707954D01*
X57457422Y-69716226D01*
X57433604Y-69722192D01*
X57409315Y-69725795D01*
X57384790Y-69727000D01*
X54615210Y-69727000D01*
X54590685Y-69725795D01*
X54566396Y-69722192D01*
X54542578Y-69716226D01*
X54519459Y-69707954D01*
X54497262Y-69697456D01*
X54476201Y-69684832D01*
X54456478Y-69670205D01*
X54438285Y-69653715D01*
X54421795Y-69635522D01*
X54407168Y-69615799D01*
X54394544Y-69594738D01*
X54384046Y-69572541D01*
X54375774Y-69549422D01*
X54369808Y-69525604D01*
X54366205Y-69501315D01*
X54365000Y-69476790D01*
X54365000Y-68667210D01*
X54366205Y-68642685D01*
X54369808Y-68618396D01*
X54375774Y-68594578D01*
X54384046Y-68571459D01*
X54394544Y-68549262D01*
X54407168Y-68528201D01*
X54421795Y-68508478D01*
X54438285Y-68490285D01*
X54456478Y-68473795D01*
X54476201Y-68459168D01*
X54497262Y-68446544D01*
X54519459Y-68436046D01*
X54542578Y-68427774D01*
X54566396Y-68421808D01*
X54590685Y-68418205D01*
X54615210Y-68417000D01*
X57384790Y-68417000D01*
X57409315Y-68418205D01*
G37*
G04 #@! TD.AperFunction*
G04 #@! TA.AperFunction,Conductor*
G36*
X65445036Y-64242201D02*
G01*
X65469247Y-64245792D01*
X65492990Y-64251740D01*
X65516035Y-64259985D01*
X65538161Y-64270450D01*
X65559155Y-64283033D01*
X65578814Y-64297613D01*
X65596950Y-64314050D01*
X65613387Y-64332186D01*
X65627967Y-64351845D01*
X65640550Y-64372839D01*
X65651015Y-64394965D01*
X65659260Y-64418010D01*
X65665208Y-64441753D01*
X65668799Y-64465964D01*
X65670000Y-64490410D01*
X65670000Y-69081590D01*
X65668799Y-69106036D01*
X65665208Y-69130247D01*
X65659260Y-69153990D01*
X65651015Y-69177035D01*
X65640550Y-69199161D01*
X65627967Y-69220155D01*
X65613387Y-69239814D01*
X65596950Y-69257950D01*
X65578814Y-69274387D01*
X65559155Y-69288967D01*
X65538161Y-69301550D01*
X65516035Y-69312015D01*
X65492990Y-69320260D01*
X65469247Y-69326208D01*
X65445036Y-69329799D01*
X65420590Y-69331000D01*
X59599410Y-69331000D01*
X59574964Y-69329799D01*
X59550753Y-69326208D01*
X59527010Y-69320260D01*
X59503965Y-69312015D01*
X59481839Y-69301550D01*
X59460845Y-69288967D01*
X59441186Y-69274387D01*
X59423050Y-69257950D01*
X59406613Y-69239814D01*
X59392033Y-69220155D01*
X59379450Y-69199161D01*
X59368985Y-69177035D01*
X59360740Y-69153990D01*
X59354792Y-69130247D01*
X59351201Y-69106036D01*
X59350000Y-69081590D01*
X59350000Y-64490410D01*
X59351201Y-64465964D01*
X59354792Y-64441753D01*
X59360740Y-64418010D01*
X59368985Y-64394965D01*
X59379450Y-64372839D01*
X59392033Y-64351845D01*
X59406613Y-64332186D01*
X59423050Y-64314050D01*
X59441186Y-64297613D01*
X59460845Y-64283033D01*
X59481839Y-64270450D01*
X59503965Y-64259985D01*
X59527010Y-64251740D01*
X59550753Y-64245792D01*
X59574964Y-64242201D01*
X59599410Y-64241000D01*
X65420590Y-64241000D01*
X65445036Y-64242201D01*
G37*
G04 #@! TD.AperFunction*
D14*
X65070000Y-66786000D03*
X62570000Y-66786000D03*
X61320000Y-66786000D03*
X60070000Y-66786000D03*
X63820000Y-66786000D03*
G04 #@! TA.AperFunction,SMDPad,CuDef*
D12*
G36*
X57409551Y-54096204D02*
G01*
X57433814Y-54099803D01*
X57457608Y-54105763D01*
X57480703Y-54114026D01*
X57502877Y-54124514D01*
X57523916Y-54137124D01*
X57543617Y-54151736D01*
X57561792Y-54168208D01*
X57578264Y-54186383D01*
X57592876Y-54206084D01*
X57605486Y-54227123D01*
X57615974Y-54249297D01*
X57624237Y-54272392D01*
X57630197Y-54296186D01*
X57633796Y-54320449D01*
X57635000Y-54344948D01*
X57635000Y-55155052D01*
X57633796Y-55179551D01*
X57630197Y-55203814D01*
X57624237Y-55227608D01*
X57615974Y-55250703D01*
X57605486Y-55272877D01*
X57592876Y-55293916D01*
X57578264Y-55313617D01*
X57561792Y-55331792D01*
X57543617Y-55348264D01*
X57523916Y-55362876D01*
X57502877Y-55375486D01*
X57480703Y-55385974D01*
X57457608Y-55394237D01*
X57433814Y-55400197D01*
X57409551Y-55403796D01*
X57385052Y-55405000D01*
X54614948Y-55405000D01*
X54590449Y-55403796D01*
X54566186Y-55400197D01*
X54542392Y-55394237D01*
X54519297Y-55385974D01*
X54497123Y-55375486D01*
X54476084Y-55362876D01*
X54456383Y-55348264D01*
X54438208Y-55331792D01*
X54421736Y-55313617D01*
X54407124Y-55293916D01*
X54394514Y-55272877D01*
X54384026Y-55250703D01*
X54375763Y-55227608D01*
X54369803Y-55203814D01*
X54366204Y-55179551D01*
X54365000Y-55155052D01*
X54365000Y-54344948D01*
X54366204Y-54320449D01*
X54369803Y-54296186D01*
X54375763Y-54272392D01*
X54384026Y-54249297D01*
X54394514Y-54227123D01*
X54407124Y-54206084D01*
X54421736Y-54186383D01*
X54438208Y-54168208D01*
X54456383Y-54151736D01*
X54476084Y-54137124D01*
X54497123Y-54124514D01*
X54519297Y-54114026D01*
X54542392Y-54105763D01*
X54566186Y-54099803D01*
X54590449Y-54096204D01*
X54614948Y-54095000D01*
X57385052Y-54095000D01*
X57409551Y-54096204D01*
G37*
G04 #@! TD.AperFunction*
G04 #@! TA.AperFunction,SMDPad,CuDef*
G36*
X57409315Y-58668205D02*
G01*
X57433604Y-58671808D01*
X57457422Y-58677774D01*
X57480541Y-58686046D01*
X57502738Y-58696544D01*
X57523799Y-58709168D01*
X57543522Y-58723795D01*
X57561715Y-58740285D01*
X57578205Y-58758478D01*
X57592832Y-58778201D01*
X57605456Y-58799262D01*
X57615954Y-58821459D01*
X57624226Y-58844578D01*
X57630192Y-58868396D01*
X57633795Y-58892685D01*
X57635000Y-58917210D01*
X57635000Y-59726790D01*
X57633795Y-59751315D01*
X57630192Y-59775604D01*
X57624226Y-59799422D01*
X57615954Y-59822541D01*
X57605456Y-59844738D01*
X57592832Y-59865799D01*
X57578205Y-59885522D01*
X57561715Y-59903715D01*
X57543522Y-59920205D01*
X57523799Y-59934832D01*
X57502738Y-59947456D01*
X57480541Y-59957954D01*
X57457422Y-59966226D01*
X57433604Y-59972192D01*
X57409315Y-59975795D01*
X57384790Y-59977000D01*
X54615210Y-59977000D01*
X54590685Y-59975795D01*
X54566396Y-59972192D01*
X54542578Y-59966226D01*
X54519459Y-59957954D01*
X54497262Y-59947456D01*
X54476201Y-59934832D01*
X54456478Y-59920205D01*
X54438285Y-59903715D01*
X54421795Y-59885522D01*
X54407168Y-59865799D01*
X54394544Y-59844738D01*
X54384046Y-59822541D01*
X54375774Y-59799422D01*
X54369808Y-59775604D01*
X54366205Y-59751315D01*
X54365000Y-59726790D01*
X54365000Y-58917210D01*
X54366205Y-58892685D01*
X54369808Y-58868396D01*
X54375774Y-58844578D01*
X54384046Y-58821459D01*
X54394544Y-58799262D01*
X54407168Y-58778201D01*
X54421795Y-58758478D01*
X54438285Y-58740285D01*
X54456478Y-58723795D01*
X54476201Y-58709168D01*
X54497262Y-58696544D01*
X54519459Y-58686046D01*
X54542578Y-58677774D01*
X54566396Y-58671808D01*
X54590685Y-58668205D01*
X54615210Y-58667000D01*
X57384790Y-58667000D01*
X57409315Y-58668205D01*
G37*
G04 #@! TD.AperFunction*
G04 #@! TA.AperFunction,Conductor*
G36*
X65445036Y-54492201D02*
G01*
X65469247Y-54495792D01*
X65492990Y-54501740D01*
X65516035Y-54509985D01*
X65538161Y-54520450D01*
X65559155Y-54533033D01*
X65578814Y-54547613D01*
X65596950Y-54564050D01*
X65613387Y-54582186D01*
X65627967Y-54601845D01*
X65640550Y-54622839D01*
X65651015Y-54644965D01*
X65659260Y-54668010D01*
X65665208Y-54691753D01*
X65668799Y-54715964D01*
X65670000Y-54740410D01*
X65670000Y-59331590D01*
X65668799Y-59356036D01*
X65665208Y-59380247D01*
X65659260Y-59403990D01*
X65651015Y-59427035D01*
X65640550Y-59449161D01*
X65627967Y-59470155D01*
X65613387Y-59489814D01*
X65596950Y-59507950D01*
X65578814Y-59524387D01*
X65559155Y-59538967D01*
X65538161Y-59551550D01*
X65516035Y-59562015D01*
X65492990Y-59570260D01*
X65469247Y-59576208D01*
X65445036Y-59579799D01*
X65420590Y-59581000D01*
X59599410Y-59581000D01*
X59574964Y-59579799D01*
X59550753Y-59576208D01*
X59527010Y-59570260D01*
X59503965Y-59562015D01*
X59481839Y-59551550D01*
X59460845Y-59538967D01*
X59441186Y-59524387D01*
X59423050Y-59507950D01*
X59406613Y-59489814D01*
X59392033Y-59470155D01*
X59379450Y-59449161D01*
X59368985Y-59427035D01*
X59360740Y-59403990D01*
X59354792Y-59380247D01*
X59351201Y-59356036D01*
X59350000Y-59331590D01*
X59350000Y-54740410D01*
X59351201Y-54715964D01*
X59354792Y-54691753D01*
X59360740Y-54668010D01*
X59368985Y-54644965D01*
X59379450Y-54622839D01*
X59392033Y-54601845D01*
X59406613Y-54582186D01*
X59423050Y-54564050D01*
X59441186Y-54547613D01*
X59460845Y-54533033D01*
X59481839Y-54520450D01*
X59503965Y-54509985D01*
X59527010Y-54501740D01*
X59550753Y-54495792D01*
X59574964Y-54492201D01*
X59599410Y-54491000D01*
X65420590Y-54491000D01*
X65445036Y-54492201D01*
G37*
G04 #@! TD.AperFunction*
D14*
X65070000Y-57036000D03*
X62570000Y-57036000D03*
X61320000Y-57036000D03*
X60070000Y-57036000D03*
X63820000Y-57036000D03*
G04 #@! TA.AperFunction,SMDPad,CuDef*
D12*
G36*
X36725552Y-50016011D02*
G01*
X36745941Y-50019036D01*
X36765935Y-50024044D01*
X36785342Y-50030988D01*
X36803975Y-50039801D01*
X36821654Y-50050397D01*
X36838210Y-50062676D01*
X36853482Y-50076518D01*
X36867324Y-50091790D01*
X36879603Y-50108346D01*
X36890199Y-50126025D01*
X36899012Y-50144658D01*
X36905956Y-50164065D01*
X36910964Y-50184059D01*
X36913989Y-50204448D01*
X36915000Y-50225035D01*
X36915000Y-50774965D01*
X36913989Y-50795552D01*
X36910964Y-50815941D01*
X36905956Y-50835935D01*
X36899012Y-50855342D01*
X36890199Y-50873975D01*
X36879603Y-50891654D01*
X36867324Y-50908210D01*
X36853482Y-50923482D01*
X36838210Y-50937324D01*
X36821654Y-50949603D01*
X36803975Y-50960199D01*
X36785342Y-50969012D01*
X36765935Y-50975956D01*
X36745941Y-50980964D01*
X36725552Y-50983989D01*
X36704965Y-50985000D01*
X36275035Y-50985000D01*
X36254448Y-50983989D01*
X36234059Y-50980964D01*
X36214065Y-50975956D01*
X36194658Y-50969012D01*
X36176025Y-50960199D01*
X36158346Y-50949603D01*
X36141790Y-50937324D01*
X36126518Y-50923482D01*
X36112676Y-50908210D01*
X36100397Y-50891654D01*
X36089801Y-50873975D01*
X36080988Y-50855342D01*
X36074044Y-50835935D01*
X36069036Y-50815941D01*
X36066011Y-50795552D01*
X36065000Y-50774965D01*
X36065000Y-50225035D01*
X36066011Y-50204448D01*
X36069036Y-50184059D01*
X36074044Y-50164065D01*
X36080988Y-50144658D01*
X36089801Y-50126025D01*
X36100397Y-50108346D01*
X36112676Y-50091790D01*
X36126518Y-50076518D01*
X36141790Y-50062676D01*
X36158346Y-50050397D01*
X36176025Y-50039801D01*
X36194658Y-50030988D01*
X36214065Y-50024044D01*
X36234059Y-50019036D01*
X36254448Y-50016011D01*
X36275035Y-50015000D01*
X36704965Y-50015000D01*
X36725552Y-50016011D01*
G37*
G04 #@! TD.AperFunction*
G04 #@! TA.AperFunction,SMDPad,CuDef*
G36*
X38245552Y-50016011D02*
G01*
X38265941Y-50019036D01*
X38285935Y-50024044D01*
X38305342Y-50030988D01*
X38323975Y-50039801D01*
X38341654Y-50050397D01*
X38358210Y-50062676D01*
X38373482Y-50076518D01*
X38387324Y-50091790D01*
X38399603Y-50108346D01*
X38410199Y-50126025D01*
X38419012Y-50144658D01*
X38425956Y-50164065D01*
X38430964Y-50184059D01*
X38433989Y-50204448D01*
X38435000Y-50225035D01*
X38435000Y-50774965D01*
X38433989Y-50795552D01*
X38430964Y-50815941D01*
X38425956Y-50835935D01*
X38419012Y-50855342D01*
X38410199Y-50873975D01*
X38399603Y-50891654D01*
X38387324Y-50908210D01*
X38373482Y-50923482D01*
X38358210Y-50937324D01*
X38341654Y-50949603D01*
X38323975Y-50960199D01*
X38305342Y-50969012D01*
X38285935Y-50975956D01*
X38265941Y-50980964D01*
X38245552Y-50983989D01*
X38224965Y-50985000D01*
X37795035Y-50985000D01*
X37774448Y-50983989D01*
X37754059Y-50980964D01*
X37734065Y-50975956D01*
X37714658Y-50969012D01*
X37696025Y-50960199D01*
X37678346Y-50949603D01*
X37661790Y-50937324D01*
X37646518Y-50923482D01*
X37632676Y-50908210D01*
X37620397Y-50891654D01*
X37609801Y-50873975D01*
X37600988Y-50855342D01*
X37594044Y-50835935D01*
X37589036Y-50815941D01*
X37586011Y-50795552D01*
X37585000Y-50774965D01*
X37585000Y-50225035D01*
X37586011Y-50204448D01*
X37589036Y-50184059D01*
X37594044Y-50164065D01*
X37600988Y-50144658D01*
X37609801Y-50126025D01*
X37620397Y-50108346D01*
X37632676Y-50091790D01*
X37646518Y-50076518D01*
X37661790Y-50062676D01*
X37678346Y-50050397D01*
X37696025Y-50039801D01*
X37714658Y-50030988D01*
X37734065Y-50024044D01*
X37754059Y-50019036D01*
X37774448Y-50016011D01*
X37795035Y-50015000D01*
X38224965Y-50015000D01*
X38245552Y-50016011D01*
G37*
G04 #@! TD.AperFunction*
G04 #@! TA.AperFunction,SMDPad,CuDef*
G36*
X69294505Y-65766204D02*
G01*
X69318773Y-65769804D01*
X69342572Y-65775765D01*
X69365671Y-65784030D01*
X69387850Y-65794520D01*
X69408893Y-65807132D01*
X69428599Y-65821747D01*
X69446777Y-65838223D01*
X69463253Y-65856401D01*
X69477868Y-65876107D01*
X69490480Y-65897150D01*
X69500970Y-65919329D01*
X69509235Y-65942428D01*
X69515196Y-65966227D01*
X69518796Y-65990495D01*
X69520000Y-66014999D01*
X69520000Y-67185001D01*
X69518796Y-67209505D01*
X69515196Y-67233773D01*
X69509235Y-67257572D01*
X69500970Y-67280671D01*
X69490480Y-67302850D01*
X69477868Y-67323893D01*
X69463253Y-67343599D01*
X69446777Y-67361777D01*
X69428599Y-67378253D01*
X69408893Y-67392868D01*
X69387850Y-67405480D01*
X69365671Y-67415970D01*
X69342572Y-67424235D01*
X69318773Y-67430196D01*
X69294505Y-67433796D01*
X69270001Y-67435000D01*
X67999999Y-67435000D01*
X67975495Y-67433796D01*
X67951227Y-67430196D01*
X67927428Y-67424235D01*
X67904329Y-67415970D01*
X67882150Y-67405480D01*
X67861107Y-67392868D01*
X67841401Y-67378253D01*
X67823223Y-67361777D01*
X67806747Y-67343599D01*
X67792132Y-67323893D01*
X67779520Y-67302850D01*
X67769030Y-67280671D01*
X67760765Y-67257572D01*
X67754804Y-67233773D01*
X67751204Y-67209505D01*
X67750000Y-67185001D01*
X67750000Y-66014999D01*
X67751204Y-65990495D01*
X67754804Y-65966227D01*
X67760765Y-65942428D01*
X67769030Y-65919329D01*
X67779520Y-65897150D01*
X67792132Y-65876107D01*
X67806747Y-65856401D01*
X67823223Y-65838223D01*
X67841401Y-65821747D01*
X67861107Y-65807132D01*
X67882150Y-65794520D01*
X67904329Y-65784030D01*
X67927428Y-65775765D01*
X67951227Y-65769804D01*
X67975495Y-65766204D01*
X67999999Y-65765000D01*
X69270001Y-65765000D01*
X69294505Y-65766204D01*
G37*
G04 #@! TD.AperFunction*
G04 #@! TA.AperFunction,SMDPad,CuDef*
G36*
X73224505Y-65766204D02*
G01*
X73248773Y-65769804D01*
X73272572Y-65775765D01*
X73295671Y-65784030D01*
X73317850Y-65794520D01*
X73338893Y-65807132D01*
X73358599Y-65821747D01*
X73376777Y-65838223D01*
X73393253Y-65856401D01*
X73407868Y-65876107D01*
X73420480Y-65897150D01*
X73430970Y-65919329D01*
X73439235Y-65942428D01*
X73445196Y-65966227D01*
X73448796Y-65990495D01*
X73450000Y-66014999D01*
X73450000Y-67185001D01*
X73448796Y-67209505D01*
X73445196Y-67233773D01*
X73439235Y-67257572D01*
X73430970Y-67280671D01*
X73420480Y-67302850D01*
X73407868Y-67323893D01*
X73393253Y-67343599D01*
X73376777Y-67361777D01*
X73358599Y-67378253D01*
X73338893Y-67392868D01*
X73317850Y-67405480D01*
X73295671Y-67415970D01*
X73272572Y-67424235D01*
X73248773Y-67430196D01*
X73224505Y-67433796D01*
X73200001Y-67435000D01*
X71929999Y-67435000D01*
X71905495Y-67433796D01*
X71881227Y-67430196D01*
X71857428Y-67424235D01*
X71834329Y-67415970D01*
X71812150Y-67405480D01*
X71791107Y-67392868D01*
X71771401Y-67378253D01*
X71753223Y-67361777D01*
X71736747Y-67343599D01*
X71722132Y-67323893D01*
X71709520Y-67302850D01*
X71699030Y-67280671D01*
X71690765Y-67257572D01*
X71684804Y-67233773D01*
X71681204Y-67209505D01*
X71680000Y-67185001D01*
X71680000Y-66014999D01*
X71681204Y-65990495D01*
X71684804Y-65966227D01*
X71690765Y-65942428D01*
X71699030Y-65919329D01*
X71709520Y-65897150D01*
X71722132Y-65876107D01*
X71736747Y-65856401D01*
X71753223Y-65838223D01*
X71771401Y-65821747D01*
X71791107Y-65807132D01*
X71812150Y-65794520D01*
X71834329Y-65784030D01*
X71857428Y-65775765D01*
X71881227Y-65769804D01*
X71905495Y-65766204D01*
X71929999Y-65765000D01*
X73200001Y-65765000D01*
X73224505Y-65766204D01*
G37*
G04 #@! TD.AperFunction*
G04 #@! TA.AperFunction,SMDPad,CuDef*
G36*
X52609505Y-63616204D02*
G01*
X52633773Y-63619804D01*
X52657572Y-63625765D01*
X52680671Y-63634030D01*
X52702850Y-63644520D01*
X52723893Y-63657132D01*
X52743599Y-63671747D01*
X52761777Y-63688223D01*
X52778253Y-63706401D01*
X52792868Y-63726107D01*
X52805480Y-63747150D01*
X52815970Y-63769329D01*
X52824235Y-63792428D01*
X52830196Y-63816227D01*
X52833796Y-63840495D01*
X52835000Y-63864999D01*
X52835000Y-65135001D01*
X52833796Y-65159505D01*
X52830196Y-65183773D01*
X52824235Y-65207572D01*
X52815970Y-65230671D01*
X52805480Y-65252850D01*
X52792868Y-65273893D01*
X52778253Y-65293599D01*
X52761777Y-65311777D01*
X52743599Y-65328253D01*
X52723893Y-65342868D01*
X52702850Y-65355480D01*
X52680671Y-65365970D01*
X52657572Y-65374235D01*
X52633773Y-65380196D01*
X52609505Y-65383796D01*
X52585001Y-65385000D01*
X51414999Y-65385000D01*
X51390495Y-65383796D01*
X51366227Y-65380196D01*
X51342428Y-65374235D01*
X51319329Y-65365970D01*
X51297150Y-65355480D01*
X51276107Y-65342868D01*
X51256401Y-65328253D01*
X51238223Y-65311777D01*
X51221747Y-65293599D01*
X51207132Y-65273893D01*
X51194520Y-65252850D01*
X51184030Y-65230671D01*
X51175765Y-65207572D01*
X51169804Y-65183773D01*
X51166204Y-65159505D01*
X51165000Y-65135001D01*
X51165000Y-63864999D01*
X51166204Y-63840495D01*
X51169804Y-63816227D01*
X51175765Y-63792428D01*
X51184030Y-63769329D01*
X51194520Y-63747150D01*
X51207132Y-63726107D01*
X51221747Y-63706401D01*
X51238223Y-63688223D01*
X51256401Y-63671747D01*
X51276107Y-63657132D01*
X51297150Y-63644520D01*
X51319329Y-63634030D01*
X51342428Y-63625765D01*
X51366227Y-63619804D01*
X51390495Y-63616204D01*
X51414999Y-63615000D01*
X52585001Y-63615000D01*
X52609505Y-63616204D01*
G37*
G04 #@! TD.AperFunction*
G04 #@! TA.AperFunction,SMDPad,CuDef*
G36*
X52609505Y-67546204D02*
G01*
X52633773Y-67549804D01*
X52657572Y-67555765D01*
X52680671Y-67564030D01*
X52702850Y-67574520D01*
X52723893Y-67587132D01*
X52743599Y-67601747D01*
X52761777Y-67618223D01*
X52778253Y-67636401D01*
X52792868Y-67656107D01*
X52805480Y-67677150D01*
X52815970Y-67699329D01*
X52824235Y-67722428D01*
X52830196Y-67746227D01*
X52833796Y-67770495D01*
X52835000Y-67794999D01*
X52835000Y-69065001D01*
X52833796Y-69089505D01*
X52830196Y-69113773D01*
X52824235Y-69137572D01*
X52815970Y-69160671D01*
X52805480Y-69182850D01*
X52792868Y-69203893D01*
X52778253Y-69223599D01*
X52761777Y-69241777D01*
X52743599Y-69258253D01*
X52723893Y-69272868D01*
X52702850Y-69285480D01*
X52680671Y-69295970D01*
X52657572Y-69304235D01*
X52633773Y-69310196D01*
X52609505Y-69313796D01*
X52585001Y-69315000D01*
X51414999Y-69315000D01*
X51390495Y-69313796D01*
X51366227Y-69310196D01*
X51342428Y-69304235D01*
X51319329Y-69295970D01*
X51297150Y-69285480D01*
X51276107Y-69272868D01*
X51256401Y-69258253D01*
X51238223Y-69241777D01*
X51221747Y-69223599D01*
X51207132Y-69203893D01*
X51194520Y-69182850D01*
X51184030Y-69160671D01*
X51175765Y-69137572D01*
X51169804Y-69113773D01*
X51166204Y-69089505D01*
X51165000Y-69065001D01*
X51165000Y-67794999D01*
X51166204Y-67770495D01*
X51169804Y-67746227D01*
X51175765Y-67722428D01*
X51184030Y-67699329D01*
X51194520Y-67677150D01*
X51207132Y-67656107D01*
X51221747Y-67636401D01*
X51238223Y-67618223D01*
X51256401Y-67601747D01*
X51276107Y-67587132D01*
X51297150Y-67574520D01*
X51319329Y-67564030D01*
X51342428Y-67555765D01*
X51366227Y-67549804D01*
X51390495Y-67546204D01*
X51414999Y-67545000D01*
X52585001Y-67545000D01*
X52609505Y-67546204D01*
G37*
G04 #@! TD.AperFunction*
G04 #@! TA.AperFunction,SMDPad,CuDef*
G36*
X69109505Y-56116204D02*
G01*
X69133773Y-56119804D01*
X69157572Y-56125765D01*
X69180671Y-56134030D01*
X69202850Y-56144520D01*
X69223893Y-56157132D01*
X69243599Y-56171747D01*
X69261777Y-56188223D01*
X69278253Y-56206401D01*
X69292868Y-56226107D01*
X69305480Y-56247150D01*
X69315970Y-56269329D01*
X69324235Y-56292428D01*
X69330196Y-56316227D01*
X69333796Y-56340495D01*
X69335000Y-56364999D01*
X69335000Y-57635001D01*
X69333796Y-57659505D01*
X69330196Y-57683773D01*
X69324235Y-57707572D01*
X69315970Y-57730671D01*
X69305480Y-57752850D01*
X69292868Y-57773893D01*
X69278253Y-57793599D01*
X69261777Y-57811777D01*
X69243599Y-57828253D01*
X69223893Y-57842868D01*
X69202850Y-57855480D01*
X69180671Y-57865970D01*
X69157572Y-57874235D01*
X69133773Y-57880196D01*
X69109505Y-57883796D01*
X69085001Y-57885000D01*
X67914999Y-57885000D01*
X67890495Y-57883796D01*
X67866227Y-57880196D01*
X67842428Y-57874235D01*
X67819329Y-57865970D01*
X67797150Y-57855480D01*
X67776107Y-57842868D01*
X67756401Y-57828253D01*
X67738223Y-57811777D01*
X67721747Y-57793599D01*
X67707132Y-57773893D01*
X67694520Y-57752850D01*
X67684030Y-57730671D01*
X67675765Y-57707572D01*
X67669804Y-57683773D01*
X67666204Y-57659505D01*
X67665000Y-57635001D01*
X67665000Y-56364999D01*
X67666204Y-56340495D01*
X67669804Y-56316227D01*
X67675765Y-56292428D01*
X67684030Y-56269329D01*
X67694520Y-56247150D01*
X67707132Y-56226107D01*
X67721747Y-56206401D01*
X67738223Y-56188223D01*
X67756401Y-56171747D01*
X67776107Y-56157132D01*
X67797150Y-56144520D01*
X67819329Y-56134030D01*
X67842428Y-56125765D01*
X67866227Y-56119804D01*
X67890495Y-56116204D01*
X67914999Y-56115000D01*
X69085001Y-56115000D01*
X69109505Y-56116204D01*
G37*
G04 #@! TD.AperFunction*
G04 #@! TA.AperFunction,SMDPad,CuDef*
G36*
X69109505Y-52186204D02*
G01*
X69133773Y-52189804D01*
X69157572Y-52195765D01*
X69180671Y-52204030D01*
X69202850Y-52214520D01*
X69223893Y-52227132D01*
X69243599Y-52241747D01*
X69261777Y-52258223D01*
X69278253Y-52276401D01*
X69292868Y-52296107D01*
X69305480Y-52317150D01*
X69315970Y-52339329D01*
X69324235Y-52362428D01*
X69330196Y-52386227D01*
X69333796Y-52410495D01*
X69335000Y-52434999D01*
X69335000Y-53705001D01*
X69333796Y-53729505D01*
X69330196Y-53753773D01*
X69324235Y-53777572D01*
X69315970Y-53800671D01*
X69305480Y-53822850D01*
X69292868Y-53843893D01*
X69278253Y-53863599D01*
X69261777Y-53881777D01*
X69243599Y-53898253D01*
X69223893Y-53912868D01*
X69202850Y-53925480D01*
X69180671Y-53935970D01*
X69157572Y-53944235D01*
X69133773Y-53950196D01*
X69109505Y-53953796D01*
X69085001Y-53955000D01*
X67914999Y-53955000D01*
X67890495Y-53953796D01*
X67866227Y-53950196D01*
X67842428Y-53944235D01*
X67819329Y-53935970D01*
X67797150Y-53925480D01*
X67776107Y-53912868D01*
X67756401Y-53898253D01*
X67738223Y-53881777D01*
X67721747Y-53863599D01*
X67707132Y-53843893D01*
X67694520Y-53822850D01*
X67684030Y-53800671D01*
X67675765Y-53777572D01*
X67669804Y-53753773D01*
X67666204Y-53729505D01*
X67665000Y-53705001D01*
X67665000Y-52434999D01*
X67666204Y-52410495D01*
X67669804Y-52386227D01*
X67675765Y-52362428D01*
X67684030Y-52339329D01*
X67694520Y-52317150D01*
X67707132Y-52296107D01*
X67721747Y-52276401D01*
X67738223Y-52258223D01*
X67756401Y-52241747D01*
X67776107Y-52227132D01*
X67797150Y-52214520D01*
X67819329Y-52204030D01*
X67842428Y-52195765D01*
X67866227Y-52189804D01*
X67890495Y-52186204D01*
X67914999Y-52185000D01*
X69085001Y-52185000D01*
X69109505Y-52186204D01*
G37*
G04 #@! TD.AperFunction*
G04 #@! TA.AperFunction,SMDPad,CuDef*
G36*
X52609505Y-53866204D02*
G01*
X52633773Y-53869804D01*
X52657572Y-53875765D01*
X52680671Y-53884030D01*
X52702850Y-53894520D01*
X52723893Y-53907132D01*
X52743599Y-53921747D01*
X52761777Y-53938223D01*
X52778253Y-53956401D01*
X52792868Y-53976107D01*
X52805480Y-53997150D01*
X52815970Y-54019329D01*
X52824235Y-54042428D01*
X52830196Y-54066227D01*
X52833796Y-54090495D01*
X52835000Y-54114999D01*
X52835000Y-55385001D01*
X52833796Y-55409505D01*
X52830196Y-55433773D01*
X52824235Y-55457572D01*
X52815970Y-55480671D01*
X52805480Y-55502850D01*
X52792868Y-55523893D01*
X52778253Y-55543599D01*
X52761777Y-55561777D01*
X52743599Y-55578253D01*
X52723893Y-55592868D01*
X52702850Y-55605480D01*
X52680671Y-55615970D01*
X52657572Y-55624235D01*
X52633773Y-55630196D01*
X52609505Y-55633796D01*
X52585001Y-55635000D01*
X51414999Y-55635000D01*
X51390495Y-55633796D01*
X51366227Y-55630196D01*
X51342428Y-55624235D01*
X51319329Y-55615970D01*
X51297150Y-55605480D01*
X51276107Y-55592868D01*
X51256401Y-55578253D01*
X51238223Y-55561777D01*
X51221747Y-55543599D01*
X51207132Y-55523893D01*
X51194520Y-55502850D01*
X51184030Y-55480671D01*
X51175765Y-55457572D01*
X51169804Y-55433773D01*
X51166204Y-55409505D01*
X51165000Y-55385001D01*
X51165000Y-54114999D01*
X51166204Y-54090495D01*
X51169804Y-54066227D01*
X51175765Y-54042428D01*
X51184030Y-54019329D01*
X51194520Y-53997150D01*
X51207132Y-53976107D01*
X51221747Y-53956401D01*
X51238223Y-53938223D01*
X51256401Y-53921747D01*
X51276107Y-53907132D01*
X51297150Y-53894520D01*
X51319329Y-53884030D01*
X51342428Y-53875765D01*
X51366227Y-53869804D01*
X51390495Y-53866204D01*
X51414999Y-53865000D01*
X52585001Y-53865000D01*
X52609505Y-53866204D01*
G37*
G04 #@! TD.AperFunction*
G04 #@! TA.AperFunction,SMDPad,CuDef*
G36*
X52609505Y-57796204D02*
G01*
X52633773Y-57799804D01*
X52657572Y-57805765D01*
X52680671Y-57814030D01*
X52702850Y-57824520D01*
X52723893Y-57837132D01*
X52743599Y-57851747D01*
X52761777Y-57868223D01*
X52778253Y-57886401D01*
X52792868Y-57906107D01*
X52805480Y-57927150D01*
X52815970Y-57949329D01*
X52824235Y-57972428D01*
X52830196Y-57996227D01*
X52833796Y-58020495D01*
X52835000Y-58044999D01*
X52835000Y-59315001D01*
X52833796Y-59339505D01*
X52830196Y-59363773D01*
X52824235Y-59387572D01*
X52815970Y-59410671D01*
X52805480Y-59432850D01*
X52792868Y-59453893D01*
X52778253Y-59473599D01*
X52761777Y-59491777D01*
X52743599Y-59508253D01*
X52723893Y-59522868D01*
X52702850Y-59535480D01*
X52680671Y-59545970D01*
X52657572Y-59554235D01*
X52633773Y-59560196D01*
X52609505Y-59563796D01*
X52585001Y-59565000D01*
X51414999Y-59565000D01*
X51390495Y-59563796D01*
X51366227Y-59560196D01*
X51342428Y-59554235D01*
X51319329Y-59545970D01*
X51297150Y-59535480D01*
X51276107Y-59522868D01*
X51256401Y-59508253D01*
X51238223Y-59491777D01*
X51221747Y-59473599D01*
X51207132Y-59453893D01*
X51194520Y-59432850D01*
X51184030Y-59410671D01*
X51175765Y-59387572D01*
X51169804Y-59363773D01*
X51166204Y-59339505D01*
X51165000Y-59315001D01*
X51165000Y-58044999D01*
X51166204Y-58020495D01*
X51169804Y-57996227D01*
X51175765Y-57972428D01*
X51184030Y-57949329D01*
X51194520Y-57927150D01*
X51207132Y-57906107D01*
X51221747Y-57886401D01*
X51238223Y-57868223D01*
X51256401Y-57851747D01*
X51276107Y-57837132D01*
X51297150Y-57824520D01*
X51319329Y-57814030D01*
X51342428Y-57805765D01*
X51366227Y-57799804D01*
X51390495Y-57796204D01*
X51414999Y-57795000D01*
X52585001Y-57795000D01*
X52609505Y-57796204D01*
G37*
G04 #@! TD.AperFunction*
G04 #@! TA.AperFunction,SMDPad,CuDef*
G36*
X75084535Y-55291204D02*
G01*
X75108800Y-55294803D01*
X75132595Y-55300763D01*
X75155692Y-55309028D01*
X75177867Y-55319516D01*
X75198908Y-55332127D01*
X75218611Y-55346740D01*
X75236787Y-55363213D01*
X75253260Y-55381389D01*
X75267873Y-55401092D01*
X75280484Y-55422133D01*
X75290972Y-55444308D01*
X75299237Y-55467405D01*
X75305197Y-55491200D01*
X75308796Y-55515465D01*
X75310000Y-55539966D01*
X75310000Y-58410034D01*
X75308796Y-58434535D01*
X75305197Y-58458800D01*
X75299237Y-58482595D01*
X75290972Y-58505692D01*
X75280484Y-58527867D01*
X75267873Y-58548908D01*
X75253260Y-58568611D01*
X75236787Y-58586787D01*
X75218611Y-58603260D01*
X75198908Y-58617873D01*
X75177867Y-58630484D01*
X75155692Y-58640972D01*
X75132595Y-58649237D01*
X75108800Y-58655197D01*
X75084535Y-58658796D01*
X75060034Y-58660000D01*
X73939966Y-58660000D01*
X73915465Y-58658796D01*
X73891200Y-58655197D01*
X73867405Y-58649237D01*
X73844308Y-58640972D01*
X73822133Y-58630484D01*
X73801092Y-58617873D01*
X73781389Y-58603260D01*
X73763213Y-58586787D01*
X73746740Y-58568611D01*
X73732127Y-58548908D01*
X73719516Y-58527867D01*
X73709028Y-58505692D01*
X73700763Y-58482595D01*
X73694803Y-58458800D01*
X73691204Y-58434535D01*
X73690000Y-58410034D01*
X73690000Y-55539966D01*
X73691204Y-55515465D01*
X73694803Y-55491200D01*
X73700763Y-55467405D01*
X73709028Y-55444308D01*
X73719516Y-55422133D01*
X73732127Y-55401092D01*
X73746740Y-55381389D01*
X73763213Y-55363213D01*
X73781389Y-55346740D01*
X73801092Y-55332127D01*
X73822133Y-55319516D01*
X73844308Y-55309028D01*
X73867405Y-55300763D01*
X73891200Y-55294803D01*
X73915465Y-55291204D01*
X73939966Y-55290000D01*
X75060034Y-55290000D01*
X75084535Y-55291204D01*
G37*
G04 #@! TD.AperFunction*
G04 #@! TA.AperFunction,SMDPad,CuDef*
G36*
X75084535Y-60341204D02*
G01*
X75108800Y-60344803D01*
X75132595Y-60350763D01*
X75155692Y-60359028D01*
X75177867Y-60369516D01*
X75198908Y-60382127D01*
X75218611Y-60396740D01*
X75236787Y-60413213D01*
X75253260Y-60431389D01*
X75267873Y-60451092D01*
X75280484Y-60472133D01*
X75290972Y-60494308D01*
X75299237Y-60517405D01*
X75305197Y-60541200D01*
X75308796Y-60565465D01*
X75310000Y-60589966D01*
X75310000Y-63460034D01*
X75308796Y-63484535D01*
X75305197Y-63508800D01*
X75299237Y-63532595D01*
X75290972Y-63555692D01*
X75280484Y-63577867D01*
X75267873Y-63598908D01*
X75253260Y-63618611D01*
X75236787Y-63636787D01*
X75218611Y-63653260D01*
X75198908Y-63667873D01*
X75177867Y-63680484D01*
X75155692Y-63690972D01*
X75132595Y-63699237D01*
X75108800Y-63705197D01*
X75084535Y-63708796D01*
X75060034Y-63710000D01*
X73939966Y-63710000D01*
X73915465Y-63708796D01*
X73891200Y-63705197D01*
X73867405Y-63699237D01*
X73844308Y-63690972D01*
X73822133Y-63680484D01*
X73801092Y-63667873D01*
X73781389Y-63653260D01*
X73763213Y-63636787D01*
X73746740Y-63618611D01*
X73732127Y-63598908D01*
X73719516Y-63577867D01*
X73709028Y-63555692D01*
X73700763Y-63532595D01*
X73694803Y-63508800D01*
X73691204Y-63484535D01*
X73690000Y-63460034D01*
X73690000Y-60589966D01*
X73691204Y-60565465D01*
X73694803Y-60541200D01*
X73700763Y-60517405D01*
X73709028Y-60494308D01*
X73719516Y-60472133D01*
X73732127Y-60451092D01*
X73746740Y-60431389D01*
X73763213Y-60413213D01*
X73781389Y-60396740D01*
X73801092Y-60382127D01*
X73822133Y-60369516D01*
X73844308Y-60359028D01*
X73867405Y-60350763D01*
X73891200Y-60344803D01*
X73915465Y-60341204D01*
X73939966Y-60340000D01*
X75060034Y-60340000D01*
X75084535Y-60341204D01*
G37*
G04 #@! TD.AperFunction*
G04 #@! TA.AperFunction,SMDPad,CuDef*
G36*
X44245552Y-68266011D02*
G01*
X44265941Y-68269036D01*
X44285935Y-68274044D01*
X44305342Y-68280988D01*
X44323975Y-68289801D01*
X44341654Y-68300397D01*
X44358210Y-68312676D01*
X44373482Y-68326518D01*
X44387324Y-68341790D01*
X44399603Y-68358346D01*
X44410199Y-68376025D01*
X44419012Y-68394658D01*
X44425956Y-68414065D01*
X44430964Y-68434059D01*
X44433989Y-68454448D01*
X44435000Y-68475035D01*
X44435000Y-69024965D01*
X44433989Y-69045552D01*
X44430964Y-69065941D01*
X44425956Y-69085935D01*
X44419012Y-69105342D01*
X44410199Y-69123975D01*
X44399603Y-69141654D01*
X44387324Y-69158210D01*
X44373482Y-69173482D01*
X44358210Y-69187324D01*
X44341654Y-69199603D01*
X44323975Y-69210199D01*
X44305342Y-69219012D01*
X44285935Y-69225956D01*
X44265941Y-69230964D01*
X44245552Y-69233989D01*
X44224965Y-69235000D01*
X43795035Y-69235000D01*
X43774448Y-69233989D01*
X43754059Y-69230964D01*
X43734065Y-69225956D01*
X43714658Y-69219012D01*
X43696025Y-69210199D01*
X43678346Y-69199603D01*
X43661790Y-69187324D01*
X43646518Y-69173482D01*
X43632676Y-69158210D01*
X43620397Y-69141654D01*
X43609801Y-69123975D01*
X43600988Y-69105342D01*
X43594044Y-69085935D01*
X43589036Y-69065941D01*
X43586011Y-69045552D01*
X43585000Y-69024965D01*
X43585000Y-68475035D01*
X43586011Y-68454448D01*
X43589036Y-68434059D01*
X43594044Y-68414065D01*
X43600988Y-68394658D01*
X43609801Y-68376025D01*
X43620397Y-68358346D01*
X43632676Y-68341790D01*
X43646518Y-68326518D01*
X43661790Y-68312676D01*
X43678346Y-68300397D01*
X43696025Y-68289801D01*
X43714658Y-68280988D01*
X43734065Y-68274044D01*
X43754059Y-68269036D01*
X43774448Y-68266011D01*
X43795035Y-68265000D01*
X44224965Y-68265000D01*
X44245552Y-68266011D01*
G37*
G04 #@! TD.AperFunction*
G04 #@! TA.AperFunction,SMDPad,CuDef*
G36*
X42725552Y-68266011D02*
G01*
X42745941Y-68269036D01*
X42765935Y-68274044D01*
X42785342Y-68280988D01*
X42803975Y-68289801D01*
X42821654Y-68300397D01*
X42838210Y-68312676D01*
X42853482Y-68326518D01*
X42867324Y-68341790D01*
X42879603Y-68358346D01*
X42890199Y-68376025D01*
X42899012Y-68394658D01*
X42905956Y-68414065D01*
X42910964Y-68434059D01*
X42913989Y-68454448D01*
X42915000Y-68475035D01*
X42915000Y-69024965D01*
X42913989Y-69045552D01*
X42910964Y-69065941D01*
X42905956Y-69085935D01*
X42899012Y-69105342D01*
X42890199Y-69123975D01*
X42879603Y-69141654D01*
X42867324Y-69158210D01*
X42853482Y-69173482D01*
X42838210Y-69187324D01*
X42821654Y-69199603D01*
X42803975Y-69210199D01*
X42785342Y-69219012D01*
X42765935Y-69225956D01*
X42745941Y-69230964D01*
X42725552Y-69233989D01*
X42704965Y-69235000D01*
X42275035Y-69235000D01*
X42254448Y-69233989D01*
X42234059Y-69230964D01*
X42214065Y-69225956D01*
X42194658Y-69219012D01*
X42176025Y-69210199D01*
X42158346Y-69199603D01*
X42141790Y-69187324D01*
X42126518Y-69173482D01*
X42112676Y-69158210D01*
X42100397Y-69141654D01*
X42089801Y-69123975D01*
X42080988Y-69105342D01*
X42074044Y-69085935D01*
X42069036Y-69065941D01*
X42066011Y-69045552D01*
X42065000Y-69024965D01*
X42065000Y-68475035D01*
X42066011Y-68454448D01*
X42069036Y-68434059D01*
X42074044Y-68414065D01*
X42080988Y-68394658D01*
X42089801Y-68376025D01*
X42100397Y-68358346D01*
X42112676Y-68341790D01*
X42126518Y-68326518D01*
X42141790Y-68312676D01*
X42158346Y-68300397D01*
X42176025Y-68289801D01*
X42194658Y-68280988D01*
X42214065Y-68274044D01*
X42234059Y-68269036D01*
X42254448Y-68266011D01*
X42275035Y-68265000D01*
X42704965Y-68265000D01*
X42725552Y-68266011D01*
G37*
G04 #@! TD.AperFunction*
G04 #@! TA.AperFunction,SMDPad,CuDef*
G36*
X44245552Y-70016011D02*
G01*
X44265941Y-70019036D01*
X44285935Y-70024044D01*
X44305342Y-70030988D01*
X44323975Y-70039801D01*
X44341654Y-70050397D01*
X44358210Y-70062676D01*
X44373482Y-70076518D01*
X44387324Y-70091790D01*
X44399603Y-70108346D01*
X44410199Y-70126025D01*
X44419012Y-70144658D01*
X44425956Y-70164065D01*
X44430964Y-70184059D01*
X44433989Y-70204448D01*
X44435000Y-70225035D01*
X44435000Y-70774965D01*
X44433989Y-70795552D01*
X44430964Y-70815941D01*
X44425956Y-70835935D01*
X44419012Y-70855342D01*
X44410199Y-70873975D01*
X44399603Y-70891654D01*
X44387324Y-70908210D01*
X44373482Y-70923482D01*
X44358210Y-70937324D01*
X44341654Y-70949603D01*
X44323975Y-70960199D01*
X44305342Y-70969012D01*
X44285935Y-70975956D01*
X44265941Y-70980964D01*
X44245552Y-70983989D01*
X44224965Y-70985000D01*
X43795035Y-70985000D01*
X43774448Y-70983989D01*
X43754059Y-70980964D01*
X43734065Y-70975956D01*
X43714658Y-70969012D01*
X43696025Y-70960199D01*
X43678346Y-70949603D01*
X43661790Y-70937324D01*
X43646518Y-70923482D01*
X43632676Y-70908210D01*
X43620397Y-70891654D01*
X43609801Y-70873975D01*
X43600988Y-70855342D01*
X43594044Y-70835935D01*
X43589036Y-70815941D01*
X43586011Y-70795552D01*
X43585000Y-70774965D01*
X43585000Y-70225035D01*
X43586011Y-70204448D01*
X43589036Y-70184059D01*
X43594044Y-70164065D01*
X43600988Y-70144658D01*
X43609801Y-70126025D01*
X43620397Y-70108346D01*
X43632676Y-70091790D01*
X43646518Y-70076518D01*
X43661790Y-70062676D01*
X43678346Y-70050397D01*
X43696025Y-70039801D01*
X43714658Y-70030988D01*
X43734065Y-70024044D01*
X43754059Y-70019036D01*
X43774448Y-70016011D01*
X43795035Y-70015000D01*
X44224965Y-70015000D01*
X44245552Y-70016011D01*
G37*
G04 #@! TD.AperFunction*
G04 #@! TA.AperFunction,SMDPad,CuDef*
G36*
X42725552Y-70016011D02*
G01*
X42745941Y-70019036D01*
X42765935Y-70024044D01*
X42785342Y-70030988D01*
X42803975Y-70039801D01*
X42821654Y-70050397D01*
X42838210Y-70062676D01*
X42853482Y-70076518D01*
X42867324Y-70091790D01*
X42879603Y-70108346D01*
X42890199Y-70126025D01*
X42899012Y-70144658D01*
X42905956Y-70164065D01*
X42910964Y-70184059D01*
X42913989Y-70204448D01*
X42915000Y-70225035D01*
X42915000Y-70774965D01*
X42913989Y-70795552D01*
X42910964Y-70815941D01*
X42905956Y-70835935D01*
X42899012Y-70855342D01*
X42890199Y-70873975D01*
X42879603Y-70891654D01*
X42867324Y-70908210D01*
X42853482Y-70923482D01*
X42838210Y-70937324D01*
X42821654Y-70949603D01*
X42803975Y-70960199D01*
X42785342Y-70969012D01*
X42765935Y-70975956D01*
X42745941Y-70980964D01*
X42725552Y-70983989D01*
X42704965Y-70985000D01*
X42275035Y-70985000D01*
X42254448Y-70983989D01*
X42234059Y-70980964D01*
X42214065Y-70975956D01*
X42194658Y-70969012D01*
X42176025Y-70960199D01*
X42158346Y-70949603D01*
X42141790Y-70937324D01*
X42126518Y-70923482D01*
X42112676Y-70908210D01*
X42100397Y-70891654D01*
X42089801Y-70873975D01*
X42080988Y-70855342D01*
X42074044Y-70835935D01*
X42069036Y-70815941D01*
X42066011Y-70795552D01*
X42065000Y-70774965D01*
X42065000Y-70225035D01*
X42066011Y-70204448D01*
X42069036Y-70184059D01*
X42074044Y-70164065D01*
X42080988Y-70144658D01*
X42089801Y-70126025D01*
X42100397Y-70108346D01*
X42112676Y-70091790D01*
X42126518Y-70076518D01*
X42141790Y-70062676D01*
X42158346Y-70050397D01*
X42176025Y-70039801D01*
X42194658Y-70030988D01*
X42214065Y-70024044D01*
X42234059Y-70019036D01*
X42254448Y-70016011D01*
X42275035Y-70015000D01*
X42704965Y-70015000D01*
X42725552Y-70016011D01*
G37*
G04 #@! TD.AperFunction*
G04 #@! TA.AperFunction,SMDPad,CuDef*
G36*
X42795552Y-52806011D02*
G01*
X42815941Y-52809036D01*
X42835935Y-52814044D01*
X42855342Y-52820988D01*
X42873975Y-52829801D01*
X42891654Y-52840397D01*
X42908210Y-52852676D01*
X42923482Y-52866518D01*
X42937324Y-52881790D01*
X42949603Y-52898346D01*
X42960199Y-52916025D01*
X42969012Y-52934658D01*
X42975956Y-52954065D01*
X42980964Y-52974059D01*
X42983989Y-52994448D01*
X42985000Y-53015035D01*
X42985000Y-53444965D01*
X42983989Y-53465552D01*
X42980964Y-53485941D01*
X42975956Y-53505935D01*
X42969012Y-53525342D01*
X42960199Y-53543975D01*
X42949603Y-53561654D01*
X42937324Y-53578210D01*
X42923482Y-53593482D01*
X42908210Y-53607324D01*
X42891654Y-53619603D01*
X42873975Y-53630199D01*
X42855342Y-53639012D01*
X42835935Y-53645956D01*
X42815941Y-53650964D01*
X42795552Y-53653989D01*
X42774965Y-53655000D01*
X42225035Y-53655000D01*
X42204448Y-53653989D01*
X42184059Y-53650964D01*
X42164065Y-53645956D01*
X42144658Y-53639012D01*
X42126025Y-53630199D01*
X42108346Y-53619603D01*
X42091790Y-53607324D01*
X42076518Y-53593482D01*
X42062676Y-53578210D01*
X42050397Y-53561654D01*
X42039801Y-53543975D01*
X42030988Y-53525342D01*
X42024044Y-53505935D01*
X42019036Y-53485941D01*
X42016011Y-53465552D01*
X42015000Y-53444965D01*
X42015000Y-53015035D01*
X42016011Y-52994448D01*
X42019036Y-52974059D01*
X42024044Y-52954065D01*
X42030988Y-52934658D01*
X42039801Y-52916025D01*
X42050397Y-52898346D01*
X42062676Y-52881790D01*
X42076518Y-52866518D01*
X42091790Y-52852676D01*
X42108346Y-52840397D01*
X42126025Y-52829801D01*
X42144658Y-52820988D01*
X42164065Y-52814044D01*
X42184059Y-52809036D01*
X42204448Y-52806011D01*
X42225035Y-52805000D01*
X42774965Y-52805000D01*
X42795552Y-52806011D01*
G37*
G04 #@! TD.AperFunction*
G04 #@! TA.AperFunction,SMDPad,CuDef*
G36*
X42795552Y-54326011D02*
G01*
X42815941Y-54329036D01*
X42835935Y-54334044D01*
X42855342Y-54340988D01*
X42873975Y-54349801D01*
X42891654Y-54360397D01*
X42908210Y-54372676D01*
X42923482Y-54386518D01*
X42937324Y-54401790D01*
X42949603Y-54418346D01*
X42960199Y-54436025D01*
X42969012Y-54454658D01*
X42975956Y-54474065D01*
X42980964Y-54494059D01*
X42983989Y-54514448D01*
X42985000Y-54535035D01*
X42985000Y-54964965D01*
X42983989Y-54985552D01*
X42980964Y-55005941D01*
X42975956Y-55025935D01*
X42969012Y-55045342D01*
X42960199Y-55063975D01*
X42949603Y-55081654D01*
X42937324Y-55098210D01*
X42923482Y-55113482D01*
X42908210Y-55127324D01*
X42891654Y-55139603D01*
X42873975Y-55150199D01*
X42855342Y-55159012D01*
X42835935Y-55165956D01*
X42815941Y-55170964D01*
X42795552Y-55173989D01*
X42774965Y-55175000D01*
X42225035Y-55175000D01*
X42204448Y-55173989D01*
X42184059Y-55170964D01*
X42164065Y-55165956D01*
X42144658Y-55159012D01*
X42126025Y-55150199D01*
X42108346Y-55139603D01*
X42091790Y-55127324D01*
X42076518Y-55113482D01*
X42062676Y-55098210D01*
X42050397Y-55081654D01*
X42039801Y-55063975D01*
X42030988Y-55045342D01*
X42024044Y-55025935D01*
X42019036Y-55005941D01*
X42016011Y-54985552D01*
X42015000Y-54964965D01*
X42015000Y-54535035D01*
X42016011Y-54514448D01*
X42019036Y-54494059D01*
X42024044Y-54474065D01*
X42030988Y-54454658D01*
X42039801Y-54436025D01*
X42050397Y-54418346D01*
X42062676Y-54401790D01*
X42076518Y-54386518D01*
X42091790Y-54372676D01*
X42108346Y-54360397D01*
X42126025Y-54349801D01*
X42144658Y-54340988D01*
X42164065Y-54334044D01*
X42184059Y-54329036D01*
X42204448Y-54326011D01*
X42225035Y-54325000D01*
X42774965Y-54325000D01*
X42795552Y-54326011D01*
G37*
G04 #@! TD.AperFunction*
G04 #@! TA.AperFunction,SMDPad,CuDef*
G36*
X41045552Y-52796011D02*
G01*
X41065941Y-52799036D01*
X41085935Y-52804044D01*
X41105342Y-52810988D01*
X41123975Y-52819801D01*
X41141654Y-52830397D01*
X41158210Y-52842676D01*
X41173482Y-52856518D01*
X41187324Y-52871790D01*
X41199603Y-52888346D01*
X41210199Y-52906025D01*
X41219012Y-52924658D01*
X41225956Y-52944065D01*
X41230964Y-52964059D01*
X41233989Y-52984448D01*
X41235000Y-53005035D01*
X41235000Y-53434965D01*
X41233989Y-53455552D01*
X41230964Y-53475941D01*
X41225956Y-53495935D01*
X41219012Y-53515342D01*
X41210199Y-53533975D01*
X41199603Y-53551654D01*
X41187324Y-53568210D01*
X41173482Y-53583482D01*
X41158210Y-53597324D01*
X41141654Y-53609603D01*
X41123975Y-53620199D01*
X41105342Y-53629012D01*
X41085935Y-53635956D01*
X41065941Y-53640964D01*
X41045552Y-53643989D01*
X41024965Y-53645000D01*
X40475035Y-53645000D01*
X40454448Y-53643989D01*
X40434059Y-53640964D01*
X40414065Y-53635956D01*
X40394658Y-53629012D01*
X40376025Y-53620199D01*
X40358346Y-53609603D01*
X40341790Y-53597324D01*
X40326518Y-53583482D01*
X40312676Y-53568210D01*
X40300397Y-53551654D01*
X40289801Y-53533975D01*
X40280988Y-53515342D01*
X40274044Y-53495935D01*
X40269036Y-53475941D01*
X40266011Y-53455552D01*
X40265000Y-53434965D01*
X40265000Y-53005035D01*
X40266011Y-52984448D01*
X40269036Y-52964059D01*
X40274044Y-52944065D01*
X40280988Y-52924658D01*
X40289801Y-52906025D01*
X40300397Y-52888346D01*
X40312676Y-52871790D01*
X40326518Y-52856518D01*
X40341790Y-52842676D01*
X40358346Y-52830397D01*
X40376025Y-52819801D01*
X40394658Y-52810988D01*
X40414065Y-52804044D01*
X40434059Y-52799036D01*
X40454448Y-52796011D01*
X40475035Y-52795000D01*
X41024965Y-52795000D01*
X41045552Y-52796011D01*
G37*
G04 #@! TD.AperFunction*
G04 #@! TA.AperFunction,SMDPad,CuDef*
G36*
X41045552Y-54316011D02*
G01*
X41065941Y-54319036D01*
X41085935Y-54324044D01*
X41105342Y-54330988D01*
X41123975Y-54339801D01*
X41141654Y-54350397D01*
X41158210Y-54362676D01*
X41173482Y-54376518D01*
X41187324Y-54391790D01*
X41199603Y-54408346D01*
X41210199Y-54426025D01*
X41219012Y-54444658D01*
X41225956Y-54464065D01*
X41230964Y-54484059D01*
X41233989Y-54504448D01*
X41235000Y-54525035D01*
X41235000Y-54954965D01*
X41233989Y-54975552D01*
X41230964Y-54995941D01*
X41225956Y-55015935D01*
X41219012Y-55035342D01*
X41210199Y-55053975D01*
X41199603Y-55071654D01*
X41187324Y-55088210D01*
X41173482Y-55103482D01*
X41158210Y-55117324D01*
X41141654Y-55129603D01*
X41123975Y-55140199D01*
X41105342Y-55149012D01*
X41085935Y-55155956D01*
X41065941Y-55160964D01*
X41045552Y-55163989D01*
X41024965Y-55165000D01*
X40475035Y-55165000D01*
X40454448Y-55163989D01*
X40434059Y-55160964D01*
X40414065Y-55155956D01*
X40394658Y-55149012D01*
X40376025Y-55140199D01*
X40358346Y-55129603D01*
X40341790Y-55117324D01*
X40326518Y-55103482D01*
X40312676Y-55088210D01*
X40300397Y-55071654D01*
X40289801Y-55053975D01*
X40280988Y-55035342D01*
X40274044Y-55015935D01*
X40269036Y-54995941D01*
X40266011Y-54975552D01*
X40265000Y-54954965D01*
X40265000Y-54525035D01*
X40266011Y-54504448D01*
X40269036Y-54484059D01*
X40274044Y-54464065D01*
X40280988Y-54444658D01*
X40289801Y-54426025D01*
X40300397Y-54408346D01*
X40312676Y-54391790D01*
X40326518Y-54376518D01*
X40341790Y-54362676D01*
X40358346Y-54350397D01*
X40376025Y-54339801D01*
X40394658Y-54330988D01*
X40414065Y-54324044D01*
X40434059Y-54319036D01*
X40454448Y-54316011D01*
X40475035Y-54315000D01*
X41024965Y-54315000D01*
X41045552Y-54316011D01*
G37*
G04 #@! TD.AperFunction*
G04 #@! TA.AperFunction,SMDPad,CuDef*
G36*
X48234535Y-47691204D02*
G01*
X48258800Y-47694803D01*
X48282595Y-47700763D01*
X48305692Y-47709028D01*
X48327867Y-47719516D01*
X48348908Y-47732127D01*
X48368611Y-47746740D01*
X48386787Y-47763213D01*
X48403260Y-47781389D01*
X48417873Y-47801092D01*
X48430484Y-47822133D01*
X48440972Y-47844308D01*
X48449237Y-47867405D01*
X48455197Y-47891200D01*
X48458796Y-47915465D01*
X48460000Y-47939966D01*
X48460000Y-49060034D01*
X48458796Y-49084535D01*
X48455197Y-49108800D01*
X48449237Y-49132595D01*
X48440972Y-49155692D01*
X48430484Y-49177867D01*
X48417873Y-49198908D01*
X48403260Y-49218611D01*
X48386787Y-49236787D01*
X48368611Y-49253260D01*
X48348908Y-49267873D01*
X48327867Y-49280484D01*
X48305692Y-49290972D01*
X48282595Y-49299237D01*
X48258800Y-49305197D01*
X48234535Y-49308796D01*
X48210034Y-49310000D01*
X45339966Y-49310000D01*
X45315465Y-49308796D01*
X45291200Y-49305197D01*
X45267405Y-49299237D01*
X45244308Y-49290972D01*
X45222133Y-49280484D01*
X45201092Y-49267873D01*
X45181389Y-49253260D01*
X45163213Y-49236787D01*
X45146740Y-49218611D01*
X45132127Y-49198908D01*
X45119516Y-49177867D01*
X45109028Y-49155692D01*
X45100763Y-49132595D01*
X45094803Y-49108800D01*
X45091204Y-49084535D01*
X45090000Y-49060034D01*
X45090000Y-47939966D01*
X45091204Y-47915465D01*
X45094803Y-47891200D01*
X45100763Y-47867405D01*
X45109028Y-47844308D01*
X45119516Y-47822133D01*
X45132127Y-47801092D01*
X45146740Y-47781389D01*
X45163213Y-47763213D01*
X45181389Y-47746740D01*
X45201092Y-47732127D01*
X45222133Y-47719516D01*
X45244308Y-47709028D01*
X45267405Y-47700763D01*
X45291200Y-47694803D01*
X45315465Y-47691204D01*
X45339966Y-47690000D01*
X48210034Y-47690000D01*
X48234535Y-47691204D01*
G37*
G04 #@! TD.AperFunction*
G04 #@! TA.AperFunction,SMDPad,CuDef*
G36*
X43184535Y-47691204D02*
G01*
X43208800Y-47694803D01*
X43232595Y-47700763D01*
X43255692Y-47709028D01*
X43277867Y-47719516D01*
X43298908Y-47732127D01*
X43318611Y-47746740D01*
X43336787Y-47763213D01*
X43353260Y-47781389D01*
X43367873Y-47801092D01*
X43380484Y-47822133D01*
X43390972Y-47844308D01*
X43399237Y-47867405D01*
X43405197Y-47891200D01*
X43408796Y-47915465D01*
X43410000Y-47939966D01*
X43410000Y-49060034D01*
X43408796Y-49084535D01*
X43405197Y-49108800D01*
X43399237Y-49132595D01*
X43390972Y-49155692D01*
X43380484Y-49177867D01*
X43367873Y-49198908D01*
X43353260Y-49218611D01*
X43336787Y-49236787D01*
X43318611Y-49253260D01*
X43298908Y-49267873D01*
X43277867Y-49280484D01*
X43255692Y-49290972D01*
X43232595Y-49299237D01*
X43208800Y-49305197D01*
X43184535Y-49308796D01*
X43160034Y-49310000D01*
X40289966Y-49310000D01*
X40265465Y-49308796D01*
X40241200Y-49305197D01*
X40217405Y-49299237D01*
X40194308Y-49290972D01*
X40172133Y-49280484D01*
X40151092Y-49267873D01*
X40131389Y-49253260D01*
X40113213Y-49236787D01*
X40096740Y-49218611D01*
X40082127Y-49198908D01*
X40069516Y-49177867D01*
X40059028Y-49155692D01*
X40050763Y-49132595D01*
X40044803Y-49108800D01*
X40041204Y-49084535D01*
X40040000Y-49060034D01*
X40040000Y-47939966D01*
X40041204Y-47915465D01*
X40044803Y-47891200D01*
X40050763Y-47867405D01*
X40059028Y-47844308D01*
X40069516Y-47822133D01*
X40082127Y-47801092D01*
X40096740Y-47781389D01*
X40113213Y-47763213D01*
X40131389Y-47746740D01*
X40151092Y-47732127D01*
X40172133Y-47719516D01*
X40194308Y-47709028D01*
X40217405Y-47700763D01*
X40241200Y-47694803D01*
X40265465Y-47691204D01*
X40289966Y-47690000D01*
X43160034Y-47690000D01*
X43184535Y-47691204D01*
G37*
G04 #@! TD.AperFunction*
G04 #@! TA.AperFunction,SMDPad,CuDef*
G36*
X35399544Y-47616204D02*
G01*
X35423808Y-47619803D01*
X35447602Y-47625763D01*
X35470698Y-47634027D01*
X35492872Y-47644514D01*
X35513912Y-47657125D01*
X35533614Y-47671737D01*
X35551790Y-47688210D01*
X35568263Y-47706386D01*
X35582875Y-47726088D01*
X35595486Y-47747128D01*
X35605973Y-47769302D01*
X35614237Y-47792398D01*
X35620197Y-47816192D01*
X35623796Y-47840456D01*
X35625000Y-47864956D01*
X35625000Y-49135044D01*
X35623796Y-49159544D01*
X35620197Y-49183808D01*
X35614237Y-49207602D01*
X35605973Y-49230698D01*
X35595486Y-49252872D01*
X35582875Y-49273912D01*
X35568263Y-49293614D01*
X35551790Y-49311790D01*
X35533614Y-49328263D01*
X35513912Y-49342875D01*
X35492872Y-49355486D01*
X35470698Y-49365973D01*
X35447602Y-49374237D01*
X35423808Y-49380197D01*
X35399544Y-49383796D01*
X35375044Y-49385000D01*
X34744956Y-49385000D01*
X34720456Y-49383796D01*
X34696192Y-49380197D01*
X34672398Y-49374237D01*
X34649302Y-49365973D01*
X34627128Y-49355486D01*
X34606088Y-49342875D01*
X34586386Y-49328263D01*
X34568210Y-49311790D01*
X34551737Y-49293614D01*
X34537125Y-49273912D01*
X34524514Y-49252872D01*
X34514027Y-49230698D01*
X34505763Y-49207602D01*
X34499803Y-49183808D01*
X34496204Y-49159544D01*
X34495000Y-49135044D01*
X34495000Y-47864956D01*
X34496204Y-47840456D01*
X34499803Y-47816192D01*
X34505763Y-47792398D01*
X34514027Y-47769302D01*
X34524514Y-47747128D01*
X34537125Y-47726088D01*
X34551737Y-47706386D01*
X34568210Y-47688210D01*
X34586386Y-47671737D01*
X34606088Y-47657125D01*
X34627128Y-47644514D01*
X34649302Y-47634027D01*
X34672398Y-47625763D01*
X34696192Y-47619803D01*
X34720456Y-47616204D01*
X34744956Y-47615000D01*
X35375044Y-47615000D01*
X35399544Y-47616204D01*
G37*
G04 #@! TD.AperFunction*
G04 #@! TA.AperFunction,SMDPad,CuDef*
G36*
X38339544Y-47616204D02*
G01*
X38363808Y-47619803D01*
X38387602Y-47625763D01*
X38410698Y-47634027D01*
X38432872Y-47644514D01*
X38453912Y-47657125D01*
X38473614Y-47671737D01*
X38491790Y-47688210D01*
X38508263Y-47706386D01*
X38522875Y-47726088D01*
X38535486Y-47747128D01*
X38545973Y-47769302D01*
X38554237Y-47792398D01*
X38560197Y-47816192D01*
X38563796Y-47840456D01*
X38565000Y-47864956D01*
X38565000Y-49135044D01*
X38563796Y-49159544D01*
X38560197Y-49183808D01*
X38554237Y-49207602D01*
X38545973Y-49230698D01*
X38535486Y-49252872D01*
X38522875Y-49273912D01*
X38508263Y-49293614D01*
X38491790Y-49311790D01*
X38473614Y-49328263D01*
X38453912Y-49342875D01*
X38432872Y-49355486D01*
X38410698Y-49365973D01*
X38387602Y-49374237D01*
X38363808Y-49380197D01*
X38339544Y-49383796D01*
X38315044Y-49385000D01*
X37684956Y-49385000D01*
X37660456Y-49383796D01*
X37636192Y-49380197D01*
X37612398Y-49374237D01*
X37589302Y-49365973D01*
X37567128Y-49355486D01*
X37546088Y-49342875D01*
X37526386Y-49328263D01*
X37508210Y-49311790D01*
X37491737Y-49293614D01*
X37477125Y-49273912D01*
X37464514Y-49252872D01*
X37454027Y-49230698D01*
X37445763Y-49207602D01*
X37439803Y-49183808D01*
X37436204Y-49159544D01*
X37435000Y-49135044D01*
X37435000Y-47864956D01*
X37436204Y-47840456D01*
X37439803Y-47816192D01*
X37445763Y-47792398D01*
X37454027Y-47769302D01*
X37464514Y-47747128D01*
X37477125Y-47726088D01*
X37491737Y-47706386D01*
X37508210Y-47688210D01*
X37526386Y-47671737D01*
X37546088Y-47657125D01*
X37567128Y-47644514D01*
X37589302Y-47634027D01*
X37612398Y-47625763D01*
X37636192Y-47619803D01*
X37660456Y-47616204D01*
X37684956Y-47615000D01*
X38315044Y-47615000D01*
X38339544Y-47616204D01*
G37*
G04 #@! TD.AperFunction*
G04 #@! TA.AperFunction,SMDPad,CuDef*
G36*
X36715552Y-46016011D02*
G01*
X36735941Y-46019036D01*
X36755935Y-46024044D01*
X36775342Y-46030988D01*
X36793975Y-46039801D01*
X36811654Y-46050397D01*
X36828210Y-46062676D01*
X36843482Y-46076518D01*
X36857324Y-46091790D01*
X36869603Y-46108346D01*
X36880199Y-46126025D01*
X36889012Y-46144658D01*
X36895956Y-46164065D01*
X36900964Y-46184059D01*
X36903989Y-46204448D01*
X36905000Y-46225035D01*
X36905000Y-46774965D01*
X36903989Y-46795552D01*
X36900964Y-46815941D01*
X36895956Y-46835935D01*
X36889012Y-46855342D01*
X36880199Y-46873975D01*
X36869603Y-46891654D01*
X36857324Y-46908210D01*
X36843482Y-46923482D01*
X36828210Y-46937324D01*
X36811654Y-46949603D01*
X36793975Y-46960199D01*
X36775342Y-46969012D01*
X36755935Y-46975956D01*
X36735941Y-46980964D01*
X36715552Y-46983989D01*
X36694965Y-46985000D01*
X36265035Y-46985000D01*
X36244448Y-46983989D01*
X36224059Y-46980964D01*
X36204065Y-46975956D01*
X36184658Y-46969012D01*
X36166025Y-46960199D01*
X36148346Y-46949603D01*
X36131790Y-46937324D01*
X36116518Y-46923482D01*
X36102676Y-46908210D01*
X36090397Y-46891654D01*
X36079801Y-46873975D01*
X36070988Y-46855342D01*
X36064044Y-46835935D01*
X36059036Y-46815941D01*
X36056011Y-46795552D01*
X36055000Y-46774965D01*
X36055000Y-46225035D01*
X36056011Y-46204448D01*
X36059036Y-46184059D01*
X36064044Y-46164065D01*
X36070988Y-46144658D01*
X36079801Y-46126025D01*
X36090397Y-46108346D01*
X36102676Y-46091790D01*
X36116518Y-46076518D01*
X36131790Y-46062676D01*
X36148346Y-46050397D01*
X36166025Y-46039801D01*
X36184658Y-46030988D01*
X36204065Y-46024044D01*
X36224059Y-46019036D01*
X36244448Y-46016011D01*
X36265035Y-46015000D01*
X36694965Y-46015000D01*
X36715552Y-46016011D01*
G37*
G04 #@! TD.AperFunction*
G04 #@! TA.AperFunction,SMDPad,CuDef*
G36*
X38235552Y-46016011D02*
G01*
X38255941Y-46019036D01*
X38275935Y-46024044D01*
X38295342Y-46030988D01*
X38313975Y-46039801D01*
X38331654Y-46050397D01*
X38348210Y-46062676D01*
X38363482Y-46076518D01*
X38377324Y-46091790D01*
X38389603Y-46108346D01*
X38400199Y-46126025D01*
X38409012Y-46144658D01*
X38415956Y-46164065D01*
X38420964Y-46184059D01*
X38423989Y-46204448D01*
X38425000Y-46225035D01*
X38425000Y-46774965D01*
X38423989Y-46795552D01*
X38420964Y-46815941D01*
X38415956Y-46835935D01*
X38409012Y-46855342D01*
X38400199Y-46873975D01*
X38389603Y-46891654D01*
X38377324Y-46908210D01*
X38363482Y-46923482D01*
X38348210Y-46937324D01*
X38331654Y-46949603D01*
X38313975Y-46960199D01*
X38295342Y-46969012D01*
X38275935Y-46975956D01*
X38255941Y-46980964D01*
X38235552Y-46983989D01*
X38214965Y-46985000D01*
X37785035Y-46985000D01*
X37764448Y-46983989D01*
X37744059Y-46980964D01*
X37724065Y-46975956D01*
X37704658Y-46969012D01*
X37686025Y-46960199D01*
X37668346Y-46949603D01*
X37651790Y-46937324D01*
X37636518Y-46923482D01*
X37622676Y-46908210D01*
X37610397Y-46891654D01*
X37599801Y-46873975D01*
X37590988Y-46855342D01*
X37584044Y-46835935D01*
X37579036Y-46815941D01*
X37576011Y-46795552D01*
X37575000Y-46774965D01*
X37575000Y-46225035D01*
X37576011Y-46204448D01*
X37579036Y-46184059D01*
X37584044Y-46164065D01*
X37590988Y-46144658D01*
X37599801Y-46126025D01*
X37610397Y-46108346D01*
X37622676Y-46091790D01*
X37636518Y-46076518D01*
X37651790Y-46062676D01*
X37668346Y-46050397D01*
X37686025Y-46039801D01*
X37704658Y-46030988D01*
X37724065Y-46024044D01*
X37744059Y-46019036D01*
X37764448Y-46016011D01*
X37785035Y-46015000D01*
X38214965Y-46015000D01*
X38235552Y-46016011D01*
G37*
G04 #@! TD.AperFunction*
D15*
X34500000Y-57500000D03*
X40500000Y-60500000D03*
X39500000Y-57500000D03*
X80500000Y-67500000D03*
X80500000Y-56750000D03*
X80500000Y-52500000D03*
X85500000Y-52500000D03*
X80500000Y-47500000D03*
X75500000Y-47500000D03*
X70500000Y-47500000D03*
X65500000Y-47500000D03*
X60500000Y-47500000D03*
X55500000Y-47500000D03*
X50500000Y-47500000D03*
X65500000Y-62500000D03*
X60500000Y-62500000D03*
X55500000Y-62500000D03*
X50500000Y-62500000D03*
X40500000Y-70000000D03*
X35500000Y-70000000D03*
X30500000Y-65000000D03*
X35500000Y-65000000D03*
X40500000Y-65000000D03*
X33000000Y-47500000D03*
X35500000Y-52500000D03*
X50500000Y-52500000D03*
X55500000Y-52500000D03*
X70500000Y-52500000D03*
X73000000Y-60000000D03*
X80500000Y-70000000D03*
X34500000Y-62500000D03*
X35500000Y-60500000D03*
D16*
X38010000Y-46510000D02*
X38000000Y-46500000D01*
X38010000Y-50500000D02*
X38010000Y-46510000D01*
D17*
X84050000Y-58000000D02*
X87450000Y-58000000D01*
X81660000Y-58740000D02*
X79240000Y-58740000D01*
X84050000Y-58000000D02*
X82400000Y-58000000D01*
X82400000Y-58000000D02*
X81660000Y-58740000D01*
D18*
X40760000Y-54750000D02*
X40750000Y-54740000D01*
X44255000Y-54750000D02*
X40760000Y-54750000D01*
X42490000Y-67055000D02*
X42550000Y-66995000D01*
X42490000Y-70500000D02*
X42490000Y-67055000D01*
X38010000Y-51790000D02*
X38010000Y-50500000D01*
X38000000Y-51800000D02*
X38010000Y-51790000D01*
X38000000Y-52600000D02*
X38000000Y-51800000D01*
X38000000Y-52800000D02*
X38000000Y-52600000D01*
X39940000Y-54740000D02*
X38000000Y-52800000D01*
X40750000Y-54740000D02*
X39940000Y-54740000D01*
X29245000Y-66995000D02*
X42550000Y-66995000D01*
X34600000Y-56200000D02*
X28400000Y-56200000D01*
X38000000Y-52800000D02*
X34600000Y-56200000D01*
X26949990Y-57650010D02*
X26949990Y-64699990D01*
X28400000Y-56200000D02*
X26949990Y-57650010D01*
X26949990Y-64699990D02*
X29245000Y-66995000D01*
D17*
X38010000Y-48510000D02*
X38000000Y-48500000D01*
X38010000Y-50500000D02*
X38010000Y-48510000D01*
X38000000Y-46500000D02*
X38000000Y-48500000D01*
X38000000Y-48500000D02*
X41725000Y-48500000D01*
D19*
X70498002Y-50500000D02*
X73250000Y-50500000D01*
X38010000Y-50500000D02*
X70498002Y-50500000D01*
D16*
X73250000Y-50500000D02*
X73300000Y-50500000D01*
D19*
X74500000Y-51700000D02*
X74500000Y-56975000D01*
X73300000Y-50500000D02*
X74500000Y-51700000D01*
D17*
X79240000Y-58740000D02*
X77475000Y-56975000D01*
X77475000Y-56975000D02*
X74500000Y-56975000D01*
D20*
X62570000Y-57036000D02*
X68464000Y-57036000D01*
D17*
X77475000Y-62025000D02*
X74500000Y-62025000D01*
X79240000Y-60260000D02*
X77475000Y-62025000D01*
X81660000Y-60260000D02*
X79240000Y-60260000D01*
X84050000Y-61000000D02*
X82400000Y-61000000D01*
X82400000Y-61000000D02*
X81660000Y-60260000D01*
D16*
X68464000Y-57036000D02*
X68500000Y-57000000D01*
X62510000Y-57036000D02*
X68464000Y-57036000D01*
X68499000Y-66786000D02*
X68500000Y-66785000D01*
X62570000Y-66786000D02*
X68499000Y-66786000D01*
X74500000Y-62025000D02*
X69625000Y-62025000D01*
D17*
X84050000Y-61000000D02*
X87450000Y-61000000D01*
D20*
X74500000Y-64500000D02*
X74500000Y-62025000D01*
X77000000Y-65400000D02*
X75400000Y-65400000D01*
X75400000Y-65400000D02*
X74500000Y-64500000D01*
D17*
X69525000Y-62025000D02*
X68500000Y-61000000D01*
X74500000Y-62025000D02*
X69525000Y-62025000D01*
D16*
X69625000Y-62025000D02*
X68500000Y-61000000D01*
D17*
X68500000Y-61000000D02*
X68500000Y-57000000D01*
X62606000Y-57000000D02*
X62570000Y-57036000D01*
X68500000Y-57000000D02*
X62606000Y-57000000D01*
X69225000Y-62025000D02*
X68500000Y-62750000D01*
X69625000Y-62025000D02*
X69225000Y-62025000D01*
D16*
X68500000Y-62750000D02*
X68500000Y-62700000D01*
D17*
X68500000Y-66465000D02*
X68635000Y-66600000D01*
X68500000Y-62750000D02*
X68500000Y-66465000D01*
D21*
X56000000Y-54750000D02*
X52000000Y-54750000D01*
X52000000Y-54750000D02*
X49510000Y-54750000D01*
X56000000Y-64500000D02*
X52000000Y-64500000D01*
X52000000Y-64500000D02*
X49510000Y-64500000D01*
D17*
X28550000Y-50500000D02*
X31950000Y-50500000D01*
X31950000Y-50500000D02*
X36490000Y-50500000D01*
D20*
X29300000Y-59000000D02*
X32700000Y-59000000D01*
X32700000Y-59000000D02*
X37500000Y-59000000D01*
X42250000Y-62000000D02*
X42250000Y-61000000D01*
X41500000Y-65500000D02*
X41500000Y-62750000D01*
D21*
X44450000Y-66200000D02*
X44250000Y-66000000D01*
X44450000Y-66995000D02*
X44450000Y-66200000D01*
X42000000Y-66000000D02*
X41500000Y-65500000D01*
X44250000Y-66000000D02*
X42000000Y-66000000D01*
X41500000Y-62900000D02*
X40200000Y-61600000D01*
D20*
X41500000Y-62750000D02*
X40200000Y-61600000D01*
D21*
X41500000Y-65500000D02*
X41500000Y-62900000D01*
X40140000Y-61540000D02*
X37500000Y-61540000D01*
X40200000Y-61600000D02*
X40140000Y-61540000D01*
X41500000Y-62750000D02*
X41500000Y-62700000D01*
X41500000Y-62700000D02*
X42200000Y-62000000D01*
X42250000Y-61950000D02*
X42250000Y-61000000D01*
X42200000Y-62000000D02*
X42250000Y-61950000D01*
X42250000Y-62000000D02*
X42750000Y-62500000D01*
X42200000Y-62000000D02*
X42250000Y-62000000D01*
X42750000Y-62500000D02*
X44240000Y-62500000D01*
D20*
X42250000Y-59000000D02*
X44250000Y-59000000D01*
D21*
X44250000Y-56655000D02*
X44255000Y-56650000D01*
X44250000Y-59000000D02*
X44250000Y-56655000D01*
X40260000Y-56460000D02*
X37500000Y-56460000D01*
X44255000Y-56650000D02*
X40450000Y-56650000D01*
X40450000Y-56650000D02*
X40260000Y-56460000D01*
X47990000Y-54750000D02*
X46245000Y-54750000D01*
X47990000Y-64500000D02*
X46900000Y-64500000D01*
X46900000Y-64500000D02*
X46200000Y-63800000D01*
X46200000Y-63800000D02*
X42800000Y-63800000D01*
X42550000Y-64050000D02*
X42550000Y-65005000D01*
X42800000Y-63800000D02*
X42550000Y-64050000D01*
D22*
G36*
X89344000Y-68868668D02*
G01*
X89344000Y-71873000D01*
X26656000Y-71873000D01*
X26656000Y-65298368D01*
X28776899Y-67419268D01*
X28780959Y-67424215D01*
X28680064Y-67466007D01*
X28396552Y-67655444D01*
X28155444Y-67896552D01*
X27966007Y-68180064D01*
X27835521Y-68495086D01*
X27769000Y-68829511D01*
X27769000Y-69170489D01*
X27835521Y-69504914D01*
X27966007Y-69819936D01*
X28155444Y-70103448D01*
X28396552Y-70344556D01*
X28680064Y-70533993D01*
X28995086Y-70664479D01*
X29329511Y-70731000D01*
X29670489Y-70731000D01*
X30004914Y-70664479D01*
X30319936Y-70533993D01*
X30603448Y-70344556D01*
X30844556Y-70103448D01*
X31033993Y-69819936D01*
X31164479Y-69504914D01*
X31231000Y-69170489D01*
X31231000Y-68829511D01*
X31164479Y-68495086D01*
X31033993Y-68180064D01*
X30844556Y-67896552D01*
X30603448Y-67655444D01*
X30559382Y-67626000D01*
X41859001Y-67626000D01*
X41859001Y-68053186D01*
X41855807Y-68055807D01*
X41782075Y-68145650D01*
X41727287Y-68248150D01*
X41693549Y-68359370D01*
X41682157Y-68475035D01*
X41682157Y-69024965D01*
X41693549Y-69140630D01*
X41727287Y-69251850D01*
X41782075Y-69354350D01*
X41855807Y-69444193D01*
X41859000Y-69446814D01*
X41859000Y-69803186D01*
X41855807Y-69805807D01*
X41782075Y-69895650D01*
X41727287Y-69998150D01*
X41693549Y-70109370D01*
X41682157Y-70225035D01*
X41682157Y-70774965D01*
X41693549Y-70890630D01*
X41727287Y-71001850D01*
X41782075Y-71104350D01*
X41855807Y-71194193D01*
X41945650Y-71267925D01*
X42048150Y-71322713D01*
X42159370Y-71356451D01*
X42275035Y-71367843D01*
X42704965Y-71367843D01*
X42820630Y-71356451D01*
X42931850Y-71322713D01*
X43034350Y-71267925D01*
X43124193Y-71194193D01*
X43197925Y-71104350D01*
X43252713Y-71001850D01*
X43286451Y-70890630D01*
X43297843Y-70774965D01*
X43297843Y-70225035D01*
X43286451Y-70109370D01*
X43252713Y-69998150D01*
X43197925Y-69895650D01*
X43124193Y-69805807D01*
X43121000Y-69803187D01*
X43121000Y-69446813D01*
X43124193Y-69444193D01*
X43197925Y-69354350D01*
X43252713Y-69251850D01*
X43286451Y-69140630D01*
X43297843Y-69024965D01*
X43297843Y-68475035D01*
X43286451Y-68359370D01*
X43252713Y-68248150D01*
X43197925Y-68145650D01*
X43124193Y-68055807D01*
X43121000Y-68053187D01*
X43121000Y-67721439D01*
X43169669Y-67662136D01*
X43220759Y-67566554D01*
X43252220Y-67462841D01*
X43262843Y-67354984D01*
X43262843Y-66635016D01*
X43257523Y-66581000D01*
X43742477Y-66581000D01*
X43737157Y-66635016D01*
X43737157Y-67354984D01*
X43747780Y-67462841D01*
X43779241Y-67566554D01*
X43830331Y-67662136D01*
X43899086Y-67745914D01*
X43982864Y-67814669D01*
X44078446Y-67865759D01*
X44182159Y-67897220D01*
X44290016Y-67907843D01*
X44609984Y-67907843D01*
X44717841Y-67897220D01*
X44821554Y-67865759D01*
X44917136Y-67814669D01*
X45000914Y-67745914D01*
X45069669Y-67662136D01*
X45120759Y-67566554D01*
X45152220Y-67462841D01*
X45162843Y-67354984D01*
X45162843Y-66635016D01*
X45152220Y-66527159D01*
X45120759Y-66423446D01*
X45069669Y-66327864D01*
X45031000Y-66280746D01*
X45031000Y-66228540D01*
X45033811Y-66200000D01*
X45022593Y-66086104D01*
X45021396Y-66082157D01*
X44989371Y-65976585D01*
X44935421Y-65875652D01*
X44862817Y-65787183D01*
X44840644Y-65768987D01*
X44681016Y-65609359D01*
X44662817Y-65587183D01*
X44574348Y-65514579D01*
X44473415Y-65460629D01*
X44363896Y-65427407D01*
X44278540Y-65419000D01*
X44250000Y-65416189D01*
X44221460Y-65419000D01*
X43257523Y-65419000D01*
X43262843Y-65364984D01*
X43262843Y-64645016D01*
X43252220Y-64537159D01*
X43220759Y-64433446D01*
X43192726Y-64381000D01*
X45959343Y-64381000D01*
X46468987Y-64890645D01*
X46487183Y-64912817D01*
X46575652Y-64985421D01*
X46676585Y-65039371D01*
X46786104Y-65072593D01*
X46871460Y-65081000D01*
X46871462Y-65081000D01*
X46899999Y-65083811D01*
X46928536Y-65081000D01*
X47269594Y-65081000D01*
X47282075Y-65104350D01*
X47355807Y-65194193D01*
X47445650Y-65267925D01*
X47548150Y-65322713D01*
X47659370Y-65356451D01*
X47775035Y-65367843D01*
X48204965Y-65367843D01*
X48320630Y-65356451D01*
X48431850Y-65322713D01*
X48534350Y-65267925D01*
X48624193Y-65194193D01*
X48697925Y-65104350D01*
X48750000Y-65006926D01*
X48802075Y-65104350D01*
X48875807Y-65194193D01*
X48965650Y-65267925D01*
X49068150Y-65322713D01*
X49179370Y-65356451D01*
X49295035Y-65367843D01*
X49724965Y-65367843D01*
X49840630Y-65356451D01*
X49951850Y-65322713D01*
X50054350Y-65267925D01*
X50144193Y-65194193D01*
X50217925Y-65104350D01*
X50230406Y-65081000D01*
X50782157Y-65081000D01*
X50782157Y-65135001D01*
X50794317Y-65258462D01*
X50830329Y-65377179D01*
X50888810Y-65486589D01*
X50967512Y-65582488D01*
X51063411Y-65661190D01*
X51172821Y-65719671D01*
X51291538Y-65755683D01*
X51414999Y-65767843D01*
X52585001Y-65767843D01*
X52708462Y-65755683D01*
X52827179Y-65719671D01*
X52936589Y-65661190D01*
X53032488Y-65582488D01*
X53111190Y-65486589D01*
X53169671Y-65377179D01*
X53205683Y-65258462D01*
X53217843Y-65135001D01*
X53217843Y-65081000D01*
X54010240Y-65081000D01*
X54030325Y-65147211D01*
X54088802Y-65256612D01*
X54167497Y-65352503D01*
X54263388Y-65431198D01*
X54372789Y-65489675D01*
X54491497Y-65525684D01*
X54614948Y-65537843D01*
X57385052Y-65537843D01*
X57508503Y-65525684D01*
X57627211Y-65489675D01*
X57736612Y-65431198D01*
X57832503Y-65352503D01*
X57911198Y-65256612D01*
X57969675Y-65147211D01*
X58005684Y-65028503D01*
X58017843Y-64905052D01*
X58017843Y-64094948D01*
X58005684Y-63971497D01*
X57969675Y-63852789D01*
X57911198Y-63743388D01*
X57832503Y-63647497D01*
X57736612Y-63568802D01*
X57627211Y-63510325D01*
X57508503Y-63474316D01*
X57385052Y-63462157D01*
X54614948Y-63462157D01*
X54491497Y-63474316D01*
X54372789Y-63510325D01*
X54263388Y-63568802D01*
X54167497Y-63647497D01*
X54088802Y-63743388D01*
X54030325Y-63852789D01*
X54010240Y-63919000D01*
X53217843Y-63919000D01*
X53217843Y-63864999D01*
X53205683Y-63741538D01*
X53169671Y-63622821D01*
X53111190Y-63513411D01*
X53032488Y-63417512D01*
X52936589Y-63338810D01*
X52827179Y-63280329D01*
X52708462Y-63244317D01*
X52585001Y-63232157D01*
X51414999Y-63232157D01*
X51291538Y-63244317D01*
X51172821Y-63280329D01*
X51063411Y-63338810D01*
X50967512Y-63417512D01*
X50888810Y-63513411D01*
X50830329Y-63622821D01*
X50794317Y-63741538D01*
X50782157Y-63864999D01*
X50782157Y-63919000D01*
X50230406Y-63919000D01*
X50217925Y-63895650D01*
X50144193Y-63805807D01*
X50054350Y-63732075D01*
X49951850Y-63677287D01*
X49840630Y-63643549D01*
X49724965Y-63632157D01*
X49295035Y-63632157D01*
X49179370Y-63643549D01*
X49068150Y-63677287D01*
X48965650Y-63732075D01*
X48875807Y-63805807D01*
X48802075Y-63895650D01*
X48750000Y-63993074D01*
X48697925Y-63895650D01*
X48624193Y-63805807D01*
X48534350Y-63732075D01*
X48431850Y-63677287D01*
X48320630Y-63643549D01*
X48204965Y-63632157D01*
X47775035Y-63632157D01*
X47659370Y-63643549D01*
X47548150Y-63677287D01*
X47445650Y-63732075D01*
X47355807Y-63805807D01*
X47282075Y-63895650D01*
X47269594Y-63919000D01*
X47140658Y-63919000D01*
X46631017Y-63409360D01*
X46612817Y-63387183D01*
X46524348Y-63314579D01*
X46423415Y-63260629D01*
X46313896Y-63227407D01*
X46228540Y-63219000D01*
X46200000Y-63216189D01*
X46171460Y-63219000D01*
X44843965Y-63219000D01*
X44874193Y-63194193D01*
X44947925Y-63104350D01*
X45002713Y-63001850D01*
X45036451Y-62890630D01*
X45047843Y-62774965D01*
X45047843Y-62225035D01*
X45036451Y-62109370D01*
X45002713Y-61998150D01*
X44947925Y-61895650D01*
X44874193Y-61805807D01*
X44784350Y-61732075D01*
X44681850Y-61677287D01*
X44570630Y-61643549D01*
X44454965Y-61632157D01*
X44025035Y-61632157D01*
X43909370Y-61643549D01*
X43798150Y-61677287D01*
X43695650Y-61732075D01*
X43605807Y-61805807D01*
X43532075Y-61895650D01*
X43519594Y-61919000D01*
X42990658Y-61919000D01*
X42915309Y-61843651D01*
X42962696Y-61818322D01*
X43020711Y-61770711D01*
X43068322Y-61712696D01*
X43103701Y-61646508D01*
X43125487Y-61574689D01*
X43132843Y-61500000D01*
X43132843Y-60500000D01*
X43125487Y-60425311D01*
X43103701Y-60353492D01*
X43068322Y-60287304D01*
X43020711Y-60229289D01*
X42962696Y-60181678D01*
X42896508Y-60146299D01*
X42824689Y-60124513D01*
X42750000Y-60117157D01*
X41750000Y-60117157D01*
X41675311Y-60124513D01*
X41603492Y-60146299D01*
X41537304Y-60181678D01*
X41479289Y-60229289D01*
X41431678Y-60287304D01*
X41396299Y-60353492D01*
X41374513Y-60425311D01*
X41367157Y-60500000D01*
X41367157Y-61500000D01*
X41374513Y-61574689D01*
X41396299Y-61646508D01*
X41431678Y-61712696D01*
X41479289Y-61770711D01*
X41537304Y-61818322D01*
X41552108Y-61826235D01*
X41400000Y-61978342D01*
X40590648Y-61168991D01*
X40571017Y-61149360D01*
X40552817Y-61127183D01*
X40464348Y-61054579D01*
X40363415Y-61000629D01*
X40253896Y-60967407D01*
X40168540Y-60959000D01*
X40140000Y-60956189D01*
X40111460Y-60959000D01*
X38565572Y-60959000D01*
X38456180Y-60795283D01*
X38284717Y-60623820D01*
X38083097Y-60489102D01*
X37859069Y-60396307D01*
X37621243Y-60349000D01*
X37378757Y-60349000D01*
X37140931Y-60396307D01*
X36916903Y-60489102D01*
X36715283Y-60623820D01*
X36543820Y-60795283D01*
X36409102Y-60996903D01*
X36316307Y-61220931D01*
X36269000Y-61458757D01*
X36269000Y-61701243D01*
X36316307Y-61939069D01*
X36409102Y-62163097D01*
X36543820Y-62364717D01*
X36715283Y-62536180D01*
X36916903Y-62670898D01*
X37140931Y-62763693D01*
X37378757Y-62811000D01*
X37621243Y-62811000D01*
X37859069Y-62763693D01*
X38083097Y-62670898D01*
X38284717Y-62536180D01*
X38456180Y-62364717D01*
X38590898Y-62163097D01*
X38608335Y-62121000D01*
X39899343Y-62121000D01*
X40919001Y-63140659D01*
X40919000Y-65471460D01*
X40916189Y-65500000D01*
X40919000Y-65528539D01*
X40927407Y-65613895D01*
X40960629Y-65723414D01*
X41014579Y-65824347D01*
X41087183Y-65912817D01*
X41109359Y-65931017D01*
X41542341Y-66364000D01*
X29506369Y-66364000D01*
X27580990Y-64438622D01*
X27580990Y-60147694D01*
X27647275Y-60167801D01*
X27800000Y-60182843D01*
X29300000Y-60182843D01*
X29452725Y-60167801D01*
X29599581Y-60123253D01*
X29734924Y-60050910D01*
X29853554Y-59953554D01*
X29950910Y-59834924D01*
X30023253Y-59699581D01*
X30067801Y-59552725D01*
X30072403Y-59506000D01*
X30427597Y-59506000D01*
X30432199Y-59552725D01*
X30476747Y-59699581D01*
X30549090Y-59834924D01*
X30646446Y-59953554D01*
X30765076Y-60050910D01*
X30900419Y-60123253D01*
X31047275Y-60167801D01*
X31200000Y-60182843D01*
X32700000Y-60182843D01*
X32852725Y-60167801D01*
X32999581Y-60123253D01*
X33134924Y-60050910D01*
X33253554Y-59953554D01*
X33350910Y-59834924D01*
X33423253Y-59699581D01*
X33467801Y-59552725D01*
X33472403Y-59506000D01*
X36360599Y-59506000D01*
X36409102Y-59623097D01*
X36543820Y-59824717D01*
X36715283Y-59996180D01*
X36916903Y-60130898D01*
X37140931Y-60223693D01*
X37378757Y-60271000D01*
X37621243Y-60271000D01*
X37859069Y-60223693D01*
X38083097Y-60130898D01*
X38284717Y-59996180D01*
X38456180Y-59824717D01*
X38590898Y-59623097D01*
X38683693Y-59399069D01*
X38731000Y-59161243D01*
X38731000Y-58918757D01*
X38683693Y-58680931D01*
X38590898Y-58456903D01*
X38456180Y-58255283D01*
X38284717Y-58083820D01*
X38083097Y-57949102D01*
X37859069Y-57856307D01*
X37621243Y-57809000D01*
X37378757Y-57809000D01*
X37140931Y-57856307D01*
X36916903Y-57949102D01*
X36715283Y-58083820D01*
X36543820Y-58255283D01*
X36409102Y-58456903D01*
X36393736Y-58494000D01*
X33472403Y-58494000D01*
X33467801Y-58447275D01*
X33423253Y-58300419D01*
X33350910Y-58165076D01*
X33253554Y-58046446D01*
X33134924Y-57949090D01*
X32999581Y-57876747D01*
X32852725Y-57832199D01*
X32700000Y-57817157D01*
X31200000Y-57817157D01*
X31047275Y-57832199D01*
X30900419Y-57876747D01*
X30765076Y-57949090D01*
X30646446Y-58046446D01*
X30549090Y-58165076D01*
X30476747Y-58300419D01*
X30432199Y-58447275D01*
X30427597Y-58494000D01*
X30072403Y-58494000D01*
X30067801Y-58447275D01*
X30023253Y-58300419D01*
X29950910Y-58165076D01*
X29853554Y-58046446D01*
X29734924Y-57949090D01*
X29599581Y-57876747D01*
X29452725Y-57832199D01*
X29300000Y-57817157D01*
X27800000Y-57817157D01*
X27661578Y-57830790D01*
X28661369Y-56831000D01*
X34569010Y-56831000D01*
X34600000Y-56834052D01*
X34630990Y-56831000D01*
X34630998Y-56831000D01*
X34723698Y-56821870D01*
X34842642Y-56785789D01*
X34952261Y-56727196D01*
X35048343Y-56648343D01*
X35068105Y-56624263D01*
X36042368Y-55650000D01*
X36267157Y-55650000D01*
X36267157Y-57350000D01*
X36274513Y-57424689D01*
X36296299Y-57496508D01*
X36331678Y-57562696D01*
X36379289Y-57620711D01*
X36437304Y-57668322D01*
X36503492Y-57703701D01*
X36575311Y-57725487D01*
X36650000Y-57732843D01*
X38350000Y-57732843D01*
X38424689Y-57725487D01*
X38496508Y-57703701D01*
X38562696Y-57668322D01*
X38620711Y-57620711D01*
X38668322Y-57562696D01*
X38703701Y-57496508D01*
X38725487Y-57424689D01*
X38732843Y-57350000D01*
X38732843Y-57041000D01*
X40019278Y-57041000D01*
X40037183Y-57062817D01*
X40125652Y-57135421D01*
X40226585Y-57189371D01*
X40327741Y-57220056D01*
X40336104Y-57222593D01*
X40450000Y-57233811D01*
X40478540Y-57231000D01*
X43540746Y-57231000D01*
X43587864Y-57269669D01*
X43669001Y-57313038D01*
X43669000Y-58262153D01*
X43615807Y-58305807D01*
X43542075Y-58395650D01*
X43489505Y-58494000D01*
X43132252Y-58494000D01*
X43125487Y-58425311D01*
X43103701Y-58353492D01*
X43068322Y-58287304D01*
X43020711Y-58229289D01*
X42962696Y-58181678D01*
X42896508Y-58146299D01*
X42824689Y-58124513D01*
X42750000Y-58117157D01*
X41750000Y-58117157D01*
X41675311Y-58124513D01*
X41603492Y-58146299D01*
X41537304Y-58181678D01*
X41479289Y-58229289D01*
X41431678Y-58287304D01*
X41396299Y-58353492D01*
X41374513Y-58425311D01*
X41367157Y-58500000D01*
X41367157Y-59500000D01*
X41374513Y-59574689D01*
X41396299Y-59646508D01*
X41431678Y-59712696D01*
X41479289Y-59770711D01*
X41537304Y-59818322D01*
X41603492Y-59853701D01*
X41675311Y-59875487D01*
X41750000Y-59882843D01*
X42750000Y-59882843D01*
X42824689Y-59875487D01*
X42896508Y-59853701D01*
X42962696Y-59818322D01*
X43020711Y-59770711D01*
X43068322Y-59712696D01*
X43103701Y-59646508D01*
X43125487Y-59574689D01*
X43132252Y-59506000D01*
X43489505Y-59506000D01*
X43542075Y-59604350D01*
X43615807Y-59694193D01*
X43705650Y-59767925D01*
X43808150Y-59822713D01*
X43919370Y-59856451D01*
X44035035Y-59867843D01*
X44464965Y-59867843D01*
X44580630Y-59856451D01*
X44691850Y-59822713D01*
X44794350Y-59767925D01*
X44884193Y-59694193D01*
X44957925Y-59604350D01*
X45012713Y-59501850D01*
X45046451Y-59390630D01*
X45057843Y-59274965D01*
X45057843Y-58725035D01*
X45046451Y-58609370D01*
X45012713Y-58498150D01*
X44957925Y-58395650D01*
X44884193Y-58305807D01*
X44831000Y-58262153D01*
X44831000Y-57318383D01*
X44922136Y-57269669D01*
X45005914Y-57200914D01*
X45074669Y-57117136D01*
X45125759Y-57021554D01*
X45157220Y-56917841D01*
X45167843Y-56809984D01*
X45167843Y-56490016D01*
X45157220Y-56382159D01*
X45125759Y-56278446D01*
X45074669Y-56182864D01*
X45005914Y-56099086D01*
X44922136Y-56030331D01*
X44826554Y-55979241D01*
X44722841Y-55947780D01*
X44614984Y-55937157D01*
X43895016Y-55937157D01*
X43787159Y-55947780D01*
X43683446Y-55979241D01*
X43587864Y-56030331D01*
X43540746Y-56069000D01*
X40690722Y-56069000D01*
X40672817Y-56047183D01*
X40584348Y-55974579D01*
X40483415Y-55920629D01*
X40373896Y-55887407D01*
X40288540Y-55879000D01*
X40260000Y-55876189D01*
X40231460Y-55879000D01*
X38732843Y-55879000D01*
X38732843Y-55650000D01*
X38725487Y-55575311D01*
X38703701Y-55503492D01*
X38668322Y-55437304D01*
X38620711Y-55379289D01*
X38562696Y-55331678D01*
X38496508Y-55296299D01*
X38424689Y-55274513D01*
X38350000Y-55267157D01*
X36650000Y-55267157D01*
X36575311Y-55274513D01*
X36503492Y-55296299D01*
X36437304Y-55331678D01*
X36379289Y-55379289D01*
X36331678Y-55437304D01*
X36296299Y-55503492D01*
X36274513Y-55575311D01*
X36267157Y-55650000D01*
X36042368Y-55650000D01*
X38000000Y-53692369D01*
X39471899Y-55164268D01*
X39491657Y-55188343D01*
X39587739Y-55267196D01*
X39697358Y-55325789D01*
X39816302Y-55361870D01*
X39909002Y-55371000D01*
X39909011Y-55371000D01*
X39939999Y-55374052D01*
X39970987Y-55371000D01*
X40053187Y-55371000D01*
X40055807Y-55374193D01*
X40145650Y-55447925D01*
X40248150Y-55502713D01*
X40359370Y-55536451D01*
X40475035Y-55547843D01*
X41024965Y-55547843D01*
X41140630Y-55536451D01*
X41251850Y-55502713D01*
X41354350Y-55447925D01*
X41435899Y-55381000D01*
X41803187Y-55381000D01*
X41805807Y-55384193D01*
X41895650Y-55457925D01*
X41998150Y-55512713D01*
X42109370Y-55546451D01*
X42225035Y-55557843D01*
X42774965Y-55557843D01*
X42890630Y-55546451D01*
X43001850Y-55512713D01*
X43104350Y-55457925D01*
X43194193Y-55384193D01*
X43196813Y-55381000D01*
X43609063Y-55381000D01*
X43683446Y-55420759D01*
X43787159Y-55452220D01*
X43895016Y-55462843D01*
X44614984Y-55462843D01*
X44722841Y-55452220D01*
X44826554Y-55420759D01*
X44922136Y-55369669D01*
X45005914Y-55300914D01*
X45074669Y-55217136D01*
X45125759Y-55121554D01*
X45157220Y-55017841D01*
X45167843Y-54909984D01*
X45167843Y-54590016D01*
X45332157Y-54590016D01*
X45332157Y-54909984D01*
X45342780Y-55017841D01*
X45374241Y-55121554D01*
X45425331Y-55217136D01*
X45494086Y-55300914D01*
X45577864Y-55369669D01*
X45673446Y-55420759D01*
X45777159Y-55452220D01*
X45885016Y-55462843D01*
X46604984Y-55462843D01*
X46712841Y-55452220D01*
X46816554Y-55420759D01*
X46912136Y-55369669D01*
X46959254Y-55331000D01*
X47269594Y-55331000D01*
X47282075Y-55354350D01*
X47355807Y-55444193D01*
X47445650Y-55517925D01*
X47548150Y-55572713D01*
X47659370Y-55606451D01*
X47775035Y-55617843D01*
X48204965Y-55617843D01*
X48320630Y-55606451D01*
X48431850Y-55572713D01*
X48534350Y-55517925D01*
X48624193Y-55444193D01*
X48697925Y-55354350D01*
X48750000Y-55256926D01*
X48802075Y-55354350D01*
X48875807Y-55444193D01*
X48965650Y-55517925D01*
X49068150Y-55572713D01*
X49179370Y-55606451D01*
X49295035Y-55617843D01*
X49724965Y-55617843D01*
X49840630Y-55606451D01*
X49951850Y-55572713D01*
X50054350Y-55517925D01*
X50144193Y-55444193D01*
X50217925Y-55354350D01*
X50230406Y-55331000D01*
X50782157Y-55331000D01*
X50782157Y-55385001D01*
X50794317Y-55508462D01*
X50830329Y-55627179D01*
X50888810Y-55736589D01*
X50967512Y-55832488D01*
X51063411Y-55911190D01*
X51172821Y-55969671D01*
X51291538Y-56005683D01*
X51414999Y-56017843D01*
X52585001Y-56017843D01*
X52708462Y-56005683D01*
X52827179Y-55969671D01*
X52936589Y-55911190D01*
X53032488Y-55832488D01*
X53111190Y-55736589D01*
X53169671Y-55627179D01*
X53205683Y-55508462D01*
X53217843Y-55385001D01*
X53217843Y-55331000D01*
X54010240Y-55331000D01*
X54030325Y-55397211D01*
X54088802Y-55506612D01*
X54167497Y-55602503D01*
X54263388Y-55681198D01*
X54372789Y-55739675D01*
X54491497Y-55775684D01*
X54614948Y-55787843D01*
X57385052Y-55787843D01*
X57508503Y-55775684D01*
X57627211Y-55739675D01*
X57736612Y-55681198D01*
X57832503Y-55602503D01*
X57911198Y-55506612D01*
X57969675Y-55397211D01*
X58005684Y-55278503D01*
X58017843Y-55155052D01*
X58017843Y-54344948D01*
X58005684Y-54221497D01*
X57969675Y-54102789D01*
X57911198Y-53993388D01*
X57832503Y-53897497D01*
X57736612Y-53818802D01*
X57627211Y-53760325D01*
X57508503Y-53724316D01*
X57385052Y-53712157D01*
X54614948Y-53712157D01*
X54491497Y-53724316D01*
X54372789Y-53760325D01*
X54263388Y-53818802D01*
X54167497Y-53897497D01*
X54088802Y-53993388D01*
X54030325Y-54102789D01*
X54010240Y-54169000D01*
X53217843Y-54169000D01*
X53217843Y-54114999D01*
X53205683Y-53991538D01*
X53169671Y-53872821D01*
X53111190Y-53763411D01*
X53032488Y-53667512D01*
X52936589Y-53588810D01*
X52827179Y-53530329D01*
X52708462Y-53494317D01*
X52585001Y-53482157D01*
X51414999Y-53482157D01*
X51291538Y-53494317D01*
X51172821Y-53530329D01*
X51063411Y-53588810D01*
X50967512Y-53667512D01*
X50888810Y-53763411D01*
X50830329Y-53872821D01*
X50794317Y-53991538D01*
X50782157Y-54114999D01*
X50782157Y-54169000D01*
X50230406Y-54169000D01*
X50217925Y-54145650D01*
X50144193Y-54055807D01*
X50054350Y-53982075D01*
X49951850Y-53927287D01*
X49840630Y-53893549D01*
X49724965Y-53882157D01*
X49295035Y-53882157D01*
X49179370Y-53893549D01*
X49068150Y-53927287D01*
X48965650Y-53982075D01*
X48875807Y-54055807D01*
X48802075Y-54145650D01*
X48750000Y-54243074D01*
X48697925Y-54145650D01*
X48624193Y-54055807D01*
X48534350Y-53982075D01*
X48431850Y-53927287D01*
X48320630Y-53893549D01*
X48204965Y-53882157D01*
X47775035Y-53882157D01*
X47659370Y-53893549D01*
X47548150Y-53927287D01*
X47445650Y-53982075D01*
X47355807Y-54055807D01*
X47282075Y-54145650D01*
X47269594Y-54169000D01*
X46959254Y-54169000D01*
X46912136Y-54130331D01*
X46816554Y-54079241D01*
X46712841Y-54047780D01*
X46604984Y-54037157D01*
X45885016Y-54037157D01*
X45777159Y-54047780D01*
X45673446Y-54079241D01*
X45577864Y-54130331D01*
X45494086Y-54199086D01*
X45425331Y-54282864D01*
X45374241Y-54378446D01*
X45342780Y-54482159D01*
X45332157Y-54590016D01*
X45167843Y-54590016D01*
X45157220Y-54482159D01*
X45125759Y-54378446D01*
X45074669Y-54282864D01*
X45005914Y-54199086D01*
X44922136Y-54130331D01*
X44826554Y-54079241D01*
X44722841Y-54047780D01*
X44614984Y-54037157D01*
X43895016Y-54037157D01*
X43787159Y-54047780D01*
X43683446Y-54079241D01*
X43609063Y-54119000D01*
X43196813Y-54119000D01*
X43194193Y-54115807D01*
X43104350Y-54042075D01*
X43001850Y-53987287D01*
X42890630Y-53953549D01*
X42774965Y-53942157D01*
X42225035Y-53942157D01*
X42109370Y-53953549D01*
X41998150Y-53987287D01*
X41895650Y-54042075D01*
X41805807Y-54115807D01*
X41803187Y-54119000D01*
X41455020Y-54119000D01*
X41444193Y-54105807D01*
X41354350Y-54032075D01*
X41251850Y-53977287D01*
X41140630Y-53943549D01*
X41024965Y-53932157D01*
X40475035Y-53932157D01*
X40359370Y-53943549D01*
X40248150Y-53977287D01*
X40145650Y-54032075D01*
X40134003Y-54041634D01*
X38631000Y-52538632D01*
X38631000Y-51916566D01*
X38631870Y-51913698D01*
X38641000Y-51820998D01*
X38641000Y-51820988D01*
X38644052Y-51790001D01*
X38641000Y-51759013D01*
X38641000Y-51631000D01*
X72831525Y-51631000D01*
X73369000Y-52168476D01*
X73369001Y-55272219D01*
X73355327Y-55297800D01*
X73319316Y-55416511D01*
X73307157Y-55539966D01*
X73307157Y-58410034D01*
X73319316Y-58533489D01*
X73355327Y-58652200D01*
X73413805Y-58761604D01*
X73492502Y-58857498D01*
X73588396Y-58936195D01*
X73697800Y-58994673D01*
X73816511Y-59030684D01*
X73939966Y-59042843D01*
X75060034Y-59042843D01*
X75183489Y-59030684D01*
X75302200Y-58994673D01*
X75411604Y-58936195D01*
X75507498Y-58857498D01*
X75586195Y-58761604D01*
X75644673Y-58652200D01*
X75680684Y-58533489D01*
X75692843Y-58410034D01*
X75692843Y-57856000D01*
X77110079Y-57856000D01*
X78586439Y-59332361D01*
X78614025Y-59365975D01*
X78647637Y-59393559D01*
X78748174Y-59476068D01*
X78792948Y-59500000D01*
X78748174Y-59523932D01*
X78732920Y-59536451D01*
X78614025Y-59634025D01*
X78586439Y-59667639D01*
X77110079Y-61144000D01*
X75692843Y-61144000D01*
X75692843Y-60589966D01*
X75680684Y-60466511D01*
X75644673Y-60347800D01*
X75586195Y-60238396D01*
X75507498Y-60142502D01*
X75411604Y-60063805D01*
X75302200Y-60005327D01*
X75183489Y-59969316D01*
X75060034Y-59957157D01*
X73939966Y-59957157D01*
X73816511Y-59969316D01*
X73697800Y-60005327D01*
X73588396Y-60063805D01*
X73492502Y-60142502D01*
X73413805Y-60238396D01*
X73355327Y-60347800D01*
X73319316Y-60466511D01*
X73307157Y-60589966D01*
X73307157Y-61144000D01*
X69889922Y-61144000D01*
X69381000Y-60635079D01*
X69381000Y-58190903D01*
X69436589Y-58161190D01*
X69532488Y-58082488D01*
X69611190Y-57986589D01*
X69669671Y-57877179D01*
X69705683Y-57758462D01*
X69717843Y-57635001D01*
X69717843Y-56364999D01*
X69705683Y-56241538D01*
X69669671Y-56122821D01*
X69611190Y-56013411D01*
X69532488Y-55917512D01*
X69436589Y-55838810D01*
X69327179Y-55780329D01*
X69208462Y-55744317D01*
X69085001Y-55732157D01*
X67914999Y-55732157D01*
X67791538Y-55744317D01*
X67672821Y-55780329D01*
X67563411Y-55838810D01*
X67467512Y-55917512D01*
X67388810Y-56013411D01*
X67332371Y-56119000D01*
X66052843Y-56119000D01*
X66052843Y-54740410D01*
X66040694Y-54617064D01*
X66004716Y-54498457D01*
X65946289Y-54389149D01*
X65867660Y-54293340D01*
X65771851Y-54214711D01*
X65662543Y-54156284D01*
X65543936Y-54120306D01*
X65420590Y-54108157D01*
X59599410Y-54108157D01*
X59476064Y-54120306D01*
X59357457Y-54156284D01*
X59248149Y-54214711D01*
X59152340Y-54293340D01*
X59073711Y-54389149D01*
X59015284Y-54498457D01*
X58979306Y-54617064D01*
X58967157Y-54740410D01*
X58967157Y-59331590D01*
X58979306Y-59454936D01*
X59015284Y-59573543D01*
X59073711Y-59682851D01*
X59152340Y-59778660D01*
X59248149Y-59857289D01*
X59357457Y-59915716D01*
X59476064Y-59951694D01*
X59599410Y-59963843D01*
X65420590Y-59963843D01*
X65543936Y-59951694D01*
X65662543Y-59915716D01*
X65771851Y-59857289D01*
X65867660Y-59778660D01*
X65946289Y-59682851D01*
X66004716Y-59573543D01*
X66040694Y-59454936D01*
X66052843Y-59331590D01*
X66052843Y-57881000D01*
X67332371Y-57881000D01*
X67388810Y-57986589D01*
X67467512Y-58082488D01*
X67563411Y-58161190D01*
X67619001Y-58190903D01*
X67619000Y-60956730D01*
X67614738Y-61000000D01*
X67619000Y-61043270D01*
X67619000Y-61043272D01*
X67631748Y-61172705D01*
X67675394Y-61316585D01*
X67682125Y-61338774D01*
X67763932Y-61491825D01*
X67782606Y-61514579D01*
X67874025Y-61625975D01*
X67907644Y-61653565D01*
X68129079Y-61875000D01*
X67907644Y-62096435D01*
X67874025Y-62124025D01*
X67813558Y-62197706D01*
X67763932Y-62258175D01*
X67701140Y-62375652D01*
X67682125Y-62411226D01*
X67631748Y-62577295D01*
X67619663Y-62700000D01*
X67614738Y-62750000D01*
X67619000Y-62793270D01*
X67619001Y-65512946D01*
X67552512Y-65567512D01*
X67473810Y-65663411D01*
X67415329Y-65772821D01*
X67379317Y-65891538D01*
X67367157Y-66014999D01*
X67367157Y-66030000D01*
X66052843Y-66030000D01*
X66052843Y-64490410D01*
X66040694Y-64367064D01*
X66004716Y-64248457D01*
X65946289Y-64139149D01*
X65867660Y-64043340D01*
X65771851Y-63964711D01*
X65662543Y-63906284D01*
X65543936Y-63870306D01*
X65420590Y-63858157D01*
X59599410Y-63858157D01*
X59476064Y-63870306D01*
X59357457Y-63906284D01*
X59248149Y-63964711D01*
X59152340Y-64043340D01*
X59073711Y-64139149D01*
X59015284Y-64248457D01*
X58979306Y-64367064D01*
X58967157Y-64490410D01*
X58967157Y-69081590D01*
X58979306Y-69204936D01*
X59015284Y-69323543D01*
X59073711Y-69432851D01*
X59152340Y-69528660D01*
X59248149Y-69607289D01*
X59357457Y-69665716D01*
X59476064Y-69701694D01*
X59599410Y-69713843D01*
X65420590Y-69713843D01*
X65543936Y-69701694D01*
X65662543Y-69665716D01*
X65771851Y-69607289D01*
X65867660Y-69528660D01*
X65946289Y-69432851D01*
X66004716Y-69323543D01*
X66040694Y-69204936D01*
X66052843Y-69081590D01*
X66052843Y-68829511D01*
X84769000Y-68829511D01*
X84769000Y-69170489D01*
X84835521Y-69504914D01*
X84966007Y-69819936D01*
X85155444Y-70103448D01*
X85396552Y-70344556D01*
X85680064Y-70533993D01*
X85995086Y-70664479D01*
X86329511Y-70731000D01*
X86670489Y-70731000D01*
X87004914Y-70664479D01*
X87319936Y-70533993D01*
X87603448Y-70344556D01*
X87844556Y-70103448D01*
X88033993Y-69819936D01*
X88164479Y-69504914D01*
X88231000Y-69170489D01*
X88231000Y-68829511D01*
X88164479Y-68495086D01*
X88033993Y-68180064D01*
X87844556Y-67896552D01*
X87603448Y-67655444D01*
X87319936Y-67466007D01*
X87004914Y-67335521D01*
X86670489Y-67269000D01*
X86329511Y-67269000D01*
X85995086Y-67335521D01*
X85680064Y-67466007D01*
X85396552Y-67655444D01*
X85155444Y-67896552D01*
X84966007Y-68180064D01*
X84835521Y-68495086D01*
X84769000Y-68829511D01*
X66052843Y-68829511D01*
X66052843Y-67542000D01*
X67478251Y-67542000D01*
X67552512Y-67632488D01*
X67648411Y-67711190D01*
X67757821Y-67769671D01*
X67876538Y-67805683D01*
X67999999Y-67817843D01*
X69270001Y-67817843D01*
X69393462Y-67805683D01*
X69512179Y-67769671D01*
X69621589Y-67711190D01*
X69717488Y-67632488D01*
X69796190Y-67536589D01*
X69854671Y-67427179D01*
X69890683Y-67308462D01*
X69902843Y-67185001D01*
X69902843Y-66014999D01*
X69890683Y-65891538D01*
X69854671Y-65772821D01*
X69796190Y-65663411D01*
X69717488Y-65567512D01*
X69621589Y-65488810D01*
X69512179Y-65430329D01*
X69393462Y-65394317D01*
X69381000Y-65393090D01*
X69381000Y-63114921D01*
X69589922Y-62906000D01*
X73307157Y-62906000D01*
X73307157Y-63460034D01*
X73319316Y-63583489D01*
X73355327Y-63702200D01*
X73413805Y-63811604D01*
X73492502Y-63907498D01*
X73588396Y-63986195D01*
X73697800Y-64044673D01*
X73816511Y-64080684D01*
X73939966Y-64092843D01*
X73994000Y-64092843D01*
X73994000Y-64475154D01*
X73991553Y-64500000D01*
X73994000Y-64524846D01*
X73994000Y-64524853D01*
X74001322Y-64599192D01*
X74030255Y-64694574D01*
X74077241Y-64782479D01*
X74140473Y-64859527D01*
X74159785Y-64875376D01*
X75024628Y-65740220D01*
X75040473Y-65759527D01*
X75117521Y-65822759D01*
X75186309Y-65859527D01*
X75205425Y-65869745D01*
X75300806Y-65898678D01*
X75310694Y-65899652D01*
X75375146Y-65906000D01*
X75375153Y-65906000D01*
X75399999Y-65908447D01*
X75424845Y-65906000D01*
X76117748Y-65906000D01*
X76124513Y-65974689D01*
X76146299Y-66046508D01*
X76181678Y-66112696D01*
X76229289Y-66170711D01*
X76287304Y-66218322D01*
X76353492Y-66253701D01*
X76425311Y-66275487D01*
X76500000Y-66282843D01*
X77500000Y-66282843D01*
X77574689Y-66275487D01*
X77646508Y-66253701D01*
X77712696Y-66218322D01*
X77770711Y-66170711D01*
X77818322Y-66112696D01*
X77853701Y-66046508D01*
X77875487Y-65974689D01*
X77882843Y-65900000D01*
X77882843Y-64900000D01*
X77875487Y-64825311D01*
X77853701Y-64753492D01*
X77818322Y-64687304D01*
X77770711Y-64629289D01*
X77712696Y-64581678D01*
X77646508Y-64546299D01*
X77574689Y-64524513D01*
X77500000Y-64517157D01*
X76500000Y-64517157D01*
X76425311Y-64524513D01*
X76353492Y-64546299D01*
X76287304Y-64581678D01*
X76229289Y-64629289D01*
X76181678Y-64687304D01*
X76146299Y-64753492D01*
X76124513Y-64825311D01*
X76117748Y-64894000D01*
X75609592Y-64894000D01*
X75006000Y-64290409D01*
X75006000Y-64092843D01*
X75060034Y-64092843D01*
X75183489Y-64080684D01*
X75302200Y-64044673D01*
X75411604Y-63986195D01*
X75507498Y-63907498D01*
X75586195Y-63811604D01*
X75644673Y-63702200D01*
X75680684Y-63583489D01*
X75692843Y-63460034D01*
X75692843Y-62906000D01*
X77431730Y-62906000D01*
X77475000Y-62910262D01*
X77518270Y-62906000D01*
X77518273Y-62906000D01*
X77647706Y-62893252D01*
X77813775Y-62842875D01*
X77966825Y-62761068D01*
X78100975Y-62650975D01*
X78128566Y-62617355D01*
X79604922Y-61141000D01*
X81295079Y-61141000D01*
X81746438Y-61592360D01*
X81774025Y-61625975D01*
X81840022Y-61680137D01*
X81908174Y-61736068D01*
X82038647Y-61805807D01*
X82061225Y-61817875D01*
X82227294Y-61868252D01*
X82356727Y-61881000D01*
X82356729Y-61881000D01*
X82399999Y-61885262D01*
X82443269Y-61881000D01*
X82686903Y-61881000D01*
X82746446Y-61953554D01*
X82865076Y-62050910D01*
X83000419Y-62123253D01*
X83147275Y-62167801D01*
X83300000Y-62182843D01*
X84800000Y-62182843D01*
X84952725Y-62167801D01*
X85099581Y-62123253D01*
X85234924Y-62050910D01*
X85353554Y-61953554D01*
X85413097Y-61881000D01*
X86086903Y-61881000D01*
X86146446Y-61953554D01*
X86265076Y-62050910D01*
X86400419Y-62123253D01*
X86547275Y-62167801D01*
X86700000Y-62182843D01*
X88200000Y-62182843D01*
X88352725Y-62167801D01*
X88499581Y-62123253D01*
X88634924Y-62050910D01*
X88753554Y-61953554D01*
X88850910Y-61834924D01*
X88923253Y-61699581D01*
X88967801Y-61552725D01*
X88982843Y-61400000D01*
X88982843Y-60600000D01*
X88967801Y-60447275D01*
X88923253Y-60300419D01*
X88850910Y-60165076D01*
X88753554Y-60046446D01*
X88634924Y-59949090D01*
X88499581Y-59876747D01*
X88352725Y-59832199D01*
X88200000Y-59817157D01*
X86700000Y-59817157D01*
X86547275Y-59832199D01*
X86400419Y-59876747D01*
X86265076Y-59949090D01*
X86146446Y-60046446D01*
X86086903Y-60119000D01*
X85413097Y-60119000D01*
X85353554Y-60046446D01*
X85234924Y-59949090D01*
X85099581Y-59876747D01*
X84952725Y-59832199D01*
X84800000Y-59817157D01*
X83300000Y-59817157D01*
X83147275Y-59832199D01*
X83000419Y-59876747D01*
X82865076Y-59949090D01*
X82746446Y-60046446D01*
X82722070Y-60076148D01*
X82313565Y-59667644D01*
X82285975Y-59634025D01*
X82151825Y-59523932D01*
X82107051Y-59500000D01*
X82151825Y-59476068D01*
X82285975Y-59365975D01*
X82313565Y-59332356D01*
X82722070Y-58923852D01*
X82746446Y-58953554D01*
X82865076Y-59050910D01*
X83000419Y-59123253D01*
X83147275Y-59167801D01*
X83300000Y-59182843D01*
X84800000Y-59182843D01*
X84952725Y-59167801D01*
X85099581Y-59123253D01*
X85234924Y-59050910D01*
X85353554Y-58953554D01*
X85413097Y-58881000D01*
X86086903Y-58881000D01*
X86146446Y-58953554D01*
X86265076Y-59050910D01*
X86400419Y-59123253D01*
X86547275Y-59167801D01*
X86700000Y-59182843D01*
X88200000Y-59182843D01*
X88352725Y-59167801D01*
X88499581Y-59123253D01*
X88634924Y-59050910D01*
X88753554Y-58953554D01*
X88850910Y-58834924D01*
X88923253Y-58699581D01*
X88967801Y-58552725D01*
X88982843Y-58400000D01*
X88982843Y-57600000D01*
X88967801Y-57447275D01*
X88923253Y-57300419D01*
X88850910Y-57165076D01*
X88753554Y-57046446D01*
X88634924Y-56949090D01*
X88499581Y-56876747D01*
X88352725Y-56832199D01*
X88200000Y-56817157D01*
X86700000Y-56817157D01*
X86547275Y-56832199D01*
X86400419Y-56876747D01*
X86265076Y-56949090D01*
X86146446Y-57046446D01*
X86086903Y-57119000D01*
X85413097Y-57119000D01*
X85353554Y-57046446D01*
X85234924Y-56949090D01*
X85099581Y-56876747D01*
X84952725Y-56832199D01*
X84800000Y-56817157D01*
X83300000Y-56817157D01*
X83147275Y-56832199D01*
X83000419Y-56876747D01*
X82865076Y-56949090D01*
X82746446Y-57046446D01*
X82686903Y-57119000D01*
X82443269Y-57119000D01*
X82399999Y-57114738D01*
X82356729Y-57119000D01*
X82356727Y-57119000D01*
X82227294Y-57131748D01*
X82061225Y-57182125D01*
X81908174Y-57263932D01*
X81841709Y-57318479D01*
X81774025Y-57374025D01*
X81746438Y-57407640D01*
X81295079Y-57859000D01*
X79604922Y-57859000D01*
X78128566Y-56382645D01*
X78100975Y-56349025D01*
X77966825Y-56238932D01*
X77813775Y-56157125D01*
X77647706Y-56106748D01*
X77518273Y-56094000D01*
X77518270Y-56094000D01*
X77475000Y-56089738D01*
X77431730Y-56094000D01*
X75692843Y-56094000D01*
X75692843Y-55539966D01*
X75680684Y-55416511D01*
X75644673Y-55297800D01*
X75631000Y-55272220D01*
X75631000Y-51755547D01*
X75636471Y-51699999D01*
X75631000Y-51644451D01*
X75631000Y-51644442D01*
X75614635Y-51478285D01*
X75549963Y-51265091D01*
X75444942Y-51068610D01*
X75303607Y-50896393D01*
X75260455Y-50860979D01*
X74060452Y-49660977D01*
X73931389Y-49555058D01*
X73734908Y-49450037D01*
X73521714Y-49385365D01*
X73300000Y-49363529D01*
X73244450Y-49369000D01*
X43708967Y-49369000D01*
X43744673Y-49302200D01*
X43780684Y-49183489D01*
X43792843Y-49060034D01*
X43792843Y-47939966D01*
X43781965Y-47829511D01*
X84519000Y-47829511D01*
X84519000Y-48170489D01*
X84585521Y-48504914D01*
X84716007Y-48819936D01*
X84905444Y-49103448D01*
X85146552Y-49344556D01*
X85430064Y-49533993D01*
X85745086Y-49664479D01*
X86079511Y-49731000D01*
X86420489Y-49731000D01*
X86754914Y-49664479D01*
X87069936Y-49533993D01*
X87353448Y-49344556D01*
X87594556Y-49103448D01*
X87783993Y-48819936D01*
X87914479Y-48504914D01*
X87981000Y-48170489D01*
X87981000Y-47829511D01*
X87914479Y-47495086D01*
X87783993Y-47180064D01*
X87594556Y-46896552D01*
X87353448Y-46655444D01*
X87069936Y-46466007D01*
X86754914Y-46335521D01*
X86420489Y-46269000D01*
X86079511Y-46269000D01*
X85745086Y-46335521D01*
X85430064Y-46466007D01*
X85146552Y-46655444D01*
X84905444Y-46896552D01*
X84716007Y-47180064D01*
X84585521Y-47495086D01*
X84519000Y-47829511D01*
X43781965Y-47829511D01*
X43780684Y-47816511D01*
X43744673Y-47697800D01*
X43686195Y-47588396D01*
X43607498Y-47492502D01*
X43511604Y-47413805D01*
X43402200Y-47355327D01*
X43283489Y-47319316D01*
X43160034Y-47307157D01*
X40289966Y-47307157D01*
X40166511Y-47319316D01*
X40047800Y-47355327D01*
X39938396Y-47413805D01*
X39842502Y-47492502D01*
X39763805Y-47588396D01*
X39747447Y-47619000D01*
X38897646Y-47619000D01*
X38881000Y-47587858D01*
X38881000Y-46456727D01*
X38868252Y-46327294D01*
X38817875Y-46161225D01*
X38797873Y-46123803D01*
X38796451Y-46109370D01*
X38762713Y-45998150D01*
X38707925Y-45895650D01*
X38634193Y-45805807D01*
X38544350Y-45732075D01*
X38441850Y-45677287D01*
X38330630Y-45643549D01*
X38214965Y-45632157D01*
X38174053Y-45632157D01*
X38172705Y-45631748D01*
X38000000Y-45614738D01*
X37827294Y-45631748D01*
X37825946Y-45632157D01*
X37785035Y-45632157D01*
X37669370Y-45643549D01*
X37558150Y-45677287D01*
X37455650Y-45732075D01*
X37365807Y-45805807D01*
X37292075Y-45895650D01*
X37237287Y-45998150D01*
X37203549Y-46109370D01*
X37202127Y-46123804D01*
X37182125Y-46161226D01*
X37131748Y-46327295D01*
X37119000Y-46456728D01*
X37119001Y-47587857D01*
X37100326Y-47622794D01*
X37064316Y-47741503D01*
X37052157Y-47864956D01*
X37052157Y-49135044D01*
X37064316Y-49258497D01*
X37100326Y-49377206D01*
X37129001Y-49430852D01*
X37129000Y-49790696D01*
X37119655Y-49802083D01*
X37034350Y-49732075D01*
X36931850Y-49677287D01*
X36820630Y-49643549D01*
X36704965Y-49632157D01*
X36664054Y-49632157D01*
X36662706Y-49631748D01*
X36533273Y-49619000D01*
X33313097Y-49619000D01*
X33253554Y-49546446D01*
X33134924Y-49449090D01*
X32999581Y-49376747D01*
X32852725Y-49332199D01*
X32700000Y-49317157D01*
X31200000Y-49317157D01*
X31047275Y-49332199D01*
X30900419Y-49376747D01*
X30765076Y-49449090D01*
X30646446Y-49546446D01*
X30586903Y-49619000D01*
X29913097Y-49619000D01*
X29853554Y-49546446D01*
X29734924Y-49449090D01*
X29599581Y-49376747D01*
X29452725Y-49332199D01*
X29300000Y-49317157D01*
X27800000Y-49317157D01*
X27647275Y-49332199D01*
X27500419Y-49376747D01*
X27365076Y-49449090D01*
X27246446Y-49546446D01*
X27149090Y-49665076D01*
X27076747Y-49800419D01*
X27032199Y-49947275D01*
X27017157Y-50100000D01*
X27017157Y-50900000D01*
X27032199Y-51052725D01*
X27076747Y-51199581D01*
X27149090Y-51334924D01*
X27246446Y-51453554D01*
X27365076Y-51550910D01*
X27500419Y-51623253D01*
X27647275Y-51667801D01*
X27800000Y-51682843D01*
X29300000Y-51682843D01*
X29452725Y-51667801D01*
X29599581Y-51623253D01*
X29734924Y-51550910D01*
X29853554Y-51453554D01*
X29913097Y-51381000D01*
X30586903Y-51381000D01*
X30646446Y-51453554D01*
X30765076Y-51550910D01*
X30900419Y-51623253D01*
X31047275Y-51667801D01*
X31200000Y-51682843D01*
X32700000Y-51682843D01*
X32852725Y-51667801D01*
X32999581Y-51623253D01*
X33134924Y-51550910D01*
X33253554Y-51453554D01*
X33313097Y-51381000D01*
X36533273Y-51381000D01*
X36662706Y-51368252D01*
X36664054Y-51367843D01*
X36704965Y-51367843D01*
X36820630Y-51356451D01*
X36931850Y-51322713D01*
X37034350Y-51267925D01*
X37119655Y-51197917D01*
X37206393Y-51303607D01*
X37378610Y-51444942D01*
X37379000Y-51445151D01*
X37379000Y-51673434D01*
X37378130Y-51676302D01*
X37369000Y-51769002D01*
X37369000Y-51769010D01*
X37365948Y-51800000D01*
X37369000Y-51830990D01*
X37369000Y-52538631D01*
X34338632Y-55569000D01*
X28430990Y-55569000D01*
X28400000Y-55565948D01*
X28369009Y-55569000D01*
X28369002Y-55569000D01*
X28276302Y-55578130D01*
X28157358Y-55614211D01*
X28047739Y-55672804D01*
X27951657Y-55751657D01*
X27931899Y-55775732D01*
X26656000Y-57051632D01*
X26656000Y-45127000D01*
X89124170Y-45127000D01*
X89344000Y-68868668D01*
G37*
X89344000Y-68868668D02*
X89344000Y-71873000D01*
X26656000Y-71873000D01*
X26656000Y-65298368D01*
X28776899Y-67419268D01*
X28780959Y-67424215D01*
X28680064Y-67466007D01*
X28396552Y-67655444D01*
X28155444Y-67896552D01*
X27966007Y-68180064D01*
X27835521Y-68495086D01*
X27769000Y-68829511D01*
X27769000Y-69170489D01*
X27835521Y-69504914D01*
X27966007Y-69819936D01*
X28155444Y-70103448D01*
X28396552Y-70344556D01*
X28680064Y-70533993D01*
X28995086Y-70664479D01*
X29329511Y-70731000D01*
X29670489Y-70731000D01*
X30004914Y-70664479D01*
X30319936Y-70533993D01*
X30603448Y-70344556D01*
X30844556Y-70103448D01*
X31033993Y-69819936D01*
X31164479Y-69504914D01*
X31231000Y-69170489D01*
X31231000Y-68829511D01*
X31164479Y-68495086D01*
X31033993Y-68180064D01*
X30844556Y-67896552D01*
X30603448Y-67655444D01*
X30559382Y-67626000D01*
X41859001Y-67626000D01*
X41859001Y-68053186D01*
X41855807Y-68055807D01*
X41782075Y-68145650D01*
X41727287Y-68248150D01*
X41693549Y-68359370D01*
X41682157Y-68475035D01*
X41682157Y-69024965D01*
X41693549Y-69140630D01*
X41727287Y-69251850D01*
X41782075Y-69354350D01*
X41855807Y-69444193D01*
X41859000Y-69446814D01*
X41859000Y-69803186D01*
X41855807Y-69805807D01*
X41782075Y-69895650D01*
X41727287Y-69998150D01*
X41693549Y-70109370D01*
X41682157Y-70225035D01*
X41682157Y-70774965D01*
X41693549Y-70890630D01*
X41727287Y-71001850D01*
X41782075Y-71104350D01*
X41855807Y-71194193D01*
X41945650Y-71267925D01*
X42048150Y-71322713D01*
X42159370Y-71356451D01*
X42275035Y-71367843D01*
X42704965Y-71367843D01*
X42820630Y-71356451D01*
X42931850Y-71322713D01*
X43034350Y-71267925D01*
X43124193Y-71194193D01*
X43197925Y-71104350D01*
X43252713Y-71001850D01*
X43286451Y-70890630D01*
X43297843Y-70774965D01*
X43297843Y-70225035D01*
X43286451Y-70109370D01*
X43252713Y-69998150D01*
X43197925Y-69895650D01*
X43124193Y-69805807D01*
X43121000Y-69803187D01*
X43121000Y-69446813D01*
X43124193Y-69444193D01*
X43197925Y-69354350D01*
X43252713Y-69251850D01*
X43286451Y-69140630D01*
X43297843Y-69024965D01*
X43297843Y-68475035D01*
X43286451Y-68359370D01*
X43252713Y-68248150D01*
X43197925Y-68145650D01*
X43124193Y-68055807D01*
X43121000Y-68053187D01*
X43121000Y-67721439D01*
X43169669Y-67662136D01*
X43220759Y-67566554D01*
X43252220Y-67462841D01*
X43262843Y-67354984D01*
X43262843Y-66635016D01*
X43257523Y-66581000D01*
X43742477Y-66581000D01*
X43737157Y-66635016D01*
X43737157Y-67354984D01*
X43747780Y-67462841D01*
X43779241Y-67566554D01*
X43830331Y-67662136D01*
X43899086Y-67745914D01*
X43982864Y-67814669D01*
X44078446Y-67865759D01*
X44182159Y-67897220D01*
X44290016Y-67907843D01*
X44609984Y-67907843D01*
X44717841Y-67897220D01*
X44821554Y-67865759D01*
X44917136Y-67814669D01*
X45000914Y-67745914D01*
X45069669Y-67662136D01*
X45120759Y-67566554D01*
X45152220Y-67462841D01*
X45162843Y-67354984D01*
X45162843Y-66635016D01*
X45152220Y-66527159D01*
X45120759Y-66423446D01*
X45069669Y-66327864D01*
X45031000Y-66280746D01*
X45031000Y-66228540D01*
X45033811Y-66200000D01*
X45022593Y-66086104D01*
X45021396Y-66082157D01*
X44989371Y-65976585D01*
X44935421Y-65875652D01*
X44862817Y-65787183D01*
X44840644Y-65768987D01*
X44681016Y-65609359D01*
X44662817Y-65587183D01*
X44574348Y-65514579D01*
X44473415Y-65460629D01*
X44363896Y-65427407D01*
X44278540Y-65419000D01*
X44250000Y-65416189D01*
X44221460Y-65419000D01*
X43257523Y-65419000D01*
X43262843Y-65364984D01*
X43262843Y-64645016D01*
X43252220Y-64537159D01*
X43220759Y-64433446D01*
X43192726Y-64381000D01*
X45959343Y-64381000D01*
X46468987Y-64890645D01*
X46487183Y-64912817D01*
X46575652Y-64985421D01*
X46676585Y-65039371D01*
X46786104Y-65072593D01*
X46871460Y-65081000D01*
X46871462Y-65081000D01*
X46899999Y-65083811D01*
X46928536Y-65081000D01*
X47269594Y-65081000D01*
X47282075Y-65104350D01*
X47355807Y-65194193D01*
X47445650Y-65267925D01*
X47548150Y-65322713D01*
X47659370Y-65356451D01*
X47775035Y-65367843D01*
X48204965Y-65367843D01*
X48320630Y-65356451D01*
X48431850Y-65322713D01*
X48534350Y-65267925D01*
X48624193Y-65194193D01*
X48697925Y-65104350D01*
X48750000Y-65006926D01*
X48802075Y-65104350D01*
X48875807Y-65194193D01*
X48965650Y-65267925D01*
X49068150Y-65322713D01*
X49179370Y-65356451D01*
X49295035Y-65367843D01*
X49724965Y-65367843D01*
X49840630Y-65356451D01*
X49951850Y-65322713D01*
X50054350Y-65267925D01*
X50144193Y-65194193D01*
X50217925Y-65104350D01*
X50230406Y-65081000D01*
X50782157Y-65081000D01*
X50782157Y-65135001D01*
X50794317Y-65258462D01*
X50830329Y-65377179D01*
X50888810Y-65486589D01*
X50967512Y-65582488D01*
X51063411Y-65661190D01*
X51172821Y-65719671D01*
X51291538Y-65755683D01*
X51414999Y-65767843D01*
X52585001Y-65767843D01*
X52708462Y-65755683D01*
X52827179Y-65719671D01*
X52936589Y-65661190D01*
X53032488Y-65582488D01*
X53111190Y-65486589D01*
X53169671Y-65377179D01*
X53205683Y-65258462D01*
X53217843Y-65135001D01*
X53217843Y-65081000D01*
X54010240Y-65081000D01*
X54030325Y-65147211D01*
X54088802Y-65256612D01*
X54167497Y-65352503D01*
X54263388Y-65431198D01*
X54372789Y-65489675D01*
X54491497Y-65525684D01*
X54614948Y-65537843D01*
X57385052Y-65537843D01*
X57508503Y-65525684D01*
X57627211Y-65489675D01*
X57736612Y-65431198D01*
X57832503Y-65352503D01*
X57911198Y-65256612D01*
X57969675Y-65147211D01*
X58005684Y-65028503D01*
X58017843Y-64905052D01*
X58017843Y-64094948D01*
X58005684Y-63971497D01*
X57969675Y-63852789D01*
X57911198Y-63743388D01*
X57832503Y-63647497D01*
X57736612Y-63568802D01*
X57627211Y-63510325D01*
X57508503Y-63474316D01*
X57385052Y-63462157D01*
X54614948Y-63462157D01*
X54491497Y-63474316D01*
X54372789Y-63510325D01*
X54263388Y-63568802D01*
X54167497Y-63647497D01*
X54088802Y-63743388D01*
X54030325Y-63852789D01*
X54010240Y-63919000D01*
X53217843Y-63919000D01*
X53217843Y-63864999D01*
X53205683Y-63741538D01*
X53169671Y-63622821D01*
X53111190Y-63513411D01*
X53032488Y-63417512D01*
X52936589Y-63338810D01*
X52827179Y-63280329D01*
X52708462Y-63244317D01*
X52585001Y-63232157D01*
X51414999Y-63232157D01*
X51291538Y-63244317D01*
X51172821Y-63280329D01*
X51063411Y-63338810D01*
X50967512Y-63417512D01*
X50888810Y-63513411D01*
X50830329Y-63622821D01*
X50794317Y-63741538D01*
X50782157Y-63864999D01*
X50782157Y-63919000D01*
X50230406Y-63919000D01*
X50217925Y-63895650D01*
X50144193Y-63805807D01*
X50054350Y-63732075D01*
X49951850Y-63677287D01*
X49840630Y-63643549D01*
X49724965Y-63632157D01*
X49295035Y-63632157D01*
X49179370Y-63643549D01*
X49068150Y-63677287D01*
X48965650Y-63732075D01*
X48875807Y-63805807D01*
X48802075Y-63895650D01*
X48750000Y-63993074D01*
X48697925Y-63895650D01*
X48624193Y-63805807D01*
X48534350Y-63732075D01*
X48431850Y-63677287D01*
X48320630Y-63643549D01*
X48204965Y-63632157D01*
X47775035Y-63632157D01*
X47659370Y-63643549D01*
X47548150Y-63677287D01*
X47445650Y-63732075D01*
X47355807Y-63805807D01*
X47282075Y-63895650D01*
X47269594Y-63919000D01*
X47140658Y-63919000D01*
X46631017Y-63409360D01*
X46612817Y-63387183D01*
X46524348Y-63314579D01*
X46423415Y-63260629D01*
X46313896Y-63227407D01*
X46228540Y-63219000D01*
X46200000Y-63216189D01*
X46171460Y-63219000D01*
X44843965Y-63219000D01*
X44874193Y-63194193D01*
X44947925Y-63104350D01*
X45002713Y-63001850D01*
X45036451Y-62890630D01*
X45047843Y-62774965D01*
X45047843Y-62225035D01*
X45036451Y-62109370D01*
X45002713Y-61998150D01*
X44947925Y-61895650D01*
X44874193Y-61805807D01*
X44784350Y-61732075D01*
X44681850Y-61677287D01*
X44570630Y-61643549D01*
X44454965Y-61632157D01*
X44025035Y-61632157D01*
X43909370Y-61643549D01*
X43798150Y-61677287D01*
X43695650Y-61732075D01*
X43605807Y-61805807D01*
X43532075Y-61895650D01*
X43519594Y-61919000D01*
X42990658Y-61919000D01*
X42915309Y-61843651D01*
X42962696Y-61818322D01*
X43020711Y-61770711D01*
X43068322Y-61712696D01*
X43103701Y-61646508D01*
X43125487Y-61574689D01*
X43132843Y-61500000D01*
X43132843Y-60500000D01*
X43125487Y-60425311D01*
X43103701Y-60353492D01*
X43068322Y-60287304D01*
X43020711Y-60229289D01*
X42962696Y-60181678D01*
X42896508Y-60146299D01*
X42824689Y-60124513D01*
X42750000Y-60117157D01*
X41750000Y-60117157D01*
X41675311Y-60124513D01*
X41603492Y-60146299D01*
X41537304Y-60181678D01*
X41479289Y-60229289D01*
X41431678Y-60287304D01*
X41396299Y-60353492D01*
X41374513Y-60425311D01*
X41367157Y-60500000D01*
X41367157Y-61500000D01*
X41374513Y-61574689D01*
X41396299Y-61646508D01*
X41431678Y-61712696D01*
X41479289Y-61770711D01*
X41537304Y-61818322D01*
X41552108Y-61826235D01*
X41400000Y-61978342D01*
X40590648Y-61168991D01*
X40571017Y-61149360D01*
X40552817Y-61127183D01*
X40464348Y-61054579D01*
X40363415Y-61000629D01*
X40253896Y-60967407D01*
X40168540Y-60959000D01*
X40140000Y-60956189D01*
X40111460Y-60959000D01*
X38565572Y-60959000D01*
X38456180Y-60795283D01*
X38284717Y-60623820D01*
X38083097Y-60489102D01*
X37859069Y-60396307D01*
X37621243Y-60349000D01*
X37378757Y-60349000D01*
X37140931Y-60396307D01*
X36916903Y-60489102D01*
X36715283Y-60623820D01*
X36543820Y-60795283D01*
X36409102Y-60996903D01*
X36316307Y-61220931D01*
X36269000Y-61458757D01*
X36269000Y-61701243D01*
X36316307Y-61939069D01*
X36409102Y-62163097D01*
X36543820Y-62364717D01*
X36715283Y-62536180D01*
X36916903Y-62670898D01*
X37140931Y-62763693D01*
X37378757Y-62811000D01*
X37621243Y-62811000D01*
X37859069Y-62763693D01*
X38083097Y-62670898D01*
X38284717Y-62536180D01*
X38456180Y-62364717D01*
X38590898Y-62163097D01*
X38608335Y-62121000D01*
X39899343Y-62121000D01*
X40919001Y-63140659D01*
X40919000Y-65471460D01*
X40916189Y-65500000D01*
X40919000Y-65528539D01*
X40927407Y-65613895D01*
X40960629Y-65723414D01*
X41014579Y-65824347D01*
X41087183Y-65912817D01*
X41109359Y-65931017D01*
X41542341Y-66364000D01*
X29506369Y-66364000D01*
X27580990Y-64438622D01*
X27580990Y-60147694D01*
X27647275Y-60167801D01*
X27800000Y-60182843D01*
X29300000Y-60182843D01*
X29452725Y-60167801D01*
X29599581Y-60123253D01*
X29734924Y-60050910D01*
X29853554Y-59953554D01*
X29950910Y-59834924D01*
X30023253Y-59699581D01*
X30067801Y-59552725D01*
X30072403Y-59506000D01*
X30427597Y-59506000D01*
X30432199Y-59552725D01*
X30476747Y-59699581D01*
X30549090Y-59834924D01*
X30646446Y-59953554D01*
X30765076Y-60050910D01*
X30900419Y-60123253D01*
X31047275Y-60167801D01*
X31200000Y-60182843D01*
X32700000Y-60182843D01*
X32852725Y-60167801D01*
X32999581Y-60123253D01*
X33134924Y-60050910D01*
X33253554Y-59953554D01*
X33350910Y-59834924D01*
X33423253Y-59699581D01*
X33467801Y-59552725D01*
X33472403Y-59506000D01*
X36360599Y-59506000D01*
X36409102Y-59623097D01*
X36543820Y-59824717D01*
X36715283Y-59996180D01*
X36916903Y-60130898D01*
X37140931Y-60223693D01*
X37378757Y-60271000D01*
X37621243Y-60271000D01*
X37859069Y-60223693D01*
X38083097Y-60130898D01*
X38284717Y-59996180D01*
X38456180Y-59824717D01*
X38590898Y-59623097D01*
X38683693Y-59399069D01*
X38731000Y-59161243D01*
X38731000Y-58918757D01*
X38683693Y-58680931D01*
X38590898Y-58456903D01*
X38456180Y-58255283D01*
X38284717Y-58083820D01*
X38083097Y-57949102D01*
X37859069Y-57856307D01*
X37621243Y-57809000D01*
X37378757Y-57809000D01*
X37140931Y-57856307D01*
X36916903Y-57949102D01*
X36715283Y-58083820D01*
X36543820Y-58255283D01*
X36409102Y-58456903D01*
X36393736Y-58494000D01*
X33472403Y-58494000D01*
X33467801Y-58447275D01*
X33423253Y-58300419D01*
X33350910Y-58165076D01*
X33253554Y-58046446D01*
X33134924Y-57949090D01*
X32999581Y-57876747D01*
X32852725Y-57832199D01*
X32700000Y-57817157D01*
X31200000Y-57817157D01*
X31047275Y-57832199D01*
X30900419Y-57876747D01*
X30765076Y-57949090D01*
X30646446Y-58046446D01*
X30549090Y-58165076D01*
X30476747Y-58300419D01*
X30432199Y-58447275D01*
X30427597Y-58494000D01*
X30072403Y-58494000D01*
X30067801Y-58447275D01*
X30023253Y-58300419D01*
X29950910Y-58165076D01*
X29853554Y-58046446D01*
X29734924Y-57949090D01*
X29599581Y-57876747D01*
X29452725Y-57832199D01*
X29300000Y-57817157D01*
X27800000Y-57817157D01*
X27661578Y-57830790D01*
X28661369Y-56831000D01*
X34569010Y-56831000D01*
X34600000Y-56834052D01*
X34630990Y-56831000D01*
X34630998Y-56831000D01*
X34723698Y-56821870D01*
X34842642Y-56785789D01*
X34952261Y-56727196D01*
X35048343Y-56648343D01*
X35068105Y-56624263D01*
X36042368Y-55650000D01*
X36267157Y-55650000D01*
X36267157Y-57350000D01*
X36274513Y-57424689D01*
X36296299Y-57496508D01*
X36331678Y-57562696D01*
X36379289Y-57620711D01*
X36437304Y-57668322D01*
X36503492Y-57703701D01*
X36575311Y-57725487D01*
X36650000Y-57732843D01*
X38350000Y-57732843D01*
X38424689Y-57725487D01*
X38496508Y-57703701D01*
X38562696Y-57668322D01*
X38620711Y-57620711D01*
X38668322Y-57562696D01*
X38703701Y-57496508D01*
X38725487Y-57424689D01*
X38732843Y-57350000D01*
X38732843Y-57041000D01*
X40019278Y-57041000D01*
X40037183Y-57062817D01*
X40125652Y-57135421D01*
X40226585Y-57189371D01*
X40327741Y-57220056D01*
X40336104Y-57222593D01*
X40450000Y-57233811D01*
X40478540Y-57231000D01*
X43540746Y-57231000D01*
X43587864Y-57269669D01*
X43669001Y-57313038D01*
X43669000Y-58262153D01*
X43615807Y-58305807D01*
X43542075Y-58395650D01*
X43489505Y-58494000D01*
X43132252Y-58494000D01*
X43125487Y-58425311D01*
X43103701Y-58353492D01*
X43068322Y-58287304D01*
X43020711Y-58229289D01*
X42962696Y-58181678D01*
X42896508Y-58146299D01*
X42824689Y-58124513D01*
X42750000Y-58117157D01*
X41750000Y-58117157D01*
X41675311Y-58124513D01*
X41603492Y-58146299D01*
X41537304Y-58181678D01*
X41479289Y-58229289D01*
X41431678Y-58287304D01*
X41396299Y-58353492D01*
X41374513Y-58425311D01*
X41367157Y-58500000D01*
X41367157Y-59500000D01*
X41374513Y-59574689D01*
X41396299Y-59646508D01*
X41431678Y-59712696D01*
X41479289Y-59770711D01*
X41537304Y-59818322D01*
X41603492Y-59853701D01*
X41675311Y-59875487D01*
X41750000Y-59882843D01*
X42750000Y-59882843D01*
X42824689Y-59875487D01*
X42896508Y-59853701D01*
X42962696Y-59818322D01*
X43020711Y-59770711D01*
X43068322Y-59712696D01*
X43103701Y-59646508D01*
X43125487Y-59574689D01*
X43132252Y-59506000D01*
X43489505Y-59506000D01*
X43542075Y-59604350D01*
X43615807Y-59694193D01*
X43705650Y-59767925D01*
X43808150Y-59822713D01*
X43919370Y-59856451D01*
X44035035Y-59867843D01*
X44464965Y-59867843D01*
X44580630Y-59856451D01*
X44691850Y-59822713D01*
X44794350Y-59767925D01*
X44884193Y-59694193D01*
X44957925Y-59604350D01*
X45012713Y-59501850D01*
X45046451Y-59390630D01*
X45057843Y-59274965D01*
X45057843Y-58725035D01*
X45046451Y-58609370D01*
X45012713Y-58498150D01*
X44957925Y-58395650D01*
X44884193Y-58305807D01*
X44831000Y-58262153D01*
X44831000Y-57318383D01*
X44922136Y-57269669D01*
X45005914Y-57200914D01*
X45074669Y-57117136D01*
X45125759Y-57021554D01*
X45157220Y-56917841D01*
X45167843Y-56809984D01*
X45167843Y-56490016D01*
X45157220Y-56382159D01*
X45125759Y-56278446D01*
X45074669Y-56182864D01*
X45005914Y-56099086D01*
X44922136Y-56030331D01*
X44826554Y-55979241D01*
X44722841Y-55947780D01*
X44614984Y-55937157D01*
X43895016Y-55937157D01*
X43787159Y-55947780D01*
X43683446Y-55979241D01*
X43587864Y-56030331D01*
X43540746Y-56069000D01*
X40690722Y-56069000D01*
X40672817Y-56047183D01*
X40584348Y-55974579D01*
X40483415Y-55920629D01*
X40373896Y-55887407D01*
X40288540Y-55879000D01*
X40260000Y-55876189D01*
X40231460Y-55879000D01*
X38732843Y-55879000D01*
X38732843Y-55650000D01*
X38725487Y-55575311D01*
X38703701Y-55503492D01*
X38668322Y-55437304D01*
X38620711Y-55379289D01*
X38562696Y-55331678D01*
X38496508Y-55296299D01*
X38424689Y-55274513D01*
X38350000Y-55267157D01*
X36650000Y-55267157D01*
X36575311Y-55274513D01*
X36503492Y-55296299D01*
X36437304Y-55331678D01*
X36379289Y-55379289D01*
X36331678Y-55437304D01*
X36296299Y-55503492D01*
X36274513Y-55575311D01*
X36267157Y-55650000D01*
X36042368Y-55650000D01*
X38000000Y-53692369D01*
X39471899Y-55164268D01*
X39491657Y-55188343D01*
X39587739Y-55267196D01*
X39697358Y-55325789D01*
X39816302Y-55361870D01*
X39909002Y-55371000D01*
X39909011Y-55371000D01*
X39939999Y-55374052D01*
X39970987Y-55371000D01*
X40053187Y-55371000D01*
X40055807Y-55374193D01*
X40145650Y-55447925D01*
X40248150Y-55502713D01*
X40359370Y-55536451D01*
X40475035Y-55547843D01*
X41024965Y-55547843D01*
X41140630Y-55536451D01*
X41251850Y-55502713D01*
X41354350Y-55447925D01*
X41435899Y-55381000D01*
X41803187Y-55381000D01*
X41805807Y-55384193D01*
X41895650Y-55457925D01*
X41998150Y-55512713D01*
X42109370Y-55546451D01*
X42225035Y-55557843D01*
X42774965Y-55557843D01*
X42890630Y-55546451D01*
X43001850Y-55512713D01*
X43104350Y-55457925D01*
X43194193Y-55384193D01*
X43196813Y-55381000D01*
X43609063Y-55381000D01*
X43683446Y-55420759D01*
X43787159Y-55452220D01*
X43895016Y-55462843D01*
X44614984Y-55462843D01*
X44722841Y-55452220D01*
X44826554Y-55420759D01*
X44922136Y-55369669D01*
X45005914Y-55300914D01*
X45074669Y-55217136D01*
X45125759Y-55121554D01*
X45157220Y-55017841D01*
X45167843Y-54909984D01*
X45167843Y-54590016D01*
X45332157Y-54590016D01*
X45332157Y-54909984D01*
X45342780Y-55017841D01*
X45374241Y-55121554D01*
X45425331Y-55217136D01*
X45494086Y-55300914D01*
X45577864Y-55369669D01*
X45673446Y-55420759D01*
X45777159Y-55452220D01*
X45885016Y-55462843D01*
X46604984Y-55462843D01*
X46712841Y-55452220D01*
X46816554Y-55420759D01*
X46912136Y-55369669D01*
X46959254Y-55331000D01*
X47269594Y-55331000D01*
X47282075Y-55354350D01*
X47355807Y-55444193D01*
X47445650Y-55517925D01*
X47548150Y-55572713D01*
X47659370Y-55606451D01*
X47775035Y-55617843D01*
X48204965Y-55617843D01*
X48320630Y-55606451D01*
X48431850Y-55572713D01*
X48534350Y-55517925D01*
X48624193Y-55444193D01*
X48697925Y-55354350D01*
X48750000Y-55256926D01*
X48802075Y-55354350D01*
X48875807Y-55444193D01*
X48965650Y-55517925D01*
X49068150Y-55572713D01*
X49179370Y-55606451D01*
X49295035Y-55617843D01*
X49724965Y-55617843D01*
X49840630Y-55606451D01*
X49951850Y-55572713D01*
X50054350Y-55517925D01*
X50144193Y-55444193D01*
X50217925Y-55354350D01*
X50230406Y-55331000D01*
X50782157Y-55331000D01*
X50782157Y-55385001D01*
X50794317Y-55508462D01*
X50830329Y-55627179D01*
X50888810Y-55736589D01*
X50967512Y-55832488D01*
X51063411Y-55911190D01*
X51172821Y-55969671D01*
X51291538Y-56005683D01*
X51414999Y-56017843D01*
X52585001Y-56017843D01*
X52708462Y-56005683D01*
X52827179Y-55969671D01*
X52936589Y-55911190D01*
X53032488Y-55832488D01*
X53111190Y-55736589D01*
X53169671Y-55627179D01*
X53205683Y-55508462D01*
X53217843Y-55385001D01*
X53217843Y-55331000D01*
X54010240Y-55331000D01*
X54030325Y-55397211D01*
X54088802Y-55506612D01*
X54167497Y-55602503D01*
X54263388Y-55681198D01*
X54372789Y-55739675D01*
X54491497Y-55775684D01*
X54614948Y-55787843D01*
X57385052Y-55787843D01*
X57508503Y-55775684D01*
X57627211Y-55739675D01*
X57736612Y-55681198D01*
X57832503Y-55602503D01*
X57911198Y-55506612D01*
X57969675Y-55397211D01*
X58005684Y-55278503D01*
X58017843Y-55155052D01*
X58017843Y-54344948D01*
X58005684Y-54221497D01*
X57969675Y-54102789D01*
X57911198Y-53993388D01*
X57832503Y-53897497D01*
X57736612Y-53818802D01*
X57627211Y-53760325D01*
X57508503Y-53724316D01*
X57385052Y-53712157D01*
X54614948Y-53712157D01*
X54491497Y-53724316D01*
X54372789Y-53760325D01*
X54263388Y-53818802D01*
X54167497Y-53897497D01*
X54088802Y-53993388D01*
X54030325Y-54102789D01*
X54010240Y-54169000D01*
X53217843Y-54169000D01*
X53217843Y-54114999D01*
X53205683Y-53991538D01*
X53169671Y-53872821D01*
X53111190Y-53763411D01*
X53032488Y-53667512D01*
X52936589Y-53588810D01*
X52827179Y-53530329D01*
X52708462Y-53494317D01*
X52585001Y-53482157D01*
X51414999Y-53482157D01*
X51291538Y-53494317D01*
X51172821Y-53530329D01*
X51063411Y-53588810D01*
X50967512Y-53667512D01*
X50888810Y-53763411D01*
X50830329Y-53872821D01*
X50794317Y-53991538D01*
X50782157Y-54114999D01*
X50782157Y-54169000D01*
X50230406Y-54169000D01*
X50217925Y-54145650D01*
X50144193Y-54055807D01*
X50054350Y-53982075D01*
X49951850Y-53927287D01*
X49840630Y-53893549D01*
X49724965Y-53882157D01*
X49295035Y-53882157D01*
X49179370Y-53893549D01*
X49068150Y-53927287D01*
X48965650Y-53982075D01*
X48875807Y-54055807D01*
X48802075Y-54145650D01*
X48750000Y-54243074D01*
X48697925Y-54145650D01*
X48624193Y-54055807D01*
X48534350Y-53982075D01*
X48431850Y-53927287D01*
X48320630Y-53893549D01*
X48204965Y-53882157D01*
X47775035Y-53882157D01*
X47659370Y-53893549D01*
X47548150Y-53927287D01*
X47445650Y-53982075D01*
X47355807Y-54055807D01*
X47282075Y-54145650D01*
X47269594Y-54169000D01*
X46959254Y-54169000D01*
X46912136Y-54130331D01*
X46816554Y-54079241D01*
X46712841Y-54047780D01*
X46604984Y-54037157D01*
X45885016Y-54037157D01*
X45777159Y-54047780D01*
X45673446Y-54079241D01*
X45577864Y-54130331D01*
X45494086Y-54199086D01*
X45425331Y-54282864D01*
X45374241Y-54378446D01*
X45342780Y-54482159D01*
X45332157Y-54590016D01*
X45167843Y-54590016D01*
X45157220Y-54482159D01*
X45125759Y-54378446D01*
X45074669Y-54282864D01*
X45005914Y-54199086D01*
X44922136Y-54130331D01*
X44826554Y-54079241D01*
X44722841Y-54047780D01*
X44614984Y-54037157D01*
X43895016Y-54037157D01*
X43787159Y-54047780D01*
X43683446Y-54079241D01*
X43609063Y-54119000D01*
X43196813Y-54119000D01*
X43194193Y-54115807D01*
X43104350Y-54042075D01*
X43001850Y-53987287D01*
X42890630Y-53953549D01*
X42774965Y-53942157D01*
X42225035Y-53942157D01*
X42109370Y-53953549D01*
X41998150Y-53987287D01*
X41895650Y-54042075D01*
X41805807Y-54115807D01*
X41803187Y-54119000D01*
X41455020Y-54119000D01*
X41444193Y-54105807D01*
X41354350Y-54032075D01*
X41251850Y-53977287D01*
X41140630Y-53943549D01*
X41024965Y-53932157D01*
X40475035Y-53932157D01*
X40359370Y-53943549D01*
X40248150Y-53977287D01*
X40145650Y-54032075D01*
X40134003Y-54041634D01*
X38631000Y-52538632D01*
X38631000Y-51916566D01*
X38631870Y-51913698D01*
X38641000Y-51820998D01*
X38641000Y-51820988D01*
X38644052Y-51790001D01*
X38641000Y-51759013D01*
X38641000Y-51631000D01*
X72831525Y-51631000D01*
X73369000Y-52168476D01*
X73369001Y-55272219D01*
X73355327Y-55297800D01*
X73319316Y-55416511D01*
X73307157Y-55539966D01*
X73307157Y-58410034D01*
X73319316Y-58533489D01*
X73355327Y-58652200D01*
X73413805Y-58761604D01*
X73492502Y-58857498D01*
X73588396Y-58936195D01*
X73697800Y-58994673D01*
X73816511Y-59030684D01*
X73939966Y-59042843D01*
X75060034Y-59042843D01*
X75183489Y-59030684D01*
X75302200Y-58994673D01*
X75411604Y-58936195D01*
X75507498Y-58857498D01*
X75586195Y-58761604D01*
X75644673Y-58652200D01*
X75680684Y-58533489D01*
X75692843Y-58410034D01*
X75692843Y-57856000D01*
X77110079Y-57856000D01*
X78586439Y-59332361D01*
X78614025Y-59365975D01*
X78647637Y-59393559D01*
X78748174Y-59476068D01*
X78792948Y-59500000D01*
X78748174Y-59523932D01*
X78732920Y-59536451D01*
X78614025Y-59634025D01*
X78586439Y-59667639D01*
X77110079Y-61144000D01*
X75692843Y-61144000D01*
X75692843Y-60589966D01*
X75680684Y-60466511D01*
X75644673Y-60347800D01*
X75586195Y-60238396D01*
X75507498Y-60142502D01*
X75411604Y-60063805D01*
X75302200Y-60005327D01*
X75183489Y-59969316D01*
X75060034Y-59957157D01*
X73939966Y-59957157D01*
X73816511Y-59969316D01*
X73697800Y-60005327D01*
X73588396Y-60063805D01*
X73492502Y-60142502D01*
X73413805Y-60238396D01*
X73355327Y-60347800D01*
X73319316Y-60466511D01*
X73307157Y-60589966D01*
X73307157Y-61144000D01*
X69889922Y-61144000D01*
X69381000Y-60635079D01*
X69381000Y-58190903D01*
X69436589Y-58161190D01*
X69532488Y-58082488D01*
X69611190Y-57986589D01*
X69669671Y-57877179D01*
X69705683Y-57758462D01*
X69717843Y-57635001D01*
X69717843Y-56364999D01*
X69705683Y-56241538D01*
X69669671Y-56122821D01*
X69611190Y-56013411D01*
X69532488Y-55917512D01*
X69436589Y-55838810D01*
X69327179Y-55780329D01*
X69208462Y-55744317D01*
X69085001Y-55732157D01*
X67914999Y-55732157D01*
X67791538Y-55744317D01*
X67672821Y-55780329D01*
X67563411Y-55838810D01*
X67467512Y-55917512D01*
X67388810Y-56013411D01*
X67332371Y-56119000D01*
X66052843Y-56119000D01*
X66052843Y-54740410D01*
X66040694Y-54617064D01*
X66004716Y-54498457D01*
X65946289Y-54389149D01*
X65867660Y-54293340D01*
X65771851Y-54214711D01*
X65662543Y-54156284D01*
X65543936Y-54120306D01*
X65420590Y-54108157D01*
X59599410Y-54108157D01*
X59476064Y-54120306D01*
X59357457Y-54156284D01*
X59248149Y-54214711D01*
X59152340Y-54293340D01*
X59073711Y-54389149D01*
X59015284Y-54498457D01*
X58979306Y-54617064D01*
X58967157Y-54740410D01*
X58967157Y-59331590D01*
X58979306Y-59454936D01*
X59015284Y-59573543D01*
X59073711Y-59682851D01*
X59152340Y-59778660D01*
X59248149Y-59857289D01*
X59357457Y-59915716D01*
X59476064Y-59951694D01*
X59599410Y-59963843D01*
X65420590Y-59963843D01*
X65543936Y-59951694D01*
X65662543Y-59915716D01*
X65771851Y-59857289D01*
X65867660Y-59778660D01*
X65946289Y-59682851D01*
X66004716Y-59573543D01*
X66040694Y-59454936D01*
X66052843Y-59331590D01*
X66052843Y-57881000D01*
X67332371Y-57881000D01*
X67388810Y-57986589D01*
X67467512Y-58082488D01*
X67563411Y-58161190D01*
X67619001Y-58190903D01*
X67619000Y-60956730D01*
X67614738Y-61000000D01*
X67619000Y-61043270D01*
X67619000Y-61043272D01*
X67631748Y-61172705D01*
X67675394Y-61316585D01*
X67682125Y-61338774D01*
X67763932Y-61491825D01*
X67782606Y-61514579D01*
X67874025Y-61625975D01*
X67907644Y-61653565D01*
X68129079Y-61875000D01*
X67907644Y-62096435D01*
X67874025Y-62124025D01*
X67813558Y-62197706D01*
X67763932Y-62258175D01*
X67701140Y-62375652D01*
X67682125Y-62411226D01*
X67631748Y-62577295D01*
X67619663Y-62700000D01*
X67614738Y-62750000D01*
X67619000Y-62793270D01*
X67619001Y-65512946D01*
X67552512Y-65567512D01*
X67473810Y-65663411D01*
X67415329Y-65772821D01*
X67379317Y-65891538D01*
X67367157Y-66014999D01*
X67367157Y-66030000D01*
X66052843Y-66030000D01*
X66052843Y-64490410D01*
X66040694Y-64367064D01*
X66004716Y-64248457D01*
X65946289Y-64139149D01*
X65867660Y-64043340D01*
X65771851Y-63964711D01*
X65662543Y-63906284D01*
X65543936Y-63870306D01*
X65420590Y-63858157D01*
X59599410Y-63858157D01*
X59476064Y-63870306D01*
X59357457Y-63906284D01*
X59248149Y-63964711D01*
X59152340Y-64043340D01*
X59073711Y-64139149D01*
X59015284Y-64248457D01*
X58979306Y-64367064D01*
X58967157Y-64490410D01*
X58967157Y-69081590D01*
X58979306Y-69204936D01*
X59015284Y-69323543D01*
X59073711Y-69432851D01*
X59152340Y-69528660D01*
X59248149Y-69607289D01*
X59357457Y-69665716D01*
X59476064Y-69701694D01*
X59599410Y-69713843D01*
X65420590Y-69713843D01*
X65543936Y-69701694D01*
X65662543Y-69665716D01*
X65771851Y-69607289D01*
X65867660Y-69528660D01*
X65946289Y-69432851D01*
X66004716Y-69323543D01*
X66040694Y-69204936D01*
X66052843Y-69081590D01*
X66052843Y-68829511D01*
X84769000Y-68829511D01*
X84769000Y-69170489D01*
X84835521Y-69504914D01*
X84966007Y-69819936D01*
X85155444Y-70103448D01*
X85396552Y-70344556D01*
X85680064Y-70533993D01*
X85995086Y-70664479D01*
X86329511Y-70731000D01*
X86670489Y-70731000D01*
X87004914Y-70664479D01*
X87319936Y-70533993D01*
X87603448Y-70344556D01*
X87844556Y-70103448D01*
X88033993Y-69819936D01*
X88164479Y-69504914D01*
X88231000Y-69170489D01*
X88231000Y-68829511D01*
X88164479Y-68495086D01*
X88033993Y-68180064D01*
X87844556Y-67896552D01*
X87603448Y-67655444D01*
X87319936Y-67466007D01*
X87004914Y-67335521D01*
X86670489Y-67269000D01*
X86329511Y-67269000D01*
X85995086Y-67335521D01*
X85680064Y-67466007D01*
X85396552Y-67655444D01*
X85155444Y-67896552D01*
X84966007Y-68180064D01*
X84835521Y-68495086D01*
X84769000Y-68829511D01*
X66052843Y-68829511D01*
X66052843Y-67542000D01*
X67478251Y-67542000D01*
X67552512Y-67632488D01*
X67648411Y-67711190D01*
X67757821Y-67769671D01*
X67876538Y-67805683D01*
X67999999Y-67817843D01*
X69270001Y-67817843D01*
X69393462Y-67805683D01*
X69512179Y-67769671D01*
X69621589Y-67711190D01*
X69717488Y-67632488D01*
X69796190Y-67536589D01*
X69854671Y-67427179D01*
X69890683Y-67308462D01*
X69902843Y-67185001D01*
X69902843Y-66014999D01*
X69890683Y-65891538D01*
X69854671Y-65772821D01*
X69796190Y-65663411D01*
X69717488Y-65567512D01*
X69621589Y-65488810D01*
X69512179Y-65430329D01*
X69393462Y-65394317D01*
X69381000Y-65393090D01*
X69381000Y-63114921D01*
X69589922Y-62906000D01*
X73307157Y-62906000D01*
X73307157Y-63460034D01*
X73319316Y-63583489D01*
X73355327Y-63702200D01*
X73413805Y-63811604D01*
X73492502Y-63907498D01*
X73588396Y-63986195D01*
X73697800Y-64044673D01*
X73816511Y-64080684D01*
X73939966Y-64092843D01*
X73994000Y-64092843D01*
X73994000Y-64475154D01*
X73991553Y-64500000D01*
X73994000Y-64524846D01*
X73994000Y-64524853D01*
X74001322Y-64599192D01*
X74030255Y-64694574D01*
X74077241Y-64782479D01*
X74140473Y-64859527D01*
X74159785Y-64875376D01*
X75024628Y-65740220D01*
X75040473Y-65759527D01*
X75117521Y-65822759D01*
X75186309Y-65859527D01*
X75205425Y-65869745D01*
X75300806Y-65898678D01*
X75310694Y-65899652D01*
X75375146Y-65906000D01*
X75375153Y-65906000D01*
X75399999Y-65908447D01*
X75424845Y-65906000D01*
X76117748Y-65906000D01*
X76124513Y-65974689D01*
X76146299Y-66046508D01*
X76181678Y-66112696D01*
X76229289Y-66170711D01*
X76287304Y-66218322D01*
X76353492Y-66253701D01*
X76425311Y-66275487D01*
X76500000Y-66282843D01*
X77500000Y-66282843D01*
X77574689Y-66275487D01*
X77646508Y-66253701D01*
X77712696Y-66218322D01*
X77770711Y-66170711D01*
X77818322Y-66112696D01*
X77853701Y-66046508D01*
X77875487Y-65974689D01*
X77882843Y-65900000D01*
X77882843Y-64900000D01*
X77875487Y-64825311D01*
X77853701Y-64753492D01*
X77818322Y-64687304D01*
X77770711Y-64629289D01*
X77712696Y-64581678D01*
X77646508Y-64546299D01*
X77574689Y-64524513D01*
X77500000Y-64517157D01*
X76500000Y-64517157D01*
X76425311Y-64524513D01*
X76353492Y-64546299D01*
X76287304Y-64581678D01*
X76229289Y-64629289D01*
X76181678Y-64687304D01*
X76146299Y-64753492D01*
X76124513Y-64825311D01*
X76117748Y-64894000D01*
X75609592Y-64894000D01*
X75006000Y-64290409D01*
X75006000Y-64092843D01*
X75060034Y-64092843D01*
X75183489Y-64080684D01*
X75302200Y-64044673D01*
X75411604Y-63986195D01*
X75507498Y-63907498D01*
X75586195Y-63811604D01*
X75644673Y-63702200D01*
X75680684Y-63583489D01*
X75692843Y-63460034D01*
X75692843Y-62906000D01*
X77431730Y-62906000D01*
X77475000Y-62910262D01*
X77518270Y-62906000D01*
X77518273Y-62906000D01*
X77647706Y-62893252D01*
X77813775Y-62842875D01*
X77966825Y-62761068D01*
X78100975Y-62650975D01*
X78128566Y-62617355D01*
X79604922Y-61141000D01*
X81295079Y-61141000D01*
X81746438Y-61592360D01*
X81774025Y-61625975D01*
X81840022Y-61680137D01*
X81908174Y-61736068D01*
X82038647Y-61805807D01*
X82061225Y-61817875D01*
X82227294Y-61868252D01*
X82356727Y-61881000D01*
X82356729Y-61881000D01*
X82399999Y-61885262D01*
X82443269Y-61881000D01*
X82686903Y-61881000D01*
X82746446Y-61953554D01*
X82865076Y-62050910D01*
X83000419Y-62123253D01*
X83147275Y-62167801D01*
X83300000Y-62182843D01*
X84800000Y-62182843D01*
X84952725Y-62167801D01*
X85099581Y-62123253D01*
X85234924Y-62050910D01*
X85353554Y-61953554D01*
X85413097Y-61881000D01*
X86086903Y-61881000D01*
X86146446Y-61953554D01*
X86265076Y-62050910D01*
X86400419Y-62123253D01*
X86547275Y-62167801D01*
X86700000Y-62182843D01*
X88200000Y-62182843D01*
X88352725Y-62167801D01*
X88499581Y-62123253D01*
X88634924Y-62050910D01*
X88753554Y-61953554D01*
X88850910Y-61834924D01*
X88923253Y-61699581D01*
X88967801Y-61552725D01*
X88982843Y-61400000D01*
X88982843Y-60600000D01*
X88967801Y-60447275D01*
X88923253Y-60300419D01*
X88850910Y-60165076D01*
X88753554Y-60046446D01*
X88634924Y-59949090D01*
X88499581Y-59876747D01*
X88352725Y-59832199D01*
X88200000Y-59817157D01*
X86700000Y-59817157D01*
X86547275Y-59832199D01*
X86400419Y-59876747D01*
X86265076Y-59949090D01*
X86146446Y-60046446D01*
X86086903Y-60119000D01*
X85413097Y-60119000D01*
X85353554Y-60046446D01*
X85234924Y-59949090D01*
X85099581Y-59876747D01*
X84952725Y-59832199D01*
X84800000Y-59817157D01*
X83300000Y-59817157D01*
X83147275Y-59832199D01*
X83000419Y-59876747D01*
X82865076Y-59949090D01*
X82746446Y-60046446D01*
X82722070Y-60076148D01*
X82313565Y-59667644D01*
X82285975Y-59634025D01*
X82151825Y-59523932D01*
X82107051Y-59500000D01*
X82151825Y-59476068D01*
X82285975Y-59365975D01*
X82313565Y-59332356D01*
X82722070Y-58923852D01*
X82746446Y-58953554D01*
X82865076Y-59050910D01*
X83000419Y-59123253D01*
X83147275Y-59167801D01*
X83300000Y-59182843D01*
X84800000Y-59182843D01*
X84952725Y-59167801D01*
X85099581Y-59123253D01*
X85234924Y-59050910D01*
X85353554Y-58953554D01*
X85413097Y-58881000D01*
X86086903Y-58881000D01*
X86146446Y-58953554D01*
X86265076Y-59050910D01*
X86400419Y-59123253D01*
X86547275Y-59167801D01*
X86700000Y-59182843D01*
X88200000Y-59182843D01*
X88352725Y-59167801D01*
X88499581Y-59123253D01*
X88634924Y-59050910D01*
X88753554Y-58953554D01*
X88850910Y-58834924D01*
X88923253Y-58699581D01*
X88967801Y-58552725D01*
X88982843Y-58400000D01*
X88982843Y-57600000D01*
X88967801Y-57447275D01*
X88923253Y-57300419D01*
X88850910Y-57165076D01*
X88753554Y-57046446D01*
X88634924Y-56949090D01*
X88499581Y-56876747D01*
X88352725Y-56832199D01*
X88200000Y-56817157D01*
X86700000Y-56817157D01*
X86547275Y-56832199D01*
X86400419Y-56876747D01*
X86265076Y-56949090D01*
X86146446Y-57046446D01*
X86086903Y-57119000D01*
X85413097Y-57119000D01*
X85353554Y-57046446D01*
X85234924Y-56949090D01*
X85099581Y-56876747D01*
X84952725Y-56832199D01*
X84800000Y-56817157D01*
X83300000Y-56817157D01*
X83147275Y-56832199D01*
X83000419Y-56876747D01*
X82865076Y-56949090D01*
X82746446Y-57046446D01*
X82686903Y-57119000D01*
X82443269Y-57119000D01*
X82399999Y-57114738D01*
X82356729Y-57119000D01*
X82356727Y-57119000D01*
X82227294Y-57131748D01*
X82061225Y-57182125D01*
X81908174Y-57263932D01*
X81841709Y-57318479D01*
X81774025Y-57374025D01*
X81746438Y-57407640D01*
X81295079Y-57859000D01*
X79604922Y-57859000D01*
X78128566Y-56382645D01*
X78100975Y-56349025D01*
X77966825Y-56238932D01*
X77813775Y-56157125D01*
X77647706Y-56106748D01*
X77518273Y-56094000D01*
X77518270Y-56094000D01*
X77475000Y-56089738D01*
X77431730Y-56094000D01*
X75692843Y-56094000D01*
X75692843Y-55539966D01*
X75680684Y-55416511D01*
X75644673Y-55297800D01*
X75631000Y-55272220D01*
X75631000Y-51755547D01*
X75636471Y-51699999D01*
X75631000Y-51644451D01*
X75631000Y-51644442D01*
X75614635Y-51478285D01*
X75549963Y-51265091D01*
X75444942Y-51068610D01*
X75303607Y-50896393D01*
X75260455Y-50860979D01*
X74060452Y-49660977D01*
X73931389Y-49555058D01*
X73734908Y-49450037D01*
X73521714Y-49385365D01*
X73300000Y-49363529D01*
X73244450Y-49369000D01*
X43708967Y-49369000D01*
X43744673Y-49302200D01*
X43780684Y-49183489D01*
X43792843Y-49060034D01*
X43792843Y-47939966D01*
X43781965Y-47829511D01*
X84519000Y-47829511D01*
X84519000Y-48170489D01*
X84585521Y-48504914D01*
X84716007Y-48819936D01*
X84905444Y-49103448D01*
X85146552Y-49344556D01*
X85430064Y-49533993D01*
X85745086Y-49664479D01*
X86079511Y-49731000D01*
X86420489Y-49731000D01*
X86754914Y-49664479D01*
X87069936Y-49533993D01*
X87353448Y-49344556D01*
X87594556Y-49103448D01*
X87783993Y-48819936D01*
X87914479Y-48504914D01*
X87981000Y-48170489D01*
X87981000Y-47829511D01*
X87914479Y-47495086D01*
X87783993Y-47180064D01*
X87594556Y-46896552D01*
X87353448Y-46655444D01*
X87069936Y-46466007D01*
X86754914Y-46335521D01*
X86420489Y-46269000D01*
X86079511Y-46269000D01*
X85745086Y-46335521D01*
X85430064Y-46466007D01*
X85146552Y-46655444D01*
X84905444Y-46896552D01*
X84716007Y-47180064D01*
X84585521Y-47495086D01*
X84519000Y-47829511D01*
X43781965Y-47829511D01*
X43780684Y-47816511D01*
X43744673Y-47697800D01*
X43686195Y-47588396D01*
X43607498Y-47492502D01*
X43511604Y-47413805D01*
X43402200Y-47355327D01*
X43283489Y-47319316D01*
X43160034Y-47307157D01*
X40289966Y-47307157D01*
X40166511Y-47319316D01*
X40047800Y-47355327D01*
X39938396Y-47413805D01*
X39842502Y-47492502D01*
X39763805Y-47588396D01*
X39747447Y-47619000D01*
X38897646Y-47619000D01*
X38881000Y-47587858D01*
X38881000Y-46456727D01*
X38868252Y-46327294D01*
X38817875Y-46161225D01*
X38797873Y-46123803D01*
X38796451Y-46109370D01*
X38762713Y-45998150D01*
X38707925Y-45895650D01*
X38634193Y-45805807D01*
X38544350Y-45732075D01*
X38441850Y-45677287D01*
X38330630Y-45643549D01*
X38214965Y-45632157D01*
X38174053Y-45632157D01*
X38172705Y-45631748D01*
X38000000Y-45614738D01*
X37827294Y-45631748D01*
X37825946Y-45632157D01*
X37785035Y-45632157D01*
X37669370Y-45643549D01*
X37558150Y-45677287D01*
X37455650Y-45732075D01*
X37365807Y-45805807D01*
X37292075Y-45895650D01*
X37237287Y-45998150D01*
X37203549Y-46109370D01*
X37202127Y-46123804D01*
X37182125Y-46161226D01*
X37131748Y-46327295D01*
X37119000Y-46456728D01*
X37119001Y-47587857D01*
X37100326Y-47622794D01*
X37064316Y-47741503D01*
X37052157Y-47864956D01*
X37052157Y-49135044D01*
X37064316Y-49258497D01*
X37100326Y-49377206D01*
X37129001Y-49430852D01*
X37129000Y-49790696D01*
X37119655Y-49802083D01*
X37034350Y-49732075D01*
X36931850Y-49677287D01*
X36820630Y-49643549D01*
X36704965Y-49632157D01*
X36664054Y-49632157D01*
X36662706Y-49631748D01*
X36533273Y-49619000D01*
X33313097Y-49619000D01*
X33253554Y-49546446D01*
X33134924Y-49449090D01*
X32999581Y-49376747D01*
X32852725Y-49332199D01*
X32700000Y-49317157D01*
X31200000Y-49317157D01*
X31047275Y-49332199D01*
X30900419Y-49376747D01*
X30765076Y-49449090D01*
X30646446Y-49546446D01*
X30586903Y-49619000D01*
X29913097Y-49619000D01*
X29853554Y-49546446D01*
X29734924Y-49449090D01*
X29599581Y-49376747D01*
X29452725Y-49332199D01*
X29300000Y-49317157D01*
X27800000Y-49317157D01*
X27647275Y-49332199D01*
X27500419Y-49376747D01*
X27365076Y-49449090D01*
X27246446Y-49546446D01*
X27149090Y-49665076D01*
X27076747Y-49800419D01*
X27032199Y-49947275D01*
X27017157Y-50100000D01*
X27017157Y-50900000D01*
X27032199Y-51052725D01*
X27076747Y-51199581D01*
X27149090Y-51334924D01*
X27246446Y-51453554D01*
X27365076Y-51550910D01*
X27500419Y-51623253D01*
X27647275Y-51667801D01*
X27800000Y-51682843D01*
X29300000Y-51682843D01*
X29452725Y-51667801D01*
X29599581Y-51623253D01*
X29734924Y-51550910D01*
X29853554Y-51453554D01*
X29913097Y-51381000D01*
X30586903Y-51381000D01*
X30646446Y-51453554D01*
X30765076Y-51550910D01*
X30900419Y-51623253D01*
X31047275Y-51667801D01*
X31200000Y-51682843D01*
X32700000Y-51682843D01*
X32852725Y-51667801D01*
X32999581Y-51623253D01*
X33134924Y-51550910D01*
X33253554Y-51453554D01*
X33313097Y-51381000D01*
X36533273Y-51381000D01*
X36662706Y-51368252D01*
X36664054Y-51367843D01*
X36704965Y-51367843D01*
X36820630Y-51356451D01*
X36931850Y-51322713D01*
X37034350Y-51267925D01*
X37119655Y-51197917D01*
X37206393Y-51303607D01*
X37378610Y-51444942D01*
X37379000Y-51445151D01*
X37379000Y-51673434D01*
X37378130Y-51676302D01*
X37369000Y-51769002D01*
X37369000Y-51769010D01*
X37365948Y-51800000D01*
X37369000Y-51830990D01*
X37369000Y-52538631D01*
X34338632Y-55569000D01*
X28430990Y-55569000D01*
X28400000Y-55565948D01*
X28369009Y-55569000D01*
X28369002Y-55569000D01*
X28276302Y-55578130D01*
X28157358Y-55614211D01*
X28047739Y-55672804D01*
X27951657Y-55751657D01*
X27931899Y-55775732D01*
X26656000Y-57051632D01*
X26656000Y-45127000D01*
X89124170Y-45127000D01*
X89344000Y-68868668D01*
M02*
