G04 #@! TF.GenerationSoftware,KiCad,Pcbnew,(5.1.5)-3*
G04 #@! TF.CreationDate,2021-01-14T16:52:46-05:00*
G04 #@! TF.ProjectId,MOSFET_test_board,4d4f5346-4554-45f7-9465-73745f626f61,rev?*
G04 #@! TF.SameCoordinates,Original*
G04 #@! TF.FileFunction,Soldermask,Bot*
G04 #@! TF.FilePolarity,Negative*
%FSLAX46Y46*%
G04 Gerber Fmt 4.6, Leading zero omitted, Abs format (unit mm)*
G04 Created by KiCad (PCBNEW (5.1.5)-3) date 2021-01-14 16:52:46*
%MOMM*%
%LPD*%
G04 APERTURE LIST*
%ADD10C,0.100000*%
G04 APERTURE END LIST*
D10*
G36*
X29728047Y-67617934D02*
G01*
X29908365Y-67653801D01*
X30163149Y-67759336D01*
X30392448Y-67912549D01*
X30587451Y-68107552D01*
X30740664Y-68336851D01*
X30846199Y-68591635D01*
X30900000Y-68862112D01*
X30900000Y-69137888D01*
X30846199Y-69408365D01*
X30740664Y-69663149D01*
X30587451Y-69892448D01*
X30392448Y-70087451D01*
X30163149Y-70240664D01*
X29908365Y-70346199D01*
X29728047Y-70382066D01*
X29637889Y-70400000D01*
X29362111Y-70400000D01*
X29271953Y-70382066D01*
X29091635Y-70346199D01*
X28836851Y-70240664D01*
X28607552Y-70087451D01*
X28412549Y-69892448D01*
X28259336Y-69663149D01*
X28153801Y-69408365D01*
X28100000Y-69137888D01*
X28100000Y-68862112D01*
X28153801Y-68591635D01*
X28259336Y-68336851D01*
X28412549Y-68107552D01*
X28607552Y-67912549D01*
X28836851Y-67759336D01*
X29091635Y-67653801D01*
X29271953Y-67617934D01*
X29362111Y-67600000D01*
X29637889Y-67600000D01*
X29728047Y-67617934D01*
G37*
G36*
X86728047Y-67617934D02*
G01*
X86908365Y-67653801D01*
X87163149Y-67759336D01*
X87392448Y-67912549D01*
X87587451Y-68107552D01*
X87740664Y-68336851D01*
X87846199Y-68591635D01*
X87900000Y-68862112D01*
X87900000Y-69137888D01*
X87846199Y-69408365D01*
X87740664Y-69663149D01*
X87587451Y-69892448D01*
X87392448Y-70087451D01*
X87163149Y-70240664D01*
X86908365Y-70346199D01*
X86728047Y-70382066D01*
X86637889Y-70400000D01*
X86362111Y-70400000D01*
X86271953Y-70382066D01*
X86091635Y-70346199D01*
X85836851Y-70240664D01*
X85607552Y-70087451D01*
X85412549Y-69892448D01*
X85259336Y-69663149D01*
X85153801Y-69408365D01*
X85100000Y-69137888D01*
X85100000Y-68862112D01*
X85153801Y-68591635D01*
X85259336Y-68336851D01*
X85412549Y-68107552D01*
X85607552Y-67912549D01*
X85836851Y-67759336D01*
X86091635Y-67653801D01*
X86271953Y-67617934D01*
X86362111Y-67600000D01*
X86637889Y-67600000D01*
X86728047Y-67617934D01*
G37*
G36*
X62607795Y-66487640D02*
G01*
X62657507Y-66497528D01*
X62712103Y-66520143D01*
X62761239Y-66552974D01*
X62803026Y-66594761D01*
X62835857Y-66643897D01*
X62858472Y-66698493D01*
X62870000Y-66756453D01*
X62870000Y-66815547D01*
X62858472Y-66873507D01*
X62835857Y-66928103D01*
X62803026Y-66977239D01*
X62761239Y-67019026D01*
X62712103Y-67051857D01*
X62657507Y-67074472D01*
X62607795Y-67084360D01*
X62599548Y-67086000D01*
X62540452Y-67086000D01*
X62532205Y-67084360D01*
X62482493Y-67074472D01*
X62427897Y-67051857D01*
X62378761Y-67019026D01*
X62336974Y-66977239D01*
X62304143Y-66928103D01*
X62281528Y-66873507D01*
X62270000Y-66815547D01*
X62270000Y-66756453D01*
X62281528Y-66698493D01*
X62304143Y-66643897D01*
X62336974Y-66594761D01*
X62378761Y-66552974D01*
X62427897Y-66520143D01*
X62482493Y-66497528D01*
X62532205Y-66487640D01*
X62540452Y-66486000D01*
X62599548Y-66486000D01*
X62607795Y-66487640D01*
G37*
G36*
X63857795Y-66487640D02*
G01*
X63907507Y-66497528D01*
X63962103Y-66520143D01*
X64011239Y-66552974D01*
X64053026Y-66594761D01*
X64085857Y-66643897D01*
X64108472Y-66698493D01*
X64120000Y-66756453D01*
X64120000Y-66815547D01*
X64108472Y-66873507D01*
X64085857Y-66928103D01*
X64053026Y-66977239D01*
X64011239Y-67019026D01*
X63962103Y-67051857D01*
X63907507Y-67074472D01*
X63857795Y-67084360D01*
X63849548Y-67086000D01*
X63790452Y-67086000D01*
X63782205Y-67084360D01*
X63732493Y-67074472D01*
X63677897Y-67051857D01*
X63628761Y-67019026D01*
X63586974Y-66977239D01*
X63554143Y-66928103D01*
X63531528Y-66873507D01*
X63520000Y-66815547D01*
X63520000Y-66756453D01*
X63531528Y-66698493D01*
X63554143Y-66643897D01*
X63586974Y-66594761D01*
X63628761Y-66552974D01*
X63677897Y-66520143D01*
X63732493Y-66497528D01*
X63782205Y-66487640D01*
X63790452Y-66486000D01*
X63849548Y-66486000D01*
X63857795Y-66487640D01*
G37*
G36*
X60107795Y-66487640D02*
G01*
X60157507Y-66497528D01*
X60212103Y-66520143D01*
X60261239Y-66552974D01*
X60303026Y-66594761D01*
X60335857Y-66643897D01*
X60358472Y-66698493D01*
X60370000Y-66756453D01*
X60370000Y-66815547D01*
X60358472Y-66873507D01*
X60335857Y-66928103D01*
X60303026Y-66977239D01*
X60261239Y-67019026D01*
X60212103Y-67051857D01*
X60157507Y-67074472D01*
X60107795Y-67084360D01*
X60099548Y-67086000D01*
X60040452Y-67086000D01*
X60032205Y-67084360D01*
X59982493Y-67074472D01*
X59927897Y-67051857D01*
X59878761Y-67019026D01*
X59836974Y-66977239D01*
X59804143Y-66928103D01*
X59781528Y-66873507D01*
X59770000Y-66815547D01*
X59770000Y-66756453D01*
X59781528Y-66698493D01*
X59804143Y-66643897D01*
X59836974Y-66594761D01*
X59878761Y-66552974D01*
X59927897Y-66520143D01*
X59982493Y-66497528D01*
X60032205Y-66487640D01*
X60040452Y-66486000D01*
X60099548Y-66486000D01*
X60107795Y-66487640D01*
G37*
G36*
X61357795Y-66487640D02*
G01*
X61407507Y-66497528D01*
X61462103Y-66520143D01*
X61511239Y-66552974D01*
X61553026Y-66594761D01*
X61585857Y-66643897D01*
X61608472Y-66698493D01*
X61620000Y-66756453D01*
X61620000Y-66815547D01*
X61608472Y-66873507D01*
X61585857Y-66928103D01*
X61553026Y-66977239D01*
X61511239Y-67019026D01*
X61462103Y-67051857D01*
X61407507Y-67074472D01*
X61357795Y-67084360D01*
X61349548Y-67086000D01*
X61290452Y-67086000D01*
X61282205Y-67084360D01*
X61232493Y-67074472D01*
X61177897Y-67051857D01*
X61128761Y-67019026D01*
X61086974Y-66977239D01*
X61054143Y-66928103D01*
X61031528Y-66873507D01*
X61020000Y-66815547D01*
X61020000Y-66756453D01*
X61031528Y-66698493D01*
X61054143Y-66643897D01*
X61086974Y-66594761D01*
X61128761Y-66552974D01*
X61177897Y-66520143D01*
X61232493Y-66497528D01*
X61282205Y-66487640D01*
X61290452Y-66486000D01*
X61349548Y-66486000D01*
X61357795Y-66487640D01*
G37*
G36*
X65107795Y-66487640D02*
G01*
X65157507Y-66497528D01*
X65212103Y-66520143D01*
X65261239Y-66552974D01*
X65303026Y-66594761D01*
X65335857Y-66643897D01*
X65358472Y-66698493D01*
X65370000Y-66756453D01*
X65370000Y-66815547D01*
X65358472Y-66873507D01*
X65335857Y-66928103D01*
X65303026Y-66977239D01*
X65261239Y-67019026D01*
X65212103Y-67051857D01*
X65157507Y-67074472D01*
X65107795Y-67084360D01*
X65099548Y-67086000D01*
X65040452Y-67086000D01*
X65032205Y-67084360D01*
X64982493Y-67074472D01*
X64927897Y-67051857D01*
X64878761Y-67019026D01*
X64836974Y-66977239D01*
X64804143Y-66928103D01*
X64781528Y-66873507D01*
X64770000Y-66815547D01*
X64770000Y-66756453D01*
X64781528Y-66698493D01*
X64804143Y-66643897D01*
X64836974Y-66594761D01*
X64878761Y-66552974D01*
X64927897Y-66520143D01*
X64982493Y-66497528D01*
X65032205Y-66487640D01*
X65040452Y-66486000D01*
X65099548Y-66486000D01*
X65107795Y-66487640D01*
G37*
G36*
X37704561Y-60703057D02*
G01*
X37762520Y-60714586D01*
X37926310Y-60782430D01*
X38073717Y-60880924D01*
X38199076Y-61006283D01*
X38297570Y-61153690D01*
X38365414Y-61317480D01*
X38400000Y-61491358D01*
X38400000Y-61668642D01*
X38365414Y-61842520D01*
X38297570Y-62006310D01*
X38199076Y-62153717D01*
X38073717Y-62279076D01*
X37926310Y-62377570D01*
X37762520Y-62445414D01*
X37704561Y-62456943D01*
X37588644Y-62480000D01*
X37411356Y-62480000D01*
X37295439Y-62456943D01*
X37237480Y-62445414D01*
X37073690Y-62377570D01*
X36926283Y-62279076D01*
X36800924Y-62153717D01*
X36702430Y-62006310D01*
X36634586Y-61842520D01*
X36600000Y-61668642D01*
X36600000Y-61491358D01*
X36634586Y-61317480D01*
X36702430Y-61153690D01*
X36800924Y-61006283D01*
X36926283Y-60880924D01*
X37073690Y-60782430D01*
X37237480Y-60714586D01*
X37295439Y-60703057D01*
X37411356Y-60680000D01*
X37588644Y-60680000D01*
X37704561Y-60703057D01*
G37*
G36*
X37704561Y-58163057D02*
G01*
X37762520Y-58174586D01*
X37926310Y-58242430D01*
X38073717Y-58340924D01*
X38199076Y-58466283D01*
X38297570Y-58613690D01*
X38365414Y-58777480D01*
X38400000Y-58951358D01*
X38400000Y-59128642D01*
X38365414Y-59302520D01*
X38297570Y-59466310D01*
X38199076Y-59613717D01*
X38073717Y-59739076D01*
X37926310Y-59837570D01*
X37762520Y-59905414D01*
X37704561Y-59916943D01*
X37588644Y-59940000D01*
X37411356Y-59940000D01*
X37295439Y-59916943D01*
X37237480Y-59905414D01*
X37073690Y-59837570D01*
X36926283Y-59739076D01*
X36800924Y-59613717D01*
X36702430Y-59466310D01*
X36634586Y-59302520D01*
X36600000Y-59128642D01*
X36600000Y-58951358D01*
X36634586Y-58777480D01*
X36702430Y-58613690D01*
X36800924Y-58466283D01*
X36926283Y-58340924D01*
X37073690Y-58242430D01*
X37237480Y-58174586D01*
X37295439Y-58163057D01*
X37411356Y-58140000D01*
X37588644Y-58140000D01*
X37704561Y-58163057D01*
G37*
G36*
X38400000Y-57400000D02*
G01*
X36600000Y-57400000D01*
X36600000Y-55600000D01*
X38400000Y-55600000D01*
X38400000Y-57400000D01*
G37*
G36*
X63857795Y-56737640D02*
G01*
X63907507Y-56747528D01*
X63962103Y-56770143D01*
X64011239Y-56802974D01*
X64053026Y-56844761D01*
X64085857Y-56893897D01*
X64108472Y-56948493D01*
X64120000Y-57006453D01*
X64120000Y-57065547D01*
X64108472Y-57123507D01*
X64085857Y-57178103D01*
X64053026Y-57227239D01*
X64011239Y-57269026D01*
X63962103Y-57301857D01*
X63907507Y-57324472D01*
X63857795Y-57334360D01*
X63849548Y-57336000D01*
X63790452Y-57336000D01*
X63782205Y-57334360D01*
X63732493Y-57324472D01*
X63677897Y-57301857D01*
X63628761Y-57269026D01*
X63586974Y-57227239D01*
X63554143Y-57178103D01*
X63531528Y-57123507D01*
X63520000Y-57065547D01*
X63520000Y-57006453D01*
X63531528Y-56948493D01*
X63554143Y-56893897D01*
X63586974Y-56844761D01*
X63628761Y-56802974D01*
X63677897Y-56770143D01*
X63732493Y-56747528D01*
X63782205Y-56737640D01*
X63790452Y-56736000D01*
X63849548Y-56736000D01*
X63857795Y-56737640D01*
G37*
G36*
X60107795Y-56737640D02*
G01*
X60157507Y-56747528D01*
X60212103Y-56770143D01*
X60261239Y-56802974D01*
X60303026Y-56844761D01*
X60335857Y-56893897D01*
X60358472Y-56948493D01*
X60370000Y-57006453D01*
X60370000Y-57065547D01*
X60358472Y-57123507D01*
X60335857Y-57178103D01*
X60303026Y-57227239D01*
X60261239Y-57269026D01*
X60212103Y-57301857D01*
X60157507Y-57324472D01*
X60107795Y-57334360D01*
X60099548Y-57336000D01*
X60040452Y-57336000D01*
X60032205Y-57334360D01*
X59982493Y-57324472D01*
X59927897Y-57301857D01*
X59878761Y-57269026D01*
X59836974Y-57227239D01*
X59804143Y-57178103D01*
X59781528Y-57123507D01*
X59770000Y-57065547D01*
X59770000Y-57006453D01*
X59781528Y-56948493D01*
X59804143Y-56893897D01*
X59836974Y-56844761D01*
X59878761Y-56802974D01*
X59927897Y-56770143D01*
X59982493Y-56747528D01*
X60032205Y-56737640D01*
X60040452Y-56736000D01*
X60099548Y-56736000D01*
X60107795Y-56737640D01*
G37*
G36*
X61357795Y-56737640D02*
G01*
X61407507Y-56747528D01*
X61462103Y-56770143D01*
X61511239Y-56802974D01*
X61553026Y-56844761D01*
X61585857Y-56893897D01*
X61608472Y-56948493D01*
X61620000Y-57006453D01*
X61620000Y-57065547D01*
X61608472Y-57123507D01*
X61585857Y-57178103D01*
X61553026Y-57227239D01*
X61511239Y-57269026D01*
X61462103Y-57301857D01*
X61407507Y-57324472D01*
X61357795Y-57334360D01*
X61349548Y-57336000D01*
X61290452Y-57336000D01*
X61282205Y-57334360D01*
X61232493Y-57324472D01*
X61177897Y-57301857D01*
X61128761Y-57269026D01*
X61086974Y-57227239D01*
X61054143Y-57178103D01*
X61031528Y-57123507D01*
X61020000Y-57065547D01*
X61020000Y-57006453D01*
X61031528Y-56948493D01*
X61054143Y-56893897D01*
X61086974Y-56844761D01*
X61128761Y-56802974D01*
X61177897Y-56770143D01*
X61232493Y-56747528D01*
X61282205Y-56737640D01*
X61290452Y-56736000D01*
X61349548Y-56736000D01*
X61357795Y-56737640D01*
G37*
G36*
X62607795Y-56737640D02*
G01*
X62657507Y-56747528D01*
X62712103Y-56770143D01*
X62761239Y-56802974D01*
X62803026Y-56844761D01*
X62835857Y-56893897D01*
X62858472Y-56948493D01*
X62870000Y-57006453D01*
X62870000Y-57065547D01*
X62858472Y-57123507D01*
X62835857Y-57178103D01*
X62803026Y-57227239D01*
X62761239Y-57269026D01*
X62712103Y-57301857D01*
X62657507Y-57324472D01*
X62607795Y-57334360D01*
X62599548Y-57336000D01*
X62540452Y-57336000D01*
X62532205Y-57334360D01*
X62482493Y-57324472D01*
X62427897Y-57301857D01*
X62378761Y-57269026D01*
X62336974Y-57227239D01*
X62304143Y-57178103D01*
X62281528Y-57123507D01*
X62270000Y-57065547D01*
X62270000Y-57006453D01*
X62281528Y-56948493D01*
X62304143Y-56893897D01*
X62336974Y-56844761D01*
X62378761Y-56802974D01*
X62427897Y-56770143D01*
X62482493Y-56747528D01*
X62532205Y-56737640D01*
X62540452Y-56736000D01*
X62599548Y-56736000D01*
X62607795Y-56737640D01*
G37*
G36*
X65107795Y-56737640D02*
G01*
X65157507Y-56747528D01*
X65212103Y-56770143D01*
X65261239Y-56802974D01*
X65303026Y-56844761D01*
X65335857Y-56893897D01*
X65358472Y-56948493D01*
X65370000Y-57006453D01*
X65370000Y-57065547D01*
X65358472Y-57123507D01*
X65335857Y-57178103D01*
X65303026Y-57227239D01*
X65261239Y-57269026D01*
X65212103Y-57301857D01*
X65157507Y-57324472D01*
X65107795Y-57334360D01*
X65099548Y-57336000D01*
X65040452Y-57336000D01*
X65032205Y-57334360D01*
X64982493Y-57324472D01*
X64927897Y-57301857D01*
X64878761Y-57269026D01*
X64836974Y-57227239D01*
X64804143Y-57178103D01*
X64781528Y-57123507D01*
X64770000Y-57065547D01*
X64770000Y-57006453D01*
X64781528Y-56948493D01*
X64804143Y-56893897D01*
X64836974Y-56844761D01*
X64878761Y-56802974D01*
X64927897Y-56770143D01*
X64982493Y-56747528D01*
X65032205Y-56737640D01*
X65040452Y-56736000D01*
X65099548Y-56736000D01*
X65107795Y-56737640D01*
G37*
G36*
X86478047Y-46617934D02*
G01*
X86658365Y-46653801D01*
X86913149Y-46759336D01*
X87142448Y-46912549D01*
X87337451Y-47107552D01*
X87490664Y-47336851D01*
X87596199Y-47591635D01*
X87650000Y-47862112D01*
X87650000Y-48137888D01*
X87596199Y-48408365D01*
X87490664Y-48663149D01*
X87337451Y-48892448D01*
X87142448Y-49087451D01*
X86913149Y-49240664D01*
X86658365Y-49346199D01*
X86478047Y-49382066D01*
X86387889Y-49400000D01*
X86112111Y-49400000D01*
X86021953Y-49382066D01*
X85841635Y-49346199D01*
X85586851Y-49240664D01*
X85357552Y-49087451D01*
X85162549Y-48892448D01*
X85009336Y-48663149D01*
X84903801Y-48408365D01*
X84850000Y-48137888D01*
X84850000Y-47862112D01*
X84903801Y-47591635D01*
X85009336Y-47336851D01*
X85162549Y-47107552D01*
X85357552Y-46912549D01*
X85586851Y-46759336D01*
X85841635Y-46653801D01*
X86021953Y-46617934D01*
X86112111Y-46600000D01*
X86387889Y-46600000D01*
X86478047Y-46617934D01*
G37*
M02*
