M48
; DRILL file {KiCad (5.1.5)-3} date 1/14/2021 4:52:48 PM
; FORMAT={-:-/ absolute / inch / decimal}
; #@! TF.CreationDate,2021-01-14T16:52:48-05:00
; #@! TF.GenerationSoftware,Kicad,Pcbnew,(5.1.5)-3
FMAT,2
INCH
T1C0.0098
T2C0.0157
T3C0.0394
T4C0.1063
%
G90
G05
T1
X2.365Y-2.2455
X2.4142Y-2.2455
X2.4634Y-2.2455
X2.5126Y-2.2455
X2.5618Y-2.2455
X2.365Y-2.6294
X2.4142Y-2.6294
X2.4634Y-2.6294
X2.5126Y-2.6294
X2.5618Y-2.6294
T2
X1.2008Y-2.5591
X1.2992Y-1.8701
X1.3583Y-2.2638
X1.3583Y-2.4606
X1.3976Y-2.0669
X1.3976Y-2.3819
X1.3976Y-2.5591
X1.3976Y-2.7559
X1.5551Y-2.2638
X1.5945Y-2.3819
X1.5945Y-2.5591
X1.5945Y-2.7559
X1.9882Y-1.8701
X1.9882Y-2.0669
X1.9882Y-2.4606
X2.185Y-1.8701
X2.185Y-2.0669
X2.185Y-2.4606
X2.3819Y-1.8701
X2.3819Y-2.4606
X2.5787Y-1.8701
X2.5787Y-2.4606
X2.7756Y-1.8701
X2.7756Y-2.0669
X2.874Y-2.3622
X2.9724Y-1.8701
X3.1693Y-1.8701
X3.1693Y-2.0669
X3.1693Y-2.2343
X3.1693Y-2.6575
X3.1693Y-2.7559
X3.3661Y-2.0669
T3
X1.4764Y-2.2244
X1.4764Y-2.3244
X1.4764Y-2.4244
T4
X1.1614Y-2.7165
X3.4055Y-2.7165
X3.3957Y-1.8898
T0
M30
